<svg xmlns="http://www.w3.org/2000/svg" viewBox="0 0 35.41 63.53"><defs><style>.cls-1{isolation:isolate;}.cls-2{fill:#73797f;}.cls-3{opacity:0.4;}.cls-20,.cls-24,.cls-29,.cls-3,.cls-32,.cls-5{mix-blend-mode:multiply;}.cls-4{fill:#fff;}.cls-6{fill:#efefef;}.cls-7{fill:#039bae;}.cls-8{fill:#6cc1b6;}.cls-9{fill:#e74425;}.cls-10{fill:#1d1c1a;}.cls-11{fill:#eed0a8;}.cls-12{fill:#fdd2ab;}.cls-13{fill:#fde852;}.cls-14{fill:#fdd7b7;}.cls-15{fill:#663f1a;}.cls-16{fill:#4674b8;}.cls-17{fill:#dd1f26;}.cls-18{fill:#2e66af;}.cls-19{fill:#b58055;}.cls-20,.cls-32{opacity:0.6;}.cls-21{fill:#3f77bb;}.cls-22{fill:#ab4e4e;}.cls-23{fill:#700f11;}.cls-24{fill:#f7b3b5;}.cls-24,.cls-29{opacity:0.5;}.cls-25{fill:#304a7d;}.cls-26{fill:#bfc3c8;}.cls-27{fill:#0f1d28;}.cls-28{fill:#2a415b;}.cls-30,.cls-32{fill:#f2c69f;}.cls-31{fill:#d5d6d5;}</style></defs><g class="cls-1"><g id="Layer_2" data-name="Layer 2"><g id="Layer_1-2" data-name="Layer 1"><polygon class="cls-2" points="7.36 5.65 13.35 6.53 13.21 7.56 7.21 6.68 7.36 5.65"/><g class="cls-3"><path class="cls-2" d="M10.53,6.54a2,2,0,0,0,.05-.42l2.77.41-.14,1-2.82-.41C10.43,6.94,10.48,6.74,10.53,6.54Z"/></g><path class="cls-4" d="M7.36,5.65l6,.88S14.21,2,11,1.7,7.36,5.65,7.36,5.65Z"/><g class="cls-5"><path class="cls-6" d="M9.21,2.07a3,3,0,0,0,2.07,3.4,2.52,2.52,0,0,0,2.17-.34,7.11,7.11,0,0,1-.1,1.4l-6-.88S7.58,3.06,9.21,2.07Z"/></g><polygon class="cls-7" points="11.45 7.3 13.21 7.56 6 56.73 5.17 55.4 3.96 56.58 11.45 7.56 11.45 7.3"/><polygon class="cls-8" points="0 55.86 7.21 6.68 9.22 6.97 1.87 56.39 1.31 54.92 0 55.86"/><polygon class="cls-9" points="11.45 7.3 11.45 7.56 3.96 56.58 3.15 55.17 1.87 56.39 9.22 6.97 11.45 7.3"/><path class="cls-10" d="M2.88,61.73l-1.13,1.8-.46-2A2.1,2.1,0,0,1,2.88,61.73Z"/><path class="cls-11" d="M1.31,54.92l.56,1.47,1.28-1.22L4,56.58,5.17,55.4,6,56.73l-3.12,5a2.1,2.1,0,0,0-1.59-.24L0,55.86Z"/><g class="cls-5"><path class="cls-11" d="M3.65,58.32C5.41,54.85,5.06,56.4,6,48.88c.92-7.33,4.46-28.84,5.45-35.94S7.6,6,6.54,11.28L7.2,6.73c1,.17,1.94.2,2.92.36s2.05.41,3.09.48L6,56.73l-3.12,5-1.13,1.8-.46-2L.51,58.06C1.2,60.68,1.89,61.79,3.65,58.32Z"/></g><path class="cls-12" d="M21.42,50.84c-.06-2.36-.24-6.1-.74-10.19.48-.06,1-.15,1.57-.27,0,0,.61,6,.61,10.46A5.21,5.21,0,0,1,21.42,50.84Z"/><path class="cls-12" d="M12.3,39.49a11.48,11.48,0,0,0,1.76.45s-.6,3.81-.88,5.91c-.15,1.08-.41,2.78-.63,4.19a7.71,7.71,0,0,1-1.42-.21C11.58,45.39,12.3,39.49,12.3,39.49Z"/><path class="cls-13" d="M22.23,53.22a3.27,3.27,0,0,0-.07.76,1.49,1.49,0,0,0-.71-.55s0-1,0-2.59a5.21,5.21,0,0,0,1.44,0c0,.64,0,1.25,0,1.8C22.82,52.64,22.34,52.57,22.23,53.22Z"/><path class="cls-13" d="M11.65,52.54c-.4,0-.67.23-.75.72,0,0,0-.63,0-.89.06-.74.14-1.61.23-2.54a7.71,7.71,0,0,0,1.42.21l-.38,2.45-.06.4A.49.49,0,0,0,11.65,52.54Z"/><path class="cls-12" d="M31.75,18.14c-.56,1.3-1.4,1.3-1.9.9a6.55,6.55,0,0,0,.56-2.52.71.71,0,0,1,1-.23A1.4,1.4,0,0,1,31.75,18.14Z"/><path class="cls-13" d="M29.85,19c.5.4,1.34.4,1.9-.9a1.4,1.4,0,0,0-.35-1.85,5.89,5.89,0,0,0,1.86-1.79s3.71,5.19,1.4,7.39c-2.06,2-6.41-1.29-6.41-1.29A3.8,3.8,0,0,0,29.85,19Z"/><path class="cls-14" d="M16,8.05a11.78,11.78,0,0,1,3-.88,3.84,3.84,0,0,1-.39,1.53,4.87,4.87,0,0,0,2.25-1.45,16.63,16.63,0,0,0,2.44,2A2.7,2.7,0,0,0,23,8.33a42.67,42.67,0,0,1,3.81,3,8.87,8.87,0,0,0-.21-1.53,17.65,17.65,0,0,1,3.69,3.71,3,3,0,0,0,0-1.39c1.63,1.78,1,3,1,3a4.65,4.65,0,0,0-.9,1.43A6.55,6.55,0,0,1,29.85,19a3.8,3.8,0,0,1-1.6,1.56,6.71,6.71,0,0,1-4.2.84s-5.4-.41-8-3.3c-3.66-3.58-2.11-7-2.11-7a9.2,9.2,0,0,1,1.18-1.59A5.26,5.26,0,0,0,16,8.05Z"/><path class="cls-15" d="M14.69,8.33l.18-1.73s4.35-.79,10.46,2,7.93,5.89,7.93,5.89a5.89,5.89,0,0,1-1.86,1.79.71.71,0,0,0-1,.23,4.65,4.65,0,0,1,.9-1.43s.62-1.23-1-3a3,3,0,0,1,0,1.39,17.65,17.65,0,0,0-3.69-3.71,8.87,8.87,0,0,1,.21,1.53,42.67,42.67,0,0,0-3.81-3,2.7,2.7,0,0,1,.29.91,16.63,16.63,0,0,1-2.44-2A4.87,4.87,0,0,1,18.61,8.7,3.84,3.84,0,0,0,19,7.17a11.78,11.78,0,0,0-3,.88,5.48,5.48,0,0,1-.55,1.07A.92.92,0,0,0,14.69,8.33Z"/><path class="cls-12" d="M13.21,9.26c.22-1.06,1.48-.93,1.48-.93a.92.92,0,0,1,.8.79,4.43,4.43,0,0,1-.34.45A9.2,9.2,0,0,0,14,11.16,1.49,1.49,0,0,1,13.21,9.26Z"/><path class="cls-16" d="M28.55,1.24l.23.11.37.17c8.89,4.47,4.11,13,4.11,13a12.67,12.67,0,0,0-3.42-3.31,26.75,26.75,0,0,0-4.51-2.58A24.2,24.2,0,0,0,20.2,6.9a15.5,15.5,0,0,0-5.33-.3C14.87,3.91,19.71-2.75,28.55,1.24Z"/><path class="cls-17" d="M21.2,4.85a7.76,7.76,0,0,1,2.22-2.38,7.24,7.24,0,0,1,3.16-1.31,6.27,6.27,0,0,1,1.73,0l.24.1.23.11.37.17.41.22a9.18,9.18,0,0,1,1.25,1.47,5.13,5.13,0,0,1,.74,3.11,9,9,0,0,1-1.88,4.75,26.24,26.24,0,0,0-4.34-2.46A24.2,24.2,0,0,0,20.2,6.9l-.09,0A7.36,7.36,0,0,1,21.2,4.85Z"/><path class="cls-18" d="M29.15,1.52s.14.11.36.31a5.49,5.49,0,0,1,.81.9,6.7,6.7,0,0,1,.44.68,5.64,5.64,0,0,1,.37.82c.06.14.1.3.15.45a3.57,3.57,0,0,1,.11.47,6.51,6.51,0,0,1,.1,1,6.58,6.58,0,0,1-.06,1c0,.17-.05.32-.09.48a4,4,0,0,1-.11.47c-.08.29-.18.58-.27.86s-.21.52-.32.74-.1.23-.15.33l-.16.29c-.09.18-.17.34-.25.47l-.23.39.26-.37.28-.45c.06-.1.11-.19.18-.29l.16-.32c.13-.23.23-.47.36-.75a8.63,8.63,0,0,0,.3-.86,4.15,4.15,0,0,0,.11-.48,3.86,3.86,0,0,0,.1-.49,6.77,6.77,0,0,0,.07-1,5.69,5.69,0,0,0-.11-1,3.89,3.89,0,0,0-.12-.49,3.57,3.57,0,0,0-.16-.46,4,4,0,0,0-.41-.83,6.21,6.21,0,0,0-.47-.68,5.71,5.71,0,0,0-.87-.86A3.49,3.49,0,0,0,29.15,1.52Z"/><path class="cls-18" d="M20.2,6.9l.21-.43c.07-.14.15-.31.25-.5s.21-.4.34-.63.13-.23.21-.35l.23-.37.25-.38a1.33,1.33,0,0,0,.14-.19l.15-.2c.1-.13.19-.26.3-.38l.34-.39c.12-.12.24-.25.37-.36l.18-.18.2-.16a5.37,5.37,0,0,1,.84-.6,5.35,5.35,0,0,1,.9-.44A5.18,5.18,0,0,1,26,1.09,4.12,4.12,0,0,1,26.83,1a4,4,0,0,1,.71,0,3.18,3.18,0,0,1,.54.09,3.79,3.79,0,0,1,.47.12l-.12,0a1.83,1.83,0,0,0-.34-.12A4.46,4.46,0,0,0,27.55,1a3.82,3.82,0,0,0-.72-.07,5,5,0,0,0-1.78.3,6,6,0,0,0-.93.44,7.34,7.34,0,0,0-.86.6l-.21.18-.19.18L22.49,3c-.12.13-.22.27-.33.4s-.21.27-.31.4a3.6,3.6,0,0,0-.28.4,4.25,4.25,0,0,0-.25.39l-.22.38c-.07.12-.13.25-.19.37a6.1,6.1,0,0,0-.31.64c-.09.2-.16.37-.22.52S20.2,6.9,20.2,6.9Z"/><path class="cls-19" d="M31.36,17.73a.73.73,0,0,0,0-.08.22.22,0,0,0,0-.09.74.74,0,0,0,0-.12.32.32,0,0,0-.08-.12l-.06-.06-.08,0a.28.28,0,0,0-.18,0,.53.53,0,0,0-.18,0,.83.83,0,0,0-.15.11,1.13,1.13,0,0,0-.1.13.46.46,0,0,0-.08.13s0,.09-.05.13a.88.88,0,0,0,0,.2.32.32,0,0,0,0,.07.22.22,0,0,0,0-.07,1,1,0,0,1,.09-.17.41.41,0,0,1,.06-.11,1,1,0,0,1,.08-.11l.1-.1a.42.42,0,0,1,.12-.08.33.33,0,0,1,.13,0h.13l.06,0,0,0a.73.73,0,0,1,.08.09l0,.09s0,.06,0,.08A.28.28,0,0,0,31.36,17.73Z"/><path class="cls-19" d="M31,17.89l0,0a.46.46,0,0,0,0-.1.17.17,0,0,0,0-.08s0-.05,0-.09a.22.22,0,0,0,0-.08.18.18,0,0,0-.08-.07.29.29,0,0,0-.1,0,.21.21,0,0,0-.11,0,.34.34,0,0,0-.14.09.27.27,0,0,0-.08.13l0,0,.09-.05a.23.23,0,0,1,.11,0h.07l.06,0a.28.28,0,0,1,.13.19.41.41,0,0,1,0,.1A.16.16,0,0,0,31,17.89Z"/><path class="cls-19" d="M14.26,10.36l.05,0a.52.52,0,0,0,.11-.13,1.13,1.13,0,0,0,.11-.22.92.92,0,0,0,0-.29.77.77,0,0,0,0-.15.39.39,0,0,0-.08-.14.27.27,0,0,0-.12-.09h-.13a.29.29,0,0,0-.1,0,.09.09,0,0,0-.06,0l-.05,0h.26a.05.05,0,0,0,0,0l.07.07a.42.42,0,0,1,0,.1.49.49,0,0,1,0,.12,1.14,1.14,0,0,1,0,.26l0,.11a.45.45,0,0,1,0,.11,1.07,1.07,0,0,1-.07.15Z"/><path class="cls-19" d="M14.4,10.14a.87.87,0,0,0,.06-.13.41.41,0,0,0-.05-.29.19.19,0,0,0-.08-.07s-.05,0-.09,0a.22.22,0,0,0-.14,0L14,9.72l0,0h.12a.17.17,0,0,1,.1,0h0l0,0a.23.23,0,0,1,0,.1.76.76,0,0,1,0,.11Z"/><path class="cls-19" d="M23.2,14.14l-.09.11a1.15,1.15,0,0,0-.16.35.6.6,0,0,0,0,.27.49.49,0,0,0,.13.28l.17.24a.35.35,0,0,1,.07.23.28.28,0,0,1-.1.21.09.09,0,0,1-.05,0l0,0-.12,0a1.12,1.12,0,0,1-.49,0,1.14,1.14,0,0,1-.33-.15s-.06-.05-.07-.08l0,0s0,0,.07.12a1.1,1.1,0,0,0,.32.23,1,1,0,0,0,.55.11l.16,0a.44.44,0,0,0,.16-.1.54.54,0,0,0,.16-.33.55.55,0,0,0-.11-.34,2.54,2.54,0,0,0-.2-.24.53.53,0,0,1-.11-.21.82.82,0,0,1,0-.22,1.58,1.58,0,0,1,.09-.35A.5.5,0,0,1,23.2,14.14Z"/><path class="cls-15" d="M28.86,13.82s.28-1.37-.35-1.68c-.79-.38-1.47.59-1.47.59s.83-.6,1.36-.22A1.45,1.45,0,0,1,28.86,13.82Z"/><path class="cls-15" d="M19.25,9.11s.67-1.19,1.59-.95.69,2,.69,2-.06-1.44-.69-1.68S19.25,9.11,19.25,9.11Z"/><path d="M19,11.13c-.24.49-.28,1-.1,1s.53-.25.76-.74.28-1,.1-1.06S19.22,10.63,19,11.13Z"/><path class="cls-4" d="M19.16,11c-.12.25-.15.49-.05.53s.26-.12.38-.37.14-.48.05-.52S19.27,10.72,19.16,11Z"/><path d="M26.61,14.71c-.23.49-.28,1-.1,1s.53-.25.76-.75.28-1,.1-1S26.85,14.21,26.61,14.71Z"/><path class="cls-4" d="M26.77,14.55c-.11.25-.14.49,0,.53s.26-.12.38-.37.14-.49,0-.53S26.89,14.3,26.77,14.55Z"/><g class="cls-20"><path class="cls-21" d="M28.28,9.32a10.57,10.57,0,0,0-5.37-2.53S24.35,3.84,27,5,28.28,9.32,28.28,9.32Z"/></g><path class="cls-15" d="M28.25,9.11A9.87,9.87,0,0,0,23.2,6.73S24.55,4,27.05,5.06,28.25,9.11,28.25,9.11Z"/><g class="cls-3"><path class="cls-15" d="M26.14,4.81a3,3,0,0,0-2,1.59,8.29,8.29,0,0,1,4.2,2,4,4,0,0,0,.27-1.16,4.53,4.53,0,0,1-.33,1.9A9.87,9.87,0,0,0,23.2,6.73S24.23,4.62,26.14,4.81Z"/></g><path class="cls-19" d="M24.71,18.69a4.78,4.78,0,0,1-1.07,0l-.53-.09c-.17,0-.34-.09-.52-.13l-.25-.09-.24-.09c-.18-.06-.33-.15-.49-.22s-.32-.16-.47-.26a3,3,0,0,1-.45-.28l-.44-.31a4.35,4.35,0,0,1-.43-.32l-.42-.32L19,16.22l-.39-.36a4.59,4.59,0,0,1-.39-.37c-.12-.13-.25-.26-.36-.4s-.23-.27-.33-.42l0,0a.41.41,0,0,0,.16,0l.09,0,.07,0,.06,0,.07-.06.05,0,.06-.06-.06.05-.06.06-.06,0s-.05,0-.08,0l-.06,0-.09,0h-.19l0,0a3.84,3.84,0,0,0,.32.44,4.71,4.71,0,0,0,.35.41c.12.14.25.26.37.39a3.37,3.37,0,0,0,.39.37c.14.12.27.25.41.36l.42.34.43.32.45.31.45.29.48.25a3.55,3.55,0,0,0,.5.21,1.34,1.34,0,0,0,.26.09l.26.08a4.37,4.37,0,0,0,.52.12l.54.07h.54Z"/><path class="cls-22" d="M21.54,19.53a3,3,0,0,1-2.7-1.31A2.73,2.73,0,0,1,21.54,19.53Z"/><path class="cls-4" d="M20.77,18.3c-1.5-.75-2.13-1.53-2.1-2.29a15.42,15.42,0,0,0,2.14,1.67,6.37,6.37,0,0,0,2.46,1A3.17,3.17,0,0,1,20.77,18.3Z"/><path class="cls-23" d="M18.67,16c0,.76.6,1.54,2.1,2.29a3.17,3.17,0,0,0,2.5.36c.27,0,.5.06.7.07a9.45,9.45,0,0,0-1.82.65,2,2,0,0,1-.61.15,2.73,2.73,0,0,0-2.7-1.31,5.52,5.52,0,0,1-.9-3C18.12,15.46,18.37,15.72,18.67,16Z"/><path class="cls-12" d="M7.67,23.9A3.84,3.84,0,0,1,9,23.71c-.72-.37-1.91-1-1.48-1.13s1.92.6,1.92.6a2.38,2.38,0,0,0-.65-.94c-.56-.54.09-.64.61-.21a6.34,6.34,0,0,1,1,1.12c-.16-1.48.45-1.39.54-.75s-.07,1.11.37,1.36a8.55,8.55,0,0,0,2.26.3,36.29,36.29,0,0,0,5.06,0h0c.05.27.15.78.25,1.33l0,.07a21.85,21.85,0,0,1-5.72.1,18.69,18.69,0,0,1-2.5-.5s-.13.21-.71.28A.66.66,0,0,1,9.19,25a10,10,0,0,1-1,.2c-.54.08-.63-.06-.34-.31A4,4,0,0,1,9,24.38C7.86,24.37,7,24.14,7.67,23.9Z"/><path class="cls-24" d="M16,11.34c-.13.33.29.82.95,1.09s1.31.22,1.44-.11-.29-.82-.94-1.09S16.1,11,16,11.34Z"/><path class="cls-24" d="M26.11,16.58c-.19.31.16.85.76,1.22s1.26.43,1.44.12-.15-.85-.76-1.22S26.3,16.28,26.11,16.58Z"/><path class="cls-4" d="M18.59,23.85s.37-.07,1.2-.29a4.39,4.39,0,0,0,2-.88,3,3,0,0,0,.71-1.45c.9.16,1.51.21,1.51.21a2.66,2.66,0,0,1,.09,2.26,4,4,0,0,1-1.5,1.82,8.06,8.06,0,0,1-3.45,1.68C19,26,18.59,23.85,18.59,23.85Z"/><path class="cls-4" d="M11.41,21.68a8.15,8.15,0,0,1,.25-3.51l4.42,0a17.26,17.26,0,0,1-1.09,3C13.87,21.44,11.41,21.68,11.41,21.68Z"/><path class="cls-4" d="M18.86,25.46l0-.07c.12.62.23,1.31.31,1.81a8.06,8.06,0,0,0,3.45-1.68c0,3.24-.23,7.91-.23,7.91H22S18,34.36,11.6,32l-.38-.24a43.22,43.22,0,0,1,1.92-6.16A21.85,21.85,0,0,0,18.86,25.46Z"/><path class="cls-25" d="M21.61,22.85c.08-.05.14-.11.22-.17a2.36,2.36,0,0,0,.2-.23,4.81,4.81,0,0,1,2.15,1.12c0,.05,0,.09,0,.13a3.65,3.65,0,0,1-1,1.45A3.83,3.83,0,0,0,21.61,22.85Z"/><path class="cls-25" d="M22.54,21.23c.9.16,1.51.21,1.51.21a2.19,2.19,0,0,1,.27,1,5.07,5.07,0,0,0-2-.54A5.28,5.28,0,0,0,22.54,21.23Z"/><path class="cls-25" d="M18.59,23.85l1-.24A10,10,0,0,1,20,27a6.63,6.63,0,0,1-.85.23C19,26,18.59,23.85,18.59,23.85Z"/><path class="cls-25" d="M20.68,23.32a4.35,4.35,0,0,0,.59-.25,5.37,5.37,0,0,1,1,2.77,8.46,8.46,0,0,1-1.21.73A8.32,8.32,0,0,0,20.68,23.32Z"/><path class="cls-12" d="M19.77,21.49c-.69-.22-.63-.82-.5-1.22a13.6,13.6,0,0,0,1.86.63A1.12,1.12,0,0,1,19.77,21.49Z"/><path class="cls-4" d="M15,21.17a17.26,17.26,0,0,0,1.09-3,8.57,8.57,0,0,0,3.19,2.13c-.13.4-.19,1,.5,1.22a1.12,1.12,0,0,0,1.36-.59c.51.14,1,.24,1.41.33a3,3,0,0,1-.71,1.45,4.39,4.39,0,0,1-2,.88c-.83.22-1.2.29-1.2.29l0,.21a36.29,36.29,0,0,1-5.06,0Z"/><path class="cls-25" d="M15.76,19.22a14.73,14.73,0,0,0,3.43,1.5.74.74,0,0,0,.58.77,1,1,0,0,0,1.17-.34c.62.13,1.14.21,1.55.26A3.35,3.35,0,0,1,22,22.49a20,20,0,0,1-6.76-1.86C15.45,20.14,15.62,19.65,15.76,19.22Z"/><path class="cls-25" d="M14.83,21.49a14.44,14.44,0,0,0,5.79,1.84c-.25.08-.52.15-.83.23-.83.22-1.2.29-1.2.29l0,.21s-.6.05-1.45.08a12,12,0,0,1-3-1.34Z"/><path class="cls-25" d="M22.44,32.73c0,.44,0,.7,0,.7H22S18,34.36,11.6,32l-.38-.24c.06-.24.11-.49.17-.73A17.3,17.3,0,0,0,22.44,32.73Z"/><path class="cls-25" d="M13.11,25.63l0-.07a21.85,21.85,0,0,0,5.72-.1l0-.07c.09.49.18,1,.25,1.45-.55-.07-1.14-.16-1.78-.27C15.44,26.23,14.05,25.89,13.11,25.63Z"/><path class="cls-25" d="M22.64,25.52c0,.5,0,1,0,1.59A23.78,23.78,0,0,1,20.07,27,7.84,7.84,0,0,0,22.64,25.52Z"/><path class="cls-25" d="M11.67,29.94c.1-.37.21-.73.31-1.07a22.1,22.1,0,0,0,10.55,1.55c0,.45,0,.88-.05,1.26A20.13,20.13,0,0,1,11.67,29.94Z"/><path class="cls-25" d="M12.28,27.92c.14-.42.27-.8.39-1.13A24.1,24.1,0,0,0,22.59,28c0,.41,0,.82,0,1.22A25.77,25.77,0,0,1,12.28,27.92Z"/><path class="cls-25" d="M16.08,18.14a17.26,17.26,0,0,1-1.09,3l-.32.07a12.67,12.67,0,0,0,.41-3.09Z"/><path class="cls-25" d="M13.29,18.16h1A11.38,11.38,0,0,1,14,21.36l-1,.15A13.66,13.66,0,0,0,13.29,18.16Z"/><path class="cls-25" d="M11.66,18.17h.7a14.18,14.18,0,0,1-.28,3.44l-.67.07A8.15,8.15,0,0,1,11.66,18.17Z"/><g class="cls-5"><path class="cls-26" d="M11.22,31.72l.38.24C18,34.36,22,33.43,22,33.43h.39s.2-4.67.23-7.91a8.06,8.06,0,0,1-3.45,1.68c-.08-.5-.19-1.19-.31-1.81l0,.07a21.85,21.85,0,0,1-5.72.1A43.22,43.22,0,0,0,11.22,31.72Zm1.12-2.22a3.38,3.38,0,0,1,3.78-3.17c2.3.21,2.63,1.5,3.93,1,2-.72,2.2-.69,2.23,1.85,0,3-1.66,3.89-4.84,3.46C13.6,32.16,12.24,31.17,12.34,29.5Z"/></g><g class="cls-5"><path class="cls-26" d="M13.57,24.06a36.29,36.29,0,0,0,5.06,0l0-.21s.37-.07,1.2-.29a4.39,4.39,0,0,0,2-.88,3,3,0,0,0,.71-1.45c-.42-.09-.9-.19-1.41-.33a1.12,1.12,0,0,1-1.36.59c-.69-.22-.63-.82-.5-1.22a8.57,8.57,0,0,1-3.19-2.13,17.26,17.26,0,0,1-1.09,3Zm2.1-3.23c1.1-2.2,2.72-.56,3,.32s1.09,1.13,2.29.69c1-.37,1.11-.29.75.28s-2.28,1.52-4.88,1.68S14.56,23,15.67,20.83Z"/></g><g class="cls-5"><path class="cls-26" d="M18.59,23.85s.43,2.18.6,3.35a8.06,8.06,0,0,0,3.45-1.68,4,4,0,0,0,1.5-1.82,2.66,2.66,0,0,0-.09-2.26s-.61-.05-1.51-.21a3,3,0,0,1-.71,1.45,4.39,4.39,0,0,1-2,.88C19,23.78,18.59,23.85,18.59,23.85Zm1.12.13c1.32-.27,3.23-1,3.42-1.95s1.17-.16,1.1.78a3.62,3.62,0,0,1-2.77,3C19.32,26.47,18.39,24.25,19.71,24Z"/></g><g class="cls-5"><path class="cls-26" d="M11.41,21.68s2.46-.24,3.58-.51a17.26,17.26,0,0,0,1.09-3l-4.42,0A8.15,8.15,0,0,0,11.41,21.68Zm.31-2.54c.06-1.08.64-.8,2.39-.84s1.92.09,1.13,1.25C13.65,21.88,11.66,20.23,11.72,19.14Z"/></g><path class="cls-27" d="M20.71,33.58A7.82,7.82,0,0,0,22,33.43c.15.41.29.87.42,1.36A1.57,1.57,0,0,1,20.71,33.58Z"/><path class="cls-27" d="M11.19,33.67c.21-1,.41-1.71.41-1.71l1.1.38A2,2,0,0,1,11.19,33.67Z"/><path class="cls-28" d="M11.19,33.67a2,2,0,0,0,1.51-1.33,21.66,21.66,0,0,0,8,1.24,1.57,1.57,0,0,0,1.73,1.21c.65,2.35,1.18,5.2,1.18,5.2a12.37,12.37,0,0,1-6,.63c-.12-.51-.54-4-.54-4-.26.61-1,3.52-1,3.52a12,12,0,0,1-5.24-1.23,15.78,15.78,0,0,1,.07-3.31C11,34.89,11.08,34.24,11.19,33.67Z"/><g class="cls-29"><path class="cls-28" d="M10.87,35.57c.09-.68.21-1.33.32-1.9a2,2,0,0,0,1.51-1.33,21.66,21.66,0,0,0,8,1.24,1.57,1.57,0,0,0,1.73,1.21c.06.19.11.39.15.58h0a2.14,2.14,0,0,1-2.19-1,15,15,0,0,1-7.29-.8c-.46-.15-1.74,2-1.31,5.71a7.48,7.48,0,0,1-1-.44A15.78,15.78,0,0,1,10.87,35.57Z"/></g><g class="cls-29"><path class="cls-28" d="M16.07,38.43c.48-1.67.38-2.19.59-2.16,1.55.28,2.46-.29,1.93,0-.73.4-.93.3-.73,1.75.3,2.19.24,2.29,1,2.44a12.92,12.92,0,0,0,1.6.19,9.52,9.52,0,0,1-2.9-.05c-.12-.51-.54-4-.54-4-.26.61-1,3.52-1,3.52A11.88,11.88,0,0,1,14.67,40C15.46,40.11,15.59,40.1,16.07,38.43Z"/></g><g class="cls-20"><path class="cls-30" d="M14,11.16a9.2,9.2,0,0,1,1.18-1.59A5.26,5.26,0,0,0,16,8.05s0,.5-1.25,2.31-.27,7.3,4.34,9.33C27.4,23.32,29.85,19,29.85,19a3.8,3.8,0,0,1-1.6,1.56,6.71,6.71,0,0,1-4.2.84s-5.4-.41-8-3.3C12.42,14.56,14,11.16,14,11.16Z"/></g><g class="cls-20"><path class="cls-30" d="M9.22,24.68c.26-.05.26.44,1,.3s.23-.56,1.1-.31a17.57,17.57,0,0,0,7.47.18c0,.18.07.36.1.54l0,.07a21.85,21.85,0,0,1-5.72.1,18.69,18.69,0,0,1-2.5-.5s-.13.21-.71.28A.66.66,0,0,1,9.19,25a10,10,0,0,1-1,.2c-.45.06-.58,0-.46-.18l.16,0A6.86,6.86,0,0,0,9.22,24.68Z"/></g><path class="cls-31" d="M24.8,57.24a8.83,8.83,0,0,0,3.4.1c0,.31,0,.49-.08.55A9.47,9.47,0,0,1,24,57.54c-2.11-.6-3-1.28-3.16-1.55a.69.69,0,0,1,0-.18A13.19,13.19,0,0,0,24.8,57.24Z"/><path class="cls-4" d="M26.86,55.3c.34.13,1.3.44,1.33,1.24,0,.33,0,.59,0,.8a8.73,8.73,0,0,1-3.38-.1A2.31,2.31,0,0,1,26.86,55.3Z"/><path class="cls-4" d="M23,55c-.23.39-.52,0-.17-.39a2.09,2.09,0,0,1,.9-.66l.34.17h0A2.71,2.71,0,0,0,23,55Z"/><path class="cls-28" d="M20.93,54a.5.5,0,0,1,.52-.58,1.49,1.49,0,0,1,.71.55,3.27,3.27,0,0,1,.07-.76c.11-.65.59-.58.59-.58s.4,0,.58,1c0,0,0,.15.36.36a2.09,2.09,0,0,0-.9.66c-.35.38-.06.78.17.39a2.71,2.71,0,0,1,1.09-.87c.2.09.5.22.84.35a2.89,2.89,0,0,0-.74.51c-.64.59-.27.86.1.39a2.26,2.26,0,0,1,1.1-.71c.63.26,1.23.51,1.37.58l.07,0a2.31,2.31,0,0,0-2,1.94h0a13.19,13.19,0,0,1-4-1.43C20.79,55.34,20.94,54.3,20.93,54Z"/><path class="cls-4" d="M24.32,55.4c-.37.47-.74.2-.1-.39A2.89,2.89,0,0,1,25,54.5l.46.19A2.26,2.26,0,0,0,24.32,55.4Z"/><g class="cls-5"><path class="cls-6" d="M28,56a1,1,0,0,1,.23.58c0,.33,0,.59,0,.8a8.73,8.73,0,0,1-3.38-.1,2.83,2.83,0,0,1,.46-1.05A4.23,4.23,0,0,0,28,56Z"/></g><g class="cls-20"><path class="cls-28" d="M24.32,56l1,.17a2.83,2.83,0,0,0-.46,1.05h0a13.19,13.19,0,0,1-4-1.43,10.73,10.73,0,0,1,.07-1.32C21.12,55.16,21.9,55.52,24.32,56Z"/></g><path class="cls-31" d="M12,59c1.85-.06,2.16-.73,2.21-1,.08.74-.27,1.5-2.33,1.53-1.7,0-2.35-.48-2.58-1.13A4.89,4.89,0,0,0,12,59Z"/><path class="cls-28" d="M9.26,57.13l.06-.53a15.82,15.82,0,0,1,.85-3.14c.33-1.05.73-1.09.73-1.09,0,.26,0,.89,0,.89.08-.49.35-.76.75-.72a.49.49,0,0,1,.46.35l.06-.4c.45.15.56.85.72,1.45s.77,2.26,1,3v0A3.15,3.15,0,0,0,9.26,57.13Z"/><path class="cls-4" d="M13.92,57a4.3,4.3,0,0,1,.32,1.09c-.05.24-.36.91-2.21,1a4.89,4.89,0,0,1-2.7-.57,3,3,0,0,1-.07-1.33A3.15,3.15,0,0,1,13.92,57Z"/><path class="cls-4" d="M11.52,54.92c-1,0-1.25.54-.74.5a6.73,6.73,0,0,1,1.47-.07C12.91,55.41,12.41,54.89,11.52,54.92Z"/><path class="cls-4" d="M11.5,53.86c-1,0-1.26.55-.75.51a6.76,6.76,0,0,1,1.47-.07C12.89,54.36,12.39,53.84,11.5,53.86Z"/><g class="cls-20"><path class="cls-28" d="M12.59,53.86c-.21-.46-.46-.33-.46-.33S12,53,11.54,53s-.65.57-.65.57c-.47-.11-1.14,1-1.3,3.06a2.18,2.18,0,0,0,0,.25l-.32.3.06-.53a15.82,15.82,0,0,1,.85-3.14c.33-1.05.73-1.09.73-1.09,0,.26,0,.89,0,.89.08-.49.35-.76.75-.72a.49.49,0,0,1,.46.35l.06-.4c.45.15.56.85.72,1.45s.77,2.26,1,3v0a3.3,3.3,0,0,0-.44-.37A9.26,9.26,0,0,0,12.59,53.86Z"/></g><g class="cls-5"><path class="cls-6" d="M9.26,57.13l.32-.3c.05,1.85,2.25,2.09,3.34,1.49.53-.29.65-1,.56-1.72a3.3,3.3,0,0,1,.44.37,4.3,4.3,0,0,1,.32,1.09c-.05.24-.36.91-2.21,1a4.89,4.89,0,0,1-2.7-.57A3,3,0,0,1,9.26,57.13Z"/></g><g class="cls-5"><path class="cls-13" d="M21.77,50.88v.38c0,1.12.6,1.6,1.05,1.08v.3s-.48-.07-.59.58a3.27,3.27,0,0,0-.07.76,1.49,1.49,0,0,0-.71-.55s0-1,0-2.59Z"/></g><g class="cls-20"><path class="cls-30" d="M22.25,40.38a.62.62,0,0,0,0,.09c-.38,0-.85.43-.84,1.44,0,1.47.32,6.94.35,9l-.35,0c-.06-2.36-.24-6.1-.74-10.19C21.16,40.59,21.69,40.5,22.25,40.38Z"/></g><g class="cls-5"><path class="cls-13" d="M10.9,52.37c.06-.74.14-1.61.23-2.54l.32.07c0,.41-.09.76-.12,1-.12,1.08.37,1.8.88,1.31,0,.18,0,.29,0,.29l-.06.4a.49.49,0,0,0-.46-.35c-.4,0-.67.23-.75.72C10.9,53.26,10.88,52.63,10.9,52.37Z"/></g><g class="cls-20"><path class="cls-30" d="M12.35,41.82c-.23,2-.67,6-.9,8.08l-.32-.07c.45-4.44,1.17-10.34,1.17-10.34a11.48,11.48,0,0,0,1.76.45s-.05.3-.12.78C13.68,39.68,12.57,39.92,12.35,41.82Z"/></g><g class="cls-5"><path class="cls-13" d="M29.8,19.12c2,2.12,4.41,2.45,5.59,1.26a2.48,2.48,0,0,1-.73,1.51c-2.06,2-6.41-1.29-6.41-1.29A3.76,3.76,0,0,0,29.8,19.12Z"/></g><g class="cls-20"><path class="cls-21" d="M14.87,6.6a15.5,15.5,0,0,1,5.33.3,24.2,24.2,0,0,1,5.13,1.71,26.75,26.75,0,0,1,4.51,2.58,12.67,12.67,0,0,1,3.42,3.31S38,6,29.15,1.52l-.37-.17-.23-.11C19.71-2.75,14.87,3.91,14.87,6.6Zm3.51-4.91C21.62-.67,27.79.35,25.45,1A5.7,5.7,0,0,0,22,3.63c2-1.85,4.53-3.13,6.88-1.94s2.66,5.48,2.66,5.48a8.17,8.17,0,0,0-.69-4.28c-.21-.47,3.26,2.36,3.4,6s-.69,3.79-1.94,3.3-2-1.5-1.59-2.63c0,0-1.26.49-5-1.4S21,6.45,21,5.19c0,0-.85,1.25-3.52.88S15.94,3.46,18.38,1.69Z"/></g><path class="cls-13" d="M26.69,8a2.33,2.33,0,0,1-.54,1,16.08,16.08,0,0,1-1.44-.84,2.13,2.13,0,0,1,.37-.83A11.76,11.76,0,0,1,26.69,8Z"/><path class="cls-12" d="M5.19,17.47A.68.68,0,0,0,5,18.59s-.28-.07-.27.29a.82.82,0,0,0,.27.55s-.18,0-.15.25a.88.88,0,0,0,.2.47s-.19,0-.22.24,0,.55.23.53.33-.41.29-.65c0,0,.26-.47,0-.74a.47.47,0,0,0,.13-.7.88.88,0,0,0,.32-.91C5.71,17.26,5.43,17.31,5.19,17.47Z"/><path class="cls-32" d="M5,18.59a.68.68,0,0,1,0-1,.68.68,0,0,0,.4.8.92.92,0,0,0,.31.1.8.8,0,0,1-.25.32C5.29,18.91,5,18.59,5,18.59Z"/><path class="cls-32" d="M5.14,19.14a.51.51,0,0,0,.43.08.57.57,0,0,1-.22.31c-.1,0-.31-.1-.31-.1a.82.82,0,0,1-.27-.55c0-.05,0-.09,0-.13A1,1,0,0,0,5.14,19.14Z"/><path class="cls-32" d="M5.14,20c.16.11.3,0,.33-.26a.81.81,0,0,1-.08.55c-.11.11-.3-.12-.3-.12a1,1,0,0,1-.2-.43A1,1,0,0,0,5.14,20Z"/><path class="cls-32" d="M5,20.66c.13.06.28,0,.4-.19,0,.22-.12.43-.3.45s-.24-.2-.23-.41A.22.22,0,0,0,5,20.66Z"/></g></g></g></svg>