<svg xmlns="http://www.w3.org/2000/svg" viewBox="0 0 97.82 173.19"><defs><style>.cls-1{fill:#acb8e8;}.cls-2{fill:#faaf88;}.cls-3{fill:#ed8077;}.cls-4{fill:#cd5c54;}.cls-5{fill:#623b41;}.cls-6{fill:#dc645a;}.cls-7{fill:#8c9ed1;}</style></defs><g id="Layer_2" data-name="Layer 2"><g id="Layer_1-2" data-name="Layer 1"><path class="cls-1" d="M6.29,162.42c5,8.59,16.58,13.63,25.37,9,3.34-1.75,6-4.63,9.27-6.46,5.88-3.25,13-2.74,19.72-3.23a62.53,62.53,0,0,0,27.75-8.85c4.16-2.51,8.29-5.94,9.22-10.71.69-3.5-.51-7.14-2.37-10.19-3.78-6.18-10.2-10.47-17.14-12.54s-14.37-2-21.52-.87a10.51,10.51,0,0,0-4.3,1.38c-1.45,1-2.38,2.52-3.55,3.82-4.64,5.16-12.45,5.73-19.39,5.46C21.78,129,9.89,128,4.88,135.33.11,142.29,2.4,155.69,6.29,162.42Z"/><path class="cls-2" d="M68.68,84.32a86.45,86.45,0,0,0,.61-9.78,52.4,52.4,0,0,0-.45-8c-.16-1.12-.3-2.29-.48-3.38-.1-.67-1.47-3-1.45-3.23,0,.26,0,.52-.07.78A1.13,1.13,0,0,0,65.36,60c-2.4.86-3.16,8.8-3.54,10.94-.73,4.08-1.33,8.68,0,12.71l1.81,24.65,10.27-3.12Z"/><path class="cls-3" d="M63.6,105.16s5.1,1.57,9.23-4.19c0,0,6,10.86.41,13.81,0,0-7.6,5.94-18.49,1.07L53,89.47l9.23-11Z"/><path class="cls-3" d="M60.81,110a46.24,46.24,0,0,1-.79-7.72q1.26-13.38,2.51-26.77c.5-5.24,1.19-8.58-2.74-12.88-.86-.94-11.57-10.85-11.67-10.68,0,0-4.46,10.57-4.46,10.57A150.27,150.27,0,0,1,29,47.76L12.89,67.83,15.15,97c-1.24.61-2.43,1.34-3.6,2.06-2,1.23-5.86,2.66-7.3,4.49C3.17,104.89,3,108.14,2.31,110,.79,114.12.72,118.62.82,123c.09,3.59.32,7.32,2.09,10.45s5.52,5.42,9,4.36c2.61-.8,4.39-3.25,6.89-4.34,5.8-2.53,12.46,3.08,18.58,1.47,4.58-1.2,7.38-6.07,11.86-7.62,3.42-1.18,7.25-.23,10.74-1.16a4.93,4.93,0,0,0,3-2,5,5,0,0,0,.61-2.37C63.77,117.75,61.7,113.94,60.81,110Z"/><path class="cls-2" d="M63.27,21.73a9.44,9.44,0,0,0-.46-3.55,3,3,0,0,0-1.13-1.33C59,15.07,53,16.08,50.45,16.43c-4.4.61-8.8,2.25-11.63,5.83a13,13,0,0,0-2.25,4.49C35.06,25,33.14,24,31.52,26.26a3.91,3.91,0,0,0-.65,2,14,14,0,0,0,.52,4.26,9.29,9.29,0,0,0,1.27,3.33c1.22,1.73,2.71,1.83,4,1.11A28.13,28.13,0,0,0,48.2,50.22c2.41,1.37,5.37,2.31,8.07,1.21,4.87-2,5.4-11.63,6.53-16S63.28,26.18,63.27,21.73Z"/><path class="cls-2" d="M49.3,46.71,35.83,29.17A38.37,38.37,0,0,1,29,47.76l.17.18L29,48c.1,1.07,1.3,5.88,14.33,15.06C47.87,56.17,49.3,46.71,49.3,46.71Z"/><path class="cls-2" d="M29,47.76l-.72.43L29,48A.68.68,0,0,1,29,47.76Z"/><path class="cls-2" d="M27.08,102.81,47.16,86.32c.71-3.38,1.4-6.77,2.14-10.15a21.8,21.8,0,0,1,2.82-6.62c.63-1,1.32-2,2-3a11.33,11.33,0,0,0,1.31-2.91.79.79,0,0,1,.9-.5,1,1,0,0,1,.54.94,10.14,10.14,0,0,1-1,4.29q1.47-2.27,3-4.5c.82-1.2,1.66-2.4,2.53-3.58.39-.54,1.28-2.14,2.07-2.09s1.2,2.31.73,2.86c2.23-2.62,2.1-.18,2.1,1.95,0-.43.74-.22.92-.09.5.38,0,1-.07,1.42a26,26,0,0,1-.74,2.89c-.72,2.66-1.56,5.28-2.54,7.85C61.67,80.86,58.7,87,53.74,90.91L33,113.7Z"/><path class="cls-3" d="M20.35,102.23s-6.12-14.76-3.06-31L29,63.05,29.13,47c-5.7,2.73-11.44,5.39-17.1,8.19C2,60.13,0,75.62,0,85.67a50.7,50.7,0,0,0,12,33.47s6.31,5.17,22.65-6.59L29,98.22Z"/><path class="cls-4" d="M20.21,102.61l-.12-.26c-2.29-4.86-3.87-20.09-3.93-20.74l.57,0c0,.15,1.57,15.23,3.76,20.29L28.83,98l.24.52Z"/><path class="cls-4" d="M15.52,120.71a9.5,9.5,0,0,1-1.93-.16l-.12-.06A41.56,41.56,0,0,1,3.22,105.26l.54-.2a41.09,41.09,0,0,0,10,15c.81.13,8.71,1.2,20.72-7.69l.34.46C25.49,119.72,18.67,120.71,15.52,120.71Z"/><path class="cls-5" d="M39,25.17a6.61,6.61,0,0,0-.38.92Z"/><path class="cls-5" d="M65.09,13.14a6.13,6.13,0,0,0-2.82-5.5A10.19,10.19,0,0,1,59.73,6a13.38,13.38,0,0,1-1.19-2.13C57.12,1.44,54,.82,51.18.43c-3.86-.54-8.14-1-11.3,1.3a20.8,20.8,0,0,1-2.53,1.89,18,18,0,0,1-2.72.88,8.91,8.91,0,0,0-6,7.94c-4.61.32-7.94,6-6,10.17a9.31,9.31,0,0,0,2.41,13.23s.45,5.54.64,6.16c.34,1.14.55,2.63,1.5,3.44,2.91,2.45,6.46-4,7.6-6s-1.19-2.85-2.2-4.43A10.28,10.28,0,0,1,31,28.75a3.87,3.87,0,0,1,1.44-3,3.18,3.18,0,0,1,3.72.62l.2.19c.3.68.52,1.41.8,2.1a3.89,3.89,0,0,0,2.4,2.56,6.28,6.28,0,0,1-.81-3.89c.4-1.65,2-2.66,3.06-4A6.72,6.72,0,0,0,43,19c3.38.32,6.81.61,10.2,1A28.69,28.69,0,0,1,58.94,21c1.32.42,3.85,2.4,5.14,1.71,1-.57,1-2.27,1.07-3.3C65.36,17.34,65,15.24,65.09,13.14Z"/><path class="cls-4" d="M62.26,115.07a.28.28,0,0,1-.26-.17,23.6,23.6,0,0,1-2.21-11.53L61.2,87.14a.26.26,0,0,1,.31-.26.28.28,0,0,1,.26.31l-1.4,16.23a22.87,22.87,0,0,0,2.14,11.24.28.28,0,0,1-.13.38A.27.27,0,0,1,62.26,115.07Z"/><path class="cls-4" d="M62.28,79.26a.22.22,0,0,1-.13,0,.28.28,0,0,1-.12-.38c2.63-5,4.82-14.44,4.85-14.53a.27.27,0,0,1,.34-.21.28.28,0,0,1,.22.34c0,.09-2.24,9.56-4.9,14.66A.29.29,0,0,1,62.28,79.26Z"/><path class="cls-2" d="M73.38,166.8a3,3,0,0,0-.38-.24,4.78,4.78,0,0,0,.84.08c.64,0,1.41-.17,1.61-.77a1.39,1.39,0,0,0-.64-1.44,2.13,2.13,0,0,0-.44-.26,6.45,6.45,0,0,0,1.24-.14c.62-.14,1.32-.5,1.38-1.14a1.39,1.39,0,0,0-1-1.24,3.17,3.17,0,0,0-1.73-.18c0-.16,0-.32,0-.48a8.33,8.33,0,0,0,1.72-.2c.86-.19,1.82-.68,1.9-1.56a1.91,1.91,0,0,0-1.32-1.71,4.58,4.58,0,0,0-3.32,0,3.07,3.07,0,0,0-.57.32c-3.23-2.16-6.89-.39-10.43-.29a24.62,24.62,0,0,1-9-1.19c-1.74-.7-2.76-2.11-4.49-2.82-3.74-1.53-8.05-.63-9.22,3.65s4.43,5.25,7.1,6.18c3.89,1.37,7.41,3.54,11.11,5.31,3.15,1.5,6.44,2.25,9.29,1.65l.33.12a6.17,6.17,0,0,0,1.86.24c.64,0,1.4-.23,1.58-.85a1.18,1.18,0,0,0-.36-1.1l.08-.06a6,6,0,0,0,1.79.32c.64,0,1.4-.18,1.61-.78A1.37,1.37,0,0,0,73.38,166.8Z"/><path class="cls-6" d="M68.71,168.84a.2.2,0,0,1-.11-.36c6-4,4-9.18,4-9.24a.2.2,0,0,1,.37-.14c0,.05,2.15,5.57-4.11,9.71Z"/><path class="cls-6" d="M67.3,165A13,13,0,0,1,61,163a.19.19,0,1,1,.19-.34c7,4,9.57.56,9.6.53a.19.19,0,0,1,.32.22A4.63,4.63,0,0,1,67.3,165Z"/><path class="cls-7" d="M43,147.87a.27.27,0,0,1-.18-.07.29.29,0,0,1,0-.4c.11-.14,11.48-14,28.15-14.89h0a.28.28,0,0,1,.28.27.28.28,0,0,1-.27.3c-16.41.85-27.62,14.54-27.73,14.68A.3.3,0,0,1,43,147.87Z"/><path class="cls-5" d="M48.8,25.57a9,9,0,0,1,3.16.56l3.43,1a10.28,10.28,0,0,1-3.62.38L53,27.8a10.27,10.27,0,0,1-2.82.16c-.89-.12-1.75-.47-2.65-.53a31.85,31.85,0,0,0-3.37.37C44.56,26.52,47.56,25.65,48.8,25.57Z"/><path class="cls-5" d="M62.23,26.24a3.68,3.68,0,0,0-1.94.5l-2.12,1a4,4,0,0,0,2.18.45l-.77.22a3.62,3.62,0,0,0,1.71.22,16.65,16.65,0,0,1,1.63-.47,11.94,11.94,0,0,1,2,.43C64.78,27.27,63,26.34,62.23,26.24Z"/><path class="cls-6" d="M57.91,38.13H56.13a.25.25,0,1,1,0-.49h1.78a1.68,1.68,0,0,0,1.26-.56,1.64,1.64,0,0,0,.43-1.28A15.56,15.56,0,0,0,58,30.36a.25.25,0,0,1,.1-.33.25.25,0,0,1,.33.1,16,16,0,0,1,1.62,5.62,2.15,2.15,0,0,1-.56,1.66A2.2,2.2,0,0,1,57.91,38.13Z"/><path class="cls-6" d="M55,43.11a9.86,9.86,0,0,1-5.21-1.76.23.23,0,0,1-.08-.33.24.24,0,0,1,.33-.08c5.41,3.36,8,.67,8.08.55a.25.25,0,0,1,.34,0,.25.25,0,0,1,0,.35A4.81,4.81,0,0,1,55,43.11Z"/><path class="cls-5" d="M50.93,30.81a1,1,0,0,1-2.07,0l0-2.39a1,1,0,0,1,2.07,0Z"/><path class="cls-5" d="M61.92,31.53a1,1,0,0,1-2.06-.18L60.07,29a1,1,0,0,1,1.12-.9,1,1,0,0,1,1,1.09Z"/><path class="cls-6" d="M50,51.39h-.07c-.08,0-8.06-2.06-12.51-12a.28.28,0,1,1,.52-.23c4.33,9.63,12,11.61,12.12,11.63a.29.29,0,0,1,.21.35A.28.28,0,0,1,50,51.39Z"/><path class="cls-6" d="M36.54,34.35a.28.28,0,0,1-.28-.26s-.44-4.2-2.61-5.85a.3.3,0,0,1-.06-.41.29.29,0,0,1,.4,0c2.37,1.81,2.82,6.08,2.84,6.26a.28.28,0,0,1-.26.31Z"/><path class="cls-6" d="M35.82,31.32h-.09l-2.29-.79a.29.29,0,0,1-.18-.37.27.27,0,0,1,.36-.17l2.29.79a.28.28,0,0,1,.18.36A.28.28,0,0,1,35.82,31.32Z"/></g></g></svg>