<svg xmlns="http://www.w3.org/2000/svg" viewBox="0 0 263.58 108.35"><defs><style>.cls-1{fill:#fff;}.cls-2{fill:#f5fbff;}.cls-3{fill:#dff2fd;}</style></defs><g id="Layer_2" data-name="Layer 2"><g id="OBJECTS"><path class="cls-1" d="M254.8,66.53a22,22,0,0,0-21.45-1.92c.49-12.85-2.71-26.46-11.71-35.65S197,16.59,186.56,24.13a47.83,47.83,0,0,0-85.85,5.64c-29.32-9-59.48,10.17-69,38.18-7.46-.86-15.34-1.65-22.19,1.43S-2.29,80.94,1.08,87.64A17,17,0,0,0,5.92,93.1c13.94,11.14,32.86,13.18,50.66,14.44,11.78.84,23.71,1.52,35.32-.64s23-7.46,30.38-16.7c5.1,7.67,15.48,9.34,24.66,10.2,27.74,2.62,56.05,4.38,83.64-.7,9.45-1.74,21.61-2.28,28.73-9.64C267.2,81.9,263.26,72.46,254.8,66.53Z"/><path class="cls-2" d="M31.75,68c-7.46-.86-15.34-1.65-22.19,1.43S-2.29,80.94,1.08,87.64A17,17,0,0,0,5.92,93.1c13.94,11.14,32.86,13.18,50.66,14.44,11.78.84,23.71,1.52,35.32-.64s23-7.46,30.38-16.7c5.1,7.67,15.48,9.34,24.66,10.2,27.74,2.62,56.05,4.38,83.64-.7,9.45-1.74,21.61-2.28,28.73-9.64,7.89-8.16,3.95-17.6-4.52-23.53a22,22,0,0,0-21.44-1.92c.39-10.31-1.59-21.09-7-29.7a25.87,25.87,0,0,1-.14,15.93c-4,11.14-16,15.15-26,9.81C191.35,56,185.68,46.41,184.7,36.51,182.55,55.67,166.09,72.27,147,74.59s-39.08-9.87-45.75-28A31.81,31.81,0,0,1,57.76,70.55c-4.49-1.84-8.73-5-10.56-9.45-2.58-6.33.21-13.6,4.12-19.21a51.57,51.57,0,0,1,3.36-4.29A61,61,0,0,0,31.75,68Z"/><path class="cls-3" d="M122.28,90.2c5.1,7.67,15.48,9.34,24.66,10.2,27.74,2.62,56.05,4.38,83.64-.7,9.45-1.74,21.61-2.28,28.73-9.64,7.89-8.16,3.95-17.6-4.52-23.53,1.73,7.63-3.91,15.55-11,18.83s-15.25,3.1-23.06,2.64a22.33,22.33,0,0,0,10.44-13.86c-13.61,13.48-36.54,16.29-53,6.49-2.51,5-7.65,8-12.78,10.18C151.49,96.62,135.63,97.2,122.28,90.2Z"/><path class="cls-3" d="M1.08,87.64A17,17,0,0,0,5.92,93.1c13.94,11.14,32.86,13.18,50.66,14.44,11.78.84,23.71,1.52,35.32-.64s23-7.46,30.38-16.7a36.37,36.37,0,0,1-19-18.13c1.61,6.51-2.64,13.4-8.47,16.73S82,92.58,75.28,92.34c-13.57-.48-27.94-4-37.08-14C41.49,87,49.41,93.38,58.14,96.57s18.25,3.56,27.54,3.08c-3.21,2.13-7.16,2.8-11,3.22C50.13,105.59,22.33,100.25,1.08,87.64Z"/></g></g></svg>