<svg xmlns="http://www.w3.org/2000/svg" xmlns:xlink="http://www.w3.org/1999/xlink" viewBox="0 0 88.61 66.39"><defs><style>.cls-1{isolation:isolate;}.cls-2{fill:#a1a3a6;}.cls-3,.cls-4{fill:#efcaa6;}.cls-16,.cls-20,.cls-24,.cls-25,.cls-27,.cls-32,.cls-4,.cls-40,.cls-43,.cls-44,.cls-7{mix-blend-mode:multiply;}.cls-31,.cls-5{fill:#c39368;}.cls-20,.cls-24,.cls-41,.cls-5{opacity:0.5;}.cls-6{fill:#0075b4;}.cls-48,.cls-7{fill:#00a2d3;}.cls-8{fill:#e274b6;}.cls-9{fill:#e5c6ac;}.cls-10{fill:#f68ac6;}.cls-11,.cls-25{fill:#f4d9bf;}.cls-12{fill:#59b7c1;}.cls-13{fill:#025f93;}.cls-14{fill:#78d7e6;}.cls-15{fill:#006ab0;}.cls-17{fill:#e3bb94;}.cls-18{fill:#f57ea5;}.cls-19{fill:#004e7a;}.cls-21{fill:#00bed5;}.cls-22{fill:#d4a87f;}.cls-23,.cls-24{fill:#008fc4;}.cls-26,.cls-27{fill:#e30613;}.cls-28{fill:#a93623;}.cls-29{fill:#b57921;}.cls-30,.cls-32{fill:#c53623;}.cls-33{fill:#461a00;}.cls-34,.cls-41{fill:#fff;}.cls-35{fill:#f9cbc0;}.cls-36{fill:#f5a98e;}.cls-37{fill:#ef766c;}.cls-38{fill:#00afc4;}.cls-39{fill:#ed6023;}.cls-40{fill:url(#radial-gradient);}.cls-41{mix-blend-mode:screen;}.cls-42,.cls-43{fill:#7dc245;}.cls-44{fill:#8c8e90;opacity:0.4;}.cls-45{fill:#e3bb64;}.cls-46{fill:#f2cf81;}.cls-47{fill:#673121;}</style><radialGradient id="radial-gradient" cx="3209.82" cy="-2555.58" r="7.62" gradientTransform="translate(-2427.5 1858.31) rotate(1.88) scale(0.75)" gradientUnits="userSpaceOnUse"><stop offset="0.58" stop-color="#fff"/><stop offset="0.65" stop-color="#fafafa"/><stop offset="0.75" stop-color="#ececea"/><stop offset="0.85" stop-color="#d6d5d0"/><stop offset="0.96" stop-color="#b6b5ad"/><stop offset="1" stop-color="#a9a89e"/></radialGradient></defs><g class="cls-1"><g id="Layer_2" data-name="Layer 2"><g id="Layer_1-2" data-name="Layer 1"><path class="cls-2" d="M31.38,54.1a8,8,0,0,0,.83.36c.27.1.59.24,1,.36s.81.25,1.29.38,1,.24,1.56.35,1.16.21,1.78.26,1.25.12,1.9.15,1.31,0,2,0,1.32-.1,2-.14l1.89-.29,1.75-.39c.55-.11,1.07-.3,1.54-.44s.92-.26,1.29-.41l1-.36L52,53.6l-.83.36-1,.42a10.84,10.84,0,0,1-1.28.48c-.48.15-1,.35-1.54.49s-1.14.3-1.75.43l-1.9.31c-.66,0-1.32.13-2,.17s-1.34,0-2,0-1.3-.08-1.92-.17a15.72,15.72,0,0,1-1.78-.3c-.56-.12-1.09-.26-1.56-.4A15.23,15.23,0,0,1,31.38,54.1Z"/><path class="cls-2" d="M34.15,53.77s.22.11.61.26c.2.07.44.17.72.25s.6.18,1,.28a16.27,16.27,0,0,0,2.42.43c.45.06.92.08,1.39.1s1,0,1.44,0,1-.06,1.43-.1l1.38-.2,1.27-.28c.41-.09.78-.22,1.13-.32s.68-.18,1-.29l.72-.26.63-.23-.61.28c-.2.09-.44.19-.7.32a9.91,9.91,0,0,1-.94.35c-.35.11-.71.26-1.12.36s-.83.22-1.28.32l-1.39.24c-.49,0-1,.09-1.46.12s-1,0-1.46,0-1-.06-1.4-.12A12.23,12.23,0,0,1,37.53,55c-.41-.1-.79-.19-1.14-.3A10.82,10.82,0,0,1,34.15,53.77Z"/><path class="cls-2" d="M33.35,27.48a12.25,12.25,0,0,1,2.49-1c.38-.12.81-.22,1.26-.33a14.33,14.33,0,0,1,1.44-.25,13,13,0,0,1,1.55-.13c.53-.05,1.08,0,1.62,0s1.07.09,1.6.13,1,.18,1.55.25l1.41.36c.45.11.86.29,1.24.4a7.46,7.46,0,0,1,1,.39l.78.35.67.3-.69-.25c-.22-.08-.49-.19-.8-.29s-.66-.21-1-.33-.8-.26-1.25-.35l-1.41-.32-1.52-.21c-.53-.05-1.06-.1-1.59-.12S40.63,26,40.1,26s-1,.06-1.53.13-1,.12-1.43.2l-1.27.27-1,.31a8,8,0,0,0-.8.28C33.59,27.36,33.35,27.48,33.35,27.48Z"/><path class="cls-2" d="M35.59,27.74A8.3,8.3,0,0,1,37.4,27a8.77,8.77,0,0,1,.93-.26,10.41,10.41,0,0,1,1.05-.18c.36-.05.75-.09,1.14-.11s.78,0,1.18,0,.79.07,1.17.1L44,26.7c.36.08.69.19,1,.27a8.09,8.09,0,0,1,.91.3,9.81,9.81,0,0,1,1.32.55l.48.22-.5-.17-.58-.21c-.23-.08-.49-.15-.77-.23a8.64,8.64,0,0,0-.92-.25q-.48-.12-1-.21c-.36-.07-.73-.12-1.11-.18l-1.15-.08c-.39,0-.78,0-1.16,0a10.18,10.18,0,0,0-1.12.08,12.41,12.41,0,0,0-2,.34A11.46,11.46,0,0,0,35.59,27.74Z"/><path class="cls-3" d="M63.29,28.23s-.5.06-1.32.91c-1.78,1.83-4.8,5.43-5.67,6.61-1.09,1.5-.7,2.38.21,2.63,1.81.49,6.31-4.54,6.31-4.54Z"/><path class="cls-4" d="M62,29.14c-1.06,1.09-2.56,2.81-3.79,4.27.29.35.54.75.81,1.06a9.75,9.75,0,0,0,1.74,1.47c1.17-1.07,2.09-2.1,2.09-2.1l.47-5.61S62.79,28.29,62,29.14Z"/><path class="cls-3" d="M49.45,36.87s6.59,2.21,8.24,1.27-.16-2.54-1.5-2.71L47.3,34.32l-.1,2Z"/><path class="cls-3" d="M46.35,36.89c1.26,0,1.78-1.1,1.91-2a2.65,2.65,0,0,0-.66-1.7,3.51,3.51,0,0,1-1-2s-.29-.21-.48.3a2.35,2.35,0,0,0,.31,1.74,6.11,6.11,0,0,0-2.58-1.14c-1.29-.15-1.33.49-.58.59a5.11,5.11,0,0,1,1.77.83,7.54,7.54,0,0,0-2.35-.34c-.91.09-.77.69,0,.79a9.66,9.66,0,0,1,1.84.49,8.11,8.11,0,0,0-2.31.11c-.55.23-.5.85.68.83a12.86,12.86,0,0,1,1.35,0s-1.41.43-1.67,1,0,.54.63.27a5.11,5.11,0,0,1,1.34-.36s.15.11.18.12a3.77,3.77,0,0,0,.48.26A2.89,2.89,0,0,0,46.35,36.89Z"/><path class="cls-5" d="M46.47,33.2c.05.14-.23.56-.28.68a2.43,2.43,0,0,0-.21.8,1.64,1.64,0,0,0,.41,1.3v0a2.16,2.16,0,0,1,0-2.09c.07-.19.37-.55.14-.72C46.48,33.13,46.46,33.18,46.47,33.2Z"/><path class="cls-5" d="M45.35,33.38a2.52,2.52,0,0,0-.69,1.27,1.91,1.91,0,0,0,0,1.29s0,0,0,0a3.17,3.17,0,0,1,.74-2.51S45.38,33.35,45.35,33.38Z"/><path class="cls-6" d="M63.39,27.84s-2.88.94-5.21,4.88c0,0,2.12,3.09,4.29,3.69l3-3.95Z"/><path class="cls-7" d="M63.43,27.93c-2.11,1.39-2.88,4.34-3.42,6.9a6.32,6.32,0,0,0,2.46,1.58l3-3.95Z"/><path class="cls-8" d="M4.51,58.17c.86-1.7,3.25-3.43,4.2-4.07-.57-.26-.9-.29-1.91.29-1.17.67-4.29,3.29-4.45,6.21.16,1.62,1.5,1.93,2.43.5a8.81,8.81,0,0,1,1.35-1.77C5.07,59.51,3.84,59.49,4.51,58.17Z"/><path class="cls-9" d="M9,54.22l-.28-.12c-1,.64-3.34,2.37-4.2,4.07-.67,1.32.56,1.34,1.62,1.16A3.26,3.26,0,0,1,9,58.48l.91-3.76A6.92,6.92,0,0,0,9,54.22Z"/><path class="cls-10" d="M4.92,61.82a17.82,17.82,0,0,1,1.45-4,2.19,2.19,0,0,1,.8-1c-1.28-.15-1.79.56-2.74,2.57-1.06,2.21-2.69,6.77-.73,6.92,1.3.1,2.18-1.66,2.74-3.14C5.55,63.92,4.67,63.36,4.92,61.82Z"/><path class="cls-11" d="M7.58,57l-.41-.07a2.19,2.19,0,0,0-.8,1,17.82,17.82,0,0,0-1.45,4c-.25,1.54.63,2.1,1.52,1.42.29-.75.5-1.42.63-1.75.4-1,1.84-.91,1.84-.91l.66-3.15S9.17,57.32,7.58,57Z"/><path class="cls-12" d="M14.11,55.39l-3.52-.88-.68,2.85,7.19-.07A8.93,8.93,0,0,0,14.11,55.39Z"/><polygon class="cls-13" points="10.02 57.5 9.14 57.31 9.86 54.06 10.74 54.27 10.02 57.5"/><path class="cls-14" d="M11.42,48.42c-.65-.16-1.34-.35-2.06-.58A4.33,4.33,0,0,0,10,51.41C11.48,50.92,11.49,49.15,11.42,48.42Z"/><path class="cls-14" d="M21.87,47.85s-3.38,2.26-10.45.57c.07.73.06,2.5-1.41,3,.87,1.55,2.69,3.47,6.34,5.5-5.9.22-6.19.28-6.19.28L9.94,61s10.76.31,14.42-1.79c3.47.19,4.58-.82,4.75-1.88S25.79,49.71,21.87,47.85Z"/><rect class="cls-15" x="7.16" y="58.51" width="4.48" height="1.16" transform="translate(-50.21 64.29) rotate(-85.95)"/><path class="cls-12" d="M18.48,51s.57.39,1.39,1c.4.33.88.7,1.37,1.13s1,.88,1.49,1.36c.25.24.49.48.72.74s.45.5.66.75a6.12,6.12,0,0,1,.55.77,1.58,1.58,0,0,1,.21.38,2,2,0,0,1,.09.2.53.53,0,0,1,.06.19,1.36,1.36,0,0,1-.11.72,3.11,3.11,0,0,1-.26.49,2.78,2.78,0,0,1-.29.37,3,3,0,0,0,.25-.4,2.57,2.57,0,0,0,.21-.49,1.31,1.31,0,0,0,.06-.66.58.58,0,0,0-.06-.17,1,1,0,0,0-.09-.18,2.67,2.67,0,0,0-.22-.36,8.79,8.79,0,0,0-.56-.72c-.21-.24-.43-.5-.66-.74s-.48-.48-.73-.72c-.49-.48-1-.95-1.47-1.38l-1.31-1.17Z"/><path class="cls-12" d="M21.24,51a1.62,1.62,0,0,1-.08.29,3.14,3.14,0,0,1-.25.59,3.23,3.23,0,0,1-.33.53l-.2.22a2.73,2.73,0,0,1,.07-.29,3.38,3.38,0,0,1,.25-.58,4.48,4.48,0,0,1,.34-.53A2.83,2.83,0,0,1,21.24,51Z"/><path class="cls-12" d="M20.24,58.57l-.49-.08-.26-.05-.25-.07L19,58.3a1.7,1.7,0,0,1-.24-.09L18.27,58a3.76,3.76,0,0,1-.46-.2l-.46-.23c-.3-.16-.6-.34-.89-.52l.18-.14.08.18a1.14,1.14,0,0,0,.1.19,1.08,1.08,0,0,0,.11.18l.12.17.13.18.14.16a2.83,2.83,0,0,0,.3.3,2.05,2.05,0,0,1-.36-.24l-.17-.15a1.14,1.14,0,0,1-.16-.15l-.14-.16a1.33,1.33,0,0,1-.14-.19l-.12-.19a1.18,1.18,0,0,1-.11-.19l-.15-.33.32.18.44.25.44.24.45.23c.15,0,.3.14.46.21l.45.2a1.2,1.2,0,0,0,.23.11l.23.09.47.19A3.9,3.9,0,0,1,20.24,58.57Z"/><path class="cls-10" d="M7.71,60.93,5.46,60l-.4,1.15s1.31.35,1.89.54C7.35,61.84,7.61,61.68,7.71,60.93Z"/><g class="cls-16"><path class="cls-14" d="M10.61,60.13l.13-2.55s4.48-.73,5.57-.06a9,9,0,0,0,1.64.85l-.6-.77a8.85,8.85,0,0,0,3.21.83C15,57.09,9.83,49.1,11.46,49.52c6.93,1.34,10-.52,11-1.37a5.86,5.86,0,0,0-.55-.3s-3.38,2.26-10.45.57c-.65-.16-1.34-.35-2.06-.58A4.33,4.33,0,0,0,10,51.41c.87,1.55,2.69,3.47,6.34,5.5-5.9.22-6.19.28-6.19.28L9.94,61s8.33.24,12.83-1.13C14.12,61.37,10.61,60.13,10.61,60.13Z"/></g><g class="cls-16"><path class="cls-14" d="M25.65,57.7C25.29,56,21,52.43,21,52.43l.48-1.88-1.27,1.51L19,51.33S21,53,22,54s3.45,3.2,2.81,4.27l-.55.94.09-.05a11.18,11.18,0,0,0,2.15-.06A1.54,1.54,0,0,1,25.65,57.7Z"/></g><path class="cls-17" d="M72.5,48.89c-1.71,1.21-3,1.92-10.26,2.47-2.57.09-2.52.51-2.19-1.61a8.47,8.47,0,0,0-1.64-1s-1.58,2.31-1.13,3.9,6.27.35,10-.22,5.23-1.3,8.5-.09l.14,0C76.83,50.26,74,49.25,72.5,48.89Z"/><path class="cls-18" d="M78.66,51c-1.14-1.6-4.45-3.32-6.15-2.11h0c1.46.36,4.33,1.37,3.39,3.48C78.15,53.16,79.76,52.58,78.66,51Z"/><path class="cls-11" d="M79.89,51.47c-2.54.32-10.18,2.49-10.45,2.42s.06-2.14.06-2.14L67,51.89c-.12,3.78-1,5,2.15,4.45,5.55-1.24,10.09-3.06,10.82-3s2.75,1.07,5,2C85.67,52.69,81.7,51.64,79.89,51.47Z"/><path class="cls-18" d="M88.59,54.68c-.28-1.48-5-3.69-6.64-4.2s-2.19,0-2.06,1c1.81.17,5.78,1.22,5.08,3.89l.53.23C88,56.64,88.77,56.16,88.59,54.68Z"/><path class="cls-19" d="M61.33,44.32a2.49,2.49,0,0,0,.19.4,16.57,16.57,0,0,0-4.12,3.56s7.29,6.23,14.66,2.94a23,23,0,0,0,1.3-6.9Z"/><g class="cls-20"><path class="cls-21" d="M64.73,44.32a21.58,21.58,0,0,1-1.91,7,12.3,12.3,0,0,0,9.24-.09,23,23,0,0,0,1.3-6.9Z"/></g><path class="cls-22" d="M66,30.81c-1-.19-1.1-1.44-.94-2.3a14.3,14.3,0,0,0,2.43.31C67.33,29.54,67,31,66,30.81Z"/><path class="cls-23" d="M61.5,30.93C62,30,62.44,29,63,28.07c1.11-1.09,5.91-1,8.49,1.6,1.06,1.06,1,2.89,1.31,5.48a69.25,69.25,0,0,1,1,10.5,15.78,15.78,0,0,1-14.25-1.29c.39-5,.86-11,2-13.43Z"/><path class="cls-24" d="M63.92,30.84c1,1.29,2.49,1.11,3.92,1.08a.3.3,0,0,1,.26.15c.47,1-.38,2-.85,2.77a59.73,59.73,0,0,1-3.44,4.94,18.14,18.14,0,0,0,3-1.18A4.89,4.89,0,0,1,68.41,38c1.16-.12,1.1,5.29,1.24,7,0,.53.1,1.11.08,1.7a13.24,13.24,0,0,0,4-1,69.25,69.25,0,0,0-1-10.5c-.32-2.59-.25-4.42-1.31-5.48a8.53,8.53,0,0,0-7.85-2A3.56,3.56,0,0,0,63.92,30.84Z"/><path class="cls-3" d="M20.79,29.88s.48.09,1.25,1c1.64,1.95,4.41,5.76,5.19,7,1,1.58.54,2.42-.39,2.61-1.84.36-6-5-6-5Z"/><path class="cls-25" d="M22.86,34.21c.33,1.36.32,2.76.52,4.14a34,34,0,0,1-2.52-2.84l-.07-5.63h0A9.09,9.09,0,0,1,22.86,34.21Z"/><path class="cls-11" d="M18.59,33.5c-2.24.8-3.27-3.6-3.74-4.74a6.73,6.73,0,0,1,.85-.05,4,4,0,0,0-.1-1.45l2.57.4,0,1.23s.44.12.56.13C18.91,29.18,21.1,32.59,18.59,33.5Z"/><path class="cls-25" d="M16.36,31.72a2,2,0,0,0,2.32.69c.83-.36.91-1.32.71-2.25.48,1.13.82,2.75-.8,3.34s-2.66-1.64-3.24-3.32A12,12,0,0,0,16.36,31.72Z"/><path class="cls-25" d="M15.73,28.26a4.22,4.22,0,0,0-.13-1l2.57.4,0,1.2A4.64,4.64,0,0,1,15.73,28.26Z"/><path class="cls-26" d="M10.94,34.84c2.75-2,2.48-5.93,2.48-5.93s.68-.09,1.43-.15c.47,1.14,1.16,4.53,3.3,4.32,2.66-.27.76-3.9.61-4.06a3.93,3.93,0,0,1,2.45,1.28C22,31.41,23.74,39,23.9,48.5c-1.81,1.4-9.42,3-15.33.56C9.87,39.76,10.39,35.24,10.94,34.84Z"/><path class="cls-27" d="M16.55,41.4c-2.65-1.54-4-4.19-5.2-6.9a4.35,4.35,0,0,1-.41.34c-.25.19-.51,1.29-.83,3.36.71,1.07,1.55,2,2.32,3.09,1,1.41,2.33,3.17,4.21,3.42A17.43,17.43,0,0,0,23.7,44c0-.68-.09-1.32-.15-2C21.13,42.5,18.68,42.64,16.55,41.4Z"/><path class="cls-27" d="M16.77,33.9a2,2,0,0,0,2.16.22,2.93,2.93,0,0,0,1-2.51,5.66,5.66,0,0,0-.92-2.2c.47,1,1.35,3.46-.83,3.67-2,.19-2.74-2.77-3.2-4.09C15.09,30.71,15.33,33,16.77,33.9Z"/><path class="cls-27" d="M21.57,34.57c.32,2,.65,3.93.83,5.92s.35,4.11.46,6.17c0,.74.16,1.54.17,2.33a4.49,4.49,0,0,0,.87-.49C23.74,39,22,31.41,21.21,30.3a2.37,2.37,0,0,0-.74-.67C20.87,31.26,21.3,32.89,21.57,34.57Z"/><path class="cls-3" d="M34,39.46s-6.73,1.75-8.31.7.33-2.53,1.68-2.6l9-.5,0,2Z"/><path class="cls-28" d="M27.19,30.17l.07.13c0,.08.11.2.18.33.13.28.3.67.45,1.06s.29.77.38,1.08a3.56,3.56,0,0,1,.1.36.48.48,0,0,1,0,.13l-.06-.12c0-.08-.11-.19-.18-.33s-.29-.67-.45-1.05-.28-.79-.37-1.09a2,2,0,0,1-.11-.36A1,1,0,0,0,27.19,30.17Z"/><path class="cls-28" d="M27.4,30.07l.09.12.22.34c.19.27.42.64.64,1s.42.78.56,1.08c.08.14.13.27.17.35s.06.15.06.15L29.05,33c-.06-.07-.14-.19-.23-.32s-.42-.65-.64-1-.42-.77-.56-1.06-.12-.28-.16-.37A.55.55,0,0,1,27.4,30.07Z"/><path class="cls-28" d="M27.47,30l.12.1c.06.07.17.17.28.3s.53.6.81,1,.56.71.75,1l.23.35.09.13-.11-.11-.3-.3-.81-1c-.28-.36-.55-.72-.74-1a2.54,2.54,0,0,1-.23-.35A.73.73,0,0,0,27.47,30Z"/><path class="cls-28" d="M27.69,30.11l.12.07.31.21c.25.17.58.41.89.67s.62.53.84.74.2.2.26.26l.09.1-.11-.07-.31-.21c-.25-.17-.58-.42-.9-.67s-.61-.53-.83-.74l-.26-.26Z"/><path class="cls-28" d="M27.8,30l.12.06.34.18c.27.15.63.36,1,.59s.68.47.94.67l.28.23.12.1-.13-.06-.34-.18c-.27-.15-.63-.36-1-.6s-.68-.47-.93-.66l-.29-.24Z"/><path class="cls-10" d="M27.22,29.91s-.85.34-1.41.51,0,.56.57,1,.58,0,1-1.21c1.13.06,1.42,0,1.44-.15s-.42-1.5-.68-1.47S27.22,29.91,27.22,29.91Z"/><path class="cls-28" d="M23.63,26.79s.1.56,1.2.74c-.31.91.23,1.57.81,1.59-.37.44.3,1.36,1.46.89.62-.25.14-.73.14-.73s.52-1.87-1-2.2a3.85,3.85,0,0,0-.68-1.78A5.1,5.1,0,0,1,23.63,26.79Z"/><g class="cls-20"><path class="cls-29" d="M26.57,27.18l-.27-.09A2.51,2.51,0,0,1,26,28.32,1.57,1.57,0,0,0,26.57,27.18Z"/><path class="cls-29" d="M25.36,27.4a1.78,1.78,0,0,1-.63.11l.1,0q0,.12-.06.21C25.09,27.69,25.36,27.59,25.36,27.4Z"/><path class="cls-29" d="M26.75,29.73a1.07,1.07,0,0,0,.65-.17.62.62,0,0,0-.16-.28A1.25,1.25,0,0,1,26.75,29.73Z"/><path class="cls-29" d="M25.34,29.05a.82.82,0,0,0,.3.07.42.42,0,0,0-.1.32A2.15,2.15,0,0,0,26.61,29,3.53,3.53,0,0,1,25.34,29.05Z"/></g><path class="cls-28" d="M5.27,30.54l0,.17c0,.11,0,.26-.07.44-.06.37-.11.85-.15,1.34s0,1,0,1.34c0,.19,0,.34,0,.45a.92.92,0,0,0,0,.16l0-.16c0-.1,0-.25.08-.44,0-.36.1-.85.13-1.34s0-1,0-1.34c0-.19,0-.34,0-.45A1.15,1.15,0,0,0,5.27,30.54Z"/><path class="cls-28" d="M5,30.51,5,30.67c0,.11-.09.26-.15.45-.1.37-.22.88-.33,1.38s-.21,1-.26,1.4c0,.19,0,.36,0,.47s0,.18,0,.18a1.78,1.78,0,0,0,.07-.17c0-.11.08-.26.14-.45.11-.37.24-.88.35-1.38s.19-1,.25-1.4c0-.19,0-.35,0-.47A1.2,1.2,0,0,0,5,30.51Z"/><path class="cls-28" d="M4.89,30.44l-.09.16c0,.1-.12.26-.21.44-.17.36-.38.86-.58,1.35s-.36,1-.48,1.39c-.06.19-.1.35-.13.47a1,1,0,0,0,0,.18l.09-.17c0-.11.13-.25.21-.43.17-.37.39-.86.57-1.36s.38-1,.5-1.38c.06-.19.1-.36.13-.47A1.64,1.64,0,0,0,4.89,30.44Z"/><path class="cls-28" d="M4.69,30.65l-.11.12c-.06.08-.16.19-.27.34s-.49.67-.76,1.07a12.64,12.64,0,0,0-.67,1.12c-.1.16-.16.3-.21.39l-.08.15a.61.61,0,0,0,.11-.13A2.75,2.75,0,0,0,3,33.38c.22-.29.5-.67.76-1.08s.51-.81.68-1.11l.2-.4A1.38,1.38,0,0,0,4.69,30.65Z"/><path class="cls-28" d="M4.54,30.56a1.06,1.06,0,0,1-.12.12L4.1,31c-.25.26-.57.64-.89,1s-.6.77-.81,1.07c-.11.15-.19.28-.25.37l-.09.14a.78.78,0,0,0,.13-.11l.31-.32c.25-.26.58-.63.89-1s.61-.77.81-1.07l.25-.38A1.56,1.56,0,0,0,4.54,30.56Z"/><path class="cls-10" d="M5.14,30.26s1.08.07,1.77.07.22.62-.28,1.31-.67.18-1.59-1c-1.24.47-1.58.53-1.67.34s-.05-1.84.25-1.88S5.14,30.26,5.14,30.26Z"/><path class="cls-28" d="M8.08,25.48s.09.66-1.09,1.26a1.3,1.3,0,0,1-.35,2.08c.59.36.15,1.62-1.32,1.5-.78-.05-.42-.77-.42-.77s-1.23-1.9.32-2.8a4.51,4.51,0,0,1,.12-2.25A5.9,5.9,0,0,0,8.08,25.48Z"/><g class="cls-20"><path class="cls-29" d="M4.92,27a1,1,0,0,1,.27-.21,3,3,0,0,0,.74,1.29C5.47,28,5.13,27.41,4.92,27Z"/><path class="cls-29" d="M6.35,26.78a2.27,2.27,0,0,0,.75-.1L7,26.74c0,.08.1.15.14.23C6.76,27,6.42,27,6.35,26.78Z"/><path class="cls-29" d="M5.62,29.9a1.29,1.29,0,0,1-.8,0,.92.92,0,0,1,.08-.37A1.61,1.61,0,0,0,5.62,29.9Z"/><path class="cls-29" d="M7,28.63a1.13,1.13,0,0,1-.32.19.51.51,0,0,1,.23.31A2.54,2.54,0,0,1,5.52,29,4.54,4.54,0,0,0,7,28.63Z"/></g><path class="cls-11" d="M27.54,18.19A1.17,1.17,0,0,1,29,19.43a2.36,2.36,0,0,1-1.48,2.07S26.44,18.3,27.54,18.19Z"/><path class="cls-11" d="M7,22.57a1.26,1.26,0,0,1-2,.34C3.6,22,3.6,19.06,5.06,18.82s2.43,1.7,2.43,1.7.21-1.53.29-3.16c3-1.66,6-6,7-9.26,4.09,2.56,10.5,4.41,12.78,4.09a13.06,13.06,0,0,0-.32,6.31s.1,1.23.38,3.4S26,26.76,21.5,28c-4.62,1.08-8.25.28-12.27-2.74A15.85,15.85,0,0,1,7,22.57Z"/><path class="cls-30" d="M10.8,2c.47-1.79,8-4.28,14.55,2,5.13,4.43,6.73,10.52,1.86,14.48a13.06,13.06,0,0,1,.32-6.31c-2.28.32-8.69-1.53-12.78-4.09-.95,3.29-4,7.6-7,9.26-.08,1.63-.29,3.16-.29,3.16s-1-2-2.43-1.7S3.6,22,5,22.91a1.26,1.26,0,0,0,2-.34,15.85,15.85,0,0,0,2.26,2.72c-.65.94-6.64.33-8.62-6.51S1.36,1.51,10.8,2Z"/><path class="cls-31" d="M22,22.56a1.12,1.12,0,0,0,1.19-.9.39.39,0,0,0-.54-.44,1.34,1.34,0,0,0-.53.3h0a.74.74,0,0,1,.25-.28,4,4,0,0,1-.27-.33c.07.11.34.25.35.27a.75.75,0,0,1,.29-.11.49.49,0,0,1,.58.3.79.79,0,0,1-.21.93C22.29,22.88,21.92,22.55,22,22.56Z"/><path class="cls-31" d="M27.64,20.75s-.51-.79,0-1.29a.52.52,0,0,1,.87.1.5.5,0,0,0-.76.25A1.09,1.09,0,0,0,27.64,20.75Z"/><path class="cls-31" d="M5.87,22s.51-.79,0-1.29a.53.53,0,0,0-.88.1.5.5,0,0,1,.76.24A1.12,1.12,0,0,1,5.87,22Z"/><path class="cls-32" d="M14.75,8.1s-.05-.11-.12-.29-.21-.44-.36-.75-.33-.65-.55-1-.42-.76-.66-1.15-.49-.77-.74-1.11c-.12-.19-.25-.34-.37-.5s-.24-.3-.35-.43a3.66,3.66,0,0,0-.31-.35A2,2,0,0,0,11,2.24L10.8,2l.2.24c.12.15.3.39.49.66s.41.6.64,1c.12.17.24.36.35.55l.36.58,1.3,2.12c.18.29.34.53.44.7A2.67,2.67,0,0,0,14.75,8.1Z"/><path class="cls-33" d="M25.39,19.06c0,.59-.16,1.09-.39,1.1s-.43-.45-.45-1S24.72,18,25,18,25.38,18.47,25.39,19.06Z"/><path class="cls-34" d="M24.9,18.64c0,.19-.07.33-.14.33s-.12-.15-.11-.33.08-.33.15-.32S24.91,18.47,24.9,18.64Z"/><path class="cls-33" d="M18.57,19.45c0,.59-.16,1.09-.39,1.09s-.43-.45-.44-1,.16-1.08.39-1.1S18.56,18.87,18.57,19.45Z"/><path class="cls-34" d="M18.08,19c0,.19-.07.33-.14.33s-.12-.16-.11-.33.08-.32.14-.32S18.09,18.85,18.08,19Z"/><path class="cls-30" d="M25.82,15.59a2,2,0,0,0-.06-.57,2,2,0,0,0-.08-.27,1.47,1.47,0,0,0-.18-.28.72.72,0,0,0-.29-.22L25,14.2h-.2a.74.74,0,0,0-.18,0,1,1,0,0,0-.18.06,1.21,1.21,0,0,0-.28.21,2.32,2.32,0,0,0-.62,1,4.42,4.42,0,0,1,.36-.42c.06-.06.11-.13.18-.19l.22-.19.12-.08.13-.07a.34.34,0,0,1,.14,0,.42.42,0,0,1,.14,0H25l.13,0a.74.74,0,0,1,.22.14,1.84,1.84,0,0,1,.17.22l.12.23A4.3,4.3,0,0,1,25.82,15.59Z"/><path class="cls-30" d="M18.61,15.62a1.17,1.17,0,0,0,0-.22,3.06,3.06,0,0,0-.17-.58,2.45,2.45,0,0,0-.19-.35,1.1,1.1,0,0,0-.14-.18.65.65,0,0,0-.16-.17,1.57,1.57,0,0,0-.43-.27l-.27-.06a2.26,2.26,0,0,0-.27,0,1.65,1.65,0,0,0-.5.12,1.13,1.13,0,0,0-.22.11l-.21.13a3.28,3.28,0,0,0-.34.31l-.25.3a3.76,3.76,0,0,0-.29.52,1,1,0,0,0-.09.21l.13-.18a3,3,0,0,1,.37-.45l.27-.27a2.91,2.91,0,0,1,.33-.26,2,2,0,0,1,.39-.18A1.23,1.23,0,0,1,17,14h.22l.2,0a1.76,1.76,0,0,1,.38.21l.15.13a1.83,1.83,0,0,1,.13.16,1.41,1.41,0,0,1,.21.31,4.13,4.13,0,0,1,.26.52A1.33,1.33,0,0,1,18.61,15.62Z"/><path class="cls-35" d="M15.46,21.06c0,.31.56.64,1.33.7s1.4-.13,1.43-.44-.56-.64-1.33-.71S15.48,20.74,15.46,21.06Z"/><path class="cls-35" d="M25.4,20.69c.05.23.54.33,1.1.2s1-.41.92-.64-.54-.32-1.1-.19S25.35,20.46,25.4,20.69Z"/><g class="cls-16"><path class="cls-30" d="M5.86,23.72c-2.7-.21-3-4.41-1.45-5.17a2.4,2.4,0,0,1,2.48-.07,1.91,1.91,0,0,0-1.65-1.31c5.79-1.51,8.9-9.31,8.55-10.83,3.8,3.66,13.31,5.05,14.55,4.49a18.81,18.81,0,0,0-.5,7.11c-.2.19-.4.38-.63.56a13.06,13.06,0,0,1,.32-6.31c-2.28.32-8.69-1.53-12.78-4.09-.95,3.29-4,7.6-7,9.26-.08,1.63-.29,3.16-.29,3.16s-1-2-2.43-1.7S3.6,22,5,22.91a1.26,1.26,0,0,0,2-.34,15.85,15.85,0,0,0,2.26,2.72c-.43.62-3.16.56-5.55-1.48C6.28,25.43,7.23,23.86,5.86,23.72Z"/></g><path class="cls-36" d="M24.44,24.32a5.47,5.47,0,0,1-3.05,2.57,3.16,3.16,0,0,1-3.89-1.4,4.43,4.43,0,0,1-.66-1.81A32.14,32.14,0,0,0,24.44,24.32Z"/><path class="cls-37" d="M20,25.69a5.3,5.3,0,0,1,1,1.29,3.14,3.14,0,0,1-3.56-1.49,4.47,4.47,0,0,1-.42-.85A4,4,0,0,1,20,25.69Z"/><path class="cls-3" d="M37.08,39.7a2,2,0,0,1-1.77-2.08A2.7,2.7,0,0,1,36.08,36,3.42,3.42,0,0,0,37.19,34s.31-.19.45.33a2.25,2.25,0,0,1-.42,1.71,6.26,6.26,0,0,1,2.65-1c1.31-.06,1.31.59.54.63a5.36,5.36,0,0,0-1.83.71A8,8,0,0,1,41,36.27c.9.15.73.75-.07.79a9,9,0,0,0-1.86.36,8.67,8.67,0,0,1,2.29.26c.53.28.43.89-.73.79a7.33,7.33,0,0,0-1.35-.06s1.37.51,1.6,1.06,0,.54-.65.22a5.19,5.19,0,0,0-1.32-.45s-.15.1-.18.11a3.82,3.82,0,0,1-.51.23A2.84,2.84,0,0,1,37.08,39.7Z"/><path class="cls-5" d="M37.22,36c-.06.14.19.57.23.7a2.76,2.76,0,0,1,.15.81,1.67,1.67,0,0,1-.49,1.26s0,0,0,0a2.19,2.19,0,0,0,.17-2.09c-.06-.2-.33-.56-.09-.72C37.22,35.93,37.23,36,37.22,36Z"/><path class="cls-5" d="M38.33,36.27a2.58,2.58,0,0,1,.59,1.31,1.93,1.93,0,0,1-.06,1.3h0a3.24,3.24,0,0,0-.57-2.56S38.3,36.23,38.33,36.27Z"/><path class="cls-3" d="M64.86,26.78s-1.09,3.2.2,3.81a1.69,1.69,0,0,0,2.48-1.21c.14-1,.29-2.36.29-2.36Z"/><path class="cls-38" d="M36.26,27.61a29.58,29.58,0,0,1,2.6,19.74,9.51,9.51,0,0,0,1.31,0,16.62,16.62,0,0,0,4.53-.83,10.33,10.33,0,0,0,2.47-1.22,11.49,11.49,0,0,0,4.11-5,12.86,12.86,0,0,0-3.18-7.54C42.36,26,36.26,27.61,36.26,27.61Z"/><path class="cls-38" d="M36,27.59a5.65,5.65,0,0,0-4.31-1.15,11.61,11.61,0,0,0-3.2,5.5,13.68,13.68,0,0,0,.83,8.8,9.12,9.12,0,0,0,.91,1.61C29.9,39.07,29.7,30.84,36,27.59Z"/><path class="cls-39" d="M52.25,33.11a12.84,12.84,0,0,0-4.43-7.47s0,0,0,0a10,10,0,0,0-11.24,1.24,4.91,4.91,0,0,1,2.17-3.67,13.94,13.94,0,0,0-5.66,2.2,11,11,0,0,0-1.35,1.07A5.65,5.65,0,0,1,36,27.59c-6.31,3.25-6.11,11.48-5.77,14.76a12.65,12.65,0,0,0,5.49,4.23,10.56,10.56,0,0,0,3.13.77,29.58,29.58,0,0,0-2.6-19.74S42.36,26,48.1,32.76a12.86,12.86,0,0,1,3.18,7.54,13.54,13.54,0,0,0,.64-1.68,11.09,11.09,0,0,0,.5-3A10.49,10.49,0,0,0,52.25,33.11Z"/><path class="cls-38" d="M36.54,26.84A10,10,0,0,1,47.78,25.6a11.43,11.43,0,0,0-9.07-2.43A4.91,4.91,0,0,0,36.54,26.84Z"/><path class="cls-40" d="M41,25a2.24,2.24,0,0,1,.2.79,3.66,3.66,0,0,1-.89,2.44,6.68,6.68,0,0,1-.76.74A9.93,9.93,0,0,1,38,30a7,7,0,0,1-1.72.63,4.84,4.84,0,0,1-3.08-.17,2.5,2.5,0,0,1-1.41-1.9,3.24,3.24,0,0,1,.83-2.36A7.42,7.42,0,0,1,38,23.54a3.72,3.72,0,0,1,2.56.91A2,2,0,0,1,41,25Z"/><path class="cls-41" d="M29.46,39.75s-.09-.26-.23-.7c-.05-.23-.12-.5-.22-.81s-.14-.67-.21-1.07-.1-.79-.16-1.25-.05-.91-.07-1.39.06-1,.09-1.47.17-1,.25-1.47.31-.93.46-1.4.4-.87.63-1.26a8.07,8.07,0,0,1,.78-1.06,6.6,6.6,0,0,1,.81-.85l.39-.35.39-.25a5.74,5.74,0,0,1,.69-.39,1.69,1.69,0,0,1,.49-.14l.18-.05-.18.07a1.74,1.74,0,0,0-.44.2,4.68,4.68,0,0,0-.62.43l-.36.3-.35.36a7.45,7.45,0,0,0-.74.88,11.66,11.66,0,0,0-.69,1.07c-.22.38-.38.81-.6,1.21s-.31.93-.42,1.39-.19.94-.27,1.43-.07,1-.11,1.42V36c0,.43.07.85.1,1.22s.09.75.13,1,.09.59.13.81C29.41,39.49,29.46,39.75,29.46,39.75Z"/><path class="cls-41" d="M33.07,30l-.1.1a3.26,3.26,0,0,0-.23.29c-.09.13-.2.28-.32.47s-.12.2-.18.3l-.19.35a3.35,3.35,0,0,1-.2.37l-.17.42a9.58,9.58,0,0,0-.37.91c-.1.32-.23.65-.32,1s-.19.69-.26,1.06-.16.7-.21,1.05a9.65,9.65,0,0,0-.15,1c0,.34-.08.66-.1,1s-.05.6-.06.89c0,.53,0,1-.05,1.31s0,.5,0,.5,0-.18,0-.5c0-.16,0-.35,0-.58s0-.23,0-.35v-.38c0-.29,0-.58,0-.9s0-.65.07-1,.08-.7.13-1,.12-.71.2-1.08a9.6,9.6,0,0,1,.29-1,8.52,8.52,0,0,1,.33-1c.13-.32.25-.63.39-.92.08-.13.14-.26.22-.4s.14-.25.21-.37.29-.44.42-.63a5.12,5.12,0,0,1,.35-.45A3.72,3.72,0,0,1,33.07,30Z"/><path class="cls-41" d="M37.5,30.39l.27.65c.08.21.18.46.28.75s.22.63.33,1,.22.77.33,1.19.22.87.32,1.33.19,1,.27,1.46.15,1,.2,1.51c0,.25,0,.51.08.75s0,.51,0,.76a14.79,14.79,0,0,1,0,1.48,5.43,5.43,0,0,1,0,.7l0,.68c0,.21,0,.43,0,.64s0,.4-.07.59c0,.37-.09.72-.14,1s-.11.57-.15.79l-.14.69s0-.27.09-.7c0-.22.07-.49.11-.8s0-.65.09-1c0-.2,0-.4,0-.59s0-.43,0-.65c0-.43,0-.88,0-1.36s0-1,0-1.47c0-.24,0-.49,0-.75l-.09-.75c0-.5-.11-1-.19-1.49s-.16-1-.24-1.46-.18-.91-.28-1.33-.2-.82-.3-1.19c-.2-.74-.38-1.35-.52-1.77S37.5,30.39,37.5,30.39Z"/><path class="cls-41" d="M41.77,28.11s.21.08.57.25a14.57,14.57,0,0,1,1.47.79,19.38,19.38,0,0,1,1.92,1.33c.32.28.66.57,1,.89s.64.63,1,1c.16.17.31.35.46.52s.28.35.41.54c.26.37.52.74.74,1.1s.42.73.6,1.09c.08.18.17.35.24.52l.2.5c.13.31.23.62.31.87s.14.51.19.7c.09.38.14.62.14.62l-.19-.6c-.05-.2-.14-.42-.23-.68s-.21-.56-.35-.86L50,36.17c-.08-.16-.16-.33-.25-.49-.19-.35-.4-.7-.63-1.06a10.76,10.76,0,0,0-.74-1.07L47.94,33l-.45-.5c-.3-.35-.61-.67-.94-1s-.64-.6-1-.86-.65-.54-1-.77-.61-.44-.89-.63c-.57-.37-1.06-.67-1.41-.86Z"/><path class="cls-41" d="M41.68,24.52l.33-.06c.21,0,.52-.05.86-.06h.59a4.79,4.79,0,0,1,.65,0c.23,0,.46,0,.7.07l.7.14.7.2c.22.09.44.16.65.26a4.51,4.51,0,0,1,.58.3c.17.11.35.21.49.32s.27.22.38.31a1.59,1.59,0,0,1,.26.28,1.9,1.9,0,0,0,.23.23l-.26-.19a2.35,2.35,0,0,0-.28-.25,3.58,3.58,0,0,1-.41-.27c-.14-.1-.33-.18-.5-.28s-.38-.16-.58-.25a6,6,0,0,0-.64-.22c-.22-.08-.45-.14-.67-.2s-.47-.11-.69-.13-.46-.09-.68-.11-.43-.06-.63-.07l-.59,0c-.34,0-.65,0-.86,0Z"/><path class="cls-42" d="M40.29,24.91a1.94,1.94,0,0,1,.17.71,3.21,3.21,0,0,1-.79,2.17,5.81,5.81,0,0,1-.66.65,10.61,10.61,0,0,1-1.38.91,5.63,5.63,0,0,1-1.53.55,4.23,4.23,0,0,1-2.74-.15,2.17,2.17,0,0,1-1.24-1.67,2.8,2.8,0,0,1,.74-2.1,6.56,6.56,0,0,1,4.82-2.36,3.21,3.21,0,0,1,2.27.81A2.21,2.21,0,0,1,40.29,24.91Z"/><path class="cls-43" d="M40.46,25.62a1.94,1.94,0,0,0-.17-.71,2.21,2.21,0,0,0-.34-.48,2.42,2.42,0,0,0-.83-.53,1.94,1.94,0,0,1,.27.21,2.36,2.36,0,0,1,.28.42,1.38,1.38,0,0,1,.15.58,2.7,2.7,0,0,1-.67,1.82,3.65,3.65,0,0,1-.56.55,7.69,7.69,0,0,1-1.15.77,5.43,5.43,0,0,1-1.29.47,3.59,3.59,0,0,1-2.3-.13,1.86,1.86,0,0,1-1-1.41,2.35,2.35,0,0,1,.62-1.76l.14-.17a7,7,0,0,0-.71.73,2.8,2.8,0,0,0-.74,2.1,2.17,2.17,0,0,0,1.24,1.67,4.23,4.23,0,0,0,2.74.15,5.63,5.63,0,0,0,1.53-.55A10.61,10.61,0,0,0,39,28.44a5.81,5.81,0,0,0,.66-.65A3.21,3.21,0,0,0,40.46,25.62Z"/><path class="cls-41" d="M32.82,26.84a1.24,1.24,0,0,1,.06-.32,2.9,2.9,0,0,1,.14-.36,2.86,2.86,0,0,1,.25-.44,4.59,4.59,0,0,1,.38-.46c.08-.06.15-.15.24-.23l.26-.21a5.87,5.87,0,0,1,.59-.37l.33-.17a2.13,2.13,0,0,1,.35-.14l.33-.13.35-.1c.24-.05.47-.1.7-.13a5.16,5.16,0,0,1,1.26,0,4.57,4.57,0,0,1,.84.25,2.61,2.61,0,0,1,.3.17l-.32-.13A7,7,0,0,0,38,24a5.46,5.46,0,0,0-.58,0,3.52,3.52,0,0,0-.63.06,6,6,0,0,0-.66.14l-.33.09-.35.13-.32.13c-.1.06-.21.1-.31.15l-.59.35a2.56,2.56,0,0,1-.26.2l-.23.19a5,5,0,0,0-.4.41,3.62,3.62,0,0,0-.45.73A1.32,1.32,0,0,0,32.82,26.84Z"/><path class="cls-44" d="M52.25,33.11a12.65,12.65,0,0,0-3.46-6.57,2.86,2.86,0,0,0-.22-.23,1.59,1.59,0,0,0-.26-.28c-.11-.09-.23-.2-.38-.31l-.12-.09,0,0a3.79,3.79,0,0,0-.4-.3A12,12,0,0,1,48.79,28a10.76,10.76,0,0,1,.11,7.58,12.56,12.56,0,0,1-4.34,5.49c-3.69,2.67-9.35,4.06-13.12.8a9.54,9.54,0,0,1-3.17-5.77c-.07-.43-.12-.85-.15-1.29a14.3,14.3,0,0,0,1.21,5.9,9.12,9.12,0,0,0,.91,1.61,12.65,12.65,0,0,0,5.49,4.23,10.56,10.56,0,0,0,3.13.77,9.51,9.51,0,0,0,1.31,0,16.62,16.62,0,0,0,4.53-.83,10.33,10.33,0,0,0,2.47-1.22,11.49,11.49,0,0,0,4.11-5,13.54,13.54,0,0,0,.64-1.68,11.09,11.09,0,0,0,.5-3A10.49,10.49,0,0,0,52.25,33.11Z"/><path class="cls-45" d="M78.93,7.25A4.27,4.27,0,0,1,83.9,6C87.21,7.15,90.5,16.26,86,25.77l-1.51-.18.37-2.31-1,2.92-2.43-.52.69-2.88L81,25a4.4,4.4,0,0,1-2.35-.65C80.59,16.94,81.09,12,78.93,7.25Z"/><g class="cls-16"><path class="cls-45" d="M78.93,7.25a3.59,3.59,0,0,1,1-.87,2.13,2.13,0,0,0,.51,1.36,15.4,15.4,0,0,1,.47,15.11l.54.29,1.1-1.91a11.54,11.54,0,0,1-.24,3l1.33.58,1.48-3.25,0,3.22,1.33,0c-.14.34-.28.67-.44,1l-1.51-.18.37-2.31-1,2.92-2.43-.52.69-2.88L81,25a4.4,4.4,0,0,1-2.35-.65C80.59,16.94,81.09,12,78.93,7.25Z"/></g><path class="cls-26" d="M77,5.91l1-1.79a4.11,4.11,0,0,1,1,3.13C78.73,7.66,77.58,7.31,77,5.91Z"/><path class="cls-26" d="M78.93,7.25s2.45-.93,3.49-.62c.38.23-.87,2.17-1.61,2.65C79.93,8.64,79.2,8.13,78.93,7.25Z"/><path class="cls-46" d="M73.06,25.77c1.91,1.09,3.38-.22,3-1.62-.63-1.56-1.85-1.13-2.94-.33a32,32,0,0,0,1-8.4l-.66,2.12-4.62-3.29.3-2.78-1,2.46a18.84,18.84,0,0,0-4.22-2.81,5.06,5.06,0,0,1,.57-2.71,5.65,5.65,0,0,0-1.38,2.24L59.37,8.19A4.75,4.75,0,0,1,60,6,9.73,9.73,0,0,0,58.79,7.7l-.63-.36A10.82,10.82,0,0,1,56,6.08c2.2-4.7,7.68-6.56,15.6-4.57,8.58,2.28,10.33,11.88,9.4,18-2,10.17-10.41,8.9-11.67,8.23l-.16,0A8.54,8.54,0,0,0,73.06,25.77Z"/><path class="cls-11" d="M55.89,11.62a8.84,8.84,0,0,0,2.27-4.28l.63.36A9.73,9.73,0,0,1,60,6a4.75,4.75,0,0,0-.67,2.22l3.76,2.46a5.65,5.65,0,0,1,1.38-2.24,5.06,5.06,0,0,0-.57,2.71,18.84,18.84,0,0,1,4.22,2.81l1-2.46-.3,2.78,4.62,3.29.66-2.12a32,32,0,0,1-1,8.4c1.09-.8,2.31-1.23,2.94.33.38,1.4-1.09,2.71-3,1.62a8.54,8.54,0,0,1-3.9,2l-.18,0h-.22c-2.1.18-6.19-.06-10.64-3.75C52.56,19.29,54,13.54,55.89,11.62Z"/><path class="cls-47" d="M65.37,18.11c-.31.53-.7.82-.9.66s-.1-.7.21-1.23.7-.81.9-.65S65.67,17.59,65.37,18.11Z"/><path class="cls-34" d="M65.21,17.39c-.1.15-.24.23-.29.18s0-.22.09-.37.23-.22.28-.17S65.31,17.24,65.21,17.39Z"/><path class="cls-47" d="M58.11,14c-.29.53-.68.84-.88.69s-.12-.71.17-1.24.68-.84.87-.68S58.4,13.43,58.11,14Z"/><path class="cls-34" d="M57.92,13.25c-.09.15-.22.23-.28.17s0-.2.08-.36.23-.23.28-.18S58,13.09,57.92,13.25Z"/><g class="cls-16"><path class="cls-46" d="M75.65,11.23a8.56,8.56,0,0,1,.23.83c.06.28.11.55.15.84,0,.13,0,.28.06.42l0,.42,0,.42c0,.14,0,.28,0,.42s0,.29,0,.43a3,3,0,0,1,0,.42l0,.42-.06.42c0,.14,0,.27-.07.41l-.09.42c-.06.28-.14.54-.21.82l.1-.06-.84-.09-.85-.09.83.19.83.17h.07l0-.07.14-.41a2.25,2.25,0,0,0,.13-.42l.1-.41a3.29,3.29,0,0,0,.09-.43c0-.15,0-.29.06-.43l0-.43c0-.15,0-.29,0-.44a3.09,3.09,0,0,0,0-.43c0-.28,0-.57,0-.87,0-.14,0-.28-.07-.42s-.06-.29-.08-.43-.07-.27-.11-.42S76,12.17,76,12A5,5,0,0,0,75.65,11.23Z"/><path class="cls-46" d="M80.41,10.67s0,.1,0,.27-.08.4-.14.68a7.15,7.15,0,0,1-.27.93c-.06.17-.12.35-.19.52s-.15.35-.22.51-.17.35-.26.52-.19.32-.28.47a4,4,0,0,1-.28.43c-.09.13-.18.26-.27.37s-.16.22-.24.31l-.2.23-.17.2a2,2,0,0,0,.21-.16l.23-.2c.09-.07.18-.18.29-.28s.21-.22.31-.35a2.83,2.83,0,0,0,.32-.43,3.76,3.76,0,0,0,.3-.47c.1-.17.2-.34.28-.51s.16-.36.22-.54.12-.37.17-.55a7.31,7.31,0,0,0,.2-1,5,5,0,0,0,0-.71C80.42,10.77,80.41,10.67,80.41,10.67Z"/><path class="cls-46" d="M80.15,10.52a2.08,2.08,0,0,0-.28.19,4.45,4.45,0,0,0-.54.48,6.4,6.4,0,0,0-.46.57,2.19,2.19,0,0,0-.17.29,2.08,2.08,0,0,0,.28-.19,4.45,4.45,0,0,0,.54-.48,3.59,3.59,0,0,0,.46-.57A2.19,2.19,0,0,0,80.15,10.52Z"/><path class="cls-46" d="M79.32,8a1.82,1.82,0,0,0-.37-.1l-.19,0a1.41,1.41,0,0,0-.21,0l-.45,0-.24,0a.8.8,0,0,0-.21,0,2.18,2.18,0,0,0-.37.15,3.55,3.55,0,0,0-.34.2,1.64,1.64,0,0,0,.39-.06l.38-.06.43-.07c.14,0,.29,0,.43-.06l.37,0C79.17,8,79.32,8,79.32,8Z"/><path class="cls-46" d="M74.72,21.42l-.16.31c0,.1-.11.21-.16.33l-.09.18a1.63,1.63,0,0,1-.09.19,1,1,0,0,1-.09.18c0,.06,0,.12-.09.19S74,22.9,74,23s0,.1-.07.14a2.92,2.92,0,0,0-.17.34A2.83,2.83,0,0,0,74,23.2a2.64,2.64,0,0,0,.24-.29,2.22,2.22,0,0,0,.21-.37,3,3,0,0,0,.24-.76A1.24,1.24,0,0,0,74.72,21.42Z"/></g><path class="cls-35" d="M65.3,19.52c-.15.35.41.92,1.24,1.26s1.64.37,1.78,0-.41-.92-1.25-1.27S65.45,19.17,65.3,19.52Z"/><path class="cls-35" d="M54.77,13.58c-.09.23.26.57.77.79s1,.23,1.12,0-.27-.57-.78-.8S54.86,13.37,54.77,13.58Z"/><path class="cls-31" d="M67.46,16.63a3.35,3.35,0,0,0,.16-.84,3.1,3.1,0,0,0,0-.44,2.8,2.8,0,0,0,0-.48,2.07,2.07,0,0,0-.16-.5,1.76,1.76,0,0,0-.14-.23,1,1,0,0,0-.2-.21l-.11-.1,0,0s0,0,0,0l-.06,0a.43.43,0,0,1-.12,0l-.15,0a1,1,0,0,0-.29,0,2,2,0,0,0-.26.06,1.85,1.85,0,0,0-.44.24,1.82,1.82,0,0,0-.32.29,3.15,3.15,0,0,0-.39.49,1.21,1.21,0,0,0-.13.21l.16-.18c.11-.11.27-.25.46-.41a2.75,2.75,0,0,1,.33-.23,1.84,1.84,0,0,1,.4-.19l.21,0a1.55,1.55,0,0,1,.22,0l.1,0,.11.06.06,0h0l.08.08a.81.81,0,0,1,.16.16l.13.2a2.07,2.07,0,0,1,.15.44,3.8,3.8,0,0,1,.11.84,4.35,4.35,0,0,1,0,.63C67.47,16.54,67.46,16.63,67.46,16.63Z"/><path class="cls-31" d="M61,12a1,1,0,0,0,0-.21,4,4,0,0,0,0-.53c0-.12,0-.24,0-.37s0-.26-.06-.4A2.35,2.35,0,0,0,60.8,10a.78.78,0,0,0-.33-.39l-.07,0h0l-.11,0a1.13,1.13,0,0,0-.25,0,1.24,1.24,0,0,0-.45.09,1.91,1.91,0,0,0-.38.18,2.32,2.32,0,0,0-.3.22,3.18,3.18,0,0,0-.52.53l.17-.12a2.78,2.78,0,0,1,.44-.29,3.26,3.26,0,0,1,.65-.3A1.76,1.76,0,0,1,60,9.78l.17,0,.11,0h0l0,0a.59.59,0,0,1,.23.28,1.61,1.61,0,0,1,.15.36,6.41,6.41,0,0,1,.16.72c0,.21.07.4.08.52Z"/><path class="cls-31" d="M59.44,17.52l-.09-.1a2.41,2.41,0,0,0-.31-.2,1.08,1.08,0,0,0-.54-.14.55.55,0,0,0-.33.13.32.32,0,0,0-.12.14.48.48,0,0,0-.08.16l0,.08s0,.05,0,.08a.78.78,0,0,0,0,.16.58.58,0,0,0,0,.32.67.67,0,0,0,.14.28.59.59,0,0,0,.2.16,1.16,1.16,0,0,0,.35.15h.14l-.12-.07a1.51,1.51,0,0,1-.28-.2.76.76,0,0,1-.13-.17.83.83,0,0,1-.08-.22.89.89,0,0,1,0-.23.61.61,0,0,1,0-.13.35.35,0,0,1,0-.07l0-.06a.17.17,0,0,1,.06-.1.16.16,0,0,1,.06-.09.34.34,0,0,1,.19-.09,1.17,1.17,0,0,1,.46,0,1.79,1.79,0,0,1,.33.11Z"/><path class="cls-31" d="M63.79,23.19l-.3.1-.33.08a4.25,4.25,0,0,1-.44.09l-.25,0a2.48,2.48,0,0,1-.27,0c-.19,0-.38,0-.58,0a6.2,6.2,0,0,1-.62-.06l-.32-.06-.3-.09a4.31,4.31,0,0,1-.6-.22c-.19-.08-.36-.2-.54-.29s-.32-.24-.48-.34l-.21-.17a1.53,1.53,0,0,0-.18-.18,2.3,2.3,0,0,1-.31-.32l-.23-.26-.2-.23a2.45,2.45,0,0,0,.16.26l.19.29a2.29,2.29,0,0,0,.29.36l.17.2a1.21,1.21,0,0,0,.2.19,4.63,4.63,0,0,0,.47.39c.18.1.35.24.56.34a4.8,4.8,0,0,0,.63.24l.33.09.33,0a4.87,4.87,0,0,0,.66,0,3.94,3.94,0,0,0,.6-.05l.28-.05.25-.06a3.35,3.35,0,0,0,.44-.13c.12-.06.24-.09.32-.13Z"/><path class="cls-31" d="M63.67,22.84a.12.12,0,0,0,0,0,.44.44,0,0,0,0,.13.57.57,0,0,0,0,.18l0,.08.05.08a.63.63,0,0,0,.43.29.67.67,0,0,0,0-.17.76.76,0,0,1-.07-.13s-.07-.08-.09-.13l-.09-.13L63.75,23a.7.7,0,0,0-.06-.09A.06.06,0,0,1,63.67,22.84Z"/><path class="cls-31" d="M75.48,24.39a.65.65,0,0,0-.23-.24.9.9,0,0,0-.31-.16,1.11,1.11,0,0,0-.41,0,.72.72,0,0,0-.21.05,1.51,1.51,0,0,0-.18.09l-.15.1-.11.11a2,2,0,0,0-.14.2.37.37,0,0,0,0,.09l.08-.05.19-.11.13-.07.15-.07.15-.05.16,0a.92.92,0,0,1,.33,0,2.65,2.65,0,0,1,.3.06Z"/><path class="cls-31" d="M74.17,24.2s0,.08,0,.18a1.07,1.07,0,0,0,.1.32,2.48,2.48,0,0,0,.17.29l.13.12a.37.37,0,0,0,0-.17.5.5,0,0,0,0-.17,1,1,0,0,0-.06-.18.78.78,0,0,0-.1-.15.53.53,0,0,0-.11-.14A.62.62,0,0,0,74.17,24.2Z"/><g class="cls-16"><path class="cls-46" d="M74.68,17.21l.91,0a7.8,7.8,0,0,0,.4-4.8,11.64,11.64,0,0,1-.63,9.41c1.16-.09,2.57,2.27.78,4.09-.72.94,5.56-2.25,4.93-11.95A22,22,0,0,1,81,19.51c-2,10.17-10.41,8.9-11.67,8.23l-.16,0a8.54,8.54,0,0,0,3.9-2c1.91,1.09,3.38-.22,3-1.62-.63-1.56-1.85-1.13-2.94-.33a32,32,0,0,0,1-8.4l-.66,2.12-.59-.42,1.55-4Z"/><path class="cls-46" d="M76,12.43c0-.12-.07-.24-.11-.37C75.92,12.19,76,12.31,76,12.43Z"/><path class="cls-46" d="M69.91,9.65c-.22,1.72-.47,3.8-.6,5l-.5-.36.3-2.78-1,2.46c-.26-.23-.54-.46-.8-.67A8.49,8.49,0,0,1,69.91,9.65Z"/><path class="cls-46" d="M58.28,7a17.23,17.23,0,0,1,2.38-2.31c-.28.51-.52,1-.73,1.42A10.52,10.52,0,0,0,58.79,7.7l-.63-.36A10.82,10.82,0,0,1,56,6.08c.07-.15.14-.29.22-.43Z"/><path class="cls-46" d="M65.22,7.15a27.84,27.84,0,0,0-.7,4.26l-.58-.29a5.06,5.06,0,0,1,.57-2.71,5.65,5.65,0,0,0-1.38,2.24l-.88-.57C62.72,9.28,63.84,7.55,65.22,7.15Z"/></g><path class="cls-11" d="M53.7,38.92a1.82,1.82,0,0,0,1.1-2.21,2.47,2.47,0,0,0-1-1.29A3.09,3.09,0,0,1,52.36,34s-.3-.09-.33.39a2.06,2.06,0,0,0,.76,1.41,5.62,5.62,0,0,0-2.54-.27c-1.15.23-1,.81-.34.68a4.76,4.76,0,0,1,1.76.22,6.78,6.78,0,0,0-2.11.36c-.76.33-.48.81.23.67a8.6,8.6,0,0,1,1.71-.09,7.5,7.5,0,0,0-2,.73c-.4.36-.18.87.82.53a7.38,7.38,0,0,1,1.17-.35s-1.1.75-1.18,1.28.17.47.62.06A4.43,4.43,0,0,1,52,38.9a.53.53,0,0,1,.19.06l.49.09A2.55,2.55,0,0,0,53.7,38.92Z"/><path class="cls-11" d="M69.05,34.45c-.71-.61-1.36-1.28-2-2L62.7,38l1,2.17s4.06-2.26,5.81-5.29Z"/><path class="cls-11" d="M69.05,34.45c-.71-.61-1.36-1.28-2-2L62.7,38l1,2.17s4.06-2.26,5.81-5.29Z"/><path class="cls-4" d="M67.82,37.07a11,11,0,0,0,1.73-2.19l-.5-.43c-.71-.61-1.36-1.28-2-2l-1.46,1.84A7.79,7.79,0,0,0,67.82,37.07Z"/><path class="cls-11" d="M61.6,37.56c-.07,0-7.5-1.14-7.5-1.14l.15,1.93s8.36,3.09,10,1.52c0,0,.73-.6-.29-1.86Z"/><path class="cls-48" d="M72,29.93c-.9-1.79-3.57-.36-4.49.9-.59.81-1.11,1.71-1.78,2.47a8.31,8.31,0,0,0,2.8,3.46S74,33.76,72,29.93Z"/><path class="cls-7" d="M72,29.93a1.44,1.44,0,0,0-.28-.39,3,3,0,0,1,.19,2.18,10,10,0,0,1-3.67,4.85l.29.19S74,33.76,72,29.93Z"/><path class="cls-11" d="M12.34,33.64s1.06-1.33,1.1-4.75c0,0-4.3-.26-4.3,5,2,7.3,6.88,9.53,6.88,9.53l1.32-2.31Z"/><path class="cls-25" d="M12.72,34.5a9.34,9.34,0,0,1-.84-1.39,5.5,5.5,0,0,1-.4-1.29c.22.42.44.83.68,1.24a9,9,0,0,0,1-2.7,8.5,8.5,0,0,0,.23-1.16c-.09,3.21-1.07,4.46-1.07,4.46Z"/><path class="cls-11" d="M18.6,40.66C18.68,40.63,27,40,27,40l-.32,2.12s-9.49,2.73-11.23.84c0,0-.75-.71.48-2Z"/><path class="cls-11" d="M27.83,43.44c-1.26,0-1.7-1.22-1.78-2.08a2.71,2.71,0,0,1,.78-1.66,3.39,3.39,0,0,0,1.11-1.93s.31-.2.46.33A2.3,2.3,0,0,1,28,39.81a6.12,6.12,0,0,1,2.66-1c1.3-.06,1.3.59.54.63a5.14,5.14,0,0,0-1.84.71A7.67,7.67,0,0,1,31.7,40c.9.15.73.74-.07.79a10.13,10.13,0,0,0-1.86.35,8.36,8.36,0,0,1,2.29.27c.53.27.43.89-.74.8A8.65,8.65,0,0,0,30,42.14s1.38.52,1.61,1.06,0,.55-.65.23A4.77,4.77,0,0,0,29.61,43a1.08,1.08,0,0,0-.18.11c-.17.09-.34.16-.51.23A3.07,3.07,0,0,1,27.83,43.44Z"/></g></g></g></svg>