<svg xmlns="http://www.w3.org/2000/svg" viewBox="0 0 98.65 63.78"><defs><style>.cls-1{isolation:isolate;}.cls-2{fill:#fff9e9;}.cls-3{fill:#e4ddcc;}.cls-10,.cls-12,.cls-13,.cls-19,.cls-21,.cls-3,.cls-4{mix-blend-mode:multiply;}.cls-4{fill:#684404;opacity:0.4;}.cls-5{fill:#efcfb1;}.cls-6{fill:#ddb58f;}.cls-7{fill:#c8976c;}.cls-8{fill:#3a6abb;}.cls-9{fill:#052b63;}.cls-10{opacity:0.8;}.cls-11,.cls-12{fill:#97000f;}.cls-13{fill:#b2b2b2;}.cls-14{fill:#b48055;}.cls-15{fill:#351301;}.cls-16{fill:#fff;}.cls-17{fill:#f5beb2;}.cls-18{fill:#a3e7ee;}.cls-20{fill:#fcc11f;}.cls-21{opacity:0.5;}.cls-22{fill:#d80011;}.cls-23{fill:#cbbc96;}.cls-24{fill:#f0e6c9;}.cls-25{fill:#98845c;}</style></defs><g class="cls-1"><g id="Layer_2" data-name="Layer 2"><g id="Layer_1-2" data-name="Layer 1"><path class="cls-2" d="M19.41,58.1s-9-5.32-19-4.05c0,0,8.11-7.46,13.64-11.51,0,0,9.7-1.13,17,4.75,0,0,10.26-1.64,21.42,6.51a77.33,77.33,0,0,0-11.75,10S30.4,57.15,20,58.27Z"/><path class="cls-3" d="M19.41,58.1s-9-5.32-19-4.05c0,0,8.11-7.46,13.64-11.51,0,0,9.7-1.13,17,4.75,0,0,10.26-1.64,21.42,6.51a77.33,77.33,0,0,0-11.75,10S30.4,57.15,20,58.27Z"/><path class="cls-2" d="M31.81,46.73S27,41.3,14,41.51c0,0-9.51,6-14,11.48,0,0,9.09-1.24,20.51,4.56,0,0,8.18,0,19.67,5,0,0,6.43-7.16,11.71-10.32C51.89,52.27,42.15,45.49,31.81,46.73Z"/><path class="cls-4" d="M20.51,57.55s.14-.2.41-.54.66-.81,1.14-1.36l.78-.89c.29-.32.58-.65.9-1l1-1c.34-.34.68-.7,1-1s.72-.67,1.07-1l.52-.49.54-.46c.34-.3.69-.58,1-.85s.63-.53.92-.75c.59-.45,1.09-.8,1.44-1l.54-.4-.5.44c-.33.28-.79.69-1.35,1.16S28.78,49.4,28.09,50l-.52.47-.52.49L26,52c-.36.33-.7.68-1,1l-1,1c-.63.67-1.25,1.26-1.75,1.79s-.94,1-1.23,1.29Z"/><path class="cls-5" d="M63.75,33.11a28.82,28.82,0,0,0,9.17-1.91,35.52,35.52,0,0,1,6.42-2.67c3.45-1,6-1.68,7.46-2,0,0-.57-.77,2-1.23S98,26.78,93.49,28,89.35,27.59,83,30a65.78,65.78,0,0,0-10.14,4.68c-3.57,1.81-6.37,2.12-6.61,2S63.75,33.11,63.75,33.11Z"/><path class="cls-6" d="M63.75,33.11a28.82,28.82,0,0,0,9.17-1.91,35.52,35.52,0,0,1,6.42-2.67c3.45-1,6-1.68,7.46-2,0,0-.57-.77,2-1.23S98,26.78,93.49,28,89.35,27.59,83,30a65.78,65.78,0,0,0-10.14,4.68c-3.57,1.81-6.37,2.12-6.61,2S63.75,33.11,63.75,33.11Z"/><path class="cls-7" d="M68.38,32.5a20.84,20.84,0,0,1-4.63.61s2.26,3.4,2.5,3.55a8.23,8.23,0,0,0,3.27-.59A6.07,6.07,0,0,0,68.38,32.5Z"/><path class="cls-8" d="M86.66,24.83c-.2.62-.16,1.71.14,1.68A7.3,7.3,0,0,1,90.05,26c1.81.2,4.8,1.54,2.83,2.13a20.86,20.86,0,0,0,4.32-1.07c1.94-.76,2.24-1.76-1-2.73S87,23.72,86.66,24.83Z"/><path class="cls-5" d="M83.32,18.7a17.41,17.41,0,0,1-2.68,2.83A2.59,2.59,0,0,0,80.3,23,55.88,55.88,0,0,1,79,33.32c-.54,1.79-.26,1.47-2.3,2.82s-6.19,3.5-8.48,3.85L68,36.22s5.85-1.62,8.17-3.2a67.73,67.73,0,0,0,1.81-8.91,7.9,7.9,0,0,0,0-3c-.17-.44-1.23-1,.88-1.28A24.66,24.66,0,0,0,83.32,18.7Z"/><path class="cls-7" d="M70.25,35.52c-1.31.42-2.29.7-2.29.7l.3,3.77a13,13,0,0,0,2.82-.88A4.56,4.56,0,0,0,70.25,35.52Z"/><path class="cls-8" d="M87.67,14.36c1,1.44-4.66,5-5.66,6.14a3,3,0,0,1-2.94,1c-.58-.18-1.11,0-1.95-1s-.62-1.68,1.61-3.31S86.58,12.81,87.67,14.36Z"/><path class="cls-9" d="M78.18,19.52A10,10,0,0,0,80.47,19a22.51,22.51,0,0,0,3.65-1.64c.54-.32,3.13-1.91,3.5-3.06-1.22-1.39-6.69,1.24-8.89,2.85-1.23.9-1.85,1.49-2,2A2,2,0,0,0,78.18,19.52Z"/><path class="cls-8" d="M57,28.29s5.49.53,7.4,1.68,4,4.7,4.53,6.5a11.28,11.28,0,0,1,.41,4.47c-.07.33-.89.52-2.72,1.38A53.22,53.22,0,0,1,51.65,46.1c-6.4.54-16,2.59-17.24-9.33l-4.16,4.61a4.25,4.25,0,0,1-.95-2.51l.78-4.28s3.59-2.51,5-2.11c0,0,1.25-3,7.79-3.27S57,28.29,57,28.29Z"/><g class="cls-10"><path class="cls-8" d="M68.91,36.47a16.59,16.59,0,0,0-3.21-5.36,14.16,14.16,0,0,1,2.73,6.47c.09,1.45-1.77,3.08-14.61,5.6s-17.69-1.4-18.4-3.38a22.35,22.35,0,0,1-.86-5.28c-.18.63-.37,1.76-.37,1.76s-3.11,3.35-4,2.79a2.17,2.17,0,0,1-.69-1.1l-.16.9a4.25,4.25,0,0,0,.95,2.51l4.16-4.61c1.28,11.92,10.84,9.87,17.24,9.33A53.22,53.22,0,0,0,66.6,42.32c1.83-.86,2.65-1,2.72-1.38A11.28,11.28,0,0,0,68.91,36.47Z"/></g><path class="cls-11" d="M58.1,10.15c-3.85-9.09-9.93-8.5-9.93-8.5-1.38-1.77-7.25-2.8-13.57.55A20.05,20.05,0,0,0,24.31,14.31c-1.2,4-.54,5.46-1.59,10.19S20,29.15,20,29.15c1.46,2.69,3.17,2,3.17,2a6.57,6.57,0,0,0,1-2.24,5.07,5.07,0,0,1-.2,2.31c2.85,1.11,4.3-.47,6.11.83.52.37,2.44.36,4.82.55a19.32,19.32,0,0,1,8.84-.41A9.74,9.74,0,0,1,48,34.34a19.39,19.39,0,0,1,1.7,1.57A16.11,16.11,0,0,0,52,32.62a18.49,18.49,0,0,1-1,3.2,14.11,14.11,0,0,0,7.31-2.36C59.81,29.23,62,19.24,58.1,10.15Z"/><path class="cls-12" d="M55.22,23.89c.06-1.19.11-2.37.23-3.56a9.46,9.46,0,0,0,0-2.86,4.27,4.27,0,0,1-3.37,1.2,6.91,6.91,0,0,1-3.56-1.53C46.62,15.62,45,13.27,45,10.74a14.67,14.67,0,0,1,.18-1.68,4.82,4.82,0,0,0-2,.29,13.91,13.91,0,0,0-1.42.63v0a18.9,18.9,0,0,1-5.18,3.69c-2.23,1-4.87,1.94-7.35,1.72a3.69,3.69,0,0,1-2.56-1.1,2.92,2.92,0,0,1-.54-1,7.24,7.24,0,0,0,.53,3,11.18,11.18,0,0,1,1.2,4.77A30.31,30.31,0,0,1,27,27.51c-.15.61,0,3.76-1.34,3.81-.66,0-1.33,0-1.27-.34a17.5,17.5,0,0,0,.2-2.67,21.87,21.87,0,0,0,.13-3.43,10.82,10.82,0,0,1-1.49,4.28,1.75,1.75,0,0,1-1.82.94,2.7,2.7,0,0,1-1.36-.93c1.46,2.67,3.16,2,3.16,2a6.57,6.57,0,0,0,1-2.24,5.07,5.07,0,0,1-.2,2.31c2.85,1.11,4.3-.47,6.11.83.52.37,2.44.36,4.82.55a19.32,19.32,0,0,1,8.84-.41A9.74,9.74,0,0,1,48,34.34a19.39,19.39,0,0,1,1.7,1.57A16.11,16.11,0,0,0,52,32.62a18.49,18.49,0,0,1-1,3.2,8.82,8.82,0,0,0,.89,0c.23-.45.44-.91.64-1.35a39.92,39.92,0,0,0,1.75-4.88A23.77,23.77,0,0,0,55.22,23.89Z"/><path class="cls-12" d="M59.68,15.36A33.6,33.6,0,0,1,56.79,34.3a12.78,12.78,0,0,0,1.45-.84A35.54,35.54,0,0,0,59.68,15.36Z"/><path class="cls-2" d="M35.77,31.75s-.83,3.67-.11,5.73S36.24,40,37.12,39s1.44-1.52,1.78-1.49,1,.82,1.65,1.28.72,1.49,1.24,0,1.29-5.56.51-8.3S35.77,31.75,35.77,31.75Z"/><path class="cls-7" d="M36.47,32.21s.07,4.95,2.09,5.24,2.53-6,2.53-6Z"/><path class="cls-13" d="M43.39,34.69a11.41,11.41,0,0,0,4.94-3.38A13.73,13.73,0,0,0,50,28.81c-2.25.15-4.77.3-7.16.4-6.54.27-7.79,3.27-7.79,3.27a1.8,1.8,0,0,0-.94,0C36.08,35.23,40.25,35.79,43.39,34.69Z"/><path class="cls-5" d="M29.27,39.12l0-.15a.33.33,0,0,1,0-.1.33.33,0,0,0,0,.1c.16-.87.94-5,1-6.17A4.35,4.35,0,0,0,32,30.5c.23-1.29-4.91-4.76-4.91-4.76s.25-1.51-.62-1.36-1,2.24-.95,3.67a2.23,2.23,0,0,0,1.15,2.32A19.85,19.85,0,0,1,28.42,32S26,39.57,26.31,41.7s1.4,2.17,2.6.8l1.18-1.32a4.31,4.31,0,0,1-.79-2.11Z"/><path class="cls-7" d="M29.59,37.38A20.1,20.1,0,0,1,28.87,40h0a4.67,4.67,0,0,0,.61,1.9l.61-.68a4.31,4.31,0,0,1-.79-2.11l0,0,0-.15Z"/><path class="cls-7" d="M26.42,28.14a3.05,3.05,0,0,1,2,2.26,1.27,1.27,0,0,1,1.16.41,1,1,0,0,1,.15.2,1.72,1.72,0,0,1,1.16.48.79.79,0,0,1,.22.55A3.2,3.2,0,0,0,32,30.5c.23-1.29-4.91-4.76-4.91-4.76s.25-1.51-.62-1.36a.69.69,0,0,0-.45.33.79.79,0,0,1,.34.49A7.8,7.8,0,0,1,26.42,28.14Z"/><path class="cls-5" d="M32.73,6c-6,2.82-6.69,6.85-5.38,10,1.73,4.11-2.21,7.64-.56,10.75s5.88,6.8,13,7.18C43,34,49.88,31.69,51,25.77c0,0,3.36,5,4.12-.94.37-2.92-1.88-3.81-3.31-5C51.78,19.82,52.13-3.17,32.73,6Z"/><path class="cls-14" d="M37.66,30.36a3.08,3.08,0,0,1-4.8-1.71,0,0,0,0,0,0,0c-.2,2.19,3.7,3.69,4.87,1.75A0,0,0,0,0,37.66,30.36Z"/><path class="cls-14" d="M35.23,27.48a1,1,0,0,1-1.06-.73.86.86,0,0,1,0-.61c.18-.38.69-.13.93,0,0,0,.09,0,.08,0a.71.71,0,0,0-1-.34.69.69,0,0,0-.31.78c.08.5.8,1.39,1.37,1C35.26,27.52,35.25,27.48,35.23,27.48Z"/><path class="cls-15" d="M30.85,18.88c-.25-.16-.75-.17-.86.17a.11.11,0,0,0,.05.13c.17.09.38.05.57.12a2.83,2.83,0,0,1,.56.42.07.07,0,0,0,.12,0A.86.86,0,0,0,30.85,18.88Z"/><path class="cls-15" d="M41.58,20.08a.87.87,0,0,0-.89-.47c-.29,0-.82.25-.71.63a.14.14,0,0,0,.12.09c.2,0,.39-.17.58-.22a1.46,1.46,0,0,1,.8.07A.07.07,0,0,0,41.58,20.08Z"/><path class="cls-15" d="M39.91,24.16c0,1,.26,1.78.68,1.8s.81-.75.86-1.72-.25-1.78-.68-1.8S40,23.19,39.91,24.16Z"/><path class="cls-16" d="M40.83,23.47c0,.29.12.53.25.52s.22-.24.22-.54-.13-.53-.25-.52S40.82,23.17,40.83,23.47Z"/><path class="cls-15" d="M29.89,22.83c-.06.91.2,1.67.58,1.69s.73-.7.78-1.61-.2-1.66-.58-1.68S29.94,21.92,29.89,22.83Z"/><path class="cls-16" d="M30.71,22.19c0,.28.1.49.21.49s.21-.23.2-.5-.1-.5-.21-.5S30.71,21.91,30.71,22.19Z"/><path class="cls-17" d="M39.74,27.07c0,.57,1.14,1,2.53,1s2.5-.5,2.5-1.09-1.14-1-2.53-1S39.74,26.49,39.74,27.07Z"/><path class="cls-17" d="M27,24.62c-.16.4.46,1,1.4,1.4s1.83.36,2,0-.47-1-1.4-1.41S27.17,24.21,27,24.62Z"/><path class="cls-14" d="M53.18,23.26c-.43-.37-.89-.13-1.18.28a2.15,2.15,0,0,0-.21,1.57s.07,0,.06,0c-.07-.81.35-1.89,1.3-1.77C53.19,23.34,53.22,23.28,53.18,23.26Z"/><path class="cls-11" d="M42.47,12.68s-9.34,8-16.15,2.09c0,0-2.58-.4.87-5.33S40.53.06,47.06,3.88s13.73,16.22,9.5,22.27-5.71.91-5.57-.61c0,0,.35,1.85,2,0s1.47-3.79,0-4.21a1.35,1.35,0,0,0-1.74,1.15l-.06-1.25S46.37,19.39,42.47,12.68Z"/><path class="cls-12" d="M55.44,17.47a4.27,4.27,0,0,1-3.37,1.2,6.91,6.91,0,0,1-3.56-1.53C46.62,15.62,45,13.27,45,10.74c0-.33,0-.7.09-1.1a22.2,22.2,0,0,1-8,5.27c-2.32.86-5.07,2-7.54,1.17a6.57,6.57,0,0,1-2.21-1.19,2.48,2.48,0,0,1-.71-.58,2.92,2.92,0,0,1-.54-1,7.74,7.74,0,0,0,.09,1.44l.11,0c6.81,5.89,16.15-2.09,16.15-2.09,3.9,6.71,8.68,8.56,8.68,8.56l.06,1.25A1.35,1.35,0,0,1,53,21.34c1.5.42,1.67,2.37,0,4.21s-2,0-2,0c-.11,1.25.86,4.91,3.53,2.88C55.89,22.23,55.63,18.42,55.44,17.47Z"/><path class="cls-5" d="M56.49,46.09c-.07-1.5-2.19-4.21-3.33-5.56a21.72,21.72,0,0,1-2.46,1A38.14,38.14,0,0,1,53,44.73c.44.72.41.63-.45.73S44,45.9,44,45.9c-.68-.58-3.1-1.18-5.35-.78s-1.45,1.49-.57,1.19a9.45,9.45,0,0,1,2.7-.23s-1.43.25-2.13.44c-2.8.78-3.4,3.33-1.73,2.24a7.57,7.57,0,0,1,3.1-1.22c-4.62,1.6-3,3-2.37,2.56a34.1,34.1,0,0,1,3.1-1.68c-3.24,1.84-2,2.85-1.5,2.38S41.58,49,41.58,49c-2,2.26-.87,2.65-.3,1.94L43,48.87a1.92,1.92,0,0,0,1-.6,41.74,41.74,0,0,0,9.81-.43C55.21,47.68,56.59,48.15,56.49,46.09Z"/><path class="cls-7" d="M53.69,41.17c-.19-.24-.36-.45-.53-.64a21.72,21.72,0,0,1-2.46,1c.26.32.54.69.82,1.06C52.23,42.11,53,41.61,53.69,41.17Z"/><g class="cls-10"><path class="cls-8" d="M53.36,40.17a.54.54,0,0,0-.07-.19,1.11,1.11,0,0,0-.2-.27c-.28-.33-.56-.61-.8-.94-.52-.66-1-1.28-1.56-1.87s-1-1.15-1.56-1.66a15.51,15.51,0,0,0-1.52-1.36A4.16,4.16,0,0,0,46.12,33a1.58,1.58,0,0,0-1.33.22,1.93,1.93,0,0,0-.5.71c-.09.18-.13.28-.13.28l0,0a2.77,2.77,0,0,0,.15-.27,1.88,1.88,0,0,1,.53-.63,1.41,1.41,0,0,1,1.2-.11,4.07,4.07,0,0,1,1.39.88c.48.4,1,.87,1.47,1.37s1,1.07,1.54,1.65,1.06,1.19,1.58,1.82c.26.33.58.63.86.92s.27.33.21.4-.32.19-.5.28c-.76.34-1.52.68-2.28,1s-1.51.63-2.25.91a4.63,4.63,0,0,1-.52.18c-.09,0-.11,0-.13-.07a.9.9,0,0,1-.07-.23,9.56,9.56,0,0,0-.22-1.09c-.1-.35-.21-.69-.31-1s-.22-.63-.33-.93c-.22-.59-.42-1.14-.62-1.61s-.36-.88-.51-1.22c-.3-.67-.48-1-.48-1l0,0,1.38,3.95c.2.59.4,1.24.62,1.92.08.35.19.69.26,1.07a.85.85,0,0,0,.11.3.3.3,0,0,0,.16.15.35.35,0,0,0,.2,0,2.43,2.43,0,0,0,.57-.23c.71-.33,1.45-.65,2.21-1s1.54-.63,2.33-.93L53,40.6l.07,0,.08,0a.33.33,0,0,0,.15-.14A.3.3,0,0,0,53.36,40.17Z"/></g><path class="cls-18" d="M59,56.38l-2.21,4a92.18,92.18,0,0,0,24.56,2.06L85.14,51.9Z"/><g class="cls-19"><path class="cls-18" d="M76.58,57.38l1.54.32,6.25-3.64.77-2.16L59,56.38l-1,1.77,15,4.12Z"/></g><polygon class="cls-20" points="58.25 52.01 53.24 55.82 72.31 61.33 76.46 56.12 58.25 52.01"/><g class="cls-21"><polygon class="cls-20" points="58.25 52.01 57.15 52.86 75.61 57.19 76.46 56.12 58.25 52.01"/></g><path class="cls-22" d="M76.87,53.79l14-9.94h0a.71.71,0,0,0-.16-.09l-22.48-2.7L53.48,48.38l.06,0h0Z"/><path class="cls-23" d="M78.46,55a1.64,1.64,0,0,0-1.69-1.19l-.09-.08L53.58,48.4h0c3.13,1.33.41,3.16.41,3.16l24,5.43A2.62,2.62,0,0,0,78.46,55Z"/><path class="cls-24" d="M90.91,43.85h0l-14,9.94-.19,0,.09.08A1.64,1.64,0,0,1,78.46,55a2.62,2.62,0,0,1-.53,2h0l13-7.64C93.18,45.66,91.47,44.2,90.91,43.85Z"/><path class="cls-25" d="M77.84,54l2-1.42,2-1.45,2.32-1.63,2.34-1.61,2-1.4,2-1.33-2,1.42-2,1.44-2.32,1.63-2.34,1.62-2,1.39Z"/><path class="cls-25" d="M78.42,54.73l2-1.46,2-1.48c.74-.54,1.53-1.12,2.33-1.69l2.34-1.66L89.14,47l2-1.38-2,1.46-2,1.49-2.33,1.68L82.5,51.92l-2.06,1.43Z"/><path class="cls-25" d="M90.9,47.45l-1.53,1.08-1.58,1.1L86,50.86l-1.83,1.22-1.62,1-1.59,1L82.46,53c.47-.32,1-.7,1.58-1.09l1.83-1.24,1.83-1.22,1.62-1C90.26,47.84,90.9,47.45,90.9,47.45Z"/><g class="cls-19"><path class="cls-25" d="M55.62,50l3.44.69,3.51.73,4,.85,4,.88,3.51.78,3.41.78-3.44-.68-3.52-.73-4-.85-4-.88L59,50.82Z"/><path class="cls-25" d="M57.07,51.13l3.34.7c1,.23,2.18.48,3.43.75l3.92.88,3.92.91,3.42.8,3.32.81-3.34-.71-3.43-.75-3.92-.88-3.93-.9-3.41-.81Z"/><path class="cls-25" d="M55.35,51.26,57,51.6l1.72.37,2,.45,2,.47,1.7.42,1.66.44-1.68-.33L62.64,53l-2-.44-2-.47L57,51.7Z"/></g><g class="cls-19"><path class="cls-22" d="M90.75,43.76l-1.3-.16c-11,9.29-27.53,5.42-33.53,3.57l-2.44,1.21.06,0h0l23.29,5.39,14-9.94h0A.71.71,0,0,0,90.75,43.76Z"/></g></g></g></g></svg>