<svg xmlns="http://www.w3.org/2000/svg" viewBox="0 0 81.43 110"><defs><style>.cls-1{isolation:isolate;}.cls-2{fill:#181a1a;}.cls-13,.cls-25,.cls-26,.cls-27,.cls-3,.cls-30{mix-blend-mode:multiply;}.cls-4{fill:#d5d2b5;}.cls-5{fill:#d80011;}.cls-6{fill:#eee;}.cls-7{fill:#930004;}.cls-8{fill:none;}.cls-9{fill:#618ab0;}.cls-10,.cls-13{fill:#779ac2;}.cls-11{fill:#517393;}.cls-12{fill:#3c5f7b;}.cls-13,.cls-15,.cls-27{opacity:0.5;}.cls-14{fill:#efcfb1;}.cls-15,.cls-16{fill:#c8976c;}.cls-17,.cls-26{fill:#68cedf;}.cls-18{fill:#b5221b;}.cls-19{fill:#fff;}.cls-20{fill:#eb6b66;}.cls-21{fill:#532419;}.cls-22{fill:#6b3c19;}.cls-23{fill:#b48055;}.cls-24,.cls-27{fill:#272a2a;}.cls-25{fill:#cbc8c7;}.cls-28{fill:#f5beb2;}.cls-29{fill:#b4b4b4;}.cls-30{fill:#dadada;}</style></defs><g class="cls-1"><g id="Layer_2" data-name="Layer 2"><g id="Layer_1-2" data-name="Layer 1"><path class="cls-2" d="M63.79,17.76s9-3.18,9.26,14.45c.07,9.66,1.34,15.87,4.72,14.82l-.53,1.62a6.78,6.78,0,0,1-5.12-1.29,4.11,4.11,0,0,0,2.13,2.83l-2.62,1.26A8.24,8.24,0,0,1,68.12,48c-.41,1.52,1.45,2.87,1.45,2.87l-1.72.35s-7.17-2-4-14.72C66.88,25.64,65.09,20,63.79,17.76Z"/><g class="cls-3"><path class="cls-2" d="M71.1,46.27S69.77,47.39,72.17,50c-2.75-.42-5-4.52-5-4.52s-1.14.82.47,4.05c-2.68-2.32-3.92-8-1.54-13.78A23.58,23.58,0,0,0,67,19.46c-.36-.95,0-1.36.5-1.52a5.63,5.63,0,0,0-3.68-.18c1.3,2.28,3.09,7.88.1,18.74-3.21,12.74,4,14.72,4,14.72l1.72-.35S67.71,49.52,68.12,48a8.24,8.24,0,0,0,3.51,3.45l2.62-1.26a4.11,4.11,0,0,1-2.13-2.83,6.78,6.78,0,0,0,5.12,1.29l.12-.39C72.78,48.47,71.1,46.27,71.1,46.27Z"/></g><path class="cls-4" d="M55.7,86.36l-.6.22c-.12,2.85-.55,10.22-2.05,13.74.45,0,.94-.64,1.34-2C55.24,95.42,56.13,88.52,55.7,86.36Z"/><path class="cls-5" d="M54.27,95.5a82.75,82.75,0,0,0,.83-8.92l-3,1.14s-.35,4.22-.3,7.75A4.07,4.07,0,0,1,54.27,95.5Z"/><path class="cls-6" d="M51.77,95.47c0,.79,0,1.55.09,2.21.24,1.75.69,2.61,1.19,2.64a22,22,0,0,0,1.22-4.82A4.07,4.07,0,0,0,51.77,95.47Z"/><path class="cls-7" d="M51.67,93.77l0,0a.18.18,0,0,1,.07-.25,1.27,1.27,0,0,1,1.34.09.19.19,0,0,1,.06.26.19.19,0,0,1-.26.05.93.93,0,0,0-1-.09A.18.18,0,0,1,51.67,93.77Z"/><path class="cls-7" d="M51.87,92.76a0,0,0,0,0,0,0,.19.19,0,0,1,.06-.25,1.29,1.29,0,0,1,1.35.09.18.18,0,0,1,0,.26.17.17,0,0,1-.25,0,.91.91,0,0,0-1-.08A.19.19,0,0,1,51.87,92.76Z"/><path class="cls-4" d="M69.73,86.46c-.6-2.7-3.59-11.29-4.8-11.17-.14,0-.3.06-.46.1a34.67,34.67,0,0,1,4.89,13C69.83,88.38,70,87.8,69.73,86.46Z"/><path class="cls-5" d="M68.5,84.35a38,38,0,0,0-4-9,21.44,21.44,0,0,0-3.37,1.49l1.47,4.86s1.89,2.4,3.48,4.19A4.58,4.58,0,0,1,68.5,84.35Z"/><path class="cls-6" d="M68.5,84.35a4.58,4.58,0,0,0-2.45,1.58c.46.52.91,1,1.27,1.33a3.37,3.37,0,0,0,2,1.18A25.56,25.56,0,0,0,68.5,84.35Z"/><path class="cls-7" d="M64.24,84h0a.19.19,0,0,1-.13-.23,1.29,1.29,0,0,1,1-.87.17.17,0,0,1,.21.14.18.18,0,0,1-.14.22.92.92,0,0,0-.74.6A.18.18,0,0,1,64.24,84Z"/><path class="cls-7" d="M63.68,83.12h0a.19.19,0,0,1-.13-.23,1.31,1.31,0,0,1,1-.88.19.19,0,0,1,.07.37.92.92,0,0,0-.74.6A.19.19,0,0,1,63.68,83.12Z"/><path class="cls-8" d="M40.79,73.52c-2.43,3.27-6.07,9.15-6.2,10.21,0,.22,3.52.31,4.73-.34a28.33,28.33,0,0,0,.91,6.45C39.47,87,38.85,81.65,40.79,73.52Z"/><path class="cls-9" d="M50.77,71.2c1.13-2.5,1.39-4,1.07-5.89a19.14,19.14,0,0,1-3.17.63C48.48,67.21,48.39,70,50.77,71.2Z"/><path class="cls-10" d="M59.84,77.5,48.48,82.35s5.37-10.42,4-17.25a5.87,5.87,0,0,1-.63.21c.32,1.85.06,3.39-1.07,5.89-2.38-1.21-2.29-4-2.1-5.26a29.44,29.44,0,0,1-8.78-.38c-.18,1.26-.47,4.09.43,5.51-2.07-1-2.33-1.49-2.36-3.17a22.18,22.18,0,0,1,.14-2.72,37.32,37.32,0,0,1-4.71-1.46s-.17,2.13-.17,3.71c-6.67,12.13-8.17,20.7-6.85,22.91,1.51,2.13,14.39,1.08,14.39,1.08a13.66,13.66,0,0,1-.53-1.58,28.33,28.33,0,0,1-.91-6.45c-1.21.65-4.75.56-4.73.34.13-1.06,3.77-6.94,6.2-10.21-1.94,8.13-1.32,13.49-.56,16.32a10.21,10.21,0,0,0,.8,1.89c.56.49,2,1.23,5.08-.46l6-2.56L61.94,84A16.13,16.13,0,0,0,59.84,77.5Z"/><path class="cls-8" d="M40.79,73.52c-2.43,3.27-6.07,9.15-6.2,10.21,0,.22,3.52.31,4.73-.34a28.33,28.33,0,0,0,.91,6.45C39.47,87,38.85,81.65,40.79,73.52Z"/><path class="cls-8" d="M40.79,73.52c-2.43,3.27-6.07,9.15-6.2,10.21,0,.22,3.52.31,4.73-.34a28.33,28.33,0,0,0,.91,6.45C39.47,87,38.85,81.65,40.79,73.52Z"/><path class="cls-11" d="M63.13,84.45S62.68,78.3,61,76.17l-1.38.68.26.65A16.13,16.13,0,0,1,61.94,84l0,.63Z"/><path class="cls-8" d="M40.79,73.52c-2.43,3.27-6.07,9.15-6.2,10.21,0,.22,3.52.31,4.73-.34a28.33,28.33,0,0,0,.91,6.45C39.47,87,38.85,81.65,40.79,73.52Z"/><path class="cls-9" d="M40.32,71.07c-.9-1.42-.61-4.25-.43-5.51-.59-.1-1.18-.23-1.79-.38A22.18,22.18,0,0,0,38,67.9C38,69.58,38.25,70.08,40.32,71.07Z"/><path class="cls-9" d="M34.76,68.26a3.34,3.34,0,0,1,.5.23,4.13,4.13,0,0,1,.47.28c.17.11.34.25.51.38a7.85,7.85,0,0,1,.87.81,3.44,3.44,0,0,1,.35.42,3.85,3.85,0,0,1-.48-.26,8.73,8.73,0,0,1-1-.68c-.17-.14-.33-.27-.48-.41l-.41-.37C34.9,68.43,34.76,68.26,34.76,68.26Z"/><path class="cls-9" d="M42.05,70.5a4.69,4.69,0,0,1,.54-.4c.16-.11.37-.22.59-.34a6.67,6.67,0,0,1,.71-.34,7.25,7.25,0,0,1,.74-.26c.24-.07.48-.12.67-.16a3.23,3.23,0,0,1,.49,0H46l-.17.08-.45.17-.62.25c-.23.11-.47.2-.71.3l-.72.29-.63.24C42.31,70.43,42.05,70.5,42.05,70.5Z"/><path class="cls-9" d="M50.77,71.2c-.35,1.33-.76,2.65-1.14,4-.2.66-.42,1.32-.63,2l-.64,2c-.1.33-.21.66-.34,1l-.37,1L46.91,83c-.13.33-.27.62-.37,1s-.21.64-.29,1a7,7,0,0,0-.16,1,2.41,2.41,0,0,0,0,.47.71.71,0,0,0,.06.19.14.14,0,0,0,.08.06l-.18.07c.2-.26.37-.55.59-.84a1.15,1.15,0,0,1,.44-.4.5.5,0,0,1,.36,0,.69.69,0,0,1,.3.13,2,2,0,0,0,.38.28s0,0,.07,0a1.19,1.19,0,0,0,.1-.16,1.43,1.43,0,0,1,.32-.48l.07,0,0,0h0l.12-.06.23-.1,1.92-.8,1.91-.78,1.9-.8,1.88-.83,1-.42.92-.45c.31-.16.62-.3.91-.48l.89-.52-.86.57a8,8,0,0,1-.9.51l-.9.5-.93.45c-.62.31-1.24.6-1.87.88l-1.88.85-1.9.82-.94.4-.94.4-.24.11-.11.05h0s0,0,0,0l0,0a1.31,1.31,0,0,0-.23.38,1,1,0,0,1-.19.26.38.38,0,0,1-.21.1.4.4,0,0,1-.2,0,1.9,1.9,0,0,1-.46-.32c-.12-.08-.22-.11-.31,0a1,1,0,0,0-.31.28c-.19.26-.36.57-.58.86l-.18.06a.46.46,0,0,1-.33-.24,1,1,0,0,1-.1-.3,2.64,2.64,0,0,1,0-.56,7.19,7.19,0,0,1,.18-1c.08-.34.19-.68.3-1s.27-.66.4-1L47.36,81l.37-1c.14-.32.25-.65.36-1l.69-2c.22-.65.47-1.3.68-1.95Z"/><path class="cls-9" d="M48.66,82.22a3.19,3.19,0,0,1-.12.46,5,5,0,0,1-.4.93l-.28.47a4.18,4.18,0,0,1-.29.38,4.08,4.08,0,0,1-.33.33,2.49,2.49,0,0,1,.15-.44c0-.13.12-.27.18-.43s.16-.32.24-.48a7.62,7.62,0,0,1,.55-.86A3.32,3.32,0,0,1,48.66,82.22Z"/><path class="cls-9" d="M38.67,70.08a6.73,6.73,0,0,1,.69.27,7.36,7.36,0,0,1,.67.35l.37.22a2,2,0,0,1,.37.25.66.66,0,0,1,.18.19,1,1,0,0,1,.12.23,1.11,1.11,0,0,1,.09.46,2.51,2.51,0,0,1-.12.78,6.88,6.88,0,0,1-.25.69v-.2c0-.13,0-.32,0-.53a4.18,4.18,0,0,0,0-.71,1,1,0,0,0-.1-.35.8.8,0,0,0-.08-.16s-.06-.07-.12-.12a4.15,4.15,0,0,0-.34-.24L39.85,71c-.22-.15-.42-.31-.6-.44C38.9,70.28,38.67,70.08,38.67,70.08Z"/><path class="cls-11" d="M46.11,91.27a34.94,34.94,0,0,0,4.6-.24l0-1.76Z"/><polygon class="cls-12" points="52.06 88.71 50.75 89.27 50.71 91.03 50.7 91.54 51.94 91.57 52.06 88.71"/><path class="cls-8" d="M39.41,84.9a21.84,21.84,0,0,0,.82,4.94,23.12,23.12,0,0,1-.7-4.94Z"/><path class="cls-8" d="M40.79,73.52l-.08.11A16.79,16.79,0,0,1,39,78.18a16.79,16.79,0,0,0,1.71-4.55c-2.43,3.29-6,9.05-6.12,10.1,0,.22,3.52.31,4.73-.34,0,.25,0,.79.09,1.51h.12A41.41,41.41,0,0,1,40.79,73.52Z"/><path class="cls-13" d="M40.76,91.42c-2.37-1.89-2.07-6.37-3.58-6.35l-6.33-.24c2.88-3.85,7.59-12,5.39-15.68,3.88,2.29,4.63,2,4.59,3.64q0,.42-.12.84c-2.43,3.29-6,9.05-6.12,10.1,0,.22,3.52.31,4.73-.34,0,.25,0,.79.09,1.51A19.8,19.8,0,0,0,40.76,91.42Z"/><path class="cls-8" d="M49.49,70.14A21.09,21.09,0,0,0,50,67c-.47.12-.93.21-1.39.29A4.89,4.89,0,0,0,49.49,70.14Z"/><path class="cls-8" d="M40.32,71.07A7.51,7.51,0,0,1,39.73,67c-.61-.12-1.19-.26-1.74-.41,0,.43,0,.88,0,1.31C38,69.58,38.25,70.08,40.32,71.07Z"/><path class="cls-8" d="M40.79,73.52c-2.43,3.27-6.07,9.15-6.2,10.21,0,.22,3.52.31,4.73-.34a28.33,28.33,0,0,0,.91,6.45C39.47,87,38.85,81.65,40.79,73.52Z"/><path class="cls-13" d="M46.59,87.1c1.06-1.54,1.06-.91,1.72-.43s1.55-1,5.24-2.71c2.32-1.06,5.51-2.65,7.57-3.68a15.24,15.24,0,0,0-1.28-2.78L48.48,82.35s5.37-10.42,4-17.25a5.87,5.87,0,0,1-.63.21c.32,1.85.06,3.39-1.07,5.89a3.77,3.77,0,0,1-1.28-1.06A109.18,109.18,0,0,1,46,82.66C45,86,45.53,88.63,46.59,87.1Z"/><path class="cls-14" d="M54.92,42.37s7.8-.8,19.2-16.77c-.89-1.39-.93-2.51.15-3.61,0,0,1.34-2.74,3-2.49a2.38,2.38,0,0,1,2.17,1.94,1.4,1.4,0,0,1,1.3,1.66c.87.22.57,1.3.37,1.55.7.2.28,1.37-.87,1.24-1.12,1.92-2.92,2.43-4.36,1.48-1.59,3.94-10.79,18.23-20,19.73Z"/><path class="cls-15" d="M56.85,41.79a7.93,7.93,0,0,1-1.93.58l1,4.73A11.68,11.68,0,0,0,58,46.53C57.62,45,57.21,43.38,56.85,41.79Z"/><path class="cls-14" d="M37.59,38.71s-8.08-6-8-20.28c1.48-.38,1.69-3.71.54-4-.25-3.07-1.59-2.73-1.76-1.88-.91-1.66-2.51-.24-2.78.47-1.31-.53-1.64,1.23-1.64,1.23s-1-.37-1.08,1.24c.1,1.74,1.23,2.69,1.79,2.13-.33,1.76,1.47,2.73,2.2,2.38-.31,3.06.39,15.81,8.6,22.93Z"/><path class="cls-15" d="M35.94,37.15c-.85,1.23-1.79,2.4-2.71,3.58A19.19,19.19,0,0,0,35.42,43l2.17-4.25A12.87,12.87,0,0,1,35.94,37.15Z"/><path class="cls-16" d="M43.48,46.32c2.21.55,3.17-2.51,3.5-4a18.05,18.05,0,0,1-3.85-.7C42.47,42.89,41.24,45.77,43.48,46.32Z"/><path class="cls-17" d="M56.06,47.74l-.94-6.07a27.2,27.2,0,0,1-8.14.65c-.33,1.49-1.29,4.55-3.5,4s-1-3.43-.35-4.7a11.69,11.69,0,0,1-5.64-3.56l-2.78,5.35,3,2.49S32.08,53.7,31,63.07c5,2.83,15.75,5.34,22.78,1.81,0-7.35.12-16.56.12-16.56Z"/><path class="cls-14" d="M57.68,38.16a2.64,2.64,0,0,0,3.94-1.38c.39-1.35-.65-3.11-2.26-2.56A15.16,15.16,0,0,1,56.93,22c-7.4,1.11-16-2.67-16-2.67-3.52,2.23-5.67,7.54-5.67,7.54C30.87,43.6,48.79,44.35,52.8,42.37h0C54.61,41.29,56.85,39.79,57.68,38.16Z"/><path class="cls-18" d="M36.06,31.38S40,34.26,47.73,32.64c5-1.17,6,.4,4.35,4.11s-7.34,4.93-12.77,2C36.36,36.67,35.48,33.49,36.06,31.38Z"/><path class="cls-19" d="M43,34.87c3.59.15,4.82-1,5.25-2.35l-.56.12a18.85,18.85,0,0,1-8.79,0C39.17,33.33,40,34.74,43,34.87Z"/><path class="cls-20" d="M46.32,37.4A3.71,3.71,0,0,0,43,40.14a9.58,9.58,0,0,0,6.71-.82A3.11,3.11,0,0,0,46.32,37.4Z"/><path class="cls-21" d="M46.09,27.16A1.53,1.53,0,0,1,48.5,27c.26.23-.27-1.2-1.76-1-1.12.28-1.54,1.42-.83,1C45.92,27.22,45.89,27.29,46.09,27.16Z"/><path class="cls-21" d="M37.83,26s1.05-.82,1.7.94c.13.33.42-1.39-1-1.87-.77-.18-1.58.73-.77.69C37.66,26,37.59,26,37.83,26Z"/><path class="cls-22" d="M46.5,23.57a2.92,2.92,0,0,1,.61-.6,2.6,2.6,0,0,1,.8-.42,1.51,1.51,0,0,1,1.08.06,1.39,1.39,0,0,1,.44.35,2,2,0,0,1,.29.45,3.25,3.25,0,0,1,.26.85c0,.13,0,.25,0,.35a2.62,2.62,0,0,1,0,.27v.23s0-.08-.07-.22a1.77,1.77,0,0,0-.08-.25,3.18,3.18,0,0,0-.11-.33L49.63,24c-.06-.13-.13-.26-.2-.39a1.56,1.56,0,0,0-.6-.62,1.27,1.27,0,0,0-.84-.07,3.16,3.16,0,0,0-.77.28A8.06,8.06,0,0,0,46.5,23.57Z"/><path class="cls-22" d="M38.24,23.63a3,3,0,0,1,.32-.7,3.6,3.6,0,0,1,.46-.66,2.2,2.2,0,0,1,.77-.59,1,1,0,0,1,.53-.08.89.89,0,0,1,.48.19,1.65,1.65,0,0,1,.32.33,2.34,2.34,0,0,1,.18.35,2.64,2.64,0,0,1,.17.54c0,.13,0,.21,0,.21L41.4,23a4.73,4.73,0,0,0-.28-.47c-.06-.09-.14-.18-.22-.28a1.56,1.56,0,0,0-.28-.23.7.7,0,0,0-.69,0,2.39,2.39,0,0,0-.67.47c-.2.19-.38.39-.53.56Z"/><path class="cls-23" d="M59.8,36a.9.9,0,0,1,1.22.28s0,.08-.06,0c-.37-.37-.75-.22-1.14,0a3,3,0,0,0-.46.41c-.12.13-.21.3-.34.42a.07.07,0,0,1-.12,0C58.76,36.64,59.45,36.13,59.8,36Z"/><g class="cls-3"><path class="cls-17" d="M37.67,45.9a1.84,1.84,0,0,1,.09-.32A4.29,4.29,0,0,1,38.1,45a3,3,0,0,1,.47-.51,1.47,1.47,0,0,1,.27-.2,1.34,1.34,0,0,1-.1.32,2.94,2.94,0,0,1-.34.61,3,3,0,0,1-.46.52A1.46,1.46,0,0,1,37.67,45.9Z"/><path class="cls-17" d="M53.94,48.32a1.39,1.39,0,0,1-.29.17,3.23,3.23,0,0,1-.66.2,3.59,3.59,0,0,1-.7.05,1.48,1.48,0,0,1-.33-.05,1.74,1.74,0,0,1,.29-.16,2.79,2.79,0,0,1,.67-.2,2.92,2.92,0,0,1,.7,0A2,2,0,0,1,53.94,48.32Z"/></g><path class="cls-23" d="M23.93,14.14a9.24,9.24,0,0,0,.11.92c0,.15.06.3.11.45s.09.28.14.42a2.87,2.87,0,0,0,.2.39.81.81,0,0,0,.12.18,1.18,1.18,0,0,0,.13.18l.15.16.16.14a2.31,2.31,0,0,0,.36.25h0l.14.05a.59.59,0,0,0,.13,0h.07l.06,0a.29.29,0,0,0,.13-.05s.07-.07.11-.1.05-.09.09-.13a3,3,0,0,0,.11-.32c0,.06,0,.12,0,.18s0,.12,0,.18a1.15,1.15,0,0,1-.06.17.48.48,0,0,1-.12.16.45.45,0,0,1-.16.12l-.1,0s-.07,0-.11,0a.67.67,0,0,1-.2,0l-.19,0h0a2.38,2.38,0,0,1-.44-.25l-.2-.15-.17-.18a1,1,0,0,1-.16-.2l-.14-.21a2.67,2.67,0,0,1-.2-.46,2.81,2.81,0,0,1-.12-.48,3.88,3.88,0,0,1,0-.48A3,3,0,0,1,23.93,14.14Z"/><path class="cls-23" d="M25.62,13c0,.11-.05.22-.07.33a1.88,1.88,0,0,0-.05.33l0,.34v.33a4.78,4.78,0,0,0,.07.65,2.81,2.81,0,0,0,.08.31,2.26,2.26,0,0,0,.1.31l.13.3c.05.09.09.21.14.28a1.85,1.85,0,0,0,.19.27,2.31,2.31,0,0,0,.2.24,1.07,1.07,0,0,0,.47.32.4.4,0,0,0,.42-.18V17l-.13-.22s0-.08-.05-.12l0-.12a2.1,2.1,0,0,1-.06-.24L27,16a3.87,3.87,0,0,1,0-.48,1.76,1.76,0,0,1,.12-.45,3.54,3.54,0,0,0,0,.46,3.44,3.44,0,0,0,.05.45l0,.22a1.67,1.67,0,0,0,.08.2l0,.1s0,0,.06.08l.12.18v.17a.84.84,0,0,1-.3.29.64.64,0,0,1-.43.06,1.2,1.2,0,0,1-.67-.4,3.28,3.28,0,0,1-.44-.56,3.11,3.11,0,0,1-.15-.33l-.14-.33a3.58,3.58,0,0,1-.09-.35c0-.11,0-.23-.07-.34v-.36a1.37,1.37,0,0,1,0-.35l0-.35c0-.11,0-.22.08-.34s.08-.21.11-.32A2.23,2.23,0,0,1,25.62,13Z"/><path class="cls-23" d="M30.09,14.46c-.56-.16-1.12-.3-1.68-.41L28,14a3,3,0,0,0-.42,0,2.68,2.68,0,0,0-.4,0L27,14l-.16.07-.06.05,0,0h0s0,0,0,0h0l-.05.1s0,0,0,0a.51.51,0,0,0,.12.27,1.45,1.45,0,0,0,.28.27,2.08,2.08,0,0,0,.34.24,4.73,4.73,0,0,0,.74.39,3.37,3.37,0,0,0,.8.25l.06.2-.25.23a2.73,2.73,0,0,0-.23.25l-.1.14-.08.15a.9.9,0,0,0-.09.33,1,1,0,0,1,0-.35l.06-.18.08-.16a3.13,3.13,0,0,1,.2-.3l.24-.28.07.2a3.81,3.81,0,0,1-.89-.19,6,6,0,0,1-.81-.38,3.3,3.3,0,0,1-.39-.26,1.76,1.76,0,0,1-.34-.33.76.76,0,0,1-.19-.52.84.84,0,0,1,0-.18l.06-.09v0h0s0-.07,0,0h0l0,0,.05-.05.11-.09.25-.1.24-.05a3.49,3.49,0,0,1,.46,0,3.25,3.25,0,0,1,.45.07l.43.1a7.55,7.55,0,0,1,.84.29C29.57,14.21,29.84,14.32,30.09,14.46Z"/><path class="cls-23" d="M28.35,12.46a1.1,1.1,0,0,1,0,.24,2.34,2.34,0,0,1-.1.47l-.09.23a1.24,1.24,0,0,1-.1.2c-.07.11-.14.2-.14.2a.74.74,0,0,1-.07-.24,1.93,1.93,0,0,1,0-.25,1.22,1.22,0,0,1,.06-.26A1.45,1.45,0,0,1,28,12.8a1,1,0,0,1,.14-.19A.61.61,0,0,1,28.35,12.46Z"/><path class="cls-23" d="M27.4,16.86l.18-.05.07,0,.06,0,.12-.05a.84.84,0,0,0,.14-.06l.07,0a.09.09,0,0,1,.07,0,1.08,1.08,0,0,1,.18-.06.49.49,0,0,1,0,.2.32.32,0,0,1-.09.17.5.5,0,0,1-.44.17s-.07,0-.11,0a.2.2,0,0,1-.08,0,.37.37,0,0,1-.11-.11S27.41,16.86,27.4,16.86Z"/><path class="cls-23" d="M27.59,19.28a.32.32,0,0,1,0,.06.34.34,0,0,1,0,.15.65.65,0,0,1-.07.21.79.79,0,0,1-.14.18.59.59,0,0,1-.2.12.53.53,0,0,1-.2.05.91.91,0,0,1-.2,0,.76.76,0,0,1,.11-.17l.11-.13a1.42,1.42,0,0,1,.13-.12l.14-.12.13-.09Z"/><path class="cls-23" d="M74.27,22a2.39,2.39,0,0,1,.57-.62,1.69,1.69,0,0,1,.36-.23,2.05,2.05,0,0,1,.41-.16.78.78,0,0,1,.21,0,.86.86,0,0,1,.22,0,1.73,1.73,0,0,1,.45,0l.41.09.42.14a3.07,3.07,0,0,1,.39.23l.18.15a1.3,1.3,0,0,1,.15.18.67.67,0,0,1,.13.22.66.66,0,0,1,.06.25.78.78,0,0,1,0,.26v0h0s0,0,0,0h0l0,0a.6.6,0,0,1-.14.13,1,1,0,0,1-.49.12,3.23,3.23,0,0,1-.44,0,6,6,0,0,1-.83-.15l.12-.25a1.51,1.51,0,0,1,.21.23,1.32,1.32,0,0,1,.16.25,1.69,1.69,0,0,1,.2.57,1.46,1.46,0,0,1,0,.59,1.29,1.29,0,0,1-.08.28c0,.09-.09.17-.13.26a2.29,2.29,0,0,0,.08-.28,2.51,2.51,0,0,0,0-.27,1.6,1.6,0,0,0-.07-.54,1.77,1.77,0,0,0-.23-.48l-.16-.21c-.06-.06-.12-.13-.18-.18l.12-.25c.26,0,.53.07.8.09h.39a1.09,1.09,0,0,0,.32-.07s.06-.12,0-.2a.65.65,0,0,0-.11-.29l-.11-.14-.14-.11a3.62,3.62,0,0,0-.33-.2l-.35-.15-.4-.11a2.32,2.32,0,0,0-.38,0,1.64,1.64,0,0,0-.38,0A2.56,2.56,0,0,0,74.27,22Z"/><path class="cls-23" d="M79.42,21.44a5.26,5.26,0,0,1,.07.89,3.4,3.4,0,0,1,0,.45,3.54,3.54,0,0,1-.08.45,2.59,2.59,0,0,1-.14.45l-.1.21a1.43,1.43,0,0,1-.14.2,1,1,0,0,1-.15.2l-.19.16a1.19,1.19,0,0,1-.22.12l-.24.09H78a.61.61,0,0,1-.18-.05.91.91,0,0,1-.16-.11l-.11-.13a2.24,2.24,0,0,1-.12-.29c0-.1,0-.2-.05-.29a2.71,2.71,0,0,1,0-.57,5.25,5.25,0,0,1,.09-.55,7.26,7.26,0,0,0,.15,1.07,1.56,1.56,0,0,0,.19.45.46.46,0,0,1,.07.07l.08,0h.15l.18-.07a1.3,1.3,0,0,0,.15-.1.55.55,0,0,0,.14-.12l.13-.15a1,1,0,0,0,.11-.17c0-.06.07-.11.1-.18a3.53,3.53,0,0,0,.15-.39,2.77,2.77,0,0,0,.12-.41l.09-.42.08-.43Z"/><path class="cls-23" d="M77.56,21.44a.36.36,0,0,1-.09-.12.39.39,0,0,1,0-.24.44.44,0,0,1,.1-.22.11.11,0,1,1,.21,0,.39.39,0,0,1,0,.24.44.44,0,0,1-.1.22A.36.36,0,0,1,77.56,21.44Z"/><path class="cls-23" d="M80.72,23a2.24,2.24,0,0,1-.1.57A2.74,2.74,0,0,1,80,24.7a1.12,1.12,0,0,1-.66.37.84.84,0,0,1-.63-.18,1.25,1.25,0,0,1-.28-.33l-.08-.14.13.09a2.36,2.36,0,0,0,.34.2.86.86,0,0,0,.23.06.6.6,0,0,0,.23,0,1.08,1.08,0,0,0,.45-.31,5.47,5.47,0,0,0,.67-1Z"/><path class="cls-23" d="M81.09,24.65a.93.93,0,0,1-.15.27,1.25,1.25,0,0,1-.23.23,1.16,1.16,0,0,1-.33.18l-.2.05a.74.74,0,0,1-.21,0,.63.63,0,0,1-.33-.19.45.45,0,0,1-.09-.23.62.62,0,0,1,0-.09l.07.05.07.06.1,0a.38.38,0,0,0,.1,0H80l.26-.06c.18-.07.38-.17.55-.23Z"/><path class="cls-23" d="M80.22,25.89a.49.49,0,0,1-.16,0,.41.41,0,0,1-.24-.18.48.48,0,0,1,0-.18.39.39,0,0,1,.06-.18.2.2,0,0,1,.16-.07.24.24,0,0,0,.05.12.64.64,0,0,1,.1.13.74.74,0,0,1,.07.21A1.47,1.47,0,0,1,80.22,25.89Z"/><path class="cls-14" d="M36.23,23.48a1.82,1.82,0,0,0-1.67,1,1.93,1.93,0,0,0,.68,2.34,23.16,23.16,0,0,1,1.57-3,1,1,0,0,0-.58-.33Z"/><path class="cls-24" d="M66,19.84c-2.93-7-12.12-9.8-20.81-6.9-8.34,3.18-8.94,10.5-9,10.54a1,1,0,0,1,.58.33,14.16,14.16,0,0,1,4.1-4.51s8.62,3.78,16,2.67a15.16,15.16,0,0,0,2.43,12.25c1.61-.55,2.65,1.21,2.26,2.56a2.64,2.64,0,0,1-3.94,1.38c-.83,1.63-3.07,3.13-4.87,4.21C67.49,41.71,68.75,26.59,66,19.84Z"/><g class="cls-3"><path class="cls-17" d="M35.72,41.47l-1,1.94,2.92,2.46c.52-.69,1-1.4,1.5-2A23,23,0,0,1,35.72,41.47Z"/></g><path class="cls-25" d="M35.69,36.87S40,46.06,55.12,42.13C51.21,44.52,39.6,46.09,35.69,36.87Z"/><path class="cls-26" d="M55.78,46a61.32,61.32,0,0,1-6.4,2c.36,5.48.6,12.25-1.32,18.48a16.91,16.91,0,0,0,5.76-1.59c0-7.35.12-16.56.12-16.56l2.12-.58Z"/><path class="cls-13" d="M33.4,64.3s9.77,4.47,19.05,1.24C50.63,67.62,39.61,68.81,33.4,64.3Z"/><path class="cls-24" d="M22.93,18.26s-.27-.28-.76-.76-1.18-1.18-2-2-1.78-1.82-2.79-2.88L14.22,9.26,11.08,5.89c-1-1.08-1.91-2.1-2.7-3S6.94,1.32,6.48.81L5.77,0l.76.76c.48.49,1.18,1.18,2,2s1.78,1.82,2.79,2.89L14.49,9l3.13,3.37c1,1.08,1.92,2.1,2.71,3s1.44,1.61,1.89,2.12S22.93,18.26,22.93,18.26Z"/><path class="cls-24" d="M19.91,20.08,19,19.87c-.54-.15-1.33-.34-2.27-.6l-3.21-.88L9.9,17.34,6.25,16.25l-3.17-1C2.15,15,1.39,14.7.85,14.53L0,14.24l.86.22,2.28.59,3.2.88c1.18.33,2.42.69,3.67,1.06s2.48.73,3.65,1.09,2.24.7,3.17,1,1.69.55,2.23.73Z"/><path class="cls-24" d="M27.67,34.64l-.84.33c-.54.21-1.3.52-2.23.86L21.44,37,17.8,38.33,14.15,39.6,11,40.67l-2.28.73-.86.27.84-.34,2.23-.86c.92-.34,2-.76,3.16-1.18s2.4-.87,3.64-1.31l3.65-1.27,3.2-1.07c.94-.32,1.72-.56,2.27-.73Z"/><path class="cls-27" d="M61.53,39.09C58.72,40.89,58,39,58,39s2.79,1,3.86-1.41-.39-4.78-2-4.27c-2.55-3.09-2.46-10.86-.68-12.72-4.85,1-13.94.53-18.81-2.65-1.18,1.28-2.74,2.8-3.79,3.79a9.25,9.25,0,0,0-.38,1.75,1,1,0,0,1,.58.33,14.16,14.16,0,0,1,4.1-4.51s8.62,3.78,16,2.67a15.16,15.16,0,0,0,2.43,12.25c1.61-.55,2.65,1.21,2.26,2.56a2.64,2.64,0,0,1-3.94,1.38c-.83,1.63-3.07,3.13-4.87,4.21C67.49,41.71,68.75,26.59,66,19.84a11.07,11.07,0,0,0-1.12-2.06C69.35,27.39,64.34,37.29,61.53,39.09Z"/><path class="cls-28" d="M37.31,27.59c0,.25-.49.44-1.08.44s-1.08-.21-1.08-.46.49-.45,1.08-.44S37.31,27.34,37.31,27.59Z"/><path class="cls-28" d="M51.77,28.92c-.08.34-.81.46-1.62.28s-1.42-.63-1.34-1,.81-.46,1.62-.27S51.85,28.58,51.77,28.92Z"/><path class="cls-29" d="M19.59,25a2.23,2.23,0,0,0-2.48-.43c-.86.31-1.16,1.08-1.57,1.8-.21.36.54.42.69.16.32-.56.42-.94,1-1.3a1.36,1.36,0,0,1,2.09,1.31l-.06.61a2,2,0,0,0-.78-.23,2.45,2.45,0,0,0-.81,0,2.89,2.89,0,0,0-1.58.76,2.12,2.12,0,0,0-.6,2.39,2,2,0,0,0,1.76.8,2.72,2.72,0,0,0,1.48-.45l-.12.65c-.06.36.7.33.76,0,.18-1.09.44-2.17.58-3.28S20.32,25.8,19.59,25ZM17.13,30.6a1.41,1.41,0,0,1-.31-.14,1.49,1.49,0,0,1-.6-1.87,2.25,2.25,0,0,1,1.59-1.3,1.16,1.16,0,0,1,.64.1,1.53,1.53,0,0,1,.47.54,1.19,1.19,0,0,1,.15.64,2.33,2.33,0,0,1-.42,1.33A1.5,1.5,0,0,1,17.13,30.6Z"/><path class="cls-29" d="M14.19,30.34a1.64,1.64,0,0,1-2.66.65c-.67-.54-.59-1.32-.54-2.11.36,0,2.34,0,3,0,.22,0,.78-.05.78-.32,0-1,0-3.23-1.74-3a3.44,3.44,0,0,0-2.87,2.84c-.34,1.36,0,3.24,1.7,3.64A2.87,2.87,0,0,0,15,30.28C15.2,29.92,14.3,30.1,14.19,30.34Zm-.83-4c.65.42.6,1.32.57,2-.36,0-.72,0-1.06,0-.59,0-1.23,0-1.83.07C11.15,27.6,12.41,25.69,13.36,26.31Z"/><path class="cls-29" d="M24.44,27.05a2.34,2.34,0,0,0-2.86-.19c.2-1.94.41-3.88.59-5.83,0-.2-.76-.17-.79.1-.22,2.29-1.05,10.36-1.19,12.06,0,.21.77.17.79-.1.14-1.69.31-3.37.48-5.06a1.43,1.43,0,0,1,1.83-1c.89.34.83,1.16.68,1.91-.29,1.45-.55,2.89-.76,4.35-.05.37.73.33.78,0,.17-1.27.35-2.53.63-3.77C24.81,28.72,25.18,27.73,24.44,27.05Z"/><path class="cls-29" d="M11,23.94a.44.44,0,0,0-.6-.18.43.43,0,0,0-.12.11c-.54,1.52-1.5,3.9-1.76,4.63-.24-.77-1.4-4.1-1.62-5.08-.09-.42-1-.29-.86.12.24,1.08,2.21,6.09,2.21,6.1-.15.42-.75,1.9-1.1,3.07a.56.56,0,0,0,.66.55c.11,0,2.61-7.11,3.26-9.13A.84.84,0,0,0,11,23.94Z"/><path class="cls-30" d="M56.66,107.67C56.66,109,50.54,110,43,110s-13.67-1-13.67-2.33,6.12-2.34,13.67-2.34S56.66,106.38,56.66,107.67Z"/></g></g></g></svg>