<svg xmlns="http://www.w3.org/2000/svg" viewBox="0 0 140.03 181.45"><defs><style>.cls-1{isolation:isolate;}.cls-2{fill:#5e2c00;}.cls-3{fill:#904b15;}.cls-4{fill:#843a1c;}.cls-4,.cls-6{mix-blend-mode:screen;}.cls-5,.cls-6,.cls-7{fill:#cdda60;}.cls-7,.cls-9{mix-blend-mode:multiply;}.cls-8{opacity:0.4;}.cls-9{fill:#8e8e00;}</style></defs><g class="cls-1"><g id="Layer_2" data-name="Layer 2"><g id="Layer_1-2" data-name="Layer 1"><path class="cls-2" d="M121.69,8.08a10.83,10.83,0,0,0,.12-3.93c-.38-2.22-1.5-3.08-3.55-3.79-1.34-.46-3.28-.63-4.39.43a1.69,1.69,0,0,0-.4,1.93c1.9,10.49-1.55,21.24-5,31-.09.24,0,.3.19.28a2.16,2.16,0,0,0,.11.69,2.27,2.27,0,0,0,2.23,1,4.46,4.46,0,0,0,2.52-1.45.75.75,0,0,0,.17-.33c3-3.61,4.34-8.66,5.77-13A44.27,44.27,0,0,0,121.69,8.08Z"/><path class="cls-3" d="M112.26,34a1.4,1.4,0,0,1-1.67-.76c-.19-.54.32-1.34.44-1.88l.09-.37A44,44,0,0,0,115,16.86c.56-4.44.94-9.16-.39-13.48.12-.1.22-.23.2-.33a3,3,0,0,1,.06-1.63,5.57,5.57,0,0,1,5,2.69,10.26,10.26,0,0,1,.95,3.6C120.15,16.86,116.05,25.9,112.26,34Z"/><path class="cls-4" d="M115,16.86A44,44,0,0,1,111.12,31l-.09.37c-.12.54-.63,1.34-.44,1.88a1.11,1.11,0,0,0,.17.3c1.93-2.23,3.13-5.66,3.95-8,1.53-4.4,3.26-9.53,3-14.25-.14-2.59-1-5.58-.3-8.14.15-.53.43-.75.78-.79a4.9,4.9,0,0,0-3.33-.94,3,3,0,0,0-.06,1.63c0,.1-.08.23-.2.33C115.91,7.7,115.53,12.42,115,16.86Z"/><path class="cls-2" d="M137.08,110.57c-1.2-9.8-2.68-19.69-2-29.59.64-9.13,4.57-17.8,4.85-27,.14-4.22.21-8.11-1.1-12.21a22.8,22.8,0,0,0-6.59-9.93c-3.32-2.94-6.66-3.76-11-3.95-3.16-.14-6.42-.27-9.29-1.74-6.63-3.4-13.12-3.62-20.32-2C81,26.51,74.28,35.68,67.22,43.1c-3.93,4.13-7.33,9-11.09,13.32C50.77,62.61,44.61,66.83,37.54,70.8,27,76.71,17.32,82.14,9,91.07c-6.95,7.49-8.88,18.7-9,28.5C-.17,131.24,5.4,142.71,12,152c15,21.17,43,30.35,68,29.42,16.4-.6,32.43-5.74,43.61-18.27C136.77,148.29,139.44,129.67,137.08,110.57Z"/><path class="cls-5" d="M48.58,174.16c-24.11-8.52-46-30.6-45.63-57.62A45.69,45.69,0,0,1,7.5,96.8c3.05-6.12,8.81-11.09,14.24-15C27.46,77.6,34.22,74.43,40.37,71A71.8,71.8,0,0,0,54.53,60.37a83.69,83.69,0,0,0,12-13.73c3.85-5.79,9.34-10.83,14.43-15.49,5.95-5.44,16.18-7.47,23.82-5.44a86,86,0,0,1,9.91,3.77c.43.06.87.11,1.31.15a42,42,0,0,0,4.49-.13c10.31-.35,17,12.27,17.28,21.07a60.47,60.47,0,0,1-.61,9.21c-.74,6.37-2.88,12.61-3.81,19-1.82,12.47-.08,25.46,1.44,37.87,1.83,14.9-1.32,29.48-9.78,41.89C108.76,182.27,73.17,182.85,48.58,174.16Z"/><path class="cls-6" d="M3.7,116.49A46.28,46.28,0,0,1,23.47,87.71c9.45-6.23,20.21-10,30.08-15.43,5.8-3.22,10.48-7.12,13.72-13S72.89,47,76.64,41.47c5.26-7.8,13.08-13.89,22.37-16,.71-.16,1.42-.29,2.13-.4-7-.7-15.16,1.45-20.21,6.07S70.35,40.85,66.5,46.64a83.69,83.69,0,0,1-12,13.73A71.8,71.8,0,0,1,40.37,71c-6.15,3.48-12.91,6.65-18.63,10.81-5.43,3.95-11.19,8.92-14.24,15A45.69,45.69,0,0,0,3,116.54c0,1.17,0,2.32.09,3.46C3.22,118.82,3.43,117.65,3.7,116.49Z"/><path class="cls-7" d="M134.76,116.62c-1.52-12.41-3.26-25.4-1.44-37.87.93-6.36,3.07-12.6,3.81-19a60.47,60.47,0,0,0,.61-9.21c-.32-8.8-7-21.42-17.28-21.07a42,42,0,0,1-4.49.13c-.44,0-.88-.09-1.31-.15a86,86,0,0,0-9.91-3.77,27.1,27.1,0,0,0-12.3-.13,35.84,35.84,0,0,1,13.39,3.08c4.23,1.75,8.52,4,11.21,7.78a9.24,9.24,0,0,0,.28-5.39.45.45,0,0,1,.65-.5c5,3.44,5,10.21,3.79,15.58-2.4,10.29-10,18.05-15.16,27a70.61,70.61,0,0,0-4.15,24c0,12.35,3.13,24.5,2.79,36.82-.29,10.57-4,20.36-12.77,26.74C85.21,166,76.17,168,67.29,167.85a73.71,73.71,0,0,1-26.79-5.7c-9.22-3.83-18-9.18-24.33-17A44.72,44.72,0,0,1,6.06,115.64a54.26,54.26,0,0,1,2.83-15.49,63.24,63.24,0,0,1,4.48-11.31,31.94,31.94,0,0,0-5.87,8A45.69,45.69,0,0,0,3,116.54c-.4,27,21.52,49.1,45.63,57.62,24.59,8.69,60.18,8.11,76.4-15.65C133.44,146.1,136.59,131.52,134.76,116.62Z"/><g class="cls-8"><path class="cls-9" d="M51.1,94.11c-.4-.61-1.2-.55-1.83-.49a4.63,4.63,0,0,0-1.88.74,5.71,5.71,0,0,0-2.45,2.3c-.77,1.39-1,3.82,1.19,3.84,1.87,0,3.51-1.41,4.48-2.89C51.23,96.66,51.8,95.17,51.1,94.11Z"/><path class="cls-9" d="M15.06,121.91l-.16-.12c-.08-.55-1.09-.32-1.37-.21a3.48,3.48,0,0,0-2,1.92c-.22.67.17,1,.8,1a3.12,3.12,0,0,0,2.1-1C14.68,123.26,15.49,122.36,15.06,121.91Z"/><path class="cls-9" d="M34.54,125.26c-.55-1.25-2.24-.26-2.9.39a5.86,5.86,0,0,0-.53.65,4.54,4.54,0,0,0-.82,1.41,2.21,2.21,0,0,0,0,1.52.7.7,0,0,0,.45.37,1.62,1.62,0,0,0,.58,0l.59-.12a4.41,4.41,0,0,0,2.28-2.06A2.49,2.49,0,0,0,34.54,125.26Z"/><path class="cls-9" d="M31.29,129.62h0Z"/><path class="cls-9" d="M64.15,133.84c-.47-1.1-2-.84-2.82-.38a4.35,4.35,0,0,0-2.34,3,2.06,2.06,0,0,0,0,1.18,1.89,1.89,0,0,0,2.15,1.33,4.13,4.13,0,0,0,3-2.5A3.4,3.4,0,0,0,64.15,133.84Z"/><path class="cls-9" d="M121.18,153.45a2.76,2.76,0,0,0-2.53-.51,5.83,5.83,0,0,0-2.79,1.43,6.28,6.28,0,0,0-1.27.95,6,6,0,0,0-1.75,4.47c0,1.66.89,3,2.66,2.75,2.54-.3,4.73-2.69,5.75-4.89C121.82,156.41,122.24,154.58,121.18,153.45Z"/><path class="cls-9" d="M127.65,45a1.74,1.74,0,0,0-1.59-.32,3.76,3.76,0,0,0-1.76.9,3.58,3.58,0,0,0-.79.6A3.81,3.81,0,0,0,122.4,49c0,1,.57,1.85,1.68,1.72a5.16,5.16,0,0,0,3.61-3.07A2.47,2.47,0,0,0,127.65,45Z"/><path class="cls-9" d="M16.59,92.82a1.76,1.76,0,0,0-1.6-.33,3.82,3.82,0,0,0-1.75.9,4.29,4.29,0,0,0-.8.6,3.81,3.81,0,0,0-1.1,2.81c0,1,.56,1.86,1.68,1.73a5.19,5.19,0,0,0,3.61-3.08A2.45,2.45,0,0,0,16.59,92.82Z"/><path class="cls-9" d="M122.18,121.21h0c0-.07,0-.15,0-.22,0-.7-1.09-.43-1.4-.31a3.49,3.49,0,0,0-1.91,1.59l-.12.25c-.12.28-.3.64-.09.93s1,.2,1.35.06a3.71,3.71,0,0,0,1.94-1.58l0,0A1.63,1.63,0,0,0,122.18,121.21Z"/><path class="cls-9" d="M98.61,150.43a2,2,0,0,0-3.26-1.58,4.58,4.58,0,0,0-1.91,1.89,6.12,6.12,0,0,0-.47,2.07,2.2,2.2,0,0,0,.58,1.78,1.36,1.36,0,0,0,1.15.24,2.83,2.83,0,0,0,1.88-.58A4.42,4.42,0,0,0,98.61,150.43Z"/><path class="cls-9" d="M124.11,137.9c-.16-.52-.74-.42-1.16-.26a3.42,3.42,0,0,0-1.59,1.32c-.15.24-.42.58-.33.87.18.57.8.46,1.25.28A3.63,3.63,0,0,0,124,138.7.92.92,0,0,0,124.11,137.9Z"/><path class="cls-9" d="M67.41,166.13a2,2,0,0,0-1.35.29,3.7,3.7,0,0,0-1.11.87c-.1.11-.22.24-.32.37l0,0a2.05,2.05,0,0,0-.61,2.1c.26.87,1.25.67,1.88.33a4.1,4.1,0,0,0,1.88-2.1C68,167.47,68.19,166.34,67.41,166.13Z"/><path class="cls-9" d="M96.7,164c-.27-.38-.91-.2-1.25-.07-.82.32-2,1.16-2,2.15a1,1,0,0,0,0,.17c.1.61.9.44,1.29.29a3.56,3.56,0,0,0,1.77-1.47,2.12,2.12,0,0,0,.11-.21C96.74,164.61,96.9,164.26,96.7,164Z"/><path class="cls-9" d="M36.61,151.45c-.07.22.21-1.51,0-.38a2.18,2.18,0,0,0,0-.95l0,0c-.11-.79-.94-1-1.82-.86a6.11,6.11,0,0,0-2.16.94,4.88,4.88,0,0,0-1,.44,4.49,4.49,0,0,0-1.91,1.8c-.39.89-.41,1.8-.71,2.7a1.4,1.4,0,0,0,.79,1.56,2.85,2.85,0,0,0,2.18-.09,7.31,7.31,0,0,0,4-3.47,5.9,5.9,0,0,0,.42-1A4.27,4.27,0,0,0,36.61,151.45Z"/><path class="cls-9" d="M102.11,103.71c-.33-.21-1,.09-1.23.25A3.35,3.35,0,0,0,99,106.12a1.35,1.35,0,0,0,.62,1.54.77.77,0,0,0,.37.07,1.34,1.34,0,0,0,.79,0,2.64,2.64,0,0,0,1.89-1.93A2,2,0,0,0,102.11,103.71Z"/><path class="cls-9" d="M121,98a1.14,1.14,0,0,0-.18-.76c-.28-.55-1.44.15-1.7.34s-1.19,1-.84,1.52c.11.16.19.33.39.4a1.46,1.46,0,0,0,1.14-.22C120.19,99.07,120.91,98.56,121,98Z"/><path class="cls-9" d="M90.91,126.13a3.59,3.59,0,0,0-2,.5h-.22a3.34,3.34,0,0,0-2,1.57,3.84,3.84,0,0,0-.21,3.82c.46.76,1.54.59,2.22.31a6.26,6.26,0,0,0,3.37-3.67C92.51,127.58,92.25,126.28,90.91,126.13Z"/></g></g></g></g></svg>