<svg xmlns="http://www.w3.org/2000/svg" viewBox="0 0 359.17 334.14"><defs><style>.cls-1{fill:#ffbda7;}.cls-13,.cls-2{fill:#455a64;}.cls-3{fill:#37474f;}.cls-4{fill:#ba68c8;}.cls-5{fill:#007cff;}.cls-6{fill:#fafafa;}.cls-7{fill:#e0e0e0;}.cls-8{fill:#f0997a;}.cls-12,.cls-15,.cls-9{fill:#263238;}.cls-10,.cls-11{fill:#f7b19f;}.cls-11,.cls-14{opacity:0.1;}.cls-12{opacity:0.3;}.cls-13{opacity:0.4;}.cls-14,.cls-17{fill:#fff;}.cls-15,.cls-16{opacity:0.2;}</style></defs><g id="Layer_2" data-name="Layer 2"><g id="Character"><g id="Character-2" data-name="Character"><g id="Bottom"><path class="cls-1" d="M263.47,275.73s-39.14-14.75-44-18.8c-4-3.38-1.61-11.46-7.2-12.84-6.45-1.59-11.05,2-15.19,5.89-3.92,3.71-9,5.38-18.69,2s-19-8.34-22.87-6.39-1.3,5.06,15.58,13.1c9.7,4.61,22.05,10,30,13.2a66,66,0,0,1,16,8.91c10.32,7.45,12.21,9,24.42,16.58,24.41,15.07,38.77,19,58.18,15.25Z"/><path class="cls-2" d="M226.83,261.75c-7.77,4.48-11.53,9.42-12,18,0,0,5.26,4.07,13.56,9.82,9.95,6.89,34,22.56,50.12,24.2,24.94,2.54,33.48-3.87,33.48-3.87Z"/><path class="cls-3" d="M219.62,266.58c12.76,22.16,44,35.95,53.75,37-3.47-2.93-8.55-12.87-13.36-23.65l-33.17-19.05A29.16,29.16,0,0,0,219.62,266.58Z"/><path class="cls-3" d="M146.41,243.69a5.54,5.54,0,0,1,.92-4.6c3.44-4.2,7.85-6.42,10.84-8a23.36,23.36,0,0,1,11.67-2.25c7.65.47,14.23,6.36,21.87,6.81,5.72.35,10.9-2.65,16.47-4a17.22,17.22,0,0,1,5.35-.47c1.53.1,3.95,1.18,4.5,2.53a7.09,7.09,0,0,1,.42,5c-.35,1.07-2.47,3.09-4,4.2-2.09,1.53-4.68,2-7.8,2.9C198.82,248.21,163.7,249.06,146.41,243.69Z"/><path class="cls-4" d="M219.69,254.72c0,.72.11,1.41.19,2.14.11,1-.41,1.28-1.2,1.84-3.23,2.27-7.29,2.05-11,1.39-2.86-.51-5.77-1.34-8.62-.77-3.4.69-6.11,3.26-8.65,5.7a7,7,0,0,0-1.38,1.86s-19.73-8.69-28.71-13.58c-4.55-2.48-9.8-4.79-13.38-8.71-.19-.21.87-1.59,1-1.72a8.46,8.46,0,0,1,4.54-2.62,22.54,22.54,0,0,1,8.68-.6c4.41.67,8.71,1.87,13.08,2.76a106.56,106.56,0,0,0,11.88,1.72,87.47,87.47,0,0,0,13.05.22,31.54,31.54,0,0,0,11.87-2.59,16.85,16.85,0,0,0,4.08-2.58,12.64,12.64,0,0,0,1.87-2.47c.61-.9,1-2.41,1.61-1.13,1.49,3.06,1.8,7.77,1.59,11.19-.14,2.36-.44,4.7-.53,7.06C219.67,254.14,219.68,254.43,219.69,254.72Z"/><path class="cls-5" d="M219.69,254.72c0,.72.11,1.41.19,2.14.11,1-.41,1.28-1.2,1.84-3.23,2.27-7.29,2.05-11,1.39-2.86-.51-5.77-1.34-8.62-.77-3.4.69-6.11,3.26-8.65,5.7a7,7,0,0,0-1.38,1.86s-19.73-8.69-28.71-13.58c-4.55-2.48-9.8-4.79-13.38-8.71-.19-.21.87-1.59,1-1.72a8.46,8.46,0,0,1,4.54-2.62,22.54,22.54,0,0,1,8.68-.6c4.41.67,8.71,1.87,13.08,2.76a106.56,106.56,0,0,0,11.88,1.72,87.47,87.47,0,0,0,13.05.22,31.54,31.54,0,0,0,11.87-2.59,16.85,16.85,0,0,0,4.08-2.58,12.64,12.64,0,0,0,1.87-2.47c.61-.9,1-2.41,1.61-1.13,1.49,3.06,1.8,7.77,1.59,11.19-.14,2.36-.44,4.7-.53,7.06C219.67,254.14,219.68,254.43,219.69,254.72Z"/><path class="cls-6" d="M168.28,241c-3.69,5.21-3.67,14.45-3.67,14.45a138.59,138.59,0,0,1-12.56-6.33c-6-3.43-5.64-5.41-5.64-5.41a5.45,5.45,0,0,1,1.74-2.71,11,11,0,0,1,8-2.48A50.54,50.54,0,0,1,168.28,241Z"/><path class="cls-6" d="M168,252.34a10.82,10.82,0,0,0-.37,4.58,4.92,4.92,0,0,0,2,.94,19.17,19.17,0,0,1,.47-4.7C170.47,251.82,168.45,251.06,168,252.34Z"/><path class="cls-6" d="M174,255.17a10.91,10.91,0,0,0-.42,4.59,5.35,5.35,0,0,0,2,.93,16.64,16.64,0,0,1,.47-4.69C176.48,254.65,174.46,253.9,174,255.17Z"/><path class="cls-6" d="M180,258a10.61,10.61,0,0,0-.38,4.54,4.83,4.83,0,0,0,2,1,18.81,18.81,0,0,1,.48-4.7C182.48,257.49,180.46,256.74,180,258Z"/><path class="cls-7" d="M218.62,235.58a4,4,0,0,0-.59-1.9s-2,4.17-9,6.59c-6.69,2.29-16.25,3.4-30.06.11s-21.77-6.33-28-3.78-4.51,7.09-4.51,7.09,3-5.66,11.74-4.6c8.43,1,20.84,5.63,32.4,6.07C202.61,245.62,214.8,244,218.62,235.58Z"/><path class="cls-2" d="M358.21,258.84c-3.86-13.74-15.19-23.72-32.26-38C311.47,208.68,284.7,189,284.7,189h0l-76.26-15.19c-3.09,13.92-13.24,23.74-13.22,43.09,0,14.08,2.22,33.94,26.84,52.22,14.94,11.09,26.86,19.8,37.56,26.6,11.31,7.18,36.87,21.32,51,14.86,10.81-4.94,12.67-14.44,12.28-22.37h0c1.73.16,3.45.26,5.05.27,1.87.06,3.58,0,4.92,0a33.87,33.87,0,0,0,14.62-3.68C356.78,280.13,361.29,269.86,358.21,258.84Z"/><path class="cls-3" d="M328,288.52c-1.6,0-3.34-.11-5.07-.27-2.48-15.39-60.47-59.91-60.47-59.91,4-2,13.38-7,16.51-12.59-1.28,7.16-5.39,10.81-9.38,13.71,6.13,5.49,31.86,27.18,38.73,33.7C315.5,270,324.48,278.82,328,288.52Z"/></g><g id="Top"><path class="cls-1" d="M273.19,89.16c11.1,2.64,15.73,3.69,21.11,10.34,3.76,4.64,16.71,37.24,20.27,52.77,2.41,10.47,2.25,25.33-2.39,28.65-4.94,3.53-14.11-1.19-19.53-5.78-3.94-3.34-5.71-5.55-7.76-7.27Z"/><path class="cls-8" d="M298.52,153.09c3.92-.36,9.58.39,12.82,3.76-1.62-3.07-5.92-5.86-13.27-5.16Z"/><path class="cls-9" d="M294.29,118.06c-6-12.68-12.55-20.52-21.1-29,0,0-11-2.67-18.39-3.87s-11.52-.81-19.27,0c-3.9.42-15.32,3.28-21.35,4.55.56,17.75,3.91,26.82-7.45,40.73-.29,11,1.83,33.23,2.1,40.89.21,6.27-9.11,17-12.62,32.44,14.22,15.57,73,20,96.74-8.77A82.32,82.32,0,0,0,285.23,183c1.07-13.74,1.36-27,1.94-30.4C297.33,142.53,299.91,130,294.29,118.06Z"/><path class="cls-3" d="M236.16,10.18s-8.77-1-15,10.45c-7.71,14.2-8.28,29.84-8.09,39.87s3,14.83,9,17.86a24.72,24.72,0,0,1-.32-14.26s2.53,14.75,17,18.68,39.81,7.7,47.79-2.38c-3.35-8.43,2-35.83,2-35.83A16.09,16.09,0,0,0,298.87,31c1.1-10.62-5-20.18-13.8-21.45,0,.35-11.52-5.71-11.52-5.71C269.36-1.28,245.13-3.11,236.16,10.18Z"/><path class="cls-5" d="M234.72,42.49c1-13.43,18-38.55,50.35-32.95,0,0-3.16-3.74-11.52-5.71-11.3-.16-36.28,2-42.3,36.65A9.12,9.12,0,0,1,234.72,42.49Z"/><path class="cls-1" d="M283.2,16.8c3.9,4.36,8.4,13.44,5.46,38.35-2.48,21.11-9.94,25.15-13.43,26.23-2.9.91-8.72.93-13.18-.44l-1.58,8.4s12.72,13.38,2.37,15.61c-20.64,4.44-30.23-18.06-30.23-18.06l3.53-24.7s-5.87,3.08-11.52-3.14c-4.67-5.13-5.64-13.14-1.26-17s11.63-2,13.89,4.28c0,0,10.94,1.57,24.51-4.34C274.94,36.28,281,24.75,283.2,16.8Z"/><path class="cls-8" d="M267.28,67.8a1.47,1.47,0,1,1-1.47-1.47A1.47,1.47,0,0,1,267.28,67.8Z"/><path class="cls-8" d="M262.05,80.94c-4.4-1-11.07-2.45-16.59-6.39-2.46-1.75-3.9-4.65-5.06-7.94,0,0-.39,5.49,2.86,9.35,4.2,5,18.1,8.52,18.1,8.52Z"/><path class="cls-3" d="M236.92,43.1l1.06,10a4.74,4.74,0,0,0,4.36-5.34A5.23,5.23,0,0,0,236.92,43.1Z"/><path class="cls-9" d="M265.63,46.85c.63.39-.34,3.54-3.9,3.61s-4.64-2.49-3.94-3.07,1.63,1.14,4.19.8C264.78,47.82,265,46.46,265.63,46.85Z"/><path class="cls-9" d="M286.4,47.76c.51.49-1,3.3-4.43,2.67s-3.92-3.29-3.14-3.71,1.33,1.41,3.83,1.6C285.39,48.52,285.88,47.26,286.4,47.76Z"/><path class="cls-9" d="M262.06,37.12l-6.21,2.21A3.47,3.47,0,0,1,257.92,35,3.23,3.23,0,0,1,262.06,37.12Z"/><path class="cls-9" d="M287.91,40.77,281.86,38a3.18,3.18,0,0,1,4.29-1.73A3.48,3.48,0,0,1,287.91,40.77Z"/><polygon class="cls-8" points="271 44.57 270.65 60.82 279.31 58.59 271 44.57"/><g id="Arm"><path class="cls-1" d="M287.34,170.18c-1.33-1.17-1.9-1.74-3.44-3.12-2.59-2.33-5.4-3.94-6.25-7.54-1.21-5.12.31-8.28.13-13.3a16,16,0,0,1,.71-6.94s.1-2.79-2.82-9.89c-1.08-2.6-.88-4.76,1.11-5.34-1-3.62.61-4.92,2.35-4.84-.84-2.81-1.32-5.37,1.46-6.58.28-.12,1,.74,1.9,2.75,0-1.89,2.14-3.89,3.06-2.53,4.08,7,4.58,7.31,7.72,13.73,2.69,5.49,3,7.88,3.52,18,.14,2.72-.17,8.92,5.44,12.26"/><path class="cls-8" d="M293.27,126.58a30.47,30.47,0,0,1,1.83,3.66,23.73,23.73,0,0,1,1.15,4,62.26,62.26,0,0,1,.87,8.15c.21,2.72,0,5.46.68,8a10.89,10.89,0,0,0,4.43,6.46,10.21,10.21,0,0,1-3.2-2.58,11.38,11.38,0,0,1-1.91-3.69,18,18,0,0,1-.69-4.1c-.06-1.38-.13-2.71-.22-4.07-.16-2.71-.29-5.42-.65-8.09A30.16,30.16,0,0,0,293.27,126.58Z"/><path class="cls-8" d="M287.4,148.38a16.18,16.18,0,0,0-1.34-6.85s-.36-2.77,1.91-10.1c.83-2.7.44-4.83-1.6-5.23.65-3.68-1.05-4.84-2.78-4.59.58-2.88.82-5.48-2-6.43-.3-.09-.94.83-1.64,2.92a3.65,3.65,0,0,0-1.42-2.36,11.9,11.9,0,0,0,.65,3.47c-1.74-.08-3.34,1.22-2.35,4.84-2,.58-2.19,2.74-1.11,5.34,2.92,7.1,2.82,9.89,2.82,9.89a16,16,0,0,0-.71,6.94c.18,5-1.34,8.18-.13,13.3a11.39,11.39,0,0,0,6.2,7.61l1.78,1.51a14.79,14.79,0,0,0,3.42-6.42C290.27,156.6,287.68,153.4,287.4,148.38Z"/></g><path class="cls-1" d="M214.18,89.79c-14.73,3.37-20.86,9.15-20.86,27.47,0,12.51,9.13,51,16,68.88,3.44,9,8.18,13.13,22.33,9.51,11.48-2.93,45.82-20,50.39-25.21s-13.47-14.14-18.88-11.68S232.69,166,232.69,166l-8.4-41.7S225.66,99.29,214.18,89.79Z"/><g id="Arm-2" data-name="Arm"><path class="cls-1" d="M276.18,174.69c7.94-4.46,10.95-8.87,11.73-12.49,1.22-5.62-1.37-8.82-1.65-13.84a16.11,16.11,0,0,0-1.34-6.84s-.36-2.78,1.91-10.11c.83-2.7.44-4.82-1.6-5.22.66-3.69-1.05-4.84-2.77-4.6.57-2.88.81-5.47-2.06-6.43-.3-.09-.94.83-1.64,2.92-.22-1.88-2.49-3.68-3.28-2.24-3.43,7.33-3.9,7.69-6.44,14.37-2.17,5.71-2.24,8.12-1.86,18.26.11,2.72,1.8,7.57-4,10.29"/><path class="cls-8" d="M283.73,128.06a57.78,57.78,0,0,0-3.07,9.43c-.27,1.8-.67,5.68-.67,5.68a23.26,23.26,0,0,1,0-6C280.39,133.28,283.73,128.06,283.73,128.06Z"/><path class="cls-8" d="M282,121.81c-1.22,3.1-3.77,7.45-4.3,9.73a60.62,60.62,0,0,0-1.21,10.5,26.08,26.08,0,0,1,.54-10.84C278,127.66,279.81,125.81,282,121.81Z"/><path class="cls-8" d="M278.76,118.08c-1.79,4.21-4.66,10.11-5.26,11.85s-1.2,10.3-1.2,10.3a47,47,0,0,1,0-9C272.83,128.06,278.76,118.08,278.76,118.08Z"/></g></g></g><path class="cls-10" d="M156.19,117.3c.7,2.1,1.59,4.49,2.53,6.86s2,4.78,3.06,7.16c2.14,4.77,4.53,9.47,7,14,1.25,2.24,2.57,4.42,3.93,6.48s2.73,4.07,4.15,5.86a43.08,43.08,0,0,0,4.18,4.58,17.36,17.36,0,0,0,2.89,2.21l-2.38-.46a7.75,7.75,0,0,0-2.85.33,6.78,6.78,0,0,0-1.89.91c-.82.63-.79.83-.66.77a8.83,8.83,0,0,0,2-2.61,50.67,50.67,0,0,0,2.31-4.61c.75-1.68,1.43-3.48,2.12-5.3s1.37-3.72,2-5.63,1.31-3.84,1.92-5.8l3.73-11.79.06-.19A7,7,0,0,1,204,131.65a124.58,124.58,0,0,1,.17,13.37c-.11,2.22-.22,4.46-.42,6.7s-.46,4.49-.78,6.77-.76,4.58-1.29,6.94a55.91,55.91,0,0,1-2.09,7.31,33,33,0,0,1-4.32,8.4,20.26,20.26,0,0,1-5.27,5.09,18,18,0,0,1-4.78,2.2,17.53,17.53,0,0,1-6,.6,10.62,10.62,0,0,1-1.9-.32l-.48-.14a35.61,35.61,0,0,1-12-6.1,59.25,59.25,0,0,1-8.05-7.4c-2.32-2.53-4.4-5.1-6.34-7.69s-3.68-5.26-5.36-7.92-3.24-5.36-4.7-8.1-2.89-5.48-4.18-8.3-2.55-5.66-3.67-8.61a92.66,92.66,0,0,1-3.12-9.33,14,14,0,0,1,26.7-8.07Z"/><path class="cls-11" d="M156.19,117.3c.7,2.1,1.59,4.49,2.53,6.86s2,4.78,3.06,7.16c2.14,4.77,4.53,9.47,7,14,1.25,2.24,2.57,4.42,3.93,6.48s2.73,4.07,4.15,5.86a43.08,43.08,0,0,0,4.18,4.58,17.36,17.36,0,0,0,2.89,2.21l-2.38-.46a7.75,7.75,0,0,0-2.85.33,6.78,6.78,0,0,0-1.89.91c-.82.63-.79.83-.66.77a8.83,8.83,0,0,0,2-2.61,50.67,50.67,0,0,0,2.31-4.61c.75-1.68,1.43-3.48,2.12-5.3s1.37-3.72,2-5.63,1.31-3.84,1.92-5.8l3.73-11.79.06-.19A7,7,0,0,1,204,131.65a124.58,124.58,0,0,1,.17,13.37c-.11,2.22-.22,4.46-.42,6.7s-.46,4.49-.78,6.77-.76,4.58-1.29,6.94a55.91,55.91,0,0,1-2.09,7.31,33,33,0,0,1-4.32,8.4,20.26,20.26,0,0,1-5.27,5.09,18,18,0,0,1-4.78,2.2,17.53,17.53,0,0,1-6,.6,10.62,10.62,0,0,1-1.9-.32l-.48-.14a35.61,35.61,0,0,1-12-6.1,59.25,59.25,0,0,1-8.05-7.4c-2.32-2.53-4.4-5.1-6.34-7.69s-3.68-5.26-5.36-7.92-3.24-5.36-4.7-8.1-2.89-5.48-4.18-8.3-2.55-5.66-3.67-8.61a92.66,92.66,0,0,1-3.12-9.33,14,14,0,0,1,26.7-8.07Z"/><path class="cls-10" d="M204.75,108.6l-6.35-2.48a5.55,5.55,0,0,0-7.22,3.25l-3.47,9.46L189,134.77l9.11,3.47c7.79-.92,8.41-15.5,8.41-15.5l1.66-7.83A5.53,5.53,0,0,0,204.75,108.6Z"/><path class="cls-11" d="M204.75,108.6l-6.35-2.48a5.55,5.55,0,0,0-7.22,3.25l-3.47,9.46L189,134.77l9.11,3.47c7.79-.92,8.41-15.5,8.41-15.5l1.66-7.83A5.53,5.53,0,0,0,204.75,108.6Z"/><path class="cls-9" d="M128,116.23c7.43-15.84,29.34-15.94,47.62,20-5.58,18.24-30.38,32.17-30.38,32.17S119,135.29,128,116.23Z"/><path class="cls-12" d="M128,116.23c7.43-15.84,29.34-15.94,47.62,20-5.58,18.24-30.38,32.17-30.38,32.17S119,135.29,128,116.23Z"/><path class="cls-2" d="M238.86,298.88C236.45,278.8,161,240,161,240l-62.89-3c-13.28,34.27-2.84,49.5,11.55,54.17a186.2,186.2,0,0,0-30.47,7.69c-8.28,2.85-11.74,13.06-6.34,20A11.43,11.43,0,0,0,78.75,323S245.48,354.28,238.86,298.88Z"/><path class="cls-13" d="M238.86,298.88C236.45,278.8,161,240,161,240l-62.89-3c-13.28,34.27-2.84,49.5,11.55,54.17a186.2,186.2,0,0,0-30.47,7.69c-8.28,2.85-11.74,13.06-6.34,20A11.43,11.43,0,0,0,78.75,323S245.48,354.28,238.86,298.88Z"/><path class="cls-5" d="M50.09,320.52l6.82-14.61a1.4,1.4,0,0,0,0-1.89L46.32,293.24a8.9,8.9,0,0,0-12.63,1.84c-3.25,4.43-5,9.14-10.26,13.17-8.37,6.43-5.49,3.83-17.56,6.59-7.29,1.66-6.9,9.35-3.62,9.31,14.9-.19,28.36-.07,43.38-2A9.17,9.17,0,0,0,50.09,320.52Z"/><path class="cls-2" d="M211.48,303c-2.4-20.08-88.17-58.76-88.17-58.76L65,237c-13.28,34.27-2.84,49.5,11.55,54.17a185.93,185.93,0,0,0-30.47,7.69c-8.28,2.85-8.38,11-6.87,18.41.87,4.23,4.17,5.09,6.45,5.71C45.68,323,218.11,358.43,211.48,303Z"/><path class="cls-14" d="M113.24,315.59a461.38,461.38,0,0,1-60.13-4.1.4.4,0,0,1-.35-.47.41.41,0,0,1,.47-.35c.74.11,73.67,10.75,120.39-2.75-22.68-3.45-100.41-25.2-97.92-48.87a.42.42,0,1,1,.83.09C75.2,271.72,97.92,283.41,117.21,291c23.22,9.14,48.58,15.16,58.42,16.35a.43.43,0,0,1,.36.38.41.41,0,0,1-.29.43C157.18,313.86,134.24,315.59,113.24,315.59Z"/><path class="cls-9" d="M147.3,106.67c-18.43-4.49-28.14-5.68-40.18-6.22a39.86,39.86,0,0,0-41.37,44.08c5.35,51.09-1.86,82.73-2.7,94.12,34.62,22.73,89.61,13.44,98.87,4.14,10.22-41.94,6.86-88.27,5.19-108.54C166.21,123.28,158.77,109.46,147.3,106.67Z"/><path class="cls-15" d="M147.3,106.67c-18.43-4.49-28.14-5.68-40.18-6.22a39.86,39.86,0,0,0-41.37,44.08c5.35,51.09-1.86,82.73-2.7,94.12,34.62,22.73,89.61,13.44,98.87,4.14,10.22-41.94,6.86-88.27,5.19-108.54C166.21,123.28,158.77,109.46,147.3,106.67Z"/><path class="cls-12" d="M141.12,245.54h-.05a.41.41,0,0,1-.36-.46c4.5-38.68,7-103.36-.28-119.14a.42.42,0,0,1,.21-.55.41.41,0,0,1,.55.2c8.05,17.47,4.19,86.51.34,119.58A.4.4,0,0,1,141.12,245.54Z"/><path class="cls-1" d="M107.56,71.19c1,17.73-1.23,24.61-4.23,33.16,1.83,6.88,18.85,14.87,34.21,16.86,5.53-5.84,4.7-11.64,3.29-14.26-4.48-1.73-8.72-7.15-5.44-15.19Z"/><path class="cls-16" d="M126.48,84.42h0L120.58,82a15.13,15.13,0,0,0,1.25,6.89c1.66,3.54,8.09,7.11,12.43,7.51a14.9,14.9,0,0,1,1.12-4.67Z"/><path class="cls-9" d="M140.14,26.48c13.6,6.79,14.62,13.94,9.75,21.38C133,38.8,140.14,26.48,140.14,26.48Z"/><path class="cls-1" d="M101.63,56.9c6.07,16.55,8.79,26.55,19.88,32.59,16.69,9.08,35.18-5.07,34.17-23.15C154.77,50.07,145,25.73,126.49,24.1,108.27,22.5,95.55,40.34,101.63,56.9Z"/><path class="cls-9" d="M155.72,16.24a12.4,12.4,0,0,1-5.56,4.65c-1-6.86-13-17.35-34.17-17.35a34.48,34.48,0,0,1,5.77,3.68A8,8,0,0,0,116,14.16S94.65,16.46,88.9,29.44c-1.07-2.87-2-6.65-1.28-9.93C84.91,22,81.39,34.43,85.94,40.16c-9,3.46-3.81,11.7-3.81,11.7s.17-3,.82-3.65c2.49,3,.83,13.94,8.86,17.44-2.5,9.79,17.53,17.72,18,10.62s.49-11.09.49-11.09c1.9-.23,5.74-2.44,5.7-3.09-.37-5-6.54-8-8.06-10.92,5.16.89,9.62-1.35,10.36-3.44-3.35,1.17-7.12-.36-9.53-1.85.55-7.2,15-10.31,29.65-9.48.82,0,1.58,0,2.32,0h.12a13.38,13.38,0,0,0,8.31-2.93C155.51,29.19,156.19,21.47,155.72,16.24Z"/><path class="cls-1" d="M97.76,70.06a15.85,15.85,0,0,0,10.3,6.52c5.54.9,7.74-4.21,5.72-9.12C112,63,106.89,57.25,101.56,58.59S94.82,65.8,97.76,70.06Z"/><path class="cls-8" d="M142.22,50.44s5,7.35,9.31,10.44c-2,2.88-6.41,2.79-6.41,2.79Z"/><path class="cls-9" d="M138.63,70.27a11.68,11.68,0,0,1-8.91-2.78.43.43,0,0,1,0-.6.43.43,0,0,1,.6,0,11.26,11.26,0,0,0,10,2.27.42.42,0,0,1,.5.32.42.42,0,0,1-.32.5A14.49,14.49,0,0,1,138.63,70.27Z"/><path class="cls-9" d="M122.35,49.26a.81.81,0,0,1-.42-.1A.85.85,0,0,1,121.6,48a8.47,8.47,0,0,1,6.27-4.51.84.84,0,0,1,.9.77.85.85,0,0,1-.77.91h0a6.72,6.72,0,0,0-4.92,3.63A.85.85,0,0,1,122.35,49.26Z"/><path class="cls-9" d="M129.9,54.82a.61.61,0,0,1-.31-.13.66.66,0,0,1-.1-.92,6.56,6.56,0,0,1,5.41-2.59.64.64,0,0,1,.58.71.66.66,0,0,1-.71.59h0a5.22,5.22,0,0,0-4.26,2.1A.64.64,0,0,1,129.9,54.82Z"/><path class="cls-9" d="M152.27,50a.59.59,0,0,0,.25-.22.64.64,0,0,0-.2-.9,6.53,6.53,0,0,0-5.94-.75A.65.65,0,0,0,146,49a.67.67,0,0,0,.87.34h0a5.21,5.21,0,0,1,4.7.64A.65.65,0,0,0,152.27,50Z"/><path class="cls-9" d="M152.25,42.77a.83.83,0,0,1-.79-.1,6.64,6.64,0,0,0-6-1.13.82.82,0,0,1-1.08-.49.86.86,0,0,1,.49-1.09,8.32,8.32,0,0,1,7.55,1.34.85.85,0,0,1,.18,1.18A.79.79,0,0,1,152.25,42.77Z"/><path class="cls-1" d="M100.82,119a38.12,38.12,0,0,0,3.31,5.39,70,70,0,0,0,4.81,5.89c1.78,1.94,3.67,3.92,5.67,5.81s4.11,3.76,6.25,5.58,4.37,3.58,6.64,5.26,4.54,3.35,6.86,4.88,4.69,2.94,7,4.24a50.78,50.78,0,0,0,6.44,3.08l-2.22-.44a6.15,6.15,0,0,0,2.94,0,19.39,19.39,0,0,0,4.79-1.71,47.06,47.06,0,0,0,5.47-3.22c1.85-1.27,3.7-2.71,5.54-4.24s3.69-3.14,5.48-4.84,3.62-3.45,5.37-5.27,3.54-3.65,5.25-5.55q1.31-1.41,2.58-2.85l2.49-2.79.25-.28a7,7,0,0,1,11.58,7.43c-.63,1.43-1.21,2.64-1.83,3.93s-1.27,2.52-1.93,3.76c-1.34,2.47-2.73,4.92-4.23,7.32s-3.07,4.78-4.76,7.11-3.48,4.61-5.39,6.87a87,87,0,0,1-6.25,6.56,59.48,59.48,0,0,1-7.52,6.08,42.35,42.35,0,0,1-9.69,5,31.16,31.16,0,0,1-12.84,1.76,9,9,0,0,1-1.57-.26l-.65-.18a72.47,72.47,0,0,1-10.81-3.95c-3.27-1.46-6.33-3.1-9.32-4.79s-5.88-3.5-8.71-5.37-5.56-3.89-8.25-6a122.4,122.4,0,0,1-15.39-13.95,83.84,83.84,0,0,1-7-8.56,55.47,55.47,0,0,1-6-10.71,13.95,13.95,0,0,1,25.39-11.52Z"/><path class="cls-1" d="M183.25,135.58,182,119.64l18.77,3.91s-.62,14.57-8.41,15.5Z"/><path class="cls-1" d="M192.68,106.93l6.35,2.48a5.54,5.54,0,0,1,3.41,6.31l-1.67,7.83L182,119.64l3.46-9.46A5.54,5.54,0,0,1,192.68,106.93Z"/><path class="cls-17" d="M76.56,125c3.64-13.7,24.48-24.73,45.5,13.42-2.32,16.45-20,29.4-20,29.4S71.9,142.5,76.56,125Z"/><path class="cls-9" d="M72.06,123.55c4-16,26-31.23,47.72,8.93-2.62,18.88-21.33,35.9-21.33,35.9S67,144,72.06,123.55Z"/><path class="cls-15" d="M72.06,123.55c4-16,26-31.23,47.72,8.93-2.62,18.88-21.33,35.9-21.33,35.9S67,144,72.06,123.55Z"/></g></g></svg>