<svg xmlns="http://www.w3.org/2000/svg" xmlns:xlink="http://www.w3.org/1999/xlink" viewBox="0 0 44.7 59.19"><defs><style>.cls-1{isolation:isolate;}.cls-2{fill:none;stroke:#828282;stroke-miterlimit:10;stroke-width:0.88px;}.cls-3{fill:#5ce244;}.cls-4{fill:#90ff80;}.cls-5{opacity:0.4;mix-blend-mode:multiply;fill:url(#linear-gradient);}.cls-6{fill:#49c430;}</style><linearGradient id="linear-gradient" x1="22.88" y1="46.12" x2="22.88" y2="28.67" gradientUnits="userSpaceOnUse"><stop offset="0" stop-color="#fff"/><stop offset="0.39" stop-color="#b8aaa2"/><stop offset="0.81" stop-color="#6f5344"/><stop offset="1" stop-color="#52301e"/></linearGradient></defs><g class="cls-1"><g id="Layer_2" data-name="Layer 2"><g id="BACKGROUND_2" data-name="BACKGROUND 2"><line class="cls-2" x1="15.32" y1="0.76" x2="15.32" y2="32.77"/><line class="cls-2" x1="29.37" y1="0.76" x2="29.37" y2="32.77"/><line class="cls-2" x1="7.63" y1="0.03" x2="10.24" y2="39.69"/><line class="cls-2" x1="37.07" y1="0.03" x2="34.46" y2="39.69"/><line class="cls-2" x1="0.44" y1="0.76" x2="6.64" y2="39.69"/><line class="cls-2" x1="44.26" y1="0.76" x2="38.05" y2="39.69"/><path class="cls-3" d="M4.23,33.05l2.91,24a2.4,2.4,0,0,0,2.37,2.1H36.25a2.39,2.39,0,0,0,2.37-2.1l2.92-24Z"/><path class="cls-4" d="M4.23,33.05l2.91,24a2.4,2.4,0,0,0,2.37,2.1h24l3.18-26.14Z"/><polygon class="cls-5" points="5.41 42.79 40.35 42.79 41.54 33.05 4.22 33.05 5.41 42.79"/><rect class="cls-6" x="3.39" y="31.2" width="38.98" height="5.7"/></g></g></g></svg>