<svg xmlns="http://www.w3.org/2000/svg" viewBox="0 0 478.47 291.08"><defs><style>.cls-1{isolation:isolate;}.cls-2,.cls-56,.cls-57,.cls-61,.cls-66{mix-blend-mode:multiply;}.cls-3,.cls-59{fill:#fff;}.cls-3{opacity:0;}.cls-4{fill:#fcfcfc;opacity:0.02;}.cls-5{fill:#f8f8f8;opacity:0.04;}.cls-6{fill:#f5f5f5;opacity:0.06;}.cls-7{fill:#f1f1f1;opacity:0.08;}.cls-8{fill:#eee;opacity:0.1;}.cls-9{fill:#eaeaea;opacity:0.12;}.cls-10{fill:#e7e7e7;opacity:0.14;}.cls-11{fill:#e3e3e3;opacity:0.16;}.cls-12{fill:#e0e0e0;opacity:0.18;}.cls-13{fill:#dcdcdc;opacity:0.2;}.cls-14{fill:#d9d9d9;opacity:0.22;}.cls-15{fill:#d5d5d5;opacity:0.24;}.cls-16{fill:#d2d2d2;opacity:0.25;}.cls-17{fill:#cecece;opacity:0.27;}.cls-18{fill:#cbcbcb;opacity:0.29;}.cls-19{fill:#c7c7c7;opacity:0.31;}.cls-20{fill:#c4c4c4;opacity:0.33;}.cls-21{fill:silver;opacity:0.35;}.cls-22{fill:#bdbdbd;opacity:0.37;}.cls-23{fill:#b9b9b9;opacity:0.39;}.cls-24{fill:#b6b6b6;opacity:0.41;}.cls-25{fill:#b2b2b2;opacity:0.43;}.cls-26{fill:#afafaf;opacity:0.45;}.cls-27{fill:#ababab;opacity:0.47;}.cls-28{fill:#a8a8a8;opacity:0.49;}.cls-29{fill:#a4a4a4;opacity:0.51;}.cls-30{fill:#a1a1a1;opacity:0.53;}.cls-31{fill:#9d9d9d;opacity:0.55;}.cls-32{fill:#9a9a9a;opacity:0.57;}.cls-33{fill:#969696;opacity:0.59;}.cls-34{fill:#939393;opacity:0.61;}.cls-35{fill:#8f8f8f;opacity:0.63;}.cls-36{fill:#8c8c8c;opacity:0.65;}.cls-37{fill:#888;opacity:0.67;}.cls-38{fill:#858585;opacity:0.69;}.cls-39{fill:#818181;opacity:0.71;}.cls-40{fill:#7e7e7e;opacity:0.73;}.cls-41{fill:#7a7a7a;opacity:0.75;}.cls-42{fill:#777;opacity:0.76;}.cls-43{fill:#737373;opacity:0.78;}.cls-44{fill:#707070;opacity:0.8;}.cls-45{fill:#6c6c6c;opacity:0.82;}.cls-46{fill:#696969;opacity:0.84;}.cls-47{fill:#656565;opacity:0.86;}.cls-48{fill:#626262;opacity:0.88;}.cls-49{fill:#5e5e5e;opacity:0.9;}.cls-50{fill:#5b5b5b;opacity:0.92;}.cls-51{fill:#575757;opacity:0.94;}.cls-52{fill:#545454;opacity:0.96;}.cls-53{fill:#505050;opacity:0.98;}.cls-54{fill:#4d4d4d;}.cls-55{fill:#de0a05;}.cls-56,.cls-57{fill:#bf0404;}.cls-56,.cls-58,.cls-61,.cls-62,.cls-64,.cls-65{opacity:0.2;}.cls-57{opacity:0.4;}.cls-58{fill:#f2b705;}.cls-58,.cls-62,.cls-64{mix-blend-mode:overlay;}.cls-59{opacity:0.1;}.cls-60{fill:#618c03;}.cls-61{fill:#2e5902;}.cls-62,.cls-65{fill:#e7f294;}.cls-63{mix-blend-mode:screen;}.cls-64{fill:#f2f2f2;}.cls-66{fill:#470404;opacity:0.15;}</style></defs><g class="cls-1"><g id="Layer_2" data-name="Layer 2"><g id="Layer_3" data-name="Layer 3"><g class="cls-2"><path class="cls-3" d="M.23,265.41c-3.63,17.28,36.85,17.38,45.15,20.43,38.9,14.27,128.94-1.68,163.75-34.67,10.62-10.08,70.47-58.76,45.19-83.27-18.21-17.65-91.5,49.5-120.66,63S3.57,249.53.23,265.41Z"/><path class="cls-4" d="M.65,265.3c-3.61,17,36.28,17.08,44.79,20.13,38.78,13.9,127.78-1.31,163.22-34.36,10.79-10.07,69.52-58,44.73-82.27C235.54,151.37,163,217.74,134,231.1,103.86,244.92,4.05,249.57.65,265.3Z"/><path class="cls-5" d="M1.07,265.2C-2.59,281.92,36.78,282,45.49,285c38.67,13.54,126.64-.95,162.71-34,10.94-10.07,68.57-57.3,44.27-81.28-17.49-17.2-89.21,48.37-118.23,61.57C103.23,245.37,4.48,249.61,1.07,265.2Z"/><path class="cls-6" d="M1.49,265.09c-3.67,16.44,35.14,16.47,44.05,19.52C84.09,297.8,171,284,207.73,250.89c11.1-10.07,67.62-56.57,43.82-80.29-17.14-17-88.07,47.8-117,60.83C102.59,245.82,4.93,249.65,1.49,265.09Z"/><path class="cls-7" d="M1.91,265c-3.68,16.17,34.56,16.17,43.68,19.22C84,297.05,169.93,284,207.27,250.79c11.26-10.06,66.71-55.88,43.36-79.29-16.75-16.79-86.93,47.22-115.81,60.1C102,246.26,5.39,249.69,1.91,265Z"/><path class="cls-8" d="M2.33,264.87c-3.69,15.89,34,15.88,43.31,18.92,38.3,12.52,123.19.15,161.16-33.09,11.42-10.06,65.78-55.17,42.91-78.3-16.39-16.57-85.8,46.64-114.6,59.36C101.31,246.7,5.85,249.73,2.33,264.87Z"/><path class="cls-9" d="M2.75,264.76c-3.7,15.62,33.42,15.58,42.94,18.62,38.17,12.2,122,.52,160.65-32.77,11.57-10.06,64.84-54.45,42.44-77.31-16-16.35-84.66,46-113.38,58.63C100.67,247.14,6.3,249.77,2.75,264.76Z"/><path class="cls-10" d="M3.17,264.65C-.54,280,36,279.93,45.74,283c38,11.89,120.89.88,160.13-32.46,11.74-10,63.9-53.72,42-76.31-15.66-16.14-83.53,45.46-112.16,57.9C100,247.58,6.76,249.81,3.17,264.65Z"/><path class="cls-11" d="M3.59,264.55c-3.72,15.06,32.26,15,42.2,18,37.9,11.57,119.81,1.32,159.62-32.15,11.91-10,63-53,41.53-75.32C231.64,159.18,164.54,220,136,232.26,99.38,248,7.22,249.85,3.59,264.55Z"/><path class="cls-12" d="M4,264.44C.28,279.23,35.7,279.13,45.84,282.16c37.76,11.27,118.67,1.7,159.1-31.84C217,240.31,267,198,246,176c-14.93-15.71-81.27,44.27-109.74,56.42C98.74,248.45,7.67,249.89,4,264.44Z"/><path class="cls-13" d="M4.43,264.33C.69,278.84,35.54,278.72,45.9,281.75c37.6,11,117.51,2.07,158.58-31.52,12.23-10,61.08-51.56,40.62-73.32-14.57-15.49-80.14,43.67-108.53,55.68C98.09,248.88,8.13,249.93,4.43,264.33Z"/><path class="cls-14" d="M4.85,264.22c-3.74,14.24,30.53,14.1,41.1,17.12C83.41,292,162.32,283.79,204,250.14c12.39-10,60.15-50.85,40.16-72.33-14.2-15.27-79,43.07-107.31,54.95C97.44,249.31,8.59,250,4.85,264.22Z"/><path class="cls-15" d="M5.27,264.11c-3.75,14,30,13.81,40.73,16.82,37.31,10.42,115.22,2.82,157.55-30.89,12.55-10,59.21-50.12,39.7-71.33-13.84-15.05-77.89,42.46-106.1,54.21C96.8,249.74,9.05,250,5.27,264.11Z"/><path class="cls-16" d="M5.69,264c-3.75,13.69,29.38,13.52,40.36,16.52,37.15,10.15,114.08,3.19,157-30.57,12.71-10,58.27-49.4,39.25-70.34-13.48-14.84-76.77,41.85-104.89,53.48C96.15,250.16,9.51,250,5.69,264Z"/><path class="cls-17" d="M6.11,263.9c-3.76,13.41,28.8,13.22,40,16.21,37,9.89,112.93,3.56,156.52-30.25,12.87-10,57.33-48.68,38.79-69.35-13.12-14.62-75.64,41.24-103.68,52.75C95.5,250.59,10,250.08,6.11,263.9Z"/><path class="cls-18" d="M6.52,263.79c-3.75,13.13,28.23,12.94,39.63,15.91,36.85,9.63,111.79,3.93,156-29.94,13-10,56.4-47.95,38.33-68.35C227.74,167,166,222,138,233.42,94.84,251,10.43,250.12,6.52,263.79Z"/><path class="cls-19" d="M6.94,263.68C3.19,276.54,34.59,276.33,46.2,279.3c36.69,9.36,110.64,4.29,155.48-29.63,13.19-10,55.46-47.23,37.88-67.36-12.38-14.18-73.4,40-101.24,51.28C94.19,251.42,10.9,250.15,6.94,263.68Z"/><path class="cls-20" d="M7.36,263.57c-3.75,12.58,27.07,12.37,38.89,15.32,36.53,9.11,109.49,4.66,155-29.32,13.35-10,54.52-46.5,37.42-66.36-12-14-72.28,39.4-100,50.54C93.54,251.84,11.36,250.19,7.36,263.57Z"/><path class="cls-21" d="M7.78,263.46c-3.75,12.31,26.49,12.08,38.53,15,36.36,8.87,108.33,5,154.44-29,13.51-10,53.59-45.78,37-65.37-11.66-13.74-71.16,38.79-98.82,49.81C92.88,252.25,11.82,250.23,7.78,263.46Z"/><path class="cls-22" d="M8.2,263.35c-3.75,12,25.91,11.8,38.16,14.72,36.2,8.63,107.19,5.4,153.93-28.68,13.66-10,52.64-45.06,36.51-64.38-11.3-13.52-70,38.17-97.61,49.07C92.23,252.66,12.29,250.27,8.2,263.35Z"/><path class="cls-23" d="M8.62,263.25C4.87,275,34,274.76,46.41,277.66c36,8.39,106,5.77,153.41-28.37,13.83-10,51.71-44.33,36.05-63.38-10.93-13.3-68.92,37.55-96.39,48.34C91.57,253.07,12.75,250.3,8.62,263.25Z"/><path class="cls-24" d="M9,263.14c-3.74,11.48,24.75,11.23,37.42,14.11,35.87,8.16,104.89,6.14,152.9-28.05,14-10,50.77-43.61,35.59-62.39-10.57-13.07-67.8,36.93-95.18,47.6C90.91,253.48,13.22,250.34,9,263.14Z"/><path class="cls-25" d="M9.46,263c-3.73,11.21,24.17,11,37.05,13.81,35.71,7.93,103.74,6.5,152.38-27.73,14.14-10,49.83-42.89,35.14-61.39-10.21-12.86-66.69,36.29-94,46.86C90.25,253.88,13.68,250.38,9.46,263Z"/><path class="cls-26" d="M9.88,262.92c-3.73,10.93,23.58,10.67,36.68,13.51C82.1,284.14,149.15,283.3,198.43,249c14.3-9.95,48.89-42.16,34.68-60.39-9.85-12.64-65.57,35.67-92.75,46.13C89.59,254.28,14.15,250.42,9.88,262.92Z"/><path class="cls-27" d="M10.3,262.81c-3.72,10.66,23,10.4,36.31,13.22C82,283.51,148.05,283.26,198,248.92c14.46-9.95,47.95-41.43,34.23-59.4-9.49-12.42-64.46,35-91.54,45.39C88.93,254.68,14.62,250.45,10.3,262.81Z"/><path class="cls-28" d="M10.72,262.7C7,273.09,33.14,272.82,46.66,275.62c35.21,7.26,100.29,7.59,150.84-26.8,14.61-9.94,47-40.7,33.76-58.4-9.12-12.19-63.34,34.41-90.32,44.66C88.27,255.07,15.09,250.49,10.72,262.7Z"/><path class="cls-29" d="M11.14,262.6c-3.7,10.1,21.84,9.84,35.58,12.61,35,7.05,99.13,8,150.31-26.48,14.78-9.94,46.07-40,33.31-57.41-8.76-12-62.23,33.78-89.11,43.92C87.61,255.46,15.56,250.53,11.14,262.6Z"/><path class="cls-30" d="M11.56,262.49c-3.69,9.83,21.25,9.57,35.21,12.31,34.86,6.84,98,8.32,149.8-26.16,14.93-9.94,45.13-39.25,32.85-56.42-8.4-11.75-61.11,33.15-87.9,43.19C86.94,255.85,16,250.56,11.56,262.49Z"/><path class="cls-31" d="M12,262.38c-3.67,9.56,20.67,9.3,34.84,12,34.69,6.63,96.82,8.69,149.28-25.85,15.09-9.93,44.19-38.51,32.4-55.42-8-11.52-60,32.52-86.69,42.45C86.28,256.24,16.5,250.6,12,262.38Z"/><path class="cls-32" d="M12.4,262.27c-3.66,9.29,20.09,9,34.47,11.71,34.52,6.43,95.67,9,148.77-25.53,15.24-9.93,43.25-37.79,31.93-54.43-7.67-11.3-58.88,31.89-85.46,41.72C85.61,256.62,17,250.64,12.4,262.27Z"/><path class="cls-33" d="M12.82,262.16c-3.64,9,19.5,8.77,34.1,11.41,34.35,6.23,94.52,9.42,148.25-25.21,15.41-9.93,42.31-37.06,31.48-53.44-7.31-11.07-57.77,31.26-84.25,41C85,257,17.46,250.68,12.82,262.16Z"/><path class="cls-34" d="M13.24,262.05c-3.62,8.75,18.92,8.5,33.73,11.11,34.18,6,93.37,9.78,147.74-24.9,15.56-9.92,41.36-36.32,31-52.44-7-10.84-56.66,30.62-83,40.25C84.28,257.38,17.93,250.72,13.24,262.05Z"/><path class="cls-35" d="M13.66,262c-3.6,8.47,18.33,8.23,33.36,10.8,34,5.84,92.22,10.14,147.22-24.58,15.72-9.92,40.42-35.59,30.57-51.45-6.6-10.61-55.55,30-81.83,39.52C83.61,257.75,18.41,250.75,13.66,262Z"/><path class="cls-36" d="M14.08,261.84c-3.58,8.2,17.75,8,33,10.51,33.84,5.63,91.06,10.49,146.71-24.28,15.87-9.91,39.47-34.85,30.11-50.45-6.24-10.39-54.44,29.35-80.62,38.78C82.94,258.13,18.89,250.79,14.08,261.84Z"/><path class="cls-37" d="M14.5,261.73c-3.55,7.93,17.16,7.71,32.62,10.21,33.67,5.44,89.91,10.85,146.19-24,16-9.92,38.53-34.12,29.65-49.46-5.88-10.16-53.32,28.72-79.4,38C82.27,258.49,19.38,250.83,14.5,261.73Z"/><path class="cls-38" d="M14.92,261.62c-3.53,7.66,16.58,7.45,32.26,9.91,33.49,5.26,88.75,11.22,145.67-23.64C209,238,230.43,214.51,222,199.42c-5.52-9.93-52.21,28.08-78.19,37.31C81.6,258.86,19.86,250.88,14.92,261.62Z"/><path class="cls-39" d="M15.34,261.51c-3.5,7.39,16,7.19,31.89,9.61,33.32,5.07,87.6,11.58,145.15-23.33,16.35-9.91,36.64-32.64,28.74-47.46-5.17-9.71-51.1,27.43-77,36.57C80.92,259.22,20.35,250.92,15.34,261.51Z"/><path class="cls-40" d="M15.76,261.4c-3.47,7.13,15.41,6.94,31.52,9.31,33.15,4.89,86.44,11.94,144.64-23,16.5-9.91,35.69-31.9,28.28-46.47-4.82-9.48-50,26.79-75.76,35.83C80.25,259.58,20.84,251,15.76,261.4Z"/><path class="cls-41" d="M16.18,261.3c-3.44,6.85,14.82,6.67,31.15,9,33,4.71,85.22,12.19,144.12-22.69,16.64-9.94,34.74-31.17,27.83-45.48-4.47-9.24-48.88,26.15-74.55,35.1C79.57,259.93,21.34,251,16.18,261.3Z"/><path class="cls-42" d="M16.6,261.19c-3.41,6.59,14.24,6.42,30.78,8.7,32.81,4.53,84.07,12.55,143.61-22.38,16.8-9.93,33.78-30.42,27.36-44.48-4.11-9-47.76,25.51-73.33,34.37C78.9,260.28,21.83,251.05,16.6,261.19Z"/><path class="cls-43" d="M17,261.08c-3.37,6.32,13.65,6.17,30.41,8.4,32.64,4.35,82.92,12.92,143.09-22.06,17-9.93,32.83-29.68,26.91-43.49-3.76-8.78-46.65,24.87-72.12,33.63C78.22,260.63,22.33,251.1,17,261.08Z"/><path class="cls-44" d="M17.44,261c-3.33,6.06,13.07,5.93,30,8.11,32.47,4.16,81.78,13.27,142.58-21.76,17.11-9.92,31.87-28.93,26.45-42.49-3.41-8.54-45.54,24.23-70.91,32.9C77.54,261,22.83,251.15,17.44,261Z"/><path class="cls-45" d="M17.86,260.86c-3.3,5.8,12.48,5.68,29.67,7.81,32.31,4,80.63,13.64,142.06-21.44,17.28-9.92,30.91-28.19,26-41.5-3.07-8.31-44.43,23.59-69.7,32.16C76.86,261.32,23.34,251.2,17.86,260.86Z"/><path class="cls-46" d="M18.28,260.75c-3.25,5.54,11.9,5.44,29.31,7.51,32.13,3.82,79.47,14,141.54-21.12,17.43-9.92,29.94-27.44,25.53-40.51-2.72-8.07-43.31,22.94-68.48,31.43C76.18,261.65,23.85,251.26,18.28,260.75Z"/><path class="cls-47" d="M18.7,260.65c-3.21,5.27,11.31,5.19,28.94,7.2,32,3.65,78.32,14.37,141-20.81,17.59-9.91,29-26.69,25.08-39.51-2.38-7.83-42.2,22.3-67.26,30.69C75.5,262,24.37,251.32,18.7,260.65Z"/><path class="cls-48" d="M19.12,260.54c-3.17,5,10.73,4.95,28.57,6.9,31.79,3.48,77.17,14.74,140.51-20.49C206,237,216.2,221,212.82,208.43c-2-7.6-41.09,21.66-66,30C74.82,262.32,24.89,251.38,19.12,260.54Z"/><path class="cls-49" d="M19.54,260.43c-3.12,4.76,10.14,4.71,28.2,6.6,31.62,3.32,76,15.1,140-20.17,17.91-9.92,27-25.2,24.17-37.53-1.71-7.36-40,21-64.84,29.22C74.14,262.64,25.41,251.45,19.54,260.43Z"/><path class="cls-50" d="M20,260.32c-3.08,4.51,9.56,4.47,27.83,6.3,31.46,3.15,74.87,15.47,139.48-19.86,18.06-9.91,26-24.45,23.71-36.53-1.37-7.12-38.88,20.37-63.63,28.49C73.45,263,26,251.53,20,260.32Z"/><path class="cls-51" d="M20.37,260.21c-3,4.26,9,4.24,27.47,6,31.29,3,73.72,15.83,139-19.54,18.22-9.91,25-23.71,23.25-35.54-1-6.89-37.76,19.72-62.41,27.76C72.77,263.28,26.48,251.61,20.37,260.21Z"/><path class="cls-52" d="M20.79,260.1c-3,4,8.4,4,27.1,5.7C79,268.63,120.46,282,186.34,246.57c18.38-9.9,24-23,22.79-34.54-.71-6.66-36.65,19.08-61.2,27C72.08,263.6,27,251.69,20.79,260.1Z"/><path class="cls-53" d="M21.21,260c-2.92,3.76,7.81,3.77,26.73,5.4,31,2.66,71.42,16.56,137.93-18.92,18.54-9.9,23-22.22,22.34-33.54-.39-6.43-35.55,18.39-60,26.28C71.37,263.83,27.58,251.79,21.21,260Z"/><path class="cls-54" d="M21.63,259.89c-2.87,3.52,7.23,3.54,26.36,5.1,30.8,2.49,70.27,16.92,137.42-18.6,18.69-9.9,22-21.49,21.88-32.55-.08-6.21-34.43,17.77-58.78,25.54C70.7,264.22,28.14,251.9,21.63,259.89Z"/></g><g class="cls-2"><path class="cls-3" d="M463.87,196.79c-.26,7.78-79,1-100,23.23-10.7,11.3-93.81,32.13-157.24,14.33C144,216.78,23.81,167.28,36.48,161.65c18.25-8.12,139,9.47,169.88,23.08s79.9,17.3,110.84,4.73C353,174.93,464.14,189.07,463.87,196.79Z"/><path class="cls-4" d="M461.79,196.71c-.25,7.67-77.63,1.19-98.45,23.09C352.61,231,270.37,251.72,207,234c-62.4-17.48-180.62-66.28-168.21-71.85,17.89-8,136.72,9.27,167.54,22.86s79.62,17.2,110.53,4.72C352.45,175.3,462,189,461.79,196.71Z"/><path class="cls-5" d="M459.71,196.63c-.22,7.56-76.2,1.42-96.87,23-10.73,11.16-92.12,31.7-155.48,14-62.16-17.38-178.45-65.47-166.29-71,17.51-7.91,134.42,9.08,165.18,22.64s79.36,17.09,110.23,4.7C351.92,175.67,459.92,189,459.71,196.63Z"/><path class="cls-6" d="M457.62,196.56c-.19,7.45-74.79,1.62-95.29,22.81-10.73,11.1-91.27,31.49-154.6,13.82-61.91-17.28-176.27-64.67-164.37-70.13,17.15-7.81,132.13,8.89,162.84,22.42s79.09,17,109.92,4.68C351.39,176,457.82,188.94,457.62,196.56Z"/><path class="cls-7" d="M455.54,196.48c-.17,7.34-73.4,1.82-93.71,22.67-10.75,11-90.43,31.28-153.72,13.66C146.44,215.61,34,168.91,45.65,163.53c16.77-7.75,129.85,8.7,160.5,22.21S285,202.62,315.76,190.4C350.85,176.41,455.71,188.9,455.54,196.48Z"/><path class="cls-8" d="M453.45,196.4c-.13,7.23-72,2-92.13,22.54-10.76,11-89.58,31.06-152.83,13.48-61.43-17.1-172-63.1-160.55-68.42,16.4-7.66,127.56,8.51,158.15,22s78.55,16.78,109.31,4.64C350.32,176.78,453.6,188.86,453.45,196.4Z"/><path class="cls-9" d="M451.37,196.33c-.11,7.11-70.6,2.22-90.55,22.39C350,229.62,272.08,249.57,208.87,232c-61.19-17-169.78-62.3-158.63-67.56,16-7.56,125.27,8.31,155.8,21.77s78.27,16.67,109,4.63C349.79,177.15,451.49,188.81,451.37,196.33Z"/><path class="cls-10" d="M449.29,196.25c-.09,7-69.21,2.42-89,22.25-10.8,10.84-87.89,30.64-151.07,13.15C148.3,214.74,41.64,170.13,52.53,164.94c15.65-7.47,123,8.12,153.46,21.55s78,16.57,108.69,4.61C349.26,177.52,449.38,188.77,449.29,196.25Z"/><path class="cls-11" d="M447.2,196.17c-.06,6.9-67.81,2.62-87.39,22.12-10.8,10.76-87,30.42-150.18,13-60.71-16.81-165.45-60.72-154.81-65.85,15.28-7.38,120.69,7.93,151.12,21.34s77.73,16.46,108.38,4.58C348.73,177.89,447.27,188.73,447.2,196.17Z"/><path class="cls-12" d="M445.12,196.1c0,6.78-66.42,2.81-85.81,22-10.82,10.7-86.2,30.21-149.3,12.81-60.47-16.72-163.28-59.93-152.9-65C72,158.6,175.52,173.62,205.88,187s77.46,16.36,108.08,4.57C348.19,178.26,445.16,188.68,445.12,196.1Z"/><path class="cls-13" d="M443,196c0,6.67-65,3-84.22,21.83-10.84,10.63-85.36,30-148.43,12.64-60.23-16.63-161.1-59.13-151-64.14,14.52-7.19,116.11,7.54,146.42,20.9S283,203.5,313.6,191.8C347.66,178.63,443.05,188.64,443,196Z"/><path class="cls-14" d="M441,195.94c0,6.56-63.64,3.21-82.65,21.7-10.85,10.56-84.5,29.78-147.54,12.46-60-16.53-158.94-58.33-149.06-63.28,14.15-7.1,113.83,7.35,144.08,20.68S282.7,203.65,313.24,192C347.13,179,440.94,188.6,441,195.94Z"/><path class="cls-15" d="M438.87,195.86c0,6.45-62.26,3.4-81.07,21.56-10.87,10.49-83.66,29.57-146.66,12.3C151.39,213.28,54.37,172.18,64,167.29c13.78-7,111.54,7.16,141.73,20.47s76.65,16,107.16,4.51C346.6,179.37,438.83,188.55,438.87,195.86Z"/><path class="cls-16" d="M436.78,195.79c.05,6.33-60.86,3.59-79.48,21.41-10.89,10.43-82.82,29.36-145.78,12.13C152,213,56.91,172.58,66.28,167.76c13.41-6.91,109.26,7,139.39,20.25s76.4,16,106.85,4.49C346.09,179.82,436.72,188.51,436.78,195.79Z"/><path class="cls-17" d="M434.7,195.71c.07,6.22-59.48,3.78-77.91,21.28-10.91,10.35-82,29.14-144.89,11.95C152.63,212.7,59.46,173,68.58,168.23c13-6.81,107,6.78,137,20s76.13,15.9,106.54,4.48C345.56,180.19,434.61,188.47,434.7,195.71Z"/><path class="cls-18" d="M432.61,195.63c.1,6.12-58.09,4-76.32,21.14-10.93,10.29-81.13,28.93-144,11.79C153.25,212.41,62,173.4,70.87,168.7c12.66-6.72,104.67,6.58,134.69,19.81s75.87,15.8,106.24,4.46C345,180.56,432.5,188.42,432.61,195.63Z"/><path class="cls-19" d="M430.53,195.56c.11,6-56.71,4.16-74.74,21-11,10.22-80.28,28.72-143.13,11.62-58.79-16.06-148.11-54.36-139.5-59,12.29-6.63,102.39,6.39,132.35,19.59s75.59,15.7,105.93,4.44C344.5,180.94,430.39,188.38,430.53,195.56Z"/><path class="cls-20" d="M428.45,195.48c.13,5.89-55.33,4.35-73.17,20.86-11,10.14-79.43,28.5-142.25,11.45-58.54-16-145.93-53.57-137.58-58.15,11.92-6.53,100.1,6.2,130,19.38s75.32,15.59,105.62,4.42C344,181.31,428.28,188.33,428.45,195.48Z"/><path class="cls-21" d="M426.36,195.4c.16,5.78-53.94,4.54-71.58,20.72-11,10.08-78.59,28.29-141.37,11.28-58.3-15.87-143.77-52.77-135.66-57.29,11.54-6.44,97.81,6,127.65,19.16s75.06,15.49,105.32,4.4C343.44,181.68,426.17,188.29,426.36,195.4Z"/><path class="cls-22" d="M424.28,195.33c.17,5.66-52.57,4.72-70,20.57-11,10-77.75,28.08-140.49,11.11C155.72,211.24,72.19,175,80,170.58c11.17-6.34,95.52,5.81,125.31,18.94s74.79,15.39,105,4.39C342.91,182.05,424.06,188.25,424.28,195.33Z"/><path class="cls-23" d="M422.19,195.25c.2,5.55-51.18,4.91-68.42,20.43-11,9.94-76.9,27.87-139.6,10.95C156.34,211,74.73,175.45,82.33,171.05c10.8-6.25,93.24,5.62,123,18.72s74.51,15.29,104.71,4.37C342.38,182.43,422,188.2,422.19,195.25Z"/><path class="cls-24" d="M420.11,195.17c.21,5.44-49.81,5.1-66.84,20.3-11,9.86-76,27.65-138.72,10.77C157,210.66,77.28,175.86,84.62,171.52,95.05,165.37,175.57,177,205.24,190s74.25,15.18,104.41,4.34C341.84,182.8,419.84,188.16,420.11,195.17Z"/><path class="cls-25" d="M418,195.09c.22,5.33-48.44,5.28-65.26,20.16-11.08,9.79-75.21,27.44-137.84,10.6-57.35-15.48-135.11-49.58-128-53.86,10-6.06,88.65,5.24,118.27,18.29s74,15.08,104.1,4.33C341.31,183.17,417.72,188.11,418,195.09Z"/><path class="cls-26" d="M415.94,195c.25,5.22-47.06,5.46-63.68,20-11.09,9.73-74.36,27.23-136.95,10.44-57.11-15.4-132.94-48.79-126.1-53,9.67-6,86.37,5,115.93,18.07s73.7,15,103.79,4.31C340.78,183.54,415.61,188.07,415.94,195Z"/><path class="cls-27" d="M413.86,194.94c.26,5.11-45.69,5.64-62.1,19.88-11.12,9.65-73.52,27-136.08,10.26-56.86-15.3-130.77-48-124.18-52.15,9.3-5.86,84.08,4.85,113.58,17.85s73.44,14.88,103.49,4.29C340.25,183.91,413.5,188,413.86,194.94Z"/><path class="cls-28" d="M411.77,194.86c.28,5-44.31,5.82-60.51,19.74-11.15,9.57-72.68,26.8-135.2,10.1-56.62-15.21-128.6-47.2-122.27-51.3,8.93-5.77,81.8,4.66,111.24,17.64s73.17,14.77,103.18,4.27C339.72,184.28,411.38,188,411.77,194.86Z"/><path class="cls-29" d="M409.69,194.79c.3,4.88-42.94,6-58.94,19.59-11.17,9.5-71.82,26.59-134.31,9.93C160.06,209.2,90,177.91,96.09,173.87c8.55-5.67,79.5,4.47,108.89,17.42s72.89,14.67,102.87,4.25C339.18,184.65,409.27,187.93,409.69,194.79Z"/><path class="cls-30" d="M407.6,194.71c.32,4.77-41.56,6.17-57.35,19.46-11.2,9.42-71,26.37-133.43,9.75-56.14-15-124.28-45.6-118.44-49.58,8.17-5.57,77.22,4.28,106.54,17.2s72.63,14.57,102.57,4.24C338.65,185,407.16,187.89,407.6,194.71Z"/><path class="cls-31" d="M405.52,194.63c.33,4.66-40.2,6.35-55.77,19.32-11.23,9.35-70.14,26.16-132.55,9.59-55.9-14.92-122.11-44.81-116.53-48.73,7.8-5.47,74.93,4.08,104.2,17s72.36,14.46,102.26,4.22C338.12,185.39,405,187.84,405.52,194.63Z"/><path class="cls-32" d="M403.44,194.56c.34,4.54-38.84,6.52-54.2,19.17C338,223,280,239.68,217.58,223.15c-55.67-14.83-120-44-114.62-47.87,7.43-5.37,72.64,3.89,101.86,16.77s72.08,14.35,101.95,4.19C337.59,185.76,402.93,187.8,403.44,194.56Z"/><path class="cls-33" d="M401.35,194.48c.36,4.43-37.46,6.69-52.61,19-11.28,9.19-68.45,25.73-130.78,9.24-55.43-14.73-117.79-43.2-112.7-47,7-5.27,70.35,3.7,99.5,16.55s71.82,14.25,101.65,4.18C337.05,186.13,400.81,187.76,401.35,194.48Z"/><path class="cls-34" d="M399.27,194.4c.37,4.32-36.1,6.87-51,18.9-11.31,9.11-67.6,25.52-129.91,9.08C163.15,207.74,102.72,180,107.55,176.22c6.67-5.17,68.06,3.51,97.16,16.33s71.54,14.14,101.34,4.16C336.52,186.5,398.69,187.71,399.27,194.4Z"/><path class="cls-35" d="M397.18,194.32c.39,4.21-34.73,7-49.45,18.76-11.34,9-66.75,25.31-129,8.91-54.94-14.54-113.45-41.6-108.87-45.3,6.3-5.07,65.78,3.32,94.82,16.11s71.27,14,101,4.15C336,186.87,396.57,187.67,397.18,194.32Z"/><path class="cls-36" d="M395.1,194.25c.4,4.1-33.37,7.2-47.87,18.62-11.37,8.95-65.91,25.09-128.14,8.73-54.7-14.44-111.29-40.8-107-44.44,5.92-5,63.49,3.12,92.47,15.9s71,13.93,100.73,4.12C335.46,187.24,394.46,187.62,395.1,194.25Z"/><path class="cls-37" d="M393,194.17c.41,4-32,7.37-46.29,18.48-11.41,8.87-65.07,24.88-127.26,8.57-54.46-14.35-109.12-40-105-43.59,5.54-4.86,61.19,2.93,90.12,15.68s70.73,13.82,100.42,4.1C334.92,187.61,392.34,187.58,393,194.17Z"/><path class="cls-38" d="M390.93,194.09c.42,3.88-30.65,7.54-44.71,18.34-11.43,8.79-64.21,24.67-126.37,8.4-54.22-14.26-107-39.2-103.13-42.73,5.17-4.76,58.91,2.74,87.78,15.46s70.46,13.72,100.11,4.09S390.22,187.53,390.93,194.09Z"/><path class="cls-39" d="M388.85,194c.43,3.76-29.29,7.7-43.13,18.2-11.47,8.7-63.37,24.46-125.49,8.23-54-14.17-104.8-38.4-101.22-41.88,4.8-4.65,56.62,2.55,85.43,15.24s70.19,13.61,99.81,4.07S388.1,187.49,388.85,194Z"/><path class="cls-40" d="M386.76,193.94c.45,3.65-27.93,7.86-41.55,18.06-11.5,8.62-62.52,24.25-124.6,8.06C166.87,206,118,182.47,121.3,179c4.42-4.54,54.34,2.35,83.09,15s69.92,13.5,99.5,4S386,187.44,386.76,193.94Z"/><path class="cls-41" d="M384.68,193.86c.45,3.54-26.58,8-40,17.92-11.54,8.53-61.68,24-123.73,7.89-53.5-14-100.46-36.78-97.38-40.16,4-4.43,52,2.16,80.74,14.81s69.64,13.39,99.19,4C332.79,189.07,383.85,187.4,384.68,193.86Z"/><path class="cls-42" d="M382.6,193.79c.46,3.42-25.22,8.18-38.39,17.78-11.58,8.44-60.84,23.82-122.85,7.72-53.26-13.88-98.3-36-95.47-39.31,3.67-4.31,49.76,2,78.39,14.59s69.38,13.29,98.89,4C332.26,189.44,381.73,187.36,382.6,193.79Z"/><path class="cls-43" d="M380.51,193.71c.47,3.32-23.86,8.34-36.81,17.64-11.61,8.35-60,23.61-122,7.55-53-13.78-96.14-35.16-93.56-38.44,3.3-4.21,47.47,1.77,76,14.36s69.1,13.18,98.58,4C331.72,189.81,379.6,187.31,380.51,193.71Z"/><path class="cls-44" d="M378.43,193.63c.48,3.21-22.51,8.5-35.23,17.5-11.65,8.26-59.14,23.4-121.08,7.38-52.78-13.69-94-34.34-91.65-37.58,2.94-4.09,45.18,1.58,73.71,14.14s68.83,13.07,98.27,4C331.19,190.17,377.47,187.27,378.43,193.63Z"/><path class="cls-45" d="M376.34,193.55c.49,3.1-21.15,8.65-33.64,17.37-11.7,8.16-58.3,23.18-120.2,7.21-52.54-13.6-91.8-33.54-89.73-36.73,2.56-4,42.89,1.38,71.35,13.93s68.56,13,98,3.95C330.66,190.54,375.35,187.23,376.34,193.55Z"/><path class="cls-46" d="M374.26,193.48c.5,3-19.8,8.8-32.07,17.22-11.73,8.06-57.45,23-119.31,7-52.3-13.5-89.63-32.71-87.82-35.87,2.2-3.84,40.6,1.19,69,13.71s68.27,12.79,97.66,3.94C330.11,190.85,373.21,187.18,374.26,193.48Z"/><path class="cls-47" d="M372.18,193.4c.5,2.87-18.45,8.95-30.49,17.08-11.78,8-56.61,22.76-118.43,6.88-52.06-13.41-87.46-31.9-85.91-35,1.84-3.71,38.32,1,66.67,13.49s68,12.69,97.35,3.92C329.57,191.22,371.08,187.14,372.18,193.4Z"/><path class="cls-48" d="M370.09,193.32c.51,2.77-17.1,9.1-28.9,17s-55.76,22.54-117.56,6.7c-51.81-13.31-85.27-31.07-84-34.16,1.49-3.58,36,.81,64.32,13.27s67.73,12.59,97,3.9C329,191.59,369,187.1,370.09,193.32Z"/><path class="cls-49" d="M368,193.25c.51,2.65-15.75,9.24-27.33,16.8-11.87,7.75-54.91,22.33-116.67,6.53-51.57-13.21-83.09-30.25-82.07-33.3,1.14-3.44,33.74.61,62,13.06s67.46,12.48,96.74,3.88C328.51,192,366.81,187.06,368,193.25Z"/><path class="cls-50" d="M365.92,193.17c.52,2.54-14.39,9.39-25.74,16.66-11.92,7.64-54.07,22.12-115.79,6.37-51.33-13.13-80.89-29.43-80.16-32.45.8-3.31,31.45.42,59.63,12.84S271,209,300.29,200.45C328,192.33,364.67,187,365.92,193.17Z"/><path class="cls-51" d="M363.84,193.09c.52,2.44-13,9.54-24.16,16.53-12,7.52-53.23,21.9-114.91,6.19-51.1-13-78.69-28.61-78.25-31.59.48-3.18,29.16.23,57.28,12.62s66.92,12.27,96.13,3.85C327.45,192.7,362.53,187,363.84,193.09Z"/><path class="cls-52" d="M361.76,193c.52,2.32-11.7,9.67-22.59,16.38-12,7.41-52.38,21.69-114,6-50.86-12.93-76.48-27.79-76.33-30.73s26.87,0,54.93,12.4,66.65,12.17,95.82,3.83C326.91,193.07,360.38,186.94,361.76,193Z"/><path class="cls-53" d="M359.67,192.94c.53,2.21-10.35,9.81-21,16.24-12.07,7.29-51.53,21.48-113.14,5.86-50.62-12.84-74.26-27-74.42-29.88s24.58-.15,52.59,12.19,66.37,12.06,95.51,3.8C326.38,193.44,358.23,186.91,359.67,192.94Z"/><path class="cls-54" d="M357.59,192.86c.53,2.11-9,9.95-19.42,16.11-12.13,7.16-50.69,21.26-112.26,5.68-50.38-12.74-72-26.18-72.51-29s22.3-.35,50.24,12,66.11,12,95.21,3.79C325.85,193.81,356.08,186.87,357.59,192.86Z"/></g><path class="cls-55" d="M356,185.67c1.59,18.45-29.09,30.56-40.4,33.63-17.38,4.69-36.93,4.82-55.22,3.25s-36.13-7.45-53.76-10.92C190.26,208.4,172,198.15,157,189.15c-8.48-5.07-17.07-9.46-25-15.89-7.6-6.17-14-14.41-20.6-21.8-5.85-6.51-13.09-11.82-17.48-19.67a109.46,109.46,0,0,1-9.38-23.63c-6.78-23.6-33-40.73-17.35-43.51,6.81-1.22,19.2,7.11,24.13,11.93,7.73,7.55,13.23,20.74,20.14,29.2,11.7,14.3,19.71,20.35,35.19,28.85,3.6,2,12.81,8.14,16.3,10a112.55,112.55,0,0,1,11.45,6.5,69.77,69.77,0,0,0,22.93,10.29c16.55,4.11,32.38,10.32,49.28,13.63a102.82,102.82,0,0,0,27,1.27,235.9,235.9,0,0,1,26.89-.32c10.67.28,21.07-5.41,31.65-4.93,6.92.31,24.4,6.09,23.87,17.17Z"/><path class="cls-56" d="M343.05,199.83c1.53-17-47.23-8.48-55.5-7.3A148.82,148.82,0,0,1,222.08,187c-10.22-3.29-20.22-6.9-30.21-9.91-13.22-4-24.36-13.06-35.8-21.27-17.66-12.69-38-22.68-51.52-41.31-5.66-7.77-6.2-19-13.11-25.07-3.79-3.35-5.53-3.67-7.51-8.46-1.55-3.73-2.83-7.71-4.67-11.39,15.38,3.22,21.7,28.72,29.88,41.23,5.72,8.74,15.52,15,23.78,20.14,8.78,5.5,16.89,11,25.43,16.87a226.22,226.22,0,0,0,27.33,16c7.79,3.88,17.49,8.33,25.67,10.08,9.23,2,18.59,4.57,28,5.23,9.76.69,19,5.15,28.58,5.3,16.47.26,34.07.23,49.67-4.88,6.59-2.15,18.35-7.77,24.88-2.92,4.68,3.49,6.16,24.7-1.63,23.82Z"/><path class="cls-56" d="M339.59,206.68C351,208.8,350.2,187.47,341.7,187c-4-.22-5.73,5.31-9,8.25a101.63,101.63,0,0,1-12.92,9.59c-20.69,13.44-45.1,9.09-67.36,6.22-2.75-.36-7.58-1-9.48,1,5,5.84,18.39,6.62,25.28,6.43,8.53-.25,17.55.17,25.93-1.14,9.12-1.43,18.15-1.46,27.1-4.12,6.51-1.94,17.28-3.58,22.25-9Z"/><path class="cls-56" d="M195.76,205.62c3.25.08,10.23,1.15,12.72-1.37,4.5-4.53-3.6-6.22-7-8.09-5.47-3-28.49-11.58-27.58-19.53,3.7-1.83,7.89-.52,11.66-1.48a102.41,102.41,0,0,0,10.3-3.14c.31-3.92-2.47-2.2-3.67-4.91-.77-1.74-.16-5.62-1-7-1.62-2.57-8.83-2.75-11.39-3.6-7.16-2.39-13.55-8.37-20.11-13.1-6.9-5-14.75-7.73-21.88-12-7.75-4.68-14.47-8.63-20.88-16.11-15.56-18.11-21.29-48.6-47-47.91,2.07,4.22,8.88,3.17,10.42,7,2.61,6.5-6.54,5.56-9.57,5.67-.86,5,4.37,6.12,6.74,9.11s4.63,8.33,5.93,12c2.93,8.33,3.39,17.46,7.84,25.5a94,94,0,0,0,16.46,20.88c6.61,6.31,12,13.76,18.41,20.47,9.46,9.93,22.55,13.37,33.59,20.11,6.69,4.09,13.43,7.74,20.3,11.19,4.41,2.2,14.24,12.39,18.44,7.65Z"/><path class="cls-56" d="M82.86,103c-3.74-5.9-5.33-14-10.43-18.51,6.46-.41,21.29,15.63,12,20.46Z"/><path class="cls-56" d="M91.44,113.7c-1.74-9.58-7.3-21.73,3.8-26.21.77-7.63-7.49-1-9.27-.16-4.78,2.28-7.63-.38-12-.89-.58,3.32,9,6.3,15.71,29.35.15-.59,0-1.25.13-1.8Z"/><path class="cls-56" d="M174.35,152.52c.38.61,1.06.67,1,1.83-4.55-.82-7.87-1.33-12.64-.31-3.74.79-8.74,3.41-12.72,2.82-4.44-.68-5.61-4.85-9.76-7.24s-7.87-2.6-11.56-5.88c-3.49-3.1-3.87-6.86-6.38-10.46-2.81-4-7.73-6.49-10.82-10.31-4.86-6-11.57-16.68-10.23-25,4.24-1,10,13.23,13.29,16.87a59.72,59.72,0,0,0,18,13.52c6.54,3.38,5.92,8.13,12.55,11.32s19.54,7.82,29.78,12.21Z"/><path class="cls-56" d="M345.35,195.48c-1.94-9.23-19-17.89-26-12.65-4.59,3.42-3.38,10.16-2.65,15,.89,5.82.32,9.67-1.44,14,.24-5.17-1.76-17.05-5.45-20.66-4.78-4.65-15.23.25-18.84-5.4,3-6,10.94-4.14,16.14-4,6.94.21,9.21-3,15.54-4.64,5.78-1.49,11.67-4.06,17.1.36,3,2.46,12.85,15.38,4.56,16.75Z"/><path class="cls-56" d="M313.88,198.34c1.62-3.87-3.28-7.31-6.43-8.26-5.39-1.64-6.11,1.82-10.12,3.82-5.42,2.7-6.11.45-8.32,7.5-1.33,4.22-2,9.14-5.14,12.44.26-12.5-3.58-19.08-14-20.59-4-.58-9.74-3-13.65-.9-3.5,1.88-6.43,10.23-11.25,10.46-3.93.2-5.5-6.1-6.92-10.48-2.06-6.39-1.85-8,4.5-10,9-2.86,21.18-.43,30.74.27,11.24.83,28.43-2.25,37,6.76a4.89,4.89,0,0,1-4,2.43Z"/><path class="cls-56" d="M232.54,212.39c0-5.67-3-9.41-2.53-15.39.39-5.15,1.11-10.69.92-16.2-3.66,5.56-1.89,15.11-4.66,21.43-1.23,2.84-5.55,5.15-3.06,8,1.68,1.93,9,1,10.95.17.52-1-.39-.74-.45-1.16Z"/><path class="cls-56" d="M213.92,206.78c2.71,1.12,5.87.88,8.75.8-2.18-7.11-17.24-8.9-22.87-10-3.44-.69-8.73-1.39-10.35-4.75-1.46-3-.31-8.56-.38-11.94-4.16-.78-3.26,3.09-5.95,4.82-2.44,1.56-4.92,1-7.8,1.1.52,5,19.39,10.47,24.43,13.11,6.52,3.41,13.55,5,20.22,7.7Z"/><path class="cls-56" d="M125,165c.66-4,2.11-9.78,4.14-13.17,2.64-4.42,6.78-5.73,7.43-11.14,1.4-11.77-9.65-15.58-16.09-20.87-6.25-5.13-11.07-12.23-15.4-19.29-2-3.29-4.18-9.83-7.1-10.32-1.88-.32-9.31,3.26-11.07,4.15-4.2,2.08-4.08,2.06-3.5,8.09a42.07,42.07,0,0,0,2.92,11.47c2.8,7.31,6.77,12.81,11.18,18.8,4,5.38,7.77,11.23,12,16.48,4,5,12.08,9.59,15,16.42Z"/><path class="cls-56" d="M67,75.39c-2.11-11.27,21.24,5.29,14.3-4.5C76.92,64.77,57,66.31,66.4,75.37Z"/><path class="cls-56" d="M347.45,200.59c-2.65,1.87-8.25,8-11.73,6.61-4.65-1.86-.24-7.92-1.48-12.54-2.37-8.87-22.94-10-19.21-18.26,2.64-5.87,22.6-2.72,26.47-.19,4.34,2.83,5.25,8.74,6.16,13.64,1.61,8.83-.16,10.48-7.46,14.33Z"/><path class="cls-56" d="M345.17,203.69c.17.8.35.81.55,0Z"/><path class="cls-56" d="M345.17,203.69c.82-1.49-4.7,5.75-7.15,4.12-2.7-1.81.32-9.08,0-11.92-1.11-10.93-6.69-8-13.33-10.61-.48-7.75,15.44-7.95,19.44-5.2,6.58,4.53,2.47,20-1.23,24.81Z"/><path class="cls-56" d="M313.08,209.07c3.76-4,.39-12.32,3.81-16.84,2.86-3.78,8-4,11.5-3.56,3.64.51,11,4,13.4-.24,2-3.46-.88-10.63-3.69-12.17s-10.71-.67-13.8-.37c-2.23.22-4.13,1.24-6.12,1.56-2.57.41-3.24.16-6,0-9.33-.71-17.54,2.68-27.06,2.39-5.19-.14-35.58-1.9-36.92,1.5,3,1,6.52.63,8.59,4,1.64,2.68.16,6.94,1.52,9.49,3.34,6.28,12.31,1.29,17.67-.09,8.34-2.14,14.64-3,22.52,2.07,2.76,1.79,17.54,18.74,16.9,9.2Z"/><path class="cls-56" d="M243,188c2,1.37,10.06,3.21,12.09,1.65,4-3.08-2.64-4-3.61-7.61,1.92,0,4,0,5.9,0-.07-5.7-18-7.91-22.32-8.78A147.88,147.88,0,0,1,209.33,166c-8.52-3.43-17.27-3.81-25.74-7.7-7.33-3.36-15-9-22.17-13.33-14.73-8.78-28.62-15.9-40.94-29.32-5.41-5.88-11.82-11.07-16.41-17.83-3.18-4.69-6.14-21-12.87-17.18-2.78,1.56-1.91,5-3.7,7.21-2,2.54-5,1.77-5.44,5.55,2.81.87,8.07,4.41,10.24,6.7,3.31,3.48,3.91,9.05,7.43,12.41,3.94,3.79,8.08,4.53,11.81,9,2.65,3.19,5,6.95,8.16,9.56,3.87,3.19,8.89,4.43,12.54,8,5,4.84,3.21,6.16,1.37,12.17-5.05,16.54,7.6,8.8,15.83,6.81,10.43-2.53,16.88,2.68,26.69,7.28,4.28,2,7.89,7,12.09,7.77,4.5.85,7.52-2.37,12.11.48,8.93,5.52,11.12,20.36,23.83,18.9,4.33-.49,7.34-4.8,11.7-5.37,3.71-.49,8.65,1.29,12.07,2.28Z"/><path class="cls-56" d="M327.87,213.3c3.91.41,9.75-3.94,12.7-6.6,4.43-4,5.71-10.69-1.88-9.54-7.87,1.19-14.84,13.37-22.27,16.59-9.15,3.95-17.26-11.9-23.16-5.26-4.11,4.62-1.86,7.46-9,7.94a50.08,50.08,0,0,1-13.75-1c-3.65-.8-7.18-1.7-9.27-5.35-1.68-2.94-.4-8.45-1.92-10.83-5.54-8.7-6.14,8.1-9.21,11.13-4.47,4.42-17.84,1.93-23-.81-6.86-3.65-13-8.61-12.39-17.83-5.72-1.93-5.14,4.18-8.89,6.5s-9-.16-11.35-3.57c-2.09-3-1.11-7.86-3.35-10.52-3.88-4.6-5.91.65-9.82,2.88-7.81,4.45-16.13-1.67-23-6.05-4.83-3.07-8.81-5-9.53-11.65-.37-3.35,1.63-9.35-3.89-7.16,1.21-3.13,3.12-6.78,3-10.33-5.3.19-9.05,6-13.84,6.31-6,.44-5.38-7-8.44-11.48-2.9-4.29-6.78-6.16-9.4-10.38-2-3.21-.79-4-4.25-5.86-2.37-1.26-6-.34-8.57-1.6.66-6.18,3.45-7.43-.37-12.53-2.38-3.17-7.44-6.81-10.77-7.17-6.3,19.61,12.25,37,24.88,47.23,14,11.33,27.17,22.83,42.68,31.77s28.59,13.45,44.77,20.28c15.53,6.56,35.45,10.58,52.66,11,7.41.2,12.73,2.61,20,3.27a80.41,80.41,0,0,0,21.91-.94c11.68-2.19,30-2.94,38.81-13.23Z"/><path class="cls-56" d="M166.91,189.6c2.9-.18,5.31,1.05,8.17.77.5-5.31-5.68-9-5.64-15.23,0-8.43,3.45-6.74,7.92-9.26,7.59-4.27-3-12.74-8.33-15.58-7.11-3.75-16.09-5.6-22.65-10.45-6.93-5.11-14.84-11.45-20.84-18-3.09-3.38-4.87-7.56-8.12-10.8-3.63-3.62-7.47-6.22-10.94-10.31-5.78-6.81-9.41-19-18-21.47,2.07,11.29-3.08,7.63-7.52,15.35,2.43,2.51,3.13,6.29,5.86,6,2.48-.24,5.39-4.88,8.25-5.38,4.66,7.08,10.29,17.34,11.69,26.19,1.61,10.21.11,17.72,6.41,26.23,7.24,9.78,19.2,15.86,28.84,22.83,6.75,4.89,15.2,19.14,23.84,18.42Z"/><path class="cls-56" d="M90.21,119.69c2.08-4.52,10-10.19,10.15-14.13-8.09-3.91-11.8,3.48-18-7.4.43,4.5,3.26,10.41,4.27,14.83.75,3.29,5.5,12.71,4.71,4.21Z"/><path class="cls-56" d="M86.24,100c3.23.55,4.43-2.6,7.23-3,3.35-.42,6.2,2.66,8.63,4.61,2-11.28-13.53-29.9-22.87-30.22,1.86,5.53,10.23,8.6,8.94,16-.83,4.73-4.18,2.71-5.51,5.68s.18,6.27,3.08,4.36Z"/><path class="cls-56" d="M75.55,85.12a11.29,11.29,0,0,0,6,.72C82,81.11,70.09,68.3,66.07,69.14c-.11,3.85,7.26,15,10,17.9Z"/><path class="cls-56" d="M87.76,81.06C85.88,77,75.05,72,70.43,71.81c-1.6,8.75-15.2-7.44-1.05-6.47,7.26.5,17,6.81,19.43,15a3.53,3.53,0,0,1-4.34,0Z"/><path class="cls-56" d="M324,211.92c4-.28,2-20.9-2.75-20.86,0,4.14,2.3,8.51,1.87,12.58-.5,4.64-3.72,6.74-8.48,8-6.92,1.85-22.76.87-20.78-11.28-6.24-.81-.51,10.19-1.83,13.16-1.77,4-9.86,3.24-13.32,2.73-4.77-.68-9.55-1.87-13.07-5.59-3.05-3.21-3.77-14.27-7.92-13.26-.59,4.19,3.3,10.44,1.84,13.9-2.05,4.84-8.86,2.32-12.19,1.64-9.54-1.92-17.59-7.46-16.74-20.14-4.57,2.05,1.14,12.73-6.28,14.13-4.21.8-10.91-5.89-10.31-10.82-2.84.81-3.14,4.15-6.09,4.79-2.49.54-6.43-2.1-8.74-2.8-5.73-1.74-9.37-4.66-14.62-7.31-3,10.6,46,26.9,54.38,28.09,9.14,1.31,17.79,2.64,27,3.45a152.87,152.87,0,0,0,26.89,0c12.11-1,23.7-1.46,33.85-10.38Z"/><path class="cls-57" d="M329.8,176.05c-9.56-9.45-15.92,5.43-55.13.91-19.27-2.22-37.5-3.6-55.94-5.25-1.68,17.09,24.06,14.43,27,26.94,7.77.75,16.73,1.82,24,2.19,8.53.43,14.26-2.49,23.25-4.4,6.34-1.36,45.17-13.3,35.79-22.95Z"/><path class="cls-57" d="M211.68,184c11.84-1.08,37.52,7.23,17.85-10.54-10.33-9.34-23-7.94-35.35-11.89-24.82-7.91-45.76-20.4-66.43-36.78,7.07,13.05,20.83,25.37,29.25,37.34,2.93,4.17,5.6,3.65,7.87,7.82,1.77,3.27,1.3,8,2.78,11.42,3.13,7.22,7.74,12.55,14.95,13,2.66-10.62.83-18.57,12.73-18.41,6.85.1,16.6,5.14,22.13,9.28,1.44-.2,1.08-1.6,2-2.25Z"/><path class="cls-57" d="M127.31,161.25c7.73.26,13.86-8.55,12.5-17.34-1.08-7.1-8.81-13-13.1-19.07-7-9.87-17.9-10.18-22-22-.78.75-1.53-8.76-2.4-8-6.42-6-14.73-20.18-22.51-22.13,2.41,7.82,14.16,7.49,11.4,19-9.85-.62-10.49,8-3.18,14,8.28,6.83,15.77-1,14.86,15.65-.76,14-4.88,12.07,4.94,24.44,5.5,6.93,11.28,16,20.6,14.18Z"/><path class="cls-57" d="M337.35,208.2c.18,1.51-5.09,4.15-6.66,4.18-.62-3.26,4.2-5.3,5.44-7.93,1.78-3.78-.57-3.81-3.23-4.64,1.18-6.17,4.75-13.73-3.3-15.23a45.79,45.79,0,0,0-12.1-.6c-2.55.25-11.61,3.29-12.93.25,2.78-2.77,6.74-4.16,10.23-5.38,2.27-.79,5.05-.83,6.95-2.46,3.72-3.21,7.55-6.44,12.53-4.9-.83,4.91,1.17,4.34,3.72,7.33a14.83,14.83,0,0,1,3.56,10.85c-.27,2.12-1.12,4.05-1.18,6.29,0,1.87.7,3.36.78,5.09.17,3.69-2.63,5.78-4.39,8.71Z"/><path class="cls-57" d="M333.73,210.3c1.32-1.13,4.68-4.41,4.89-6.48.31-3-2.7-2.21-3-5.47-.23-2.76,1.85-5.07,1.22-7.87-.71-3.14-3.24-3.42-5.64-3.64-10.24-.91-20.52,4.3-30.65,5.67-3.29.44-14.71,2-17.16-1.31-2.81-3.8,4.68-6,6.86-6.51,11.11-2.8,22.53-1.26,33.66-4,2.23-.54,6.76-.22,7.49-2.7.65-2.23-1.39-4.72,2-6,5-1.92,7.9,9.23,8.52,13.53,1,6.86,2.91,24.64-6,25.19Z"/><path class="cls-57" d="M336.49,197.43c.89-2.61,2.07-8.81,1-11.6-.83-2.21-2.39-2.26-3.8-3.57-.92-.85-1.26-2.11-2.13-3-1.23-1.21-5.75-1.27-6-2.72s3.58-5.09,4.82-5.55c5-1.83,14,10.62,13.7,15.89-.2,3.58-3.37,3.8-4,6.52-.43,1.81,1,3.25,1.63,5.1,1.69,5.24-1.64,10.86-6.9,9.92Z"/><path class="cls-58" d="M330.07,213.36a8.73,8.73,0,0,0,7.22-4.11c-5.84-.11-13.16,5.93-19.41,6.9-6,.93-14.38,5.26-19.26-1.26-3.68,9.14-25.19,5-33.18,4.79a152.44,152.44,0,0,1-18.14-1.8c-5.25-.77-13.13.22-17.38-3.4,8.25,3.73,16.12,3.17,25,4.4a236.3,236.3,0,0,0,25.42,2.5c16.67.49,37.83,1.1,52.57-9.2Z"/><path class="cls-58" d="M213.77,213.73a5,5,0,0,0,5.49-1.59c-4.19-1.79-6.4-6.75-10.28-7.43-1.28-.23-4,1.64-5.52,1.77-2.51.19-4.29-.55-6.6-1.3-4.42-1.44-7.79-4.93-12-7-3.58-1.77-7.73-2.24-11.45-3.24,11.32,9.09,28.57,17.69,42.55,17.56Z"/><path class="cls-58" d="M331.83,209c8.5-2.19-1.68-19-5-16.49-2.48,1.87,3.94,25.63-5.3,10.43-2.42,2.11-.81,5.67-3.88,7.06-3.37,1.53-4.18-2.39-6.51-4.3-4.39-3.59-4.32-.51-7.84.11s-5.7.4-8.79,1.36c.24-2.69-.24-5.45-2.14-7-3.17,4.49.57,14.28-8,11.07-3.23-1.21-3.63-5.13-6.32-6.53-4.13-2.15-3.17,2.24-6.8,2.67-6.11.71-3.5-12-9.09-12.45-1.89-.15-10,9.45-11.85,11.76-2.86-3.14.3-8.89-2.34-11.68-4-4.22-2.67,6.1-6.27,6.18-.72-2.61-2-5.78-3.25-7.21-.82-3.27-2.53-6.16-2-9.82-1.22.59-4.85,1.69-5.94,3.06-1.87,2.34-1,4.35-2.49,6.72-4.69,7.46-4.37-.61-8-4-3.34-3.16-7.43-.26-11.8-2.1a26.29,26.29,0,0,1-9.63-6.66c-2.58,4.35-6.84,2.14-10.38.75-1.17-.45-2.08-4.34-3.8-3-2.14,1.62.07,5.37,1,6.74a70,70,0,0,0,8.65,8.59c3.58,2.48,7.23-.07,10.28-3.42,3.35,10,7.35,1.62,12.82,5.35,4.31,3,3.31,10.39,10.06,8,1.46,9,4.75-1.32,6.33-3.59,3.45.36,3.74,4.57,5.66,7.15,4.59,6.19,3.08,1.29,7.82.55,3.64-.56,6.3,3.77,10.32,1.57,5.28-2.89,1.54-5.53,6.66-2,2.43,1.67,5,6.66,7.68,7.5,3.9,1.2,5.6-3.79,9.33-4.17,4.73-.47,12.17,7.33,14.66-3.71,5-.41,12.6,7.82,16.85,1.09.85,5.35,5.8,8.8,10.32,5.76,1.87-1.26,2.28-3.44,4.67-4.74s5.15-.26,6.68-3.62Z"/><path class="cls-58" d="M166.43,186.42c.23-2.79-1.72-5.34-.49-9,1.07-3.2,4-3.53,3.54-7.85-5.3-1-5.14,8.23-10.46,7.08.52-8-5-6-4.27-13.82a9.28,9.28,0,0,0-7-.38c.27-3.64.46-10.22-3-11.32-.2,3.06,1.1,9.13-.19,11.46-1.11,2-7.77,5.27-9.59,6-.18,8.11,23.17-5.72,16.87,9.13,2.29-.37,3.5.62,3.25,3.27,4.39-.67,3.57-.86,6.91,1.72,2.26,1.75,2.87,4.58,6,4.35a5.21,5.21,0,0,0-2.56-5Z"/><path class="cls-58" d="M75.65,80.7c6.94-3.66,5-10-3-9,.42-5-5.56-3.58-4.12,1.4,1,3.42,6.62,2.19,3.38,6.78a11.27,11.27,0,0,0,3.23.2Z"/><path class="cls-58" d="M118.29,145.81c2.41-8.25-3.67-7.48-7.9-11.76-3.24-3.28-6.78-8.86-9.88-12.77-3-3.73-4-8.9-6.62-12.38-.83-1.11-2.22.11-3-1s-.39-2.18-1-3.23c-1.1-1.91-1-4.45-2.64-6.31-1.18,3.9,1.21,11.62,3.12,15,3.31,5.94,5.28,5.61,6.21,12.68.66,5.08,1.4,7.62,6,10.42,4.36,2.68,7.17,2,6.5,9,2.17.21,5.21.2,5.95.9Z"/><path class="cls-59" d="M330.28,204.31c6.54-4.79-3.23-14.49-7.7-17.17-5.2,5.23,5.24,14.87-2.66,18.66-.4-.79-1.69-2-2.09-2.82-6.38,8.36-4.88,4.55-11.19-.89-7.54-6.51-8,2.21-12.35.39-.13,1.29-1.55,3.56-1.74,4.61-.8-2.08-2.68-3.52-3.51-5.56-1,1.1-2.74,1.34-3.75,3-3.08-2-4.19-6.44-6.25-9.43-3.21,2.75-3,7.25-6.13,10.12-.42-1.15-2.15-2.42-2.66-3.43-.73,1.33-2.57,2.16-3.19,3.05-2.58-6-6.83-1.92-10.17.56-.42-2-3.89-8.17-6-8.34-4.4-.38-3.34,5.76-7.93,5.34-4.66-5.57-7.86-7-7.21-16.79-5.78-.83-3.29,7.33-3.19,11.45-3.75.26-4.26-3.58-3.51-7.44-4.11-.09-5,2.33-8.59,2.17-3-.13-2.79-6.08-7.33-2.23-1.88-1-1.09-1.05-3.66-1.56.7-6.79-2.61-3.75-5.74-4.07-.94-.1-2.18,2.18-3.13,2-1.62-.25-3-3.12-3-3.12-4.3-.46-2.9-2.78-7.05,2.15a38.64,38.64,0,0,0-4.07,7,6.9,6.9,0,0,0,5.8,5.8,24.1,24.1,0,0,0,4-6.62c2.75,2.5,3.12,8.73,6.22,9.38,3.95.82,6.42-4.51,6.9-8.12,6.6,1.49,8.25,3.2,13.12,8.48,3.07,3.35,6.9,8.79,9.46,1.49,3.28.28,3.79,3,6.4,4.06,3.32,1.33,4,.62,7.49.58,4.89-.05,9.87,3.84,15.94,2.83,3.06-.52,3.3-3.78,6-4.08,1.94-.22,7,2.83,8.56,3.88,4.72,3.15,9,10.16,12.66.9.67,1,2.25,1.84,2.9,2.81,5-14.55,21.95,6.44,28.78-6.08,5.88,6.31,8,.57,11.12-4.65Z"/><path class="cls-59" d="M333.29,201c-.45.76.49,1.44-.61,1.6-.21-4.44-1-29.31-10.6-19.42-2.75,2.83,1,10.18-2.42,12.61-3.67,2.64-6.59-5-10.64-.69-1.57-1.54-3.89-1.65-5.56-2.43.73,9.68-1.45,5.88-5.57,5.81-1.9,0-2.21-2.91-5.13-1.43-2.16,1.1-1.33,4.87-2.9,6-4.6,3.37-3.86-2-9.45-4.5-5-2.24-8.75,2.33-12.45,4.61-1.32-13.57-9.84-5.11-15.24-4.78-11,.66-10.4-6.5-14-15.2-6.92-1.7-3.36,5.64-6.47,8.13-4.07,3.25-6.55-1.81-11.12.39.32-7.3-14.55-7.35-19.68-5.66-1.35-5.62-3.59-10.61-9.36-9.59-1.19-4.16-10.71-3.86-14.59-4.64-.5-.55-.12-1.08-.77-1.69-10.3,6.57,6.47,11.32,10,12.22,6.53,1.68,12.22,5,19,6.46,5.75,1.26,11.16,1.85,16.84,3.25,6,1.49,13.08,6.3,17.45-.43,5.52,11.05,12.77,6.52,20.57,8.26,1.65.36,2.08,3.74,4.35,4,1.48.18,3.31-3.72,4.62-3.78,4.76-.24,8,4.92,13,4.42,5.45-.54,7.78-5.14,13.36-5.36,1.23,0,4.26,1.95,6,1.94a46.73,46.73,0,0,0,6.49-1.91c3.79-1.73,7.31-4.73,11-5.63,2.49-.62,3.58,1,6.05.49,2.75-.64,3.1-3.71,6.56-3.12.1,3.52-.09,7.18,0,10.71a7.68,7.68,0,0,0,3.47.08,1.14,1.14,0,0,0-.6-1.56Z"/><path class="cls-59" d="M225.67,215.56a35.54,35.54,0,0,0,7.29.07c-2.06-3.06-15.33-6.23-18.79-4.74-1.19-5.27-1.46-8.3-5.9-6-6.13,3.21-2.89,5.38.57,7.62,4,2.61,15.53,3.84,19.78,2.27Z"/><path class="cls-59" d="M163.94,182.56c7.89,1.28,10.53-5.42,1.76-7.69-.58-3.36,1.16-6.38,2.17-8.93-5.75.1-11.38,4.66-15.86-3.31-1.43-2.54,1.88-9.37-3.46-8.17-1.63.37-3.93,6.9-4.58,8,.38-1.89-.31-4.59-.12-6.55a10.38,10.38,0,0,0-2.71-.34c-.08-1.29-.1-2.65-.13-4,0,0-2.14-.22-2-.07-.16,2.49-3.83,10-3.35,11.6a4.89,4.89,0,0,0,8.83,1.35c2,1.72,5.06,2,7.94,1.78-.06,2.85.67,5.39.77,8.2,2.2.32,9.62-3.2,10.81-1.92,2.38,2.57-1,6.48-2.86,8,2.26,2.14,3.39,1,5-.48Z"/><path class="cls-59" d="M166.94,180.11c-4.22,9.54-12.1,3.1-12.25-4.4-.05-2.54,2.68-4.08,2.08-8.35-.16-1.12-7.3-8-1.13-7.85,5.12.1,1.75,5.91,5,7,4.3,1.46,5.17-7.38,8.66.18,2.62,5.66-2.07,21.29-9.06,17.43Z"/><path class="cls-59" d="M130.63,160.5c5.28.85,2.51-3.19,3.83-6.63,1.49-3.91,2-6.11,4.56-9.85-4.21-.14-8.49,12.8-11.61,3.81-.14,3.69.83,6.33,1.21,9.94a5.63,5.63,0,0,1,2,1Z"/><path class="cls-59" d="M109.17,134.58a6.61,6.61,0,0,0,5.3-3.21c-3.29-3.09-9.37-2.63-10.31-8.59-5.84-.64-5.14-9.66-9.78-12.1,3.44,10.66,2.49,19.19,12.62,22.15Z"/><path class="cls-59" d="M77.9,86.46a6.13,6.13,0,0,0,6.63-4.72c-3.48-.17-7-3.65-9.17-6.3-1.64-2,.16-3.24-2.26-5.12-1.53-1.18-4-1.36-5.65-1.76-4.91,10.08,6.26,15.34,12.66,18Z"/><path class="cls-59" d="M80.67,94.12a7.23,7.23,0,0,1,2.32-5Z"/><path class="cls-59" d="M80.67,94.12c3.64.23,7.79-2.79,6.06-7.42-1.33-3.56-3.4-1.78-5.64-3.71-2.52-2.16-5.25-6.7-8.69-7.54-1.36,5.61,9.79,21.22,12.7,18Z"/><path class="cls-59" d="M75.08,81.32c13.53,1.43,9.61-9.79-.38-10.84C74,75.74,77,82.34,81.65,83.2Z"/><path class="cls-59" d="M72.18,79.54c2.76,3,12.8,2.46,6.68-3-3.91-3.47-9.2-.18-13-4.68.95,4.52,7,9.58,11.43,8.66Z"/><path class="cls-60" d="M336.26,207.7c3.48-6.36,4.58-4.51-.05-8.25,5.58-3.51,1.89-21.88-4.17-22.61.65-4.21.28-5.83,3.73-5.54a29.74,29.74,0,0,1,9,3c5.19,2.91,8.75,3.61,14.8,3.43,11.69-.36,23.58-3.69,35.38-4.78s23.57,3.42,35.56,3.73c6.44.17,12.11,2,18.31,2.88,5.91.88,12.12,1.27,18,1.77,4.27.37,13.07,1.27,11.56,9.75-.76,4.28-5.12,4-7.43,2.48-2.94-1.93-2.7-3.64-6.51-4.23-6-.93-11.89-2.34-17.93-3.24s-11.7-.18-17.61-1.37c-3-.59-5.14-2.12-8.4-2.06-2.95.06-5.61.56-8.47.65-6.12.18-11.75-.07-17.66.82a143.82,143.82,0,0,0-33.65,9.66,29.1,29.1,0,0,0-12.07,9.06c-2.32,3.13-12.22,8.5-15.54,10-.27-.22.3-2.62.29-3,.21-.51,2.71-1.67,2.94-2.12Z"/><path class="cls-61" d="M477.7,192.17c-4.49,4.11-5.06-3.08-7.61-5.6s-7.65-3.93-10.9-4.39c-8.9-1.28-17.36-1.29-25.82-3-4.55-.93-8.64-1-13.21-1.43s-8.47-1.9-13.19-1.75c-8.92.29-17.29.84-26.46.57a90.77,90.77,0,0,0-23.09,2.16c-7.83,1.73-13-2.58-20.33-4.21a18.09,18.09,0,0,0,0-1.81c8.19.71,14.62,6.8,24,6,8.93-.76,16.57-4.23,26-4,18.68.55,34.5,3.49,52.8,4,8.11.23,16.48,2.34,24.2,3.5,2.93.43,7.65-.38,10.17,1.39,2.7,1.88,6.1,9.84,1.7,9.86Z"/><path class="cls-61" d="M337,199.46c10.81,4.79,19.49-15.34,30.5-15.91-6.61-.69-10.65,3.2-15.84,7.1-2.91,2.18-13.48,6.12-13,9.53Z"/><path class="cls-61" d="M338.39,186.73c4.45-1.07,22.16.27,23.71-3.89-5.61-.57-19.71,2.43-23.49-1.42a14.14,14.14,0,0,0,.32,5.32Z"/><path class="cls-61" d="M337.88,184.7c-.71-4.57-11.37-13.94-.3-11.44,3.19.72,4,3.14,6.49,5.07,2.92,2.28,5.68,2.27,8.58,3.93-4.6,1.42-9.85,4.94-14.2,1.78Z"/><path class="cls-61" d="M346.87,201.77c5.43-.69,11.89-9.12,17.15-11.63-5-.71-9.65,1.78-14.09,3.82-6.28,2.88-8.24,4.32-9,12.23,3-.29,8-5.49,10.44-7.65Z"/><path class="cls-61" d="M373.68,185.75c1,1.54,23.09-2,26.58-1.91-10.83-.32-19.46.58-29.18,3.85,1.95,1.25,4.1.47,5.89-1.17Z"/><path class="cls-61" d="M370.39,185c4-2.55,9.4-.34,12.71-3.51-4.19-1.08-15.62-.34-18.17,3.88a6.48,6.48,0,0,0,6-1.7Z"/><path class="cls-61" d="M475.49,192.78c.69-.39-.7.5-1.16.56-.69-2.14-3.2-9.8-.63-9.57,2.21.21,3.65,6.29,4,8.09-1.08.35-1,1.19-2.12.82a15.74,15.74,0,0,1,0-3.94Z"/><path class="cls-61" d="M474.94,189.9c-2.34-.34-8.18-3.25-7.39-8,3.64-1,10.39,4.6,10.14,9.25-.54.16-3.2,0-3.73.09Z"/><path class="cls-61" d="M428.26,185.33c3.1.1,6.25.29,9.32.17-2.59-5.35-14.66-4.94-19.52-5.2,4,1.81,12,3.52,16.3,3.2Z"/><path class="cls-61" d="M385.91,181.4c3.57-1.24,13.64,2.09,14.86-2.81-6.36-.64-13.76,0-19.66,2.7,3.09,0,6.28.49,9.22-.43Z"/><path class="cls-61" d="M339.2,199.53c2.69-.3,5.75-2,6.66-5.06-2.78-1.12-4.76-4.63-6.29-7-.26,3.66.15,8-.85,11.22a5.4,5.4,0,0,0,1.6.19Z"/><path class="cls-61" d="M340.93,208.3c1.77-1.55,5.58-2.16,5.82-5.09a12.09,12.09,0,0,1-5.31-1.54c-.33,3.2-8.34,7.7-6.92,10.24Z"/><path class="cls-61" d="M336.84,182c.25,3.76,3,4.59,5,2.2-1.49-2.44-4.95-6.86-6.95-8.22-.16,3.44,1.56,7.21,4.12,8.78Z"/><path class="cls-61" d="M340,202.23c-1.45,1.09-3.52-1.06-3.47-3.07,3.91-1.51,1.72-4.68,3.42-7,3.08,6.35,11.74-.6,15.49-2.87,4.64-2.82,11.58-7.54,16.87-6.16-5.35,1.49-10.79,4.82-16.07,7.19-3.11,1.4-6.09,3.15-9.2,4.42-2.92,1.19-5.34,2.71-6.23,6.5a1.17,1.17,0,0,1-1.33-.32Z"/><path class="cls-61" d="M341.5,205.37c2.57.16,4.1-5,5.73-6.89s6-3.66,6.93-6.13c-5.86-1.54-8.31,9.76-13.37,9.69.43,2,1.45,3.45.43,5.64a4,4,0,0,0,1.68-3.27Z"/><path class="cls-61" d="M339.43,189.11c-.62-4.47-.23-4.4,3.4-4.27,2.81.1,5.6-1.12,8.31-1.7,4.44-.95,10.94-4.16,15.46-2.92-1.12,3.14-10,3.84-12.74,4.29-5.14.85-8.59,3.2-13.29,5.27a6.28,6.28,0,0,1-.26-3Z"/><path class="cls-61" d="M342,186.83c-1.6-2.1-2.61-6.32-5.1-8.46-.79-.69-3.07-.86-2.93-2.53.16-1.86,2.33-1.31,3.27-.83,1.38.71,1.44,2.26,2.55,3.29a9.77,9.77,0,0,0,4,1.78c2.78.77,5.61.76,8.49,1.07-1.83,2.34-7.17,5.49-10,5Z"/><path class="cls-61" d="M345.36,195c4.87.7,13-5.33,16.71-8.53-3.92-.83-8.24,2.32-11.85,3.71-3.18,1.23-6.73.66-10,1.69.45,2,1.57,3.15,1,5.31,2.95.68,5.6-2.77,8.31-3.4Z"/><path class="cls-61" d="M343.75,205.71c-.06-.9-.69-3.68-.67-5.34,3.59-.36,6-2.32,9.31-3.84-3,2.85-5.67,6.39-8.64,9.18Z"/><path class="cls-61" d="M358.47,188.33c5.28-2.34,10.94-3.66,16.16-5.17,4.8-1.39,9.91-.8,14.78-2a48.15,48.15,0,0,0-14.91,1.92,69.19,69.19,0,0,0-7.77,2.56c-1.21.49-6,2.55-5.49,1.77Z"/><path class="cls-61" d="M367,188.24c2.28,0,4.6-1.4,6.87-1.81,1.85-.34,4.09-.05,5.63-.85-1.76-1.09-14.19,1-14.72,3.27Z"/><path class="cls-61" d="M371.3,181.31c4.72-2.41,10.91-.4,15.13-2.94-3.22,0-6.17.82-9.3,1.11-2.24.2-4.7-.48-6.64,1.13Z"/><path class="cls-61" d="M400,180.81c4.22-.6,8.72-.08,13,0,3.14.09,7.5,1.19,10.38-.45-2.53-2.28-9.29-.52-12.57-.62s-6.36-.37-9.45.39Z"/><path class="cls-61" d="M445.05,185.83c3-4.91,12.7,2.73,17.05.42-1.61-2-8-1.36-10.42-1.57s-4.66-.79-7.13-.88Z"/><path class="cls-61" d="M428.63,181c3.56-.2,7.08,1.13,10.64.9-2.36-1.58-9.75-1.71-12.31-.62Z"/><path class="cls-61" d="M477.76,189.82c1.51,1.77-2.43,6.32-3.07,1.25-.19-1.52.52-2.26-.11-3.79-.46-1.11-1.92-1.9-2.52-3,1.3-1.81,3.19-.6,4.35.87,1.57,2,1.48,3.42,1,6-.36.1-.7.29-1.06.37Z"/><path class="cls-61" d="M476.06,192.12c2.94-1.28,2.41-3.64.38-5-1.4-1-3.62-1-4.88-2.83-3.92-5.78,10.78,3.38,4.81,5.85Z"/><path class="cls-61" d="M468.9,191.57a1.71,1.71,0,0,0,2.48-1.54c-2.12-1-4.78.16-6.74-1,1.6.83,3.35,2.17,5.09,2.2Z"/><path class="cls-61" d="M465.2,184.74c2.1.78,7.23,2.3,8.85.27-1.74-3-6.33-2.21-9.08-2.63-3.25-.49-6.7-.6-9.86-1.24,2,2.47,14.3,6.86,15.63,2.08Z"/><path class="cls-61" d="M371.94,189.62c-3.71-4.26-17.53,10.75-22.5,9.72-.21-2.58,1.25-4.76.19-7.21-.49-1.15-3.75-4.56,0-3.85-.08-2.45-2.52-3.55-2.53-6.62,2.49,0,5.15,2.17,7,4,2.59,2.51,3.15,3.75,6.91,2.82,3.22-.8,6.45-.63,9.67-1.45,2.71-.69,5.16-2.19,8-1-.92,3.6-8.1,4.11-10.83,5.39Z"/><path class="cls-61" d="M349,203.17c2.77-.72,3.45-5.36,1.82-7.31-.67-.79-3-.9-3-2.52,0-.61,1.75-2.09,2-2.74-2.75-.77-3.11-.56-4.27-3.65.3-.25.64-.75.86-.92-.47-.25-.84-.92-1.63-1.06.1-.33.09-.76.22-1.12-2.41-1-2.63-1.18-3.09-3.66,1.15.06,3-.33,3.82.67s.17,2.87.93,4.16c.63,1.08,2.56,1.24,3.19,2.45.81,1.56.34,2.56.29,4.31,2.65.14,3.1-.22,2.92,2.64a11.63,11.63,0,0,1-2,5.65Z"/><path class="cls-62" d="M333.64,177.22c-.43-4.35,1.18-3.34,4.1-3.71-.62-1.49-3.75-2.3-4.87-.9-.95,1.19-.81,6.7,1,4.4Z"/><path class="cls-62" d="M334.71,211.39c-.42-.78,7.6-7.8,7.19-10.51-1.43-.45-4.1,4.75-4.93,6.1s-1.69,2.13-2.41,3.19c-.24.36-1.69.79-.6,1.42.71.4,1.48-.33,1.69-1Z"/><path class="cls-62" d="M339.17,201c-2.77-.15-1.16-1.89-.43-3.38.91-1.83.57-4.3,1.05-6.25,2.41-.81,4.62-.68,6.62-2.76-2.12-.21-4.49,1.32-6.08-.58-1.17-1.41-1.15-5.63-2.73-6-.11,1.23.93,3,1.12,4.26a40,40,0,0,1,.11,5,15.83,15.83,0,0,1-1.67,8.16c.15.46.37.39.75.45Z"/><path class="cls-62" d="M475.5,192.14c1.38,1.55-3,3-4.38.92-1.08-1.56-3.65-4.94-3.57-7.06.2-5,2.95,2,3.57,3.07.73,1.28,2.75,4.28,4.19,3.48Z"/><path class="cls-62" d="M452.53,184.51c1.26.12,2.55.65,3.81.5-.39-1.6-6.41-2.26-8-2.31-3.06-.09-7.28-1-10,.5,4.91.58,10.13-.21,14.83,1.33Z"/><path class="cls-62" d="M429.83,180.47a4.83,4.83,0,0,0,2.93-.39c-.94-1-4-.49-5.33-.69a50.56,50.56,0,0,0-6-.86c-3.58-.09-8.08-.71-11.39,1,1.18,1.12,4.13.36,5.67.32,1.72-.05,3.39.31,5.13.36,2.12.06,8.43,2,9.92.3Z"/><path class="cls-62" d="M387.15,183.22a2,2,0,0,0,2.21-1.59c-2.67-.5-5.5.86-8.25.77a15.27,15.27,0,0,0-6.46,1c-4.18,1.59-8.56,2-12.52,4.55,4.37.43,9.83-2.86,14-4a39.55,39.55,0,0,1,12.15-1.17Z"/><path class="cls-62" d="M370.83,181.89c2.65,0,5.51-1.15,8.09-1.07-3.35-2.53-11.63.48-14.55,3,1.62.33,3.24-.39,4.78-.87,1.19-.37,3-.33,3.88-.94Z"/><path class="cls-62" d="M341.48,196c2.66-.21,12.61-4.34,13.2-7.59-2.26-.21-5.17,2.53-7.23,3.59-1.31.68-5.45,2-5.56,3.76a3.53,3.53,0,0,0,2-.12Z"/><path class="cls-62" d="M347.76,202.71c1.37-.39,1.93-2.16,2.84-3.29s2.23-1.9,3.17-3c-2-.1-5.84,4.88-6.72,6.87.63.55,1.3.31,1.63-.53Z"/><path class="cls-62" d="M349.3,183.16c2.49.77,8,1.87,9.93-1-3-1.28-6.45,1.08-9.52-.75-1-.61-1.89-1.83-2.9-2.35a14.68,14.68,0,0,0-3.62-.91c1.49,2.65,6.59,6,9.4,5.72Z"/><path class="cls-62" d="M386.43,182.56c1.78.74,3.3-.1,5-.65s3.73-.44,5.13-1.53c-2.12-.25-4.65.48-6.76.86-1,.18-3.9-.1-4.27.84,1.22,0,2.4.36,3.64.36Z"/><g class="cls-63"><path class="cls-64" d="M330.07,213.36a8.73,8.73,0,0,0,7.22-4.11c-5.84-.11-13.16,5.93-19.41,6.9-6,.93-14.38,5.26-19.26-1.26-3.68,9.14-25.19,5-33.18,4.79a152.44,152.44,0,0,1-18.14-1.8c-5.25-.77-13.13.22-17.38-3.4,8.25,3.73,16.12,3.17,25,4.4a236.3,236.3,0,0,0,25.42,2.5c16.67.49,37.83,1.1,52.57-9.2Z"/><path class="cls-64" d="M213.77,213.73a5,5,0,0,0,5.49-1.59c-4.19-1.79-6.4-6.75-10.28-7.43-1.28-.23-4,1.64-5.52,1.77-2.51.19-4.29-.55-6.6-1.3-4.42-1.44-7.79-4.93-12-7-3.58-1.77-7.73-2.24-11.45-3.24,11.32,9.09,28.57,17.69,42.55,17.56Z"/><path class="cls-64" d="M331.83,209c8.5-2.19-1.68-19-5-16.49-2.48,1.87,3.94,25.63-5.3,10.43-2.42,2.11-.81,5.67-3.88,7.06-3.37,1.53-4.18-2.39-6.51-4.3-4.39-3.59-4.32-.51-7.84.11s-5.7.4-8.79,1.36c.24-2.69-.24-5.45-2.14-7-3.17,4.49.57,14.28-8,11.07-3.23-1.21-3.63-5.13-6.32-6.53-4.13-2.15-3.17,2.24-6.8,2.67-6.11.71-3.5-12-9.09-12.45-1.89-.15-10,9.45-11.85,11.76-2.86-3.14.3-8.89-2.34-11.68-4-4.22-2.67,6.1-6.27,6.18-.72-2.61-2-5.78-3.25-7.21-.82-3.27-2.53-6.16-2-9.82-1.22.59-4.85,1.69-5.94,3.06-1.87,2.34-1,4.35-2.49,6.72-4.69,7.46-4.37-.61-8-4-3.34-3.16-7.43-.26-11.8-2.1a26.29,26.29,0,0,1-9.63-6.66c-2.58,4.35-6.84,2.14-10.38.75-1.17-.45-2.08-4.34-3.8-3-2.14,1.62.07,5.37,1,6.74a70,70,0,0,0,8.65,8.59c3.58,2.48,7.23-.07,10.28-3.42,3.35,10,7.35,1.62,12.82,5.35,4.31,3,3.31,10.39,10.06,8,1.46,9,4.75-1.32,6.33-3.59,3.45.36,3.74,4.57,5.66,7.15,4.59,6.19,3.08,1.29,7.82.55,3.64-.56,6.3,3.77,10.32,1.57,5.28-2.89,1.54-5.53,6.66-2,2.43,1.67,5,6.66,7.68,7.5,3.9,1.2,5.6-3.79,9.33-4.17,4.73-.47,12.17,7.33,14.66-3.71,5-.41,12.6,7.82,16.85,1.09.85,5.35,5.8,8.8,10.32,5.76,1.87-1.26,2.28-3.44,4.67-4.74s5.15-.26,6.68-3.62Z"/><path class="cls-64" d="M166.43,186.42c.23-2.79-1.72-5.34-.49-9,1.07-3.2,4-3.53,3.54-7.85-5.3-1-5.14,8.23-10.46,7.08.52-8-5-6-4.27-13.82a9.28,9.28,0,0,0-7-.38c.27-3.64.46-10.22-3-11.32-.2,3.06,1.1,9.13-.19,11.46-1.11,2-7.77,5.27-9.59,6-.18,8.11,23.17-5.72,16.87,9.13,2.29-.37,3.5.62,3.25,3.27,4.39-.67,3.57-.86,6.91,1.72,2.26,1.75,2.87,4.58,6,4.35a5.21,5.21,0,0,0-2.56-5Z"/><path class="cls-64" d="M75.65,80.7c6.94-3.66,5-10-3-9,.42-5-5.56-3.58-4.12,1.4,1,3.42,6.62,2.19,3.38,6.78a11.27,11.27,0,0,0,3.23.2Z"/><path class="cls-64" d="M118.29,145.81c2.41-8.25-3.67-7.48-7.9-11.76-3.24-3.28-6.78-8.86-9.88-12.77-3-3.73-4-8.9-6.62-12.38-.83-1.11-2.22.11-3-1s-.39-2.18-1-3.23c-1.1-1.91-1-4.45-2.64-6.31-1.18,3.9,1.21,11.62,3.12,15,3.31,5.94,5.28,5.61,6.21,12.68.66,5.08,1.4,7.62,6,10.42,4.36,2.68,7.17,2,6.5,9,2.17.21,5.21.2,5.95.9Z"/><path class="cls-65" d="M333.64,177.22c-.43-4.35,1.18-3.34,4.1-3.71-.62-1.49-3.75-2.3-4.87-.9-.95,1.19-.81,6.7,1,4.4Z"/><path class="cls-62" d="M334.71,211.39c-.42-.78,7.6-7.8,7.19-10.51-1.43-.45-4.1,4.75-4.93,6.1s-1.69,2.13-2.41,3.19c-.24.36-1.69.79-.6,1.42.71.4,1.48-.33,1.69-1Z"/><path class="cls-62" d="M339.17,201c-2.77-.15-1.16-1.89-.43-3.38.91-1.83.57-4.3,1.05-6.25,2.41-.81,4.62-.68,6.62-2.76-2.12-.21-4.49,1.32-6.08-.58-1.17-1.41-1.15-5.63-2.73-6-.11,1.23.93,3,1.12,4.26a40,40,0,0,1,.11,5,15.83,15.83,0,0,1-1.67,8.16c.15.46.37.39.75.45Z"/><path class="cls-62" d="M475.5,192.14c1.38,1.55-3,3-4.38.92-1.08-1.56-3.65-4.94-3.57-7.06.2-5,2.95,2,3.57,3.07.73,1.28,2.75,4.28,4.19,3.48Z"/><path class="cls-62" d="M452.53,184.51c1.26.12,2.55.65,3.81.5-.39-1.6-6.41-2.26-8-2.31-3.06-.09-7.28-1-10,.5,4.91.58,10.13-.21,14.83,1.33Z"/><path class="cls-62" d="M429.83,180.47a4.83,4.83,0,0,0,2.93-.39c-.94-1-4-.49-5.33-.69a50.56,50.56,0,0,0-6-.86c-3.58-.09-8.08-.71-11.39,1,1.18,1.12,4.13.36,5.67.32,1.72-.05,3.39.31,5.13.36,2.12.06,8.43,2,9.92.3Z"/><path class="cls-62" d="M387.15,183.22a2,2,0,0,0,2.21-1.59c-2.67-.5-5.5.86-8.25.77a15.27,15.27,0,0,0-6.46,1c-4.18,1.59-8.56,2-12.52,4.55,4.37.43,9.83-2.86,14-4a39.55,39.55,0,0,1,12.15-1.17Z"/><path class="cls-62" d="M370.83,181.89c2.65,0,5.51-1.15,8.09-1.07-3.35-2.53-11.63.48-14.55,3,1.62.33,3.24-.39,4.78-.87,1.19-.37,3-.33,3.88-.94Z"/><path class="cls-62" d="M341.48,196c2.66-.21,12.61-4.34,13.2-7.59-2.26-.21-5.17,2.53-7.23,3.59-1.31.68-5.45,2-5.56,3.76a3.53,3.53,0,0,0,2-.12Z"/><path class="cls-62" d="M347.76,202.71c1.37-.39,1.93-2.16,2.84-3.29s2.23-1.9,3.17-3c-2-.1-5.84,4.88-6.72,6.87.63.55,1.3.31,1.63-.53Z"/><path class="cls-62" d="M349.3,183.16c2.49.77,8,1.87,9.93-1-3-1.28-6.45,1.08-9.52-.75-1-.61-1.89-1.83-2.9-2.35a14.68,14.68,0,0,0-3.62-.91c1.49,2.65,6.59,6,9.4,5.72Z"/><path class="cls-62" d="M386.43,182.56c1.78.74,3.3-.1,5-.65s3.73-.44,5.13-1.53c-2.12-.25-4.65.48-6.76.86-1,.18-3.9-.1-4.27.84,1.22,0,2.4.36,3.64.36Z"/></g><path class="cls-66" d="M222.08,209.29c14.57,10.39,17.11,2.56,24.83-9.94,2.78-4.5,6.78-11.36,11-14.69,4.9-3.89,11.2-2.76,16.2-6.14a11.7,11.7,0,0,0,0-2.23c-.78-.2-1.46,0-2.23-.24-23.94,4.73-10.11-4.17-15.89-1.66-5.42,2.35-2.27-2.95-6.86,1-5.84,4.94,0,11.21-3.79,17.52-1.27,2.1-11.85,9.24-21.6,17.25Z"/><path class="cls-66" d="M246.75,169.89c2.58-2.2,9,.45,10.18,6.39.9,4.54,10.08-.62,6,.72a.52.52,0,0,1,.4.64c-12.89-.19-8,20.31-10.84,27.32-4.31,10.67-12.74,13.41-23,10.12-14.92-4.8,1.06-17.79,5.17-29,3.75-10.23.37-11.56,11.1-16Z"/><path class="cls-66" d="M244.43,190.25c-2.8,5-3.5,12.89-.63,18,2.39,4.26,7.69,5.85,8.78,10.79-4.49,1.8-25.45-.74-27.23-6.42-1.53-4.85,14-26.13,19.08-20.74Z"/><path class="cls-66" d="M248.56,186.11c5.77-2.54,24.65,1,23.88-7.31-3.6-1.29-11.88-2.65-15.6-1.82-6.09,1.37-8.85,9.41-1.65,6.64Z"/><path class="cls-66" d="M265.12,178.66c-4.11-6.15-7.95-1.19-6.29-3.32-6.42-.42-2.26-7.14-4.27-1.61-2.9,8,8.77,11.32,10.66,5.87Z"/><path class="cls-66" d="M179.86,196a4.06,4.06,0,0,1-7.27-1c-1.53-4.6,5.21-7.36,8.1-9.73,5.32-4.38,12.44-12.66,19.74-12.31.33,6.65,1.23,12.92-3.15,18.1-2.93,3.49-11.19,9-14.94,6.61Z"/><path class="cls-66" d="M193.1,186.11c-5.49.75-10.29-1.74-15.1-1-5.08.74-9.2,4.41-14.63,4.46,3.47,5.9,13.38,7.32,19.8,7.33,13.36,0,6.94-4.81,12.15-13.12-1.49-.72-1.5.22-2.22.7Z"/><path class="cls-66" d="M198.06,162.57c-3.85-2.09-13.54-4.93-16.79-.25-5.42,7.81,12,4.45,5.17,12.68-2.14,2.57-14.61,4.38-18.18,4.95-6.26,1-13.12.62-19.75,1,4,5.08,24.75,14.62,29.79,16.69,8.68,3.57,25.38-23.92,23.45-34.11-1.22-.15-3.28-2-4.52-1.75Z"/><path class="cls-66" d="M263,177c3.44,1.18,14.58-2.14,6.6,4.87-5.79,5.08-20.69.62-28-1.19.59-13,11.86-4.87,19.67-3.21Z"/><path class="cls-66" d="M246.91,183.62c-6.56,9.6-7.54,24.85,5.79,29,9.78,3,23.93-1.14,31.56,6.64-12.28,7.89-35.21-1-47.93-4.34-11.68-3.07-11.61-4.14-5.38-14.9,3.32-5.73,7.19-15.9,14.3-17.2Z"/><path class="cls-55" d="M249.82,96.05c19,8.37,18.88,38.68,17.43,49.12-2.22,16.05-9.84,31.4-18.66,44.9s-21.75,24.37-32.2,36.35c-9.72,11.15-27.16,20.06-42.08,27.14-8.42,4-16.19,8.41-25.74,11.27-9.15,2.73-19.89,3.41-29.88,4.75-8.79,1.18-17,4.08-26.52,3.42a143.16,143.16,0,0,1-27.23-5c-26.19-7-53.63,4.56-50.2-9.11,1.49-6,14.7-11.32,21.45-12.66,10.58-2.1,25.89.47,37.06-.53,18.88-1.7,28.07-4.82,42.68-12.49,3.41-1.79,12.76-5.2,15.95-7,3.46-1.93,7.55-4.6,11.45-6.15a55.08,55.08,0,0,0,19.33-12.57c10.66-10.81,23.12-19.95,33.12-31.44a70.52,70.52,0,0,0,12-20.44c2.89-7.61,6.35-13.94,10.36-21.2,4.5-8.2,3-19.3,7.64-27.33,3.06-5.25,15.74-15.91,26.56-9.72Z"/><path class="cls-56" d="M258.76,113.6c-16.34-10.06-27.18,32.52-29.3,39.6a103,103,0,0,1-31.52,48.3c-7.33,6.28-14.9,12.22-21.85,18.46-9.22,8.27-22.67,12.26-35.38,16.92-19.64,7.21-37.64,17.88-61.57,18.78-10,.37-21.34-5-30.15-2.81-4.84,1.22-5.85,2.41-11.41,1.46-4.32-.73-8.79-1.8-13.18-2.28,9.3-10.35,37.2-2,52.89-1.89,11,.08,21-4.34,29.48-8.1,9-4,17.61-7.5,26.89-11.1a191.68,191.68,0,0,0,26.76-13.05c7-4.06,15.23-9.34,20.22-14.83,5.62-6.18,11.93-12.15,16.31-19.16,4.56-7.28,12.65-12.15,16.61-19.59,6.8-12.75,13.75-26.54,14.86-41.39.47-6.28-.46-18.4,7-21,5.33-1.85,27,8,23.07,13.69Z"/><path class="cls-56" d="M264.2,119.87c6.65-7.84-14.92-18.31-18.76-11.91-1.79,3,3,7.25,4.65,11.33a97.31,97.31,0,0,1,4.41,15.11c5.17,23.18-8.84,40-20.53,55.92-1.45,2-4,5.39-2.75,7.94,7.8-.86,13.89-10.93,16.43-16.42,3.14-6.79,7.14-13.63,9.16-20.86,2.19-7.88,5.75-15,6.64-23.35.66-6.11,3.3-15.38-.09-22.08Z"/><path class="cls-56" d="M206.08,231.81c1.37-2.49,5.2-7.4,3.68-10.65-2.72-5.88-7.62-.43-10.83,1.25-5.14,2.71-22.83,16.25-30.37,11.39-.36-3.85,2.61-6.44,3.14-9.89a73.11,73.11,0,0,0,1-9.69c-3.78-2.28-3.17.79-6.33.32-2-.32-5.67-2.81-7.4-2.84-3.2-.08-6.24,5.47-8.11,7-5.22,4.36-13.7,6.24-21,8.9-7.72,2.8-13.55,7.52-20.65,10.85-7.74,3.63-14.33,6.82-24.32,8-24.2,2.73-56.82-8.69-66.32,11.76,5,.58,6.68-5.3,11.09-4.51,7.51,1.35,3,8,1.86,10.44,4.6,3.27,7.83-.22,11.74-.52s10.13.72,14.33,1.63c9.45,2,18.72,6.45,28.49,7.16a104.35,104.35,0,0,0,27.31-2c8.91-1.88,18.47-2.23,27.69-3.73,13.63-2.23,22.26-10.67,33.35-15.8,6.71-3.1,13-6.46,19.19-10,3.93-2.3,18-4.69,14.93-10.44Z"/><path class="cls-56" d="M59.18,266.67c-7.36-.15-16-3.11-22.57-1.49,2.16-5.26,24-8.5,25.14,1.25Z"/><path class="cls-56" d="M71,261c-10.22-3.63-22.35-1.05-22.4-12.06-7.3-4.58-4,5.33-3.84,7.16.37,4.92-5.37,5.88-7.62,9.05,3.07,2.18,5.09-3.14,37.3,4-.53-.42-1.14-1.75-1.63-2.16Z"/><path class="cls-56" d="M144.72,220.89c.76,0,1.1-.47,2.22.17-2.62,3.13-4.44,5.46-5.32,9.72-.69,3.34-.06,8.62-2.24,11.42-2.43,3.12-7,1.87-11.07,3.86s-5.72,4.8-10.44,6c-4.47,1.12-8.36-.55-12.94-.46-5.13.1-9.53,2.66-14.56,3.09-7.89.68-21.2.36-28.93-5,.68-3.84,17.15-1,22.06-1.61A54.53,54.53,0,0,0,104.12,241c6-3.35,11.64-8.3,18.12-10.33,6.8-2.13,16.51-8.29,27.4-12Z"/><path class="cls-56" d="M255.34,109.52c-10-3.29-25.36,5.55-22.93,13.77,1.59,5.38,8.78,7.94,13.85,9.88a33.87,33.87,0,0,1,13.32,8.4c-5-2.88-17.67-7.51-22.73-6.5-6.52,1.31-5.78,12-12.85,11.91-4.76-5.44.22-10.71,2.44-14.69,3-5.32.66-8.78,1.55-14.57.81-5.31.59-11.24,7.15-13.19,3.65-1.09,20.41-2,18.48,5.16Z"/><path class="cls-56" d="M245.7,135.64c-3.2-3.29-8.58-1.25-10.78.72-3.77,3.36-.61,5.72-.21,9.91.54,5.64-2,5,4.17,10.42,3.67,3.23,8.32,6.29,10.34,10.49-12.34-6.71-20.41-7.14-26,.2-2.19,2.86-6.87,6.06-6.33,10.21.49,3.71,7.64,10.36,6,14.25-1.36,3.18-8.26,1.12-13.18-.05-7.17-1.72-8.69-2.71-8.16-8.73.75-8.56,8-16.79,12.46-23.9,5.29-8.36,9-23.41,21.41-25.39a4.37,4.37,0,0,1,.83,4.38Z"/><path class="cls-56" d="M227.41,206.58c-5.65-3-10.56-2.56-16.32-6-5-3-10.2-6.44-15.77-9.17,4.09,5.77,14.3,9.36,19.49,14.81,2.34,2.45,2.93,7,6.77,6.58,2.59-.3,4.58-6.51,4.51-8.47-.82-.95-.89-.09-1.33-.26Z"/><path class="cls-56" d="M214.44,218.22c2.19-1.54,3.21-4.14,4.27-6.43-7.94-2-15.7,8.84-19.06,12.66-2.05,2.34-4.85,6.1-8.83,5.62-3.58-.43-8.65-4.22-12-5.92-2.43,2.85,1.78,4.16,2.43,7.16.59,2.73-1,4.37-2,6.67,5.16,2.19,18.12-9.71,22.75-12.27,6-3.32,10.37-8,15.69-11.8Z"/><path class="cls-56" d="M137.55,266c-3.73-2.61-8.9-6.75-11.47-10.1-3.35-4.37-3-8.3-8.15-11.62C106.78,237,98.6,243.67,90.79,246c-7.59,2.21-16.58,2.29-25.32,2-4.07-.14-11.45-1.85-13.09.17-1.07,1.31-.45,9-.27,10.83.42,4.36.43,4.26,6.67,6.95a57.73,57.73,0,0,0,12.58,3.69c8.38,1.62,15.44,1.39,23.15,1.06,6.92-.3,11.06-1,17.95-1.53,6.5-.51,17.53-1.42,25.48-2.39Z"/><path class="cls-56" d="M25.34,264.71c-12.06-4.22,13.69-13.86,1.2-13.53-7.82.2-14.18,16.55-1.44,13.95Z"/><path class="cls-56" d="M261.26,110.55c.81,3,4.68,10.62,1.93,12.62-3.71,2.67-8-3.94-13.08-5.38-9.77-2.77-19.07,12.72-25.8,5.51-4.79-5.12,6.26-19.09,10.31-20.8,4.55-1.92,10.79.44,16,2.29,9.43,3.34,10.36,5.58,11.3,13.3Z"/><path class="cls-56" d="M263.43,113.94q1.31.44.24-.42Z"/><path class="cls-56" d="M263.43,113.94c-1.15-1.41,3.87,6.68,1.27,7.74-2.87,1.17-8.91-5-11.84-6.23-11.33-4.84-10.59,1.07-15.86,4.89-7.91-3.66-1.79-16.22,2.54-17.91,7.12-2.79,20.88,8.48,24.2,13.89Z"/><path class="cls-56" d="M256.06,141.85c-2.48-5-12.1-6.73-15.24-11.75-2.63-4.22-.85-8.38,1-10.86s8.32-6.51,5.08-10.6c-2.67-3.35-10.94-4.85-13.58-3.45s-4.92,8-5.85,10.6c-.66,1.85-.4,3.87-.87,5.59-.62,2.22-1.13,2.63-2.45,4.7-4.41,6.93-4.29,15.11-8.35,22.42-2.21,4-16,26.83-13.16,29.65,2.17-1.83,3.22-4.77,7.4-4.62,3.32.11,7,3.48,10.06,3.75,7.57.66,6.15-8.95,6.91-13.87,1.18-7.64,2.78-13,11-16.53,2.88-1.23,25.62-3.95,15.87-8.42Z"/><path class="cls-56" d="M207.32,185.7c2.16-.85,7.19-6.19,6.45-8.59-1.49-4.74-5,0-9-1.14.74-1.52,1.54-3.13,2.31-4.64-5.7-2.91-15,10-17.59,12.89a107.77,107.77,0,0,1-17.41,16.35c-6.8,4.88-10.65,11.53-17.88,16.12-6.26,4-15,7-22.07,10.4-14.58,6.94-27.18,14.1-45.42,16.75-8,1.16-15.72,3.47-24.27,3.53-5.93,0-23.32-6.12-22.21,1.11.46,3,4.19,4.09,5.71,6.66,1.73,2.92-.21,4.81,3.37,7.15,2-1.75,7.59-4,10.73-4.52,4.78-.77,10.57,1.66,15.31.66,5.33-1.11,7.71-4,13.68-4.53,4.23-.4,8.91-.28,12.76-1.39,4.71-1.37,7.94-4.65,12.92-5.66,6.79-1.37,7.4.7,12.66,5.28,14.46,12.56,11.77-1.36,13.05-8.84,1.62-9.48,9.37-11.81,17.84-17.08,3.7-2.31,10.07-2.55,12.53-5.42,2.64-3.07.63-7.11,5.29-9.22,9-4.1,24.68,1.92,28.27-8.78,1.23-3.65-1.87-8.25-.71-11.95,1-3.16,4.72-6.09,7.06-8.25Z"/><path class="cls-56" d="M266.14,132.49c2-2.85-.05-9.68-1.53-13.38-2.22-5.54-8.38-10-10.24-3.5-1.94,6.78,7.42,18.58,7.67,26.06.31,9.22-18.69,7.3-14.42,15.38,3,5.63,6.68,5.34,4.34,11.18a34.82,34.82,0,0,1-6.46,10.22c-2.25,2.44-4.56,4.74-9,4.47-3.6-.21-8.57-4.08-11.55-4.14-10.85-.2,5.64,9,7.43,13,2.63,5.8-5.16,15-9.93,17.55-6.35,3.47-13.73,5.69-22.66.4-4.19,3.47,2.12,6.2,2.95,10.34s-3.72,6.92-8.06,7c-3.8.08-8.26-3.23-11.8-2.86-6.13.63-1.7,5-1,9.18,1.33,8.43-8.06,11.74-15.16,14.87-5,2.18-8.51,4.27-15.37,1.39-3.49-1.46-8.67-6.15-8.68-.7-2.63-2.58-5.5-6-9.1-7.7-1.92,4.24,2.35,10.19.79,14.11-2,5-9.08.57-14.78.61-5.42.05-8.82,2.1-14.06,1.95-4-.12-4.34-1.48-7.52.27-2.19,1.21-2.72,4.52-5,5.88-5.89-3.74-6-6.58-12.62-6.24-4.1.2-9.74,2.27-11.42,4.68,17,15.15,41.11,8.86,56.33,4.33,16.82-5,34.07-8.53,49.13-16s24.72-15.35,38-24.44A109,109,0,0,0,244.2,191c3.13-5.69,9.12-8.66,12.67-14a53.85,53.85,0,0,0,7.27-17.5c2.46-10.28,8-25.08,1.23-37.31Z"/><path class="cls-56" d="M178.69,246c1-2.36,3.14-3.6,4-6-5.1-3.16-11.21-.25-17.41-3.53-8.37-4.42-5.34-6.21-6.07-11-1.24-8.16-13.86-4.32-18.81-1.6-6.56,3.6-12,9.67-19.39,12.27-7.84,2.75-17.28,5.64-26.19,6.91-4.6.66-9.47-.13-14,.73-5,.95-9.15,2.6-14.6,3.18-9.08,1-22.7-2.57-28.53,2.92,12.06,4.26,6.37,6.38,12.3,13.88,3.46-.59,7.5.82,8.32-1.44.75-2.07-2.72-6.76-2.08-9.26,8.9,0,21.34,1,30.71,4.5,10.8,4.06,17.68,9.15,28.66,8.66,12.6-.57,23.4-6.76,34.16-10.66,7.55-2.73,25.08-1.92,27.8-9.05Z"/><path class="cls-56" d="M78.67,269.6c-3.68-4-6.2-13.11-10-15.3-7.1,4.29-1.21,11-14.49,10.21,4.65,2,11,3.1,15.82,4.61,3.57,1.13,15.47,2.09,6.69-1.72Z"/><path class="cls-56" d="M57.47,262.43c1.83-2.23-.83-4.82-.07-7.19.92-2.84,5.11-3.46,8-4.35-10.42-7.47-35.13-5-39.15,2.14,6.24,1.43,12.62-3.51,19.44,1.33,4.39,3.12,1,4.69,3.46,7.27s6.32,3.13,5.58-.14Z"/><path class="cls-56" d="M38.44,263.06a8,8,0,0,0,3.07-4.29c-4.5-2.88-22-.22-22.75,3.37,3.8,2.09,17.84,2.14,21.78,1.51Z"/><path class="cls-56" d="M39.24,251.38c-4.78-.63-14.09,5.21-16.09,8.74,8.08,5.82-13.43,8-6.85-2.55,3.38-5.42,13.51-9.72,22.61-7.4a2.58,2.58,0,0,1-1.71,3.4Z"/><path class="cls-56" d="M263.25,134.76c1.31-3.29-20-12.43-21.86-8.71,4.11,2.17,9.38,2.63,13.26,5.09,4.43,2.81,5.24,6.42,4.62,10.81-.9,6.38-8.16,18.25-19.47,10.37-3.28,4.46,9.94,5.71,12.37,8.3,3.24,3.44-.68,9.39-2.56,11.84-2.57,3.37-5.65,6.49-10.75,7.31-4.4.7-15.7-4.49-16.34-.72,3.94,2.65,11.7,2.86,14.56,5.81,4,4.11-1.21,8.13-3.2,10.39-5.69,6.45-14.41,9.87-26.69,2.59.23,4.64,13.12,5.75,11.58,12.27-.88,3.71-10.2,5.47-14.87,2.43-.32,2.65,2.88,4.62,2.35,7.26-.45,2.23-4.64,3.94-6.25,5.38-4,3.58-8.36,4.9-13.08,7.63,9.35,7.9,45-22,49.54-27.9,4.93-6.47,11.38-11.5,15.86-18.31s6.24-14.71,9-22.06c3.78-10,7.95-19.3,3.09-31.89Z"/><path class="cls-57" d="M229.82,111.56c-13.19,2.55-.9,15.28-21,43.6-9.85,13.92-18.45,27.46-27.41,41,16.34,10.22,23.9-11.3,37.52-7.07,3.83-5.69,8.45-12.14,11.7-17.64,3.82-6.44,3.18-12.45,4.85-20.47,1.17-5.67,4.68-42.26-8.65-40Z"/><path class="cls-57" d="M190.83,208.08c3.62-9.82,21-29.11-3.41-19.45-12.79,5.06-17,13.82-25.86,21.45-17.72,15.29-38.45,25.16-63,32.79,15.79,1.27,33.52-3.07,48.77-3.42,5.31-.12,5.85-2.48,10.9-2.08,4,.32,8.5,3.16,12.48,3.78,8.43,1.31,15.56.48,18.84-4.94-9.52-7.61-18.16-10.33-13.28-19.55,2.82-5.3,11.7-10.31,18-12.47.38-1.23-1.16-1.68-1.46-2.71Z"/><path class="cls-57" d="M134.75,262.24c3.33-5.92-3-15.3-12.29-18.82-7.5-2.85-16.46.11-24.18.31-12.61.32-17.24,8.7-30.63,5.73.43,1-9.32-3.37-8.87-2.27-8.55,1.89-25.92,1-30.95,6.08,8.74,2.19,13.07-7.17,23.39,1C46.7,261.61,55,266.61,63.93,264c10.08-2.92,5.21-12.89,21.47-3.48,13.61,7.88,10.08,10.11,26.29,8.88,9.08-.69,20.37-.51,22.28-8.73Z"/><path class="cls-57" d="M264.82,122.41c1.58.65,2.11,6.15,1.52,7.4-3.49-1.22-3.61-6.06-5.73-8.4-3.06-3.35-4-1.53-5.91.11-5.67-4.14-11.78-10.87-16.46-5.36a31.23,31.23,0,0,0-5.4,9.16c-.77,2.12-1.34,10.8-4.88,10.24-1.65-3.61-1.47-7.44-1.3-10.8.11-2.19,1.18-4.38.31-6.72-1.72-4.58-3.41-9.26.09-12.35,4.56,3.2,4.78,1.35,8.77.9a19.79,19.79,0,0,1,12.22,2.87c2,1.32,3.59,3,5.79,4.21,1.85,1,3.62,1.2,5.38,2,3.74,1.79,4.71,5.07,6.93,8Z"/><path class="cls-57" d="M265.48,126.35c-.6-1.63-2.53-6-4.51-7.21-2.86-1.8-3.27,1-6.63-.52-2.84-1.26-4.32-4.09-7.34-5.05-3.41-1.09-4.7.74-5.87,2.51-5,7.53-3.87,18.29-6.52,26.93-.86,2.8-3.86,12.54-8.11,12.74-4.9.21-4.07-6.77-3.76-8.77,1.63-10.14,7.69-18.26,9.38-28.4.34-2,2.46-5.41.28-7.27-2-1.68-5.25-1.37-5.2-4.69.07-4.91,12.32-1.37,16.84.39,7.22,2.8,25.69,10.56,22.7,17.82Z"/><path class="cls-57" d="M253.76,117.47c-2.24-2-7.95-6.21-11.13-6.85-2.53-.5-3.21.69-5.07,1.11-1.2.28-2.6-.12-3.81.11-1.69.33-3.54,3.84-5.06,3.24s-3.65-5.46-3.61-6.66c.16-4.87,16.12-5.41,21.24-2.44,3.49,2,2.45,4.61,4.91,6.55,1.62,1.28,3.64.88,5.71,1.38,5.89,1.41,10.16,6.94,7.14,10.57Z"/><path class="cls-58" d="M267.07,130.8a7.61,7.61,0,0,0-1.23-7.79c-2.42,4.51.69,13.38-.83,18.77-1.46,5.2-.46,14-8.89,14.41,7.63,7.65-5,22.33-8.4,28.45a104.62,104.62,0,0,1-9,13.26c-2.85,3.69-5,10.38-10.28,11.82,7-4.52,9.55-11,14.27-17.23a158,158,0,0,0,12.58-18.58c7.11-12.78,16.11-29,11.7-45.91Z"/><path class="cls-58" d="M221.88,219.27c1.34-1.39,1.21-.54,0-2.43-3.45,2.34-9.26,1.48-11.48,4.16-.74.89.05,4-.43,5.25-.8,2.06-2.25,3.06-3.91,4.47-3.19,2.71-8,3.54-11.68,5.73-3.19,1.88-5.3,4.88-7.78,7.27,13.55-4.12,28.95-13.13,34.37-24.13Z"/><path class="cls-58" d="M263.42,127.14c1.19-7.79-19.6-8.6-18.41-4.65.87,2.91,27.07,10.28,8.28,9.59,1.14,3,5.31,3.58,5.48,6.7.19,3.43-4,2-6.86,2.85-5.32,1.57-2.22,3.13-3,6.2s-1.86,4.67-2.14,7.58c-2.58-1.59-5.52-2.65-7.83-2,3.22,4.82,14.45,7,7.88,12-2.49,1.89-6.56.16-9,1.54-3.78,2.1,1,3.65,0,6.71-1.71,5.15-13.31-3.51-16,.63-.91,1.39,5.42,12.77,7,15.39-4.27.6-8.73-4.87-12.56-4.26-5.77.91,5,5.27,3.67,8.13-2.89-.8-6.54-1.46-8.46-1.22-3.59-1.06-7.15-1.23-10.6-3.51.1,1.26-.24,4.67.69,6.24,1.59,2.68,3.94,3,5.7,5.44,5.56,7.57-2.34,3.11-7.2,4.17-4.47,1-3.21,5.68-6.77,8.14a23.54,23.54,0,0,1-10.46,4.07c3.32,4.28-.58,6.46-3.36,8.51-.92.67-5.15-.65-4.54,1.37.77,2.53,5.38,2.75,7.09,2.76a71.27,71.27,0,0,0,12-2.28c3.88-1.51,2.79-5.7.67-9.83,11.25,2.57,4.53-4.9,10.42-7.24,4.65-1.83,11.66,2.83,12-3.69,9.5,3.53.56-4.4-1.07-6.82,1.73-2.51,6-.55,9.37-.7,8-.37,2.51-1.74,3.65-5.84.88-3.13,6.25-3,5.66-7.24-.78-5.64-4.89-4.09.63-6.26,2.63-1,8.62-.42,10.52-2.1,2.74-2.43-1.55-6.36-.45-9.47,1.41-3.95,12.13-5.7,2.12-13.4,1.6-4.15,12.79-5.78,7.78-12.61,5.66,2.12,11,0,9.82-5.08-.51-2.11-2.51-3.57-2.87-6.11s1.79-4.18-.94-7.12Z"/><path class="cls-58" d="M175.33,244.76c-2.69-1.64-6-1.45-9.19-4.33-2.75-2.5-1.91-5-6.41-6.86-3.09,3.63,6.16,8.31,2.91,11.88-7.78-4.59-8,.78-15.46-3.86a6.48,6.48,0,0,0-3.15,5.26c-3.52-2.11-10-5.69-12.48-3.52,3,1.76,9.53,3.9,11.34,6.12,1.54,1.9,2.17,8.83,2.14,10.61,8,4.37,3.5-21.1,15.78-8.44.54-2,2-2.41,4.55-.83,1.07-3.79.55-3.24,4.45-4.51,2.64-.85,5.7.15,6.72-2.44a6.36,6.36,0,0,0-6-.62Z"/><path class="cls-58" d="M34.07,260.67c-.88-7.33-8-9.16-10.19-2.34-4.85-2.95-5.77,2.49-.23,4,3.8,1,4.8-4.05,8.08.89a8.07,8.07,0,0,0,1.49-2.42Z"/><path class="cls-58" d="M115.8,261.25c-7.25-6.19-8.89-1-14.83.05-4.56.82-11.51.68-16.64,1.07-4.89.37-10.45-1.49-15-1.27-1.44.07-.77,1.79-2.21,1.82s-2.33-.82-3.61-.89c-2.34-.14-4.84-1.52-7.34-1.22,3.42,2.94,12,5.1,16.21,5.39,7.23.51,7.69-1.2,15.1,1.75,5.32,2.13,8.13,2.87,12.72.77,4.4-2,4.85-4.56,11.5-.4,1.08-1.6,2.27-4,3.27-4.19Z"/><path class="cls-59" d="M258.14,125.92c-2.17-7.62-15.7-5-20.15-2.93,3.15,6.8,16.89,3.66,17.53,11.81-.94-.11-2.71.25-3.63.16,5.78,9.35,2.59,6.19-5.33,8.29-9.47,2.51-1,7.42-4.51,9.86,1.22.78,2.93,3.07,3.89,3.77-2.38-.46-4.56.26-6.92-.16.7,1.36.24,2.85,1.52,4.51-3.18,1.39-8.07-.08-11.86,0,1.46,3.93,6,6.11,7.64,10.06-1.31-.27-3.26.42-4.47.3,1,1.25,1.14,3.13,1.77,4.08-7-1.11-4.62,4.34-3.47,8.24-2.15-.71-9.68-1.21-10.68.32-2.12,3.26,4.41,5.62,2.18,9-7.4.74-10.09,2.5-19.58-3.12-3.12,4.09,6,6.4,10.13,8.47-1.23,3.06-5.25,1.46-8.79-1.13-1.72,3.16.35,5.1-1.25,7.85-1.31,2.24-7.17-1-5.13,4.56-1.74,1-1.48.31-3,2.05-6.47-4.07-4.76.09-6.32,2.38-.47.68,1.3,2.84.78,3.5-.89,1.13-4.29.72-4.32.76-2.16,3.12-3.91.82-.65,6.64a48.56,48.56,0,0,0,5.33,6.81c3.66,1.33,6.53.37,8.08-1.51a29.8,29.8,0,0,0-5-6.59c3.58-.85,9.94,2.11,11.81,0,2.39-2.66-1.94-7.37-5.33-9.63,4.09-4.39,6.45-4.79,13.64-5.84,4.54-.66,11.48-.82,5.23-6.63,1.58-2.42,4.52-1.39,6.58-2.88,2.65-1.91,2.2-2.8,3.55-5.57,1.89-3.84,7.74-5.71,9.14-11,.7-2.66-2.44-4.55-1.69-6.78.54-1.64,5.58-4,7.25-4.68,5-2,13.69-1.76,5.92-9.44,1.23,0,2.72-.79,3.95-.8-12.49-11.49,15.12-13.81,5.37-25.67,8.6-1.31,3.75-6-.22-11.13Z"/><path class="cls-59" d="M256.07,121.85c.57.75,1.62.37,1.35,1.31-4.51-2.15-29.57-14.49-23.54-1.82,1.73,3.61,10.52,4.53,11.6,8.46,1.17,4.24-7.58,2.56-4.91,8-2.17.42-3.19,2.18-4.63,3.08,9.93,4.47,5.27,4.2,3.57,7.39-.78,1.47-3.78.21-3.45,3.26.23,2.26,4.32,3.58,4.84,5.41,1.53,5.36-3.55,2-8.24,5-4.22,2.78-1.14,8.06-.34,12.14-14-6-9,5-10.81,9.44-3.7,8.92-10.59,4.74-20.67,3-4.43,4.53,4.29,5.57,5.52,9.3,1.63,4.87-4.39,4.18-4,8.9-7.14-4.06-13.09,7.55-13.44,12.44-6.12-1.87-12-2.71-13.25,2.33-4.62-1.24-8.1,6.37-10.41,9-.75.09-1.14-.48-2-.29,2.45,11.48,13.83.85,16.11-1.42,4.27-4.23,9.82-7,14-11.46,3.53-3.85,6.27-7.77,9.91-11.48,3.86-3.92,11.46-7,6.5-13.88,13.19,1.44,11.56-6.59,16.38-11.79,1-1.09,4.55.33,5.72-1.29.78-1.07-2.38-4.53-1.92-5.59,1.65-3.85,8.07-3.69,9.55-7.85,1.62-4.55-2-8.77,0-13.24.45-1,3.64-2.32,4.31-3.67a34.89,34.89,0,0,0,.68-6.08c-.23-3.87-1.81-8.19-1.26-11.51.37-2.28,2.47-2.25,2.89-4.48.45-2.49-2.46-4.36-.5-6.76,3.54,1.76,7.12,3.82,10.66,5.59a5.32,5.32,0,0,0,1.45-2.67,1.36,1.36,0,0,0-1.79-.34Z"/><path class="cls-59" d="M227.84,213.6a24.67,24.67,0,0,0,3-5.66c-3.87,0-12.3,8.75-12.18,12.23-5.72-1.82-8.84-3.2-8.29,1.49.76,6.47,4.95,6.79,6.45,3.18,2.31-5.57,11.34-9.8,11.47-13.94Z"/><path class="cls-59" d="M170.5,244.68c4.41-5.49-1.22-11.05-7-5.37-3.57-1.3-5.89-4.23-8-6.36-2.17,4.55.13,11.33-9.59,10.68-3.09-.2-8.58-6.35-9.5-1.55-.28,1.47,5.32,6.67,6.2,7.79-1.73-1.29-4.69-2.15-6.56-3.32a6.69,6.69,0,0,0-1.42,1.94c-1.32-.61-2.68-1.31-4-2,0,0-1.07,1.56-.85,1.53,2.41,1.42,8.39,8.18,10.21,8.66,4.59,1.23,7.46-2.61,4.85-6.2,2.49-.65,4-2.93,4.92-5.28,2.81,1.53,5.63,2.28,8.46,3.67,1.2-1.56.64-9.19,2.39-9.46,3.5-.52,6,4.17,6.79,6.39,3-.66,2.3-2.15,1.52-4.2Z"/><path class="cls-59" d="M169.25,241.07c7.82,8.27-1.72,11.08-9.24,7.28-2.55-1.28-3-4.22-7.49-6-1.18-.46-10.81,1.57-8.26-3.2,2.13-3.95,6.58,1.72,9-.25,3.16-2.6-5.3-7.89,3.61-6.68,6.68.9,20.38,12.72,13.76,16.17Z"/><path class="cls-59" d="M135.33,259.25c2.93-3.69-2.19-3.63-5.09-6.45-3.29-3.21-5.26-4.79-8-8.71-1.81,3.23,9.37,13.32-.82,11.08,3.63,2,6.63,2.65,10.38,4.23a4.52,4.52,0,0,1,1.85-1.06Z"/><path class="cls-59" d="M101,262.53a5.87,5.87,0,0,0-1.1-5.82c-4.37,1-6.33,6-12.64,3.59-3,4.23-11.65-1-15.92,1.34,12,2.87,20.09,8.06,27.06,1.68Z"/><path class="cls-59" d="M40.7,261.91c1.44-2.4.79-5.33-2.06-7.64-1.56,2.63-6.42,3.56-9.92,3.89-2.63.24-3.16-1.82-6-.9-1.78.58-2.94,2.42-4,3.5,8.09,9.09,17.76,3.09,22.91-.54Z"/><path class="cls-59" d="M49.43,263.74a9.36,9.36,0,0,1-4-4.42Z"/><path class="cls-59" d="M49.43,263.74c1.67-2.73.31-7.55-5-8.61-4.07-.82-3.11,1.73-5.93,2.48-3.15.84-8.75.61-11,2.86,5.05,4,25,3.41,22.93-.57Z"/><path class="cls-59" d="M34.46,261.44c6.79-9.84-5.93-12.62-10.94-5.35,4.95,3.31,12.73,4.37,15.42,1.18Z"/><path class="cls-59" d="M31.54,262.78c4.07-.6,7.53-8.73-.31-6.78-5,1.25-3.83,7.11-9.82,7.72,4.88,1.61,12.33-.51,13.16-4.43Z"/><path class="cls-60" d="M263.89,123c-4.95-6-2.67-5.94-8.23-4.26-1.28-6.2-21-12.89-24.16-8.53-3.93-2.7-5.69-3.25-4-5.8A21.94,21.94,0,0,1,234,99c5-2.55,7.08-5,9.29-9.79,4.28-9.33,5.68-20.37,9.28-30.17s12.75-16.66,17.82-25.87c2.73-4.95,6.75-8.45,10.13-12.82,3.23-4.17,6.08-8.82,8.89-13.13,2.06-3.14,6.46-9.56,14.29-3.95,4,2.83,1.94,6.07-.48,7.09-3.09,1.3-4.69.23-6.79,2.9-3.3,4.2-7.05,8.07-10.34,12.33s-4.82,9.06-8.35,13.06c-1.76,2-4.15,2.92-5.38,5.5-1.11,2.34-1.67,4.68-2.72,7-2.24,4.88-4.73,9.16-6.19,14.24a107.23,107.23,0,0,0-3.73,31.36,27.59,27.59,0,0,0,4.23,14.16c2.19,3.45,3.62,14,3.78,17.36-.32.1-2.49-1.6-2.87-1.79-.42-.43-.59-3-.95-3.4Z"/><path class="cls-61" d="M304.56,4.28c2.3,5.65-5.08,2.35-8.61,3s-6.94,3.94-8.69,6.24c-4.8,6.3-9.74,12.07-14.83,17.78-2.74,3.08-2.87,7.07-5.1,10.43s-5.25,5.63-7,9.4c-3.24,7.13-6,14-9.93,21a63.28,63.28,0,0,0-7,19.18c-1.38,7-7.73,8.83-12.26,13.71-.26-.19-1.48-.83-1.79-1,4-6,12.57-7.89,15.51-15.67,2.78-7.38,2.35-15.17,6.37-22.39,8-14.32,16.79-27.05,24.56-41.09,3.44-6.23,9.23-9.8,13.45-15.23,1.6-2.07,2.4-7.57,5.16-8.62,2.94-1.13,12.47,1.75,10.75,5.2Z"/><path class="cls-61" d="M256,118.13c9.06-6-7.53-23.23-3.74-32.14-3.3,4.81-1,10,.79,16.08,1,3.42.74,13.74,4.32,15.16Z"/><path class="cls-61" d="M243.86,110.41c.71-4,9.06-17.19,5.54-20.57-2.79,4.09-5.4,16.68-10.73,17.63a20.18,20.18,0,0,0,5.42,2.52Z"/><path class="cls-61" d="M241.64,109.76c-4.83-1.83-18.39,1.62-11.51-5.73,2-2.13,4.73-1.52,7.62-2.44,3.43-1.1,4.52-3.26,7.32-4.66-.41,4.33,1,10.28-3.86,12Z"/><path class="cls-61" d="M262.19,111.62c1.48-4.61-4.34-14.06-4.77-19.48-2.67,3.52-2.05,8.48-1.78,13,.38,6.42,1,8.7,8.6,13.43.9-2.49-2.31-9.08-3.48-12.15Z"/><path class="cls-61" d="M256.89,82.3c1.92,0,7.16-19.11,8.64-21.78-4.61,8.3-7.14,15.51-7.75,24.82,2-.87,2.11-3,1.18-5.22Z"/><path class="cls-61" d="M254.82,84.47c-1-4.44,3.39-7.53,1.55-11.77-2.74,2.71-6.54,12-3.35,16.24,1.4-1.44,1.58-3.35.71-5.62Z"/><path class="cls-61" d="M304.27,6.33c-.1-.75.23.81.11,1.2C302,7,293.28,2.32,294.54.43,295.62-1.2,304.1,2.28,306,3a5.79,5.79,0,0,1-1.81,3.26,22.55,22.55,0,0,1-3.92-2.06Z"/><path class="cls-61" d="M303.7,2.71c-1.27,1.65-9,7.26-13.41,4.16.46-3.36,9.4-6.41,13.94-3.79-.07.51-.49.78-.58,1.26Z"/><path class="cls-61" d="M278.13,39.39c1.32-2.37,2.76-4.74,3.86-7.2-6.35-.77-10.74,8.89-12.92,12.56,3.4-2.2,8.28-7.58,9.65-11.09Z"/><path class="cls-61" d="M257.42,70.47c.18-3.44,7.49-9.58,3.09-13.09-3.15,4.64-5.45,10.76-5.11,16.78,1.25-2.4,3-4.65,3.23-7.43Z"/><path class="cls-61" d="M256.92,116.45a7.34,7.34,0,0,0-2.38-7.84c-2.22,1.59-6.5,1.3-9.46,1.28,3.54,2.1,8,4,10.83,6.5.45-.32.53-.73.82-1.15Z"/><path class="cls-61" d="M266.35,119.67c-.84-2.19.06-5.49-2.77-7.21a8.81,8.81,0,0,1-3.63,3.35c3.05,1.92,4.35,10.54,7.44,10.75Z"/><path class="cls-61" d="M238.51,109.15c3.85,1.76,5.77,0,4.17-2.75-3-.1-8.79.3-10.94,1.16,3.35,1.91,7.79,2.53,10.37,1.35Z"/><path class="cls-61" d="M259.92,117.26c.51,1.7-2.45,2.2-4.43,1.11,0-3.85-4-3.78-5.65-6.34,7.54.9,4.06-9.5,3.28-13.62-1-5.1-2.9-13,.57-16.4-.64,4.95.51,10.95.78,16.31.15,3.16.72,6.41.75,9.5a9.42,9.42,0,0,0,4,8.27c-.12.74-.6.86-.84.87Z"/><path class="cls-61" d="M263.66,117.69c1.17-1.93-3.35-5.8-4.58-8.07-1.33-2.43-1.26-6.64-3.36-8.61-3.86,3.78,6.42,11.59,4.34,15.5,2.15.7,4,.67,5.78,2.6a5,5,0,0,0-2.59-3Z"/><path class="cls-61" d="M246.64,110.84c-4.69-1.84-4.46-2.11-2.89-4.89,1.21-2.14,1.1-5,1.6-7.38.82-4,.2-10.73,3.23-13.62,2.67,2.52-.14,9.8-.79,12.21-1.19,4.46-.22,8.38,0,13.13a8.82,8.82,0,0,1-3.08-1.35Z"/><path class="cls-61" d="M245.39,107.67c-2.74.16-7.34-1.25-10.46-.42-1,.27-2.07,2-3.68,1-1.79-1.1-.38-2.51.48-3,1.25-.7,2.81.06,4.28-.28a7.69,7.69,0,0,0,3.37-2.2c1.87-1.79,3-4,4.43-6.09,1.6,2.65,2.62,8.46,1,10.44Z"/><path class="cls-61" d="M254.86,109.27c2.63-3.45-.13-13-1.86-17.51-2.38,2.63-1,7.65-1,11.2,0,3.13-2,5.61-2.27,8.69,2.15.69,3.76.41,5.68,2,1.83-2-.55-5.82-.1-8.26Z"/><path class="cls-61" d="M264.88,116.11c-.92-.42-3.93-1.38-5.58-2.26,1.07-3,.07-5.89-.12-9.28,1.65,3.81,4.11,7.76,5.7,11.54Z"/><path class="cls-61" d="M253.42,95.54c-.23-5.35.71-10.47,1.27-15.33.52-4.49,3.13-8.17,3.86-12.61a33.9,33.9,0,0,0-4,12.66,53,53,0,0,0-.54,7.41c0,1.21.15,6-.41,5.21Z"/><path class="cls-61" d="M256.72,88.81c1-1.75.43-4.32.92-6.31.4-1.63,1.58-3.23,1.4-4.85-1.79.81-4.6,11.64-2.6,13.21Z"/><path class="cls-61" d="M251.52,81.84c-.52-4.94,3.94-8.74,3.08-13.36C253.31,71,253,73.74,252,76.33c-.68,1.86-2.34,3.43-1.5,5.79Z"/><path class="cls-61" d="M262.4,59.15c1.08-3.6,3.38-6.86,5.21-10.16,1.35-2.41,4.16-5.25,3.68-8.35-3.28.79-4.21,7-5.61,9.5s-2.9,4.79-3.36,7.6Z"/><path class="cls-61" d="M285.29,26.52C281.6,21.58,293,18,292.47,13.4c-2.6.23-4.53,5.55-5.7,7.33s-2.63,3.24-3.71,5.12Z"/><path class="cls-61" d="M273.94,36.83c1.21-2.89,3.94-4.94,5.13-7.85-2.52,1-5.58,6.74-5.51,9.3Z"/><path class="cls-61" d="M302.23,3c2.37-.26,5.33,5.19,0,3.05-1.6-.64-2-1.59-3.82-1.88-1.29-.22-2.66.5-4,.4-1.28-2,.67-2.81,2.59-2.95,2.59-.2,4,.62,6.32,2.32,0,.33,0,.69-.06,1Z"/><path class="cls-61" d="M303.85,5.54c-.11-3-2.67-3.79-4.85-2.92-1.51.59-2.42,2.32-4.77,2.34-7.3,0,7.65-6.67,7.74-.71Z"/><path class="cls-61" d="M300.47,10.85c.84-.73.9-1.85-.56-2.74-1.83,1.13-1.73,3.82-3.63,4.76,1.46-.81,3.48-1.48,4.21-2.83Z"/><path class="cls-61" d="M292.19,10.19C293.81,9,297.35,5.73,296,3.41c-3.65-.2-4.7,3.8-6.21,5.73-1.79,2.28-3.26,4.93-5.15,7.07,3.23-.25,12.5-7.62,8.27-11.15Z"/><path class="cls-61" d="M260.05,85.67c-5.71.69,3.74,19.32.75,22.67-2.65-1.19-4.24-3.46-7.1-3.91-1.34-.21-6,.56-3.84-2-2.48-1.22-4.54.12-7.59-1.48,1-1.92,4.2-2.89,6.7-3.39,3.52-.71,5-.51,5.54-3.94.48-2.93,1.94-5.37,2.39-8.31.39-2.48-.12-5.18,2.19-6.75,3.22,2.6.88,8.48,1.07,11.28Z"/><path class="cls-61" d="M264.45,110.65c.39-2.54-4-5.49-6.55-5.23-1,.11-2.09,1.89-3.71,1-.61-.32-1.39-2.46-1.93-3-1.86,1.75-1.79,2.14-5.33,1.44-.12-.37-.49-.89-.57-1.16-.44.24-1.25.19-1.7.73-.3-.25-.73-.46-1-.75-1.91,1.38-2.22,1.44-4.87.5.52-.87.85-2.5,2.18-2.63s2.92,1.35,4.51,1.44c1.32.07,2.25-1.36,3.7-1.23,1.88.19,2.69,1.07,4.41,2,1.2-2,1-2.53,3.79-.9a15.73,15.73,0,0,1,4.81,4.54Z"/><path class="cls-62" d="M232.51,109.17c-4.5-1.93-2.85-2.66-2.07-5.14-1.72-.29-3.77,1.74-2.82,3.35.81,1.35,6.34,4.12,4.76,1.54Z"/><path class="cls-62" d="M267,126.14c-.94-.08-4.74-10-7.6-11.09-1,.87,3.1,5.67,4.11,7,.91,1.2,1.45,2.42,2.22,3.54.26.38.11,1.74,1.17,1.21.69-.34.26-1.33-.34-1.85Z"/><path class="cls-62" d="M258.36,117.23c-1.25,2.08-2.34-.07-3.54-1.43-1.46-1.66-4-2.68-5.81-4.07.15-2.32,1.17-4-.11-6.62-1.05,1.54-.47,4.2-3,4.45-1.86.19-6.06-2-7.06-1,1.18.73,3.35.83,4.69,1.35,1.74.68,3.33,1.67,5,2.53A22.25,22.25,0,0,1,256,118c.52.13.53-.08.74-.35Z"/><path class="cls-62" d="M303.65,6c2.09-.27,1.8,3.89-.82,3.92-2,0-6.37.27-8.45-.9-4.9-2.76,3.13-1.27,4.47-1.19,1.56.1,5.36.09,5.13-1.46Z"/><path class="cls-62" d="M286.93,20c.63-.92,1.67-1.66,2-2.73-1.74-.52-4.79,3.84-5.45,5-1.3,2.35-3.92,5.15-3.45,8,2.53-3.53,3.81-8,7.21-10.91Z"/><path class="cls-62" d="M273.91,35.63a3.43,3.43,0,0,0,.78-2.5c-1.36.22-2.09,2.89-2.81,3.81a34.32,34.32,0,0,0-3.23,4.26c-1.52,2.75-3.92,5.94-3.54,9.42,1.57-.34,2-3,2.56-4.27s1.67-2.49,2.41-3.82c.89-1.63,5.32-5.56,4.22-7.61Z"/><path class="cls-62" d="M259.71,70.45a1.85,1.85,0,0,0-.7-2.56c-1.56,1.82-1.33,4.75-2.5,6.86A10.84,10.84,0,0,0,255,80.33c-.07,4.1-1.38,7.75-.44,12.17,2.16-3.2,1.06-9.18,1.59-13a27.59,27.59,0,0,1,3.66-10.1Z"/><path class="cls-62" d="M251.92,82.52c1-2.08,1-4.91,2.14-6.89-3.84,1.3-4.13,9.35-2.83,12.92,1-1.1.9-2.74,1-4.19.1-1.13.86-2.51.61-3.53Z"/><path class="cls-62" d="M254.31,112.82c.85-2.18.7-12.11-2.32-14.27-1.1,1.66.47,5.36.72,7.52.15,1.38-.17,5.31,1.53,6.31a2.41,2.41,0,0,0,.67-1.62Z"/><path class="cls-62" d="M263.49,111.41c.15-1.28-1.39-2.64-2.14-3.93s-1-2.74-1.76-4.06c-.88,1.5,2.54,7.11,4.17,8.84.8-.21.83-.86.12-1.56Z"/><path class="cls-62" d="M244.64,100c1.75-1.54,5-5.3,3-8.27-2.46,1.66-1.49,5.61-4.53,7.06-1,.48-2.57.52-3.49,1a10.67,10.67,0,0,0-2.34,2.36c3.23.23,8.55-2,9.42-4.37Z"/><path class="cls-62" d="M258.78,70.67c1.44-1,1.2-2.64,1.34-4.27s1-3.14.5-4.8c-1.09,1.52-1.36,3.88-1.82,5.73-.23.91-1.64,3-.86,3.78.48-1,1.31-1.69,1.8-2.67Z"/><g class="cls-63"><path class="cls-64" d="M267.07,130.8a7.61,7.61,0,0,0-1.23-7.79c-2.42,4.51.69,13.38-.83,18.77-1.46,5.2-.46,14-8.89,14.41,7.63,7.65-5,22.33-8.4,28.45a104.62,104.62,0,0,1-9,13.26c-2.85,3.69-5,10.38-10.28,11.82,7-4.52,9.55-11,14.27-17.23a158,158,0,0,0,12.58-18.58c7.11-12.78,16.11-29,11.7-45.91Z"/><path class="cls-64" d="M221.88,219.27c1.34-1.39,1.21-.54,0-2.43-3.45,2.34-9.26,1.48-11.48,4.16-.74.89.05,4-.43,5.25-.8,2.06-2.25,3.06-3.91,4.47-3.19,2.71-8,3.54-11.68,5.73-3.19,1.88-5.3,4.88-7.78,7.27,13.55-4.12,28.95-13.13,34.37-24.13Z"/><path class="cls-64" d="M263.42,127.14c1.19-7.79-19.6-8.6-18.41-4.65.87,2.91,27.07,10.28,8.28,9.59,1.14,3,5.31,3.58,5.48,6.7.19,3.43-4,2-6.86,2.85-5.32,1.57-2.22,3.13-3,6.2s-1.86,4.67-2.14,7.58c-2.58-1.59-5.52-2.65-7.83-2,3.22,4.82,14.45,7,7.88,12-2.49,1.89-6.56.16-9,1.54-3.78,2.1,1,3.65,0,6.71-1.71,5.15-13.31-3.51-16,.63-.91,1.39,5.42,12.77,7,15.39-4.27.6-8.73-4.87-12.56-4.26-5.77.91,5,5.27,3.67,8.13-2.89-.8-6.54-1.46-8.46-1.22-3.59-1.06-7.15-1.23-10.6-3.51.1,1.26-.24,4.67.69,6.24,1.59,2.68,3.94,3,5.7,5.44,5.56,7.57-2.34,3.11-7.2,4.17-4.47,1-3.21,5.68-6.77,8.14a23.54,23.54,0,0,1-10.46,4.07c3.32,4.28-.58,6.46-3.36,8.51-.92.67-5.15-.65-4.54,1.37.77,2.53,5.38,2.75,7.09,2.76a71.27,71.27,0,0,0,12-2.28c3.88-1.51,2.79-5.7.67-9.83,11.25,2.57,4.53-4.9,10.42-7.24,4.65-1.83,11.66,2.83,12-3.69,9.5,3.53.56-4.4-1.07-6.82,1.73-2.51,6-.55,9.37-.7,8-.37,2.51-1.74,3.65-5.84.88-3.13,6.25-3,5.66-7.24-.78-5.64-4.89-4.09.63-6.26,2.63-1,8.62-.42,10.52-2.1,2.74-2.43-1.55-6.36-.45-9.47,1.41-3.95,12.13-5.7,2.12-13.4,1.6-4.15,12.79-5.78,7.78-12.61,5.66,2.12,11,0,9.82-5.08-.51-2.11-2.51-3.57-2.87-6.11s1.79-4.18-.94-7.12Z"/><path class="cls-64" d="M175.33,244.76c-2.69-1.64-6-1.45-9.19-4.33-2.75-2.5-1.91-5-6.41-6.86-3.09,3.63,6.16,8.31,2.91,11.88-7.78-4.59-8,.78-15.46-3.86a6.48,6.48,0,0,0-3.15,5.26c-3.52-2.11-10-5.69-12.48-3.52,3,1.76,9.53,3.9,11.34,6.12,1.54,1.9,2.17,8.83,2.14,10.61,8,4.37,3.5-21.1,15.78-8.44.54-2,2-2.41,4.55-.83,1.07-3.79.55-3.24,4.45-4.51,2.64-.85,5.7.15,6.72-2.44a6.36,6.36,0,0,0-6-.62Z"/><path class="cls-64" d="M34.07,260.67c-.88-7.33-8-9.16-10.19-2.34-4.85-2.95-5.77,2.49-.23,4,3.8,1,4.8-4.05,8.08.89a8.07,8.07,0,0,0,1.49-2.42Z"/><path class="cls-64" d="M115.8,261.25c-7.25-6.19-8.89-1-14.83.05-4.56.82-11.51.68-16.64,1.07-4.89.37-10.45-1.49-15-1.27-1.44.07-.77,1.79-2.21,1.82s-2.33-.82-3.61-.89c-2.34-.14-4.84-1.52-7.34-1.22,3.42,2.94,12,5.1,16.21,5.39,7.23.51,7.69-1.2,15.1,1.75,5.32,2.13,8.13,2.87,12.72.77,4.4-2,4.85-4.56,11.5-.4,1.08-1.6,2.27-4,3.27-4.19Z"/><path class="cls-65" d="M232.51,109.17c-4.5-1.93-2.85-2.66-2.07-5.14-1.72-.29-3.77,1.74-2.82,3.35.81,1.35,6.34,4.12,4.76,1.54Z"/><path class="cls-62" d="M267,126.14c-.94-.08-4.74-10-7.6-11.09-1,.87,3.1,5.67,4.11,7,.91,1.2,1.45,2.42,2.22,3.54.26.38.11,1.74,1.17,1.21.69-.34.26-1.33-.34-1.85Z"/><path class="cls-62" d="M258.36,117.23c-1.25,2.08-2.34-.07-3.54-1.43-1.46-1.66-4-2.68-5.81-4.07.15-2.32,1.17-4-.11-6.62-1.05,1.54-.47,4.2-3,4.45-1.86.19-6.06-2-7.06-1,1.18.73,3.35.83,4.69,1.35,1.74.68,3.33,1.67,5,2.53A22.25,22.25,0,0,1,256,118c.52.13.53-.08.74-.35Z"/><path class="cls-62" d="M303.65,6c2.09-.27,1.8,3.89-.82,3.92-2,0-6.37.27-8.45-.9-4.9-2.76,3.13-1.27,4.47-1.19,1.56.1,5.36.09,5.13-1.46Z"/><path class="cls-62" d="M286.93,20c.63-.92,1.67-1.66,2-2.73-1.74-.52-4.79,3.84-5.45,5-1.3,2.35-3.92,5.15-3.45,8,2.53-3.53,3.81-8,7.21-10.91Z"/><path class="cls-62" d="M273.91,35.63a3.43,3.43,0,0,0,.78-2.5c-1.36.22-2.09,2.89-2.81,3.81a34.32,34.32,0,0,0-3.23,4.26c-1.52,2.75-3.92,5.94-3.54,9.42,1.57-.34,2-3,2.56-4.27s1.67-2.49,2.41-3.82c.89-1.63,5.32-5.56,4.22-7.61Z"/><path class="cls-62" d="M259.71,70.45a1.85,1.85,0,0,0-.7-2.56c-1.56,1.82-1.33,4.75-2.5,6.86A10.84,10.84,0,0,0,255,80.33c-.07,4.1-1.38,7.75-.44,12.17,2.16-3.2,1.06-9.18,1.59-13a27.59,27.59,0,0,1,3.66-10.1Z"/><path class="cls-62" d="M251.92,82.52c1-2.08,1-4.91,2.14-6.89-3.84,1.3-4.13,9.35-2.83,12.92,1-1.1.9-2.74,1-4.19.1-1.13.86-2.51.61-3.53Z"/><path class="cls-62" d="M254.31,112.82c.85-2.18.7-12.11-2.32-14.27-1.1,1.66.47,5.36.72,7.52.15,1.38-.17,5.31,1.53,6.31a2.41,2.41,0,0,0,.67-1.62Z"/><path class="cls-62" d="M263.49,111.41c.15-1.28-1.39-2.64-2.14-3.93s-1-2.74-1.76-4.06c-.88,1.5,2.54,7.11,4.17,8.84.8-.21.83-.86.12-1.56Z"/><path class="cls-62" d="M244.64,100c1.75-1.54,5-5.3,3-8.27-2.46,1.66-1.49,5.61-4.53,7.06-1,.48-2.57.52-3.49,1a10.67,10.67,0,0,0-2.34,2.36c3.23.23,8.55-2,9.42-4.37Z"/><path class="cls-62" d="M258.78,70.67c1.44-1,1.2-2.64,1.34-4.27s1-3.14.5-4.8c-1.09,1.52-1.36,3.88-1.82,5.73-.23.91-1.64,3-.86,3.78.48-1,1.31-1.69,1.8-2.67Z"/></g></g></g></g></svg>