<svg xmlns="http://www.w3.org/2000/svg" viewBox="0 0 139.95 147.63"><defs><style>.cls-1{isolation:isolate;}.cls-2{fill:#e0932d;}.cls-3{fill:#f19109;}.cls-4{fill:#c33609;}.cls-4,.cls-5{opacity:0.5;}.cls-5{fill:#8e2102;}.cls-6{mix-blend-mode:soft-light;}.cls-7{fill:#f8b010;}.cls-8{fill:#f2ecdc;}.cls-9{fill:#faf7f1;}.cls-10{fill:#bcc0be;}.cls-11{fill:#606060;}.cls-12{fill:#5f4003;}.cls-13{fill:#632102;}.cls-14{fill:#ffb300;}.cls-15{fill:#ff7500;}.cls-16{fill:#5caf14;}.cls-17{fill:#418a00;}.cls-18{fill:#ed1865;}</style></defs><g class="cls-1"><g id="Layer_2" data-name="Layer 2"><g id="OBJECTS"><path class="cls-2" d="M96.81,6.12c1,1,2,2.1,2.93,3.19A16.65,16.65,0,0,0,96.81,6.12Z"/><path class="cls-2" d="M3.94,55.94q-.33-1.74-.6-3.48A16.78,16.78,0,0,0,3.94,55.94Z"/><path class="cls-3" d="M99.74,9.31A15.16,15.16,0,0,1,101,11.44c7,14.3-8.79,36.45-35.31,49.48S12,72.91,5,58.61a16,16,0,0,1-1-2.67,106.48,106.48,0,0,0,9.25,27.47C44.3,145.85,71.33,143.85,99.6,130s47.7-33.13,16-96.84A110.89,110.89,0,0,0,99.74,9.31Z"/><path class="cls-4" d="M42.55,68.79C24.87,72.16,9.91,68.69,5,58.61a16,16,0,0,1-1-2.67,106.48,106.48,0,0,0,9.25,27.47c25.56,51.31,48.37,59.1,71.37,52.55C63.91,133.37,40.58,89.26,42.55,68.79Z"/><path class="cls-5" d="M74.4,137.83c-27.34,1.86-54.32-49.49-53.84-68.71C13.21,67.56,7.63,64,5,58.61a16,16,0,0,1-1-2.67,106.48,106.48,0,0,0,9.25,27.47C35,127.16,54.78,139.27,74.4,137.83Z"/><g class="cls-6"><path class="cls-7" d="M46.14,128.77c1,.76,2,1.47,3,2.12,24.16,8.39,77.52-19.07,82.74-47a74,74,0,0,0-1.21-9.76c-6.26,4-19,27.61-64.27,36.47,43.84-16,57.15-37.76,62.42-44.38q-.2-.76-.42-1.53c-23,27.09-61,47.22-101.65,42.26a118.85,118.85,0,0,0,8.59,11.37c19.39,6.35,60-1.56,88.85-28.71C111.15,115.74,68.52,131.69,46.14,128.77Z"/><path class="cls-7" d="M19.8,95.67c39.51-1.79,82.52-18.8,100.27-53-.14-.3-.26-.59-.4-.89-17.48,27.62-62,53.16-105,44.51a209.64,209.64,0,0,0,11.3,19.58c38.47-3.28,78.29-17.47,98.77-52-.28-.74-.57-1.49-.86-2.24C99.47,86.68,57.83,96.82,19.8,95.67Z"/></g><path class="cls-8" d="M65.7,60.92C92.22,47.89,108,25.74,101,11.44a15.16,15.16,0,0,0-1.27-2.13c-1-1.09-1.94-2.16-2.93-3.19C86.21-2.87,63-2,40.27,9.13,17.31,20.41,2.39,38.52,3.34,52.46q.27,1.74.6,3.48a16,16,0,0,0,1,2.67C12,72.91,39.18,73.94,65.7,60.92Z"/><path class="cls-9" d="M5.11,58.28c-.22-1.16-.42-2.32-.6-3.47-1-13.94,14-32.06,36.92-43.33C64.16.31,87.38-.52,98,8.46c1,1,2,2.1,2.93,3.2.2.28.39.58.58.88-.15-.37-.31-.74-.48-1.1a15.16,15.16,0,0,0-1.27-2.13c-1-1.09-1.94-2.16-2.93-3.19C86.21-2.87,63-2,40.27,9.13,17.31,20.41,2.39,38.52,3.34,52.46q.27,1.74.6,3.48a16,16,0,0,0,1,2.67c.22.44.45.86.71,1.28A13.34,13.34,0,0,1,5.11,58.28Z"/><path class="cls-10" d="M64.23,58C38.67,70.52,12.5,70,4.35,57.16A15.33,15.33,0,0,0,5,58.61c7,14.3,34.22,15.33,60.74,2.31S108,25.74,101,11.44a14.51,14.51,0,0,0-.85-1.48C105.47,24.27,89.86,45.38,64.23,58Z"/><path class="cls-11" d="M56.83,42.89c11.09-5.44,17.69-14.7,14.76-20.68a7.2,7.2,0,0,0-.53-.89c-.4-.45-.81-.9-1.23-1.33C65.4,16.23,55.7,16.58,46.2,21.25S30.36,33.53,30.76,39.36c.08.48.16,1,.25,1.45a6.32,6.32,0,0,0,.43,1.12C34.38,47.91,45.74,48.34,56.83,42.89Z"/><path class="cls-12" d="M4.44,57.88l.4.46c-.08-.19-.16-.38-.25-.57Z"/><path class="cls-13" d="M114.45,31c-4.43-5.72-10.87-12.6-11.21-13a.61.61,0,0,0-.6-.18c0,.53,0,1.06,0,1.6,6.85,11.8,11.59,26.1,14.86,39.82A122.84,122.84,0,0,0,91,42.6c-.44.48-.9,1-1.37,1.43,6.1,11.73,9,31.35,10.33,48.8C84.89,80,71,64.32,67.32,60.1l-1.62.82-.08,0a176.92,176.92,0,0,1,3.31,47.28C46.1,90.8,33.63,73.39,31.34,70c-.52,0-1,0-1.54,0a88.84,88.84,0,0,0,3.94,33.87A365.83,365.83,0,0,1,8,62.82a16.69,16.69,0,0,1-1.45-1.7h0a.61.61,0,0,0-.4.7c0,.09,1.38,6.49,3.64,13.78,1,2.61,2.2,5.22,3.48,7.8l1.08,2.14.3-.13A132.48,132.48,0,0,1,8.33,66.08a359,359,0,0,0,26.59,41.46,116.16,116.16,0,0,0,8.67,19.17c.91.78,1.82,1.51,2.73,2.2a112.21,112.21,0,0,1-8.94-18.17c8.53,10.86,18,20.85,27.4,26.63.44.08.89.15,1.33.21a.7.7,0,0,0,.13-.24A174.35,174.35,0,0,0,70,110.59a193.73,193.73,0,0,0,30.78,18.79l1.54-.78c.05-2.9.23-16.72-.89-33,8.1,6.65,16.44,12.28,23.66,14.77h.11l.69-1a294.77,294.77,0,0,0-6.33-46.72A82.62,82.62,0,0,1,130.7,74.69h0c-.15-.88-.33-1.77-.53-2.67A87.8,87.8,0,0,0,119.1,60.58c-3-12.83-7.2-26.3-13.22-37.86,3.38,3.78,8.27,9.47,10.45,13l.4-.24q-.57-1.19-1.17-2.37C115.2,32.4,114.82,31.68,114.45,31ZM65.24,136.23C55.17,130,45,118.79,36,107c-3.44-10-6-22.28-5.11-35.4,3.47,4.9,16.06,21.58,37.94,38.15A182.59,182.59,0,0,1,65.24,136.23Zm35.86-8.06a192.62,192.62,0,0,1-31-19A179.07,179.07,0,0,0,67,61.64c4.56,5.22,18.32,20.54,33.1,32.88C101.28,110.58,101.16,124.48,101.1,128.17Zm23.54-19.28c-7.16-2.68-15.38-8.36-23.33-15C100,76.28,97.15,56.14,91,43.93a120.74,120.74,0,0,1,27,17.31A294.25,294.25,0,0,1,124.64,108.89Z"/><path class="cls-14" d="M66.34,60.37c1.17,0,5.11,8.16,4.44,8.82s-1-.13-1.56,0-.06,2.56-1,2.75-1-1.83-1.39-1.75-.39,1.54-1.31,1.64-.86-1.37-1.14-1.33-.59,1-1.24,1,0-2.06-.18-2.25-.49.71-.84.47S64,60.32,66.34,60.37Z"/><path class="cls-15" d="M66.34,60.37a1.16,1.16,0,0,0-.4.09c-1.07,1.92,0,7.78,0,8.06a9.28,9.28,0,0,0,.58,2.17c.1-.25.19-.45.32-.47s.39.9.75,1.43a1.81,1.81,0,0,0,1.07-.1c.31-.74.09-2.21.56-2.33s.89.63,1.56,0S67.51,60.4,66.34,60.37Z"/><path class="cls-16" d="M67.65,59.51c.88-.76,9.25,2.65,9.2,3.59s-.81.54-1.15,1.06,1.67,2,1.11,2.71-2-.68-2.21-.37.74,1.41.12,2.1-1.55-.45-1.74-.24.25,1.17-.21,1.61-1.42-1.5-1.65-1.56.12.86-.31.92S65.91,61,67.65,59.51Z"/><path class="cls-17" d="M74.48,64c-1.78-1.7-4.82-4.27-7-4.33-1.32,1.85,2.87,9.69,3.29,9.64s.09-1,.31-.92,1.18,2,1.65,1.56,0-1.4.21-1.61,1.12.93,1.74.24-.35-1.8-.12-2.1,1,.54,1.69.59l0-.06C76.6,66.42,76.5,66,74.48,64Z"/><path class="cls-18" d="M66.88,60.83c-1,.64-.06,9.63.86,9.84s.75-.62,1.34-.8,1.41,2.15,2.29,1.82-.09-2.1.26-2.23,1.15,1.11,2,.71,0-1.61.27-1.73,1,.56,1.6.24-1-1.78-1-2,.79.35,1,0S68.81,59.58,66.88,60.83Z"/><path class="cls-14" d="M99.34,127.49c1.17,0,5.11,8.16,4.44,8.82s-1-.14-1.56,0-.06,2.57-1,2.76-1-1.84-1.39-1.76-.39,1.54-1.31,1.64-.86-1.36-1.14-1.33-.59,1-1.24,1.05-.05-2.07-.18-2.26-.48.72-.84.47S97.05,127.44,99.34,127.49Z"/><path class="cls-15" d="M99.34,127.49a1,1,0,0,0-.4.08c-1.07,1.92,0,7.79,0,8.06a9.39,9.39,0,0,0,.58,2.18c.1-.25.19-.45.32-.48s.39.9.75,1.43a1.73,1.73,0,0,0,1.07-.09c.31-.75.09-2.22.56-2.34s.89.64,1.56,0S100.51,127.51,99.34,127.49Z"/><path class="cls-16" d="M100.65,126.63c.89-.77,9.25,2.64,9.2,3.58s-.8.55-1.15,1.07,1.67,1.95,1.11,2.71-2-.68-2.21-.38.74,1.41.12,2.1-1.55-.44-1.73-.23.24,1.16-.22,1.61-1.42-1.51-1.65-1.56.12.85-.31.91S98.91,128.12,100.65,126.63Z"/><path class="cls-17" d="M107.48,131.13c-1.78-1.7-4.82-4.27-7-4.32-1.32,1.85,2.87,9.69,3.29,9.63s.09-1,.31-.91,1.18,2,1.65,1.56,0-1.4.22-1.61,1.11.92,1.73.23-.35-1.79-.12-2.1,1,.55,1.69.59l0-.06C109.6,133.54,109.5,133.07,107.48,131.13Z"/><path class="cls-18" d="M99.88,127.94c-1,.64-.06,9.63.86,9.84s.75-.62,1.34-.8,1.41,2.15,2.29,1.83-.09-2.1.27-2.23,1.14,1.11,2,.71,0-1.62.27-1.74,1.05.57,1.6.25-1-1.79-1-2,.79.35,1,0S101.81,126.69,99.88,127.94Z"/><path class="cls-14" d="M30.17,69.49c1.12.35,2.64,9.26,1.81,9.71s-.88-.4-1.5-.41-.78,2.44-1.72,2.37-.48-2-.85-2.08-.8,1.38-1.72,1.21-.44-1.55-.72-1.59-.86.82-1.48.66.53-2,.46-2.22-.67.55-.94.21S28,68.8,30.17,69.49Z"/><path class="cls-15" d="M30.17,69.49a1.05,1.05,0,0,0-.4,0C28.2,71,27.55,76.92,27.52,77.2a9.74,9.74,0,0,0-.05,2.25c.17-.21.31-.38.44-.37s.12,1,.32,1.59a1.87,1.87,0,0,0,1.06.21c.5-.64.7-2.11,1.19-2.09s.67.85,1.5.41S31.29,69.84,30.17,69.49Z"/><path class="cls-16" d="M31.67,69c1.07-.49,8.15,5.12,7.84,6s-.93.3-1.4.7,1.06,2.34.31,2.91-1.72-1.2-2-1,.32,1.55-.47,2-1.37-.85-1.6-.7-.09,1.18-.66,1.48-.94-1.84-1.14-2-.13.86-.56.79S29.58,70,31.67,69Z"/><path class="cls-17" d="M37,75.26c-1.23-2.13-3.43-5.44-5.47-6.1-1.78,1.41.06,10.11.47,10.17s.36-.9.56-.79.57,2.26,1.14,2,.42-1.33.66-1.48.81,1.19,1.6.7.17-1.81.47-2,.84.81,1.46,1l0,0C38.34,78.16,38.38,77.69,37,75.26Z"/><path class="cls-18" d="M30.57,70.08c-1.12.34-2.74,9.23-1.92,9.68s.89-.38,1.51-.39.75,2.46,1.69,2.39.5-2,.88-2.06.78,1.38,1.7,1.23.46-1.55.73-1.59.85.83,1.48.68-.51-2-.43-2.22.66.55.94.22S32.77,69.42,30.57,70.08Z"/><path class="cls-14" d="M64.57,135.75c1.16.17,4,8.74,3.28,9.31s-.94-.25-1.55-.17-.4,2.53-1.34,2.6-.78-2-1.16-1.92-.58,1.48-1.51,1.46-.67-1.47-.95-1.47-.72.95-1.36.88.21-2.05.11-2.26-.58.65-.9.36S62.31,135.4,64.57,135.75Z"/><path class="cls-15" d="M64.57,135.75a.92.92,0,0,0-.4,0c-1.31,1.77-1.05,7.71-1,8a9.48,9.48,0,0,0,.3,2.23c.13-.23.24-.42.37-.43s.27,1,.57,1.52a1.79,1.79,0,0,0,1.07,0c.4-.7.38-2.18.86-2.24s.8.74,1.55.17S65.73,135.92,64.57,135.75Z"/><path class="cls-16" d="M66,135.06c1-.64,8.84,3.82,8.67,4.74s-.87.44-1.28.91,1.41,2.15.75,2.83-1.88-.93-2.14-.66.55,1.49-.15,2.1-1.48-.64-1.69-.46.09,1.19-.43,1.57-1.21-1.67-1.42-1.76,0,.87-.43.87S64.07,136.32,66,135.06Z"/><path class="cls-17" d="M72.18,140.41c-1.55-1.92-4.23-4.86-6.35-5.19-1.54,1.67,1.61,10,2,10s.21-.95.43-.87.9,2.14,1.42,1.76.22-1.38.43-1.57,1,1.06,1.69.46-.11-1.82.15-2.1,1,.68,1.6.81l0-.06C74,143.06,73.94,142.59,72.18,140.41Z"/><path class="cls-18" d="M65.06,136.27c-1.06.5-1.3,9.54-.42,9.86s.82-.51,1.43-.62,1.12,2.32,2,2.11.18-2.1.55-2.18,1,1.25,1.87,1,.22-1.6.48-1.69,1,.7,1.56.45-.8-1.9-.76-2.13.74.45,1,.08S67.12,135.28,65.06,136.27Z"/><path class="cls-14" d="M7,61.61C8.05,62,9.26,71,8.42,71.38s-.87-.43-1.49-.47-.87,2.42-1.81,2.31-.4-2.06-.77-2.1-.85,1.34-1.76,1.15-.39-1.57-.66-1.62-.89.79-1.5.61.59-2,.53-2.2-.69.52-.95.18S4.79,60.85,7,61.61Z"/><path class="cls-15" d="M7,61.61a1,1,0,0,0-.4,0C4.93,63.06,4.06,69,4,69.23a9,9,0,0,0-.13,2.24c.17-.2.32-.37.45-.35s.09,1,.27,1.59a1.76,1.76,0,0,0,1,.25c.53-.61.78-2.08,1.27-2s.64.88,1.49.47S8.05,62,7,61.61Z"/><path class="cls-16" d="M8.46,61.2c1.08-.44,8,5.41,7.62,6.28s-.93.27-1.42.66,1,2.37.21,2.92-1.68-1.27-2-1,.27,1.57-.53,2-1.34-.9-1.58-.76-.13,1.18-.71,1.46-.88-1.88-1.08-2-.16.85-.58.77S6.34,62.08,8.46,61.2Z"/><path class="cls-17" d="M13.54,67.62c-1.16-2.18-3.24-5.56-5.26-6.29C6.46,62.68,8,71.44,8.4,71.51s.39-.89.58-.77.5,2.27,1.08,2,.47-1.32.71-1.46.77,1.22,1.58.76.22-1.81.53-2,.82.84,1.43,1.09l0,0C14.81,70.56,14.86,70.09,13.54,67.62Z"/><path class="cls-18" d="M7.33,62.21c-1.13.3-3.07,9.13-2.26,9.62s.9-.36,1.52-.34S7.25,74,8.2,73.94s.56-2,.94-2,.74,1.41,1.66,1.29.51-1.53.79-1.56.82.86,1.45.73-.43-2-.35-2.24.64.58.93.26S9.54,61.63,7.33,62.21Z"/><path class="cls-14" d="M44,126.71c.91.33,1.9,7.77,1.2,8.11s-.72-.35-1.24-.39-.72,2-1.5,1.92-.33-1.71-.64-1.75-.7,1.12-1.46,1-.32-1.3-.55-1.34-.73.65-1.24.5.5-1.64.44-1.82-.57.43-.79.14S42.21,126.07,44,126.71Z"/><path class="cls-15" d="M44,126.71a1,1,0,0,0-.34,0c-1.35,1.23-2.07,6.12-2.1,6.35a7.69,7.69,0,0,0-.11,1.86c.14-.17.26-.3.37-.29s.07.82.23,1.33a1.45,1.45,0,0,0,.86.2c.44-.51.65-1.72,1-1.7s.54.74,1.24.39S44.92,127,44,126.71Z"/><path class="cls-16" d="M45.26,126.37c.9-.36,6.61,4.51,6.32,5.23s-.77.22-1.18.54.81,2,.16,2.43-1.38-1.06-1.64-.88.22,1.31-.45,1.69-1.11-.75-1.31-.64-.11,1-.59,1.21-.73-1.55-.89-1.65-.13.7-.49.64S43.5,127.1,45.26,126.37Z"/><path class="cls-17" d="M49.47,131.71c-1-1.81-2.68-4.62-4.36-5.23-1.52,1.12-.26,8.39.08,8.46s.33-.74.49-.64.41,1.88.89,1.65.39-1.09.59-1.21.64,1,1.31.64.19-1.5.45-1.69.68.71,1.18.91l0,0C50.51,134.16,50.56,133.76,49.47,131.71Z"/><path class="cls-18" d="M44.32,127.21c-.94.25-2.56,7.58-1.89,8s.75-.29,1.26-.28.55,2.06,1.33,2,.48-1.68.79-1.69.61,1.17,1.37,1.07.44-1.27.67-1.29.67.71,1.2.6-.36-1.67-.29-1.85.53.48.77.21S46.16,126.73,44.32,127.21Z"/><path class="cls-14" d="M90.07,42.14c1.12-.33,7.34,6.23,6.9,7.06s-1,.16-1.48.5.72,2.46-.11,2.93-1.53-1.44-1.86-1.26.1,1.59-.75,2-1.23-1-1.49-.92-.25,1.16-.86,1.37-.67-2-.85-2.1-.25.83-.67.71S87.87,42.79,90.07,42.14Z"/><path class="cls-15" d="M90.07,42.14a1,1,0,0,0-.35.2C89.27,44.5,92,49.78,92.15,50a9.38,9.38,0,0,0,1.22,1.89c0-.27,0-.48.15-.55s.65.75,1.15,1.14a1.82,1.82,0,0,0,1-.41c.07-.81-.58-2.14-.17-2.4s1,.33,1.48-.5S91.19,41.81,90.07,42.14Z"/><path class="cls-16" d="M91.05,40.92c.62-1,9.63-.27,9.86.64s-.6.76-.77,1.36,2.18,1.35,1.87,2.25-2.09-.05-2.22.31,1.14,1.12.76,2-1.62.05-1.73.31.59,1,.28,1.59-1.81-1-2-1,.37.78,0,1S89.85,42.87,91.05,40.92Z"/><path class="cls-17" d="M98.93,43.15c-2.21-1.08-5.89-2.61-7.94-2-.7,2.17,5.67,8.37,6.05,8.19s-.21-1,0-1,1.73,1.55,2,1-.39-1.34-.28-1.59,1.34.54,1.73-.31-.88-1.6-.76-2,1.16.21,1.8.05c0,0,0,0,0-.07C101.68,44.8,101.44,44.39,98.93,43.15Z"/><path class="cls-18" d="M90.72,42.41c-.74.9,2.86,9.2,3.8,9.12s.52-.82,1-1.17,2,1.62,2.74,1-.72-2-.42-2.2,1.42.71,2.09.08-.47-1.54-.27-1.73,1.17.22,1.61-.26-1.54-1.38-1.6-1.6.86.09.91-.34S92.18,40.64,90.72,42.41Z"/><path class="cls-14" d="M124.27,108.56c1.12-.33,7.34,6.23,6.9,7.06s-.95.16-1.48.5.72,2.46-.11,2.92-1.53-1.44-1.86-1.25.1,1.59-.75,2-1.23-1-1.49-.93-.25,1.17-.86,1.38-.67-2-.85-2.1-.25.83-.67.7S122.07,109.2,124.27,108.56Z"/><path class="cls-15" d="M124.27,108.56a1,1,0,0,0-.35.2c-.45,2.16,2.3,7.44,2.43,7.68a9.22,9.22,0,0,0,1.22,1.9c0-.27,0-.49.15-.55s.65.74,1.15,1.13a1.66,1.66,0,0,0,1-.41c.07-.8-.58-2.14-.17-2.39s1,.33,1.48-.5S125.39,108.23,124.27,108.56Z"/><path class="cls-16" d="M125.26,107.34c.61-1,9.62-.27,9.85.64s-.6.76-.77,1.36,2.18,1.35,1.88,2.25-2.1,0-2.23.31,1.14,1.11.76,2-1.62,0-1.73.3.59,1,.28,1.6-1.81-1-2-1,.37.79,0,1S124.05,109.29,125.26,107.34Z"/><path class="cls-17" d="M133.13,109.57c-2.21-1.08-5.88-2.61-7.94-2-.7,2.16,5.67,8.37,6.05,8.19s-.21-.95,0-1,1.73,1.56,2,1-.39-1.34-.28-1.6,1.34.54,1.73-.3-.88-1.6-.76-2,1.16.2,1.8,0c0,0,0,0,0-.07C135.88,111.22,135.65,110.8,133.13,109.57Z"/><path class="cls-18" d="M124.93,108.83c-.75.9,2.85,9.19,3.79,9.11s.52-.81,1-1.16,2,1.62,2.73,1-.72-2-.42-2.2,1.42.71,2.1.08-.48-1.55-.28-1.73,1.17.22,1.61-.26-1.54-1.38-1.6-1.61.86.1.91-.33S126.38,107.06,124.93,108.83Z"/><path class="cls-14" d="M101.81,17.91c1.12-.33,7.34,6.23,6.9,7.06s-.95.16-1.48.5.72,2.46-.11,2.92-1.53-1.43-1.86-1.25.1,1.59-.75,2-1.23-1-1.49-.92-.25,1.16-.86,1.37-.67-2-.85-2.1-.25.83-.67.71S99.61,18.55,101.81,17.91Z"/><path class="cls-15" d="M101.81,17.91a1,1,0,0,0-.35.2c-.45,2.16,2.3,7.44,2.43,7.69a9.84,9.84,0,0,0,1.22,1.89c0-.27,0-.48.15-.55s.65.75,1.16,1.14a1.85,1.85,0,0,0,1-.41c.06-.81-.59-2.15-.18-2.4s1,.33,1.48-.5S102.93,17.58,101.81,17.91Z"/><path class="cls-16" d="M102.8,16.69c.61-1,9.62-.27,9.85.64s-.6.76-.77,1.36,2.18,1.35,1.88,2.25-2.1-.05-2.23.31,1.14,1.12.76,2-1.62.05-1.73.3.59,1,.28,1.6-1.81-1-2-1,.37.79,0,1S101.59,18.64,102.8,16.69Z"/><path class="cls-17" d="M110.67,18.92c-2.21-1.08-5.88-2.61-7.94-2-.7,2.16,5.67,8.37,6,8.19s-.21-.95,0-1,1.73,1.56,2,1-.39-1.34-.28-1.6,1.35.55,1.73-.3-.88-1.6-.76-2,1.16.2,1.8.05c0,0,0-.05,0-.07C113.42,20.57,113.19,20.15,110.67,18.92Z"/><path class="cls-18" d="M102.47,18.18c-.75.9,2.85,9.19,3.79,9.12s.52-.82,1-1.17,2,1.62,2.73,1-.72-2-.42-2.2,1.42.71,2.1.08-.48-1.54-.27-1.73,1.16.22,1.6-.26-1.54-1.38-1.6-1.6.86.09.91-.34S103.92,16.41,102.47,18.18Z"/><path class="cls-14" d="M129.47,72.84c1-.29,6.42,5.44,6,6.17s-.83.14-1.3.43.63,2.16-.09,2.56-1.34-1.25-1.63-1.09.09,1.39-.65,1.71-1.08-.91-1.3-.81-.23,1-.76,1.21-.59-1.71-.75-1.84-.21.73-.58.62S127.55,73.4,129.47,72.84Z"/><path class="cls-15" d="M129.47,72.84a.75.75,0,0,0-.3.17c-.39,1.89,2,6.51,2.12,6.72a8.09,8.09,0,0,0,1.07,1.66c0-.24,0-.42.13-.48s.57.65,1,1a1.56,1.56,0,0,0,.87-.36c.06-.7-.51-1.87-.16-2.1s.92.3,1.3-.43S130.45,72.55,129.47,72.84Z"/><path class="cls-16" d="M130.34,71.77c.53-.87,8.41-.24,8.61.56s-.52.66-.67,1.19,1.91,1.18,1.64,2-1.83,0-1.94.28,1,1,.66,1.71-1.41,0-1.51.27.51.9.24,1.4-1.58-.88-1.78-.87.32.69,0,.85S129.28,73.48,130.34,71.77Z"/><path class="cls-17" d="M137.22,73.72c-1.93-1-5.14-2.29-6.94-1.77-.61,1.9,5,7.32,5.29,7.17s-.18-.84,0-.85,1.51,1.36,1.78.87-.34-1.18-.24-1.4,1.17.47,1.51-.27-.77-1.4-.66-1.71,1,.18,1.57,0c0,0,0,0,0-.06C139.63,75.16,139.42,74.8,137.22,73.72Z"/><path class="cls-18" d="M130.05,73.07c-.65.79,2.49,8,3.31,8s.46-.71.91-1,1.74,1.42,2.39.92-.63-1.73-.37-1.93,1.25.62,1.84.07-.42-1.35-.24-1.52,1,.2,1.4-.22-1.34-1.21-1.39-1.4.75.08.79-.3S131.32,71.52,130.05,73.07Z"/></g></g></g></svg>