<svg xmlns="http://www.w3.org/2000/svg" viewBox="0 0 693.58 305.9"><defs><style>.cls-1{fill:#b5bf2c;}.cls-2{fill:#348989;}.cls-3,.cls-7{fill:#fff;}.cls-4{fill:#e5ea39;}.cls-5{fill:#4c7bf2;}.cls-6{fill:#49bcc3;}.cls-7{opacity:0.55;}</style></defs><g id="Layer_2" data-name="Layer 2"><g id="Layer_1-2" data-name="Layer 1"><path class="cls-1" d="M61.56,230.68c3.26,1.91,421.89,0,421.89,0s-70.08,44.21-214.29,49.55C80.64,287.2,61.56,230.68,61.56,230.68Z"/><path class="cls-2" d="M685.81,177.15a3.45,3.45,0,0,1-1.74-.47l-99.51-58.42a3.42,3.42,0,0,1,.19-6c39.43-20,99.36-50.63,103.22-53.38a3.44,3.44,0,0,1,4.43,5.25c-3.09,2.68-70.55,37-98.94,51.41l94.09,55.23a3.44,3.44,0,0,1-1.74,6.4Zm2.13-118.27s0,0-.05,0Z"/><path class="cls-2" d="M.62,206.55c2.51,8,10.85,10.26,15.45,10.64,5.86.48,13.18-4.49,13.29-14.6.14-11.37-17-85-17-85S-3.22,194.28.62,206.55Z"/><path class="cls-2" d="M.68,22.53c2.6-8,11-10.14,15.58-10.46,5.86-.41,13.12,4.64,13.12,14.75,0,11.37-18,84.77-18,84.77S-3.3,34.75.68,22.53Z"/><path class="cls-1" d="M39.35,102.63c-7.38,1-12.22,1.21-19.86,2.19-1.87.23-4.07,2.26-5.31,3.68a9.44,9.44,0,0,0-1.43,9.8,12.44,12.44,0,0,0,6.7,6c2.83,1.19,6.38,1.34,9.42,1.79,4.84.73,9.2,1.77,14,2.5Z"/><path class="cls-3" d="M19.49,104.82c-6.25,0-11.31,4.33-11.31,9.67s5.06,9.69,11.31,9.69Z"/><path class="cls-4" d="M134.43,255.75c3.27,1.91,421.89,0,421.89,0S486.24,300,342,305.3C153.51,312.27,134.43,255.75,134.43,255.75Z"/><path class="cls-2" d="M180.14,255.75c0-2.15,27.29-68.11,27.29-68.11h9.9l-26.15,68.11Z"/><polygon class="cls-2" points="472.37 256.09 440.67 180.34 449.36 178.98 483.45 256.05 472.37 256.09"/><polygon class="cls-2" points="153.42 166.2 163.88 171.68 127.86 231.48 114.5 231.48 153.42 166.2"/><path class="cls-2" d="M379.42,182.72C380.58,184.46,403.23,231,405,231s11-.31,11-.31L393.94,171.1Z"/><path class="cls-5" d="M29.06,96.05C37.89,75.7,152.85,82.11,162.15,68.17s38-49.74,84.87-45.71c81,7,280.71,48.81,280.71,48.81S577.31.13,590.48,0c35.63-.35,4.14,138-10.85,146.4-24.78,13.95-167,48.8-303.36,44.93S-1,165.19,29.06,96.05Z"/><path class="cls-4" d="M197.53,139.57c.71,19.46,171,83.72,193.5,83.82,27.89.12,38.17-4,33.12-31.76-6.35-34.93-55.52-67.89-81.77-79.45C323.05,103.66,196.53,112.18,197.53,139.57Z"/><path class="cls-4" d="M83.89,136.36c4.88-12.54,5.22-26.36,4.74-39.81-.2-5.4-.55-10.94-2.35-16-27.67,2.62-53.16,6.36-57.14,15.52C17,124.14,32.94,144.48,65.35,159,73.79,154.09,80.29,145.6,83.89,136.36Z"/><path class="cls-4" d="M555.63,68.5c1.82,13.85,46.4,23.32,68.87,23.32S656.23,85,644.2,76.87s-31.79-18.81-62.7-18.78C568.89,58.1,554.8,62.29,555.63,68.5Z"/><path class="cls-6" d="M307.08,58.09c0-7.83-2.22-22.55-16.38-30.35-16.53-2.38-31.46-4.22-43.68-5.28-46.84-4-75.57,31.76-84.87,45.71l-.13.17c14.25,8.64,32.07,12.22,55.31,15,28.59,3.46,86.75,4.07,86.75,4.07A138.93,138.93,0,0,0,307.08,58.09Z"/><path class="cls-7" d="M190.36,50.59c-1.45,2.17-2.76,4.62-2.66,7.23a8.45,8.45,0,0,0,6.64,7.49,11.31,11.31,0,0,0,9.89-3c2.61-2.43,4.14-5.76,6.21-8.66a27.6,27.6,0,0,1,13.79-10.14c3.43-1.13,7.08-1.58,10.38-3,6.28-2.77,4.84-8.8-.81-11.21-3.86-1.65-10.91.47-14.75,1.43A48.79,48.79,0,0,0,190.36,50.59Z"/><path class="cls-5" d="M86.62,231.38c-15.39-.14-24.59-.34-25.06-.61,0,0,3.19,9.45,19.86,20.15C83.09,244.66,85,237.62,86.62,231.38Z"/><path class="cls-5" d="M159.49,256.36c-15.39-.14-24.59-.33-25.06-.61,0,0,3.19,9.45,19.86,20.15C156,269.64,157.84,262.6,159.49,256.36Z"/><path class="cls-7" d="M223.38,127.39c-3.13,1.41-5.7,4.69-5.15,8.09s3.63,5.47,6.57,7a119.8,119.8,0,0,0,12.6,5.42l92.27,35.65c2.46,1,6.58.73,6.23-1.89a3.56,3.56,0,0,0-1.44-2.09c-4.55-3.86-10.32-5.88-15.87-8.09-16.72-6.65-32.41-15.6-48-24.52L245,132.38C237.79,128.29,231.83,123.57,223.38,127.39Z"/><path class="cls-7" d="M47.39,91.67c-4.71,1.53-9,5.23-9.87,10.12a4.86,4.86,0,0,0,1,4.29,5.3,5.3,0,0,0,2.8,1.21c7.38,1.36,14.82-2.22,22.32-2,2.86.1,6,.68,8.36-.92,3-2,3-6.82.62-9.54C67.61,89,53.87,89.56,47.39,91.67Z"/><path class="cls-6" d="M407,95.91c2.88,0,5.88-.08,8.44-1.41,5.59-2.92,6.68-10.34,6.94-16.65.37-8.95.34-18.4-4.05-26.21a27.1,27.1,0,0,0-1.53-2.4c-34.83-6.56-73-13.39-106.68-18.64A65,65,0,0,1,320.65,56a63.11,63.11,0,0,1-2.17,31.77A465.6,465.6,0,0,0,407,95.91Z"/><path class="cls-7" d="M327.07,44.15c.24,2.06,2.34,3.72,4.71,4.51a28.78,28.78,0,0,0,7.52,1,160.22,160.22,0,0,1,29,4.23c2.39.58,4.91,1.22,7.33.73s4.51-2.62,3.56-4.48c-.66-1.3-2.44-1.93-4.06-2.43C369.21,45.91,325.85,33.62,327.07,44.15Z"/><path class="cls-4" d="M563.45,117.18c-2.82-2.34-7.71-2.08-9.65,1,2.5-1.64,6.25.52,6.71,3.48s-1.69,5.87-4.43,7.07-5.9,1-8.82.33c-6-1.37-11.79-4.61-18-4.41-9.51.32-16.88,8.47-26,11.14-5.89,1.72-12.29,1-18.1-.92-4.92-1.66-9.56-4.21-14.65-5.17-8.75-1.66-17.73,1.58-25.44,6-4.76,2.73-9.54,6-15,6.28-9.05.39-16.18-7.55-24.85-10.16a22.44,22.44,0,0,0-23.87,7.9l4.11,13.28c2.78-4.89,8.82-7.2,14.44-7s10.94,2.46,16,4.84c3.7,1.74,7.44,3.59,11.49,4.11,10,1.3,19-5.47,28.23-9.42a53,53,0,0,1,26.85-3.85c6.25.74,12.32,2.59,18.54,3.59s12.82,1.09,18.54-1.55c5.08-2.35,9.27-6.76,14.78-7.78,6.65-1.22,13.34,2.87,20,2.07a14.31,14.31,0,0,0,12-10.84C567.12,123.65,566.27,119.52,563.45,117.18Z"/><path class="cls-1" d="M424.15,191.11c-6.35-34.93-55.52-67.89-81.77-79.45a36.94,36.94,0,0,0-9.49-2.13c26.9,14.91,63.24,43.17,68.63,72.87,5.06,27.78-5.22,31.87-33.11,31.75-8.63,0-39.06-9.53-73.32-22.32,42.67,16.94,85.44,31,95.94,31C418.92,223,429.2,218.89,424.15,191.11Z"/></g></g></svg>