<svg xmlns="http://www.w3.org/2000/svg" xmlns:xlink="http://www.w3.org/1999/xlink" viewBox="0 0 138.31 516.64"><defs><style>.cls-1{mask:url(#mask);filter:url(#luminosity-noclip-2);}.cls-10,.cls-14,.cls-17,.cls-2,.cls-20,.cls-23,.cls-37,.cls-40,.cls-42,.cls-46,.cls-49,.cls-51,.cls-54,.cls-56,.cls-69,.cls-7,.cls-70,.cls-72,.cls-73,.cls-74{mix-blend-mode:multiply;}.cls-2{fill:url(#radial-gradient);}.cls-3{isolation:isolate;}.cls-4{fill:#1d1e1c;}.cls-5{fill:#751611;}.cls-6{fill:url(#radial-gradient-2);}.cls-10,.cls-14,.cls-17,.cls-69,.cls-7,.cls-72{opacity:0.5;}.cls-7{fill:url(#radial-gradient-3);}.cls-8{fill:#295529;}.cls-9{fill:url(#linear-gradient);}.cls-10{fill:url(#radial-gradient-4);}.cls-11{fill:#edecec;}.cls-12{fill:url(#Gold);}.cls-13{fill:url(#linear-gradient-2);}.cls-14{fill:url(#radial-gradient-5);}.cls-15{fill:url(#linear-gradient-3);}.cls-16,.cls-17{fill:#008b3b;}.cls-18{fill:#5cac34;}.cls-19{fill:url(#radial-gradient-6);}.cls-20{fill:url(#radial-gradient-7);}.cls-21{fill:url(#linear-gradient-4);}.cls-22{fill:url(#radial-gradient-8);}.cls-23{fill:url(#radial-gradient-9);}.cls-24{fill:url(#radial-gradient-10);}.cls-25{fill:url(#radial-gradient-11);}.cls-26{fill:url(#radial-gradient-12);}.cls-27{fill:url(#radial-gradient-13);}.cls-28{fill:url(#radial-gradient-14);}.cls-29{fill:url(#radial-gradient-15);}.cls-30{fill:url(#radial-gradient-16);}.cls-31{fill:url(#radial-gradient-17);}.cls-32{fill:url(#radial-gradient-18);}.cls-33{fill:url(#radial-gradient-19);}.cls-34{fill:url(#radial-gradient-20);}.cls-35{fill:url(#radial-gradient-21);}.cls-36{fill:url(#radial-gradient-22);}.cls-38{fill:url(#radial-gradient-23);}.cls-39{fill:url(#radial-gradient-24);}.cls-40{fill:url(#radial-gradient-25);}.cls-41{fill:url(#radial-gradient-26);}.cls-42{fill:url(#radial-gradient-27);}.cls-43{fill:url(#radial-gradient-28);}.cls-44{fill:url(#radial-gradient-29);}.cls-45{fill:url(#radial-gradient-30);}.cls-46{fill:url(#radial-gradient-31);}.cls-47{fill:url(#linear-gradient-5);}.cls-48{fill:url(#radial-gradient-32);}.cls-49{fill:url(#radial-gradient-33);}.cls-50{fill:url(#linear-gradient-6);}.cls-51{fill:url(#radial-gradient-34);}.cls-52{fill:url(#linear-gradient-7);}.cls-53{fill:url(#radial-gradient-35);}.cls-54{fill:url(#radial-gradient-36);}.cls-55{fill:url(#linear-gradient-8);}.cls-56{fill:url(#radial-gradient-37);}.cls-57{mask:url(#mask-2);}.cls-58{opacity:0.7;fill:url(#radial-gradient-38);}.cls-58,.cls-59{mix-blend-mode:screen;}.cls-59{fill:url(#radial-gradient-39);}.cls-60{fill:#60260c;}.cls-61{fill:url(#radial-gradient-40);}.cls-62{fill:url(#radial-gradient-41);}.cls-63{fill:url(#radial-gradient-42);}.cls-64{fill:url(#linear-gradient-9);}.cls-65{fill:url(#linear-gradient-10);}.cls-66{fill:url(#linear-gradient-11);}.cls-67{fill:url(#linear-gradient-12);}.cls-68{fill:url(#linear-gradient-13);}.cls-69{fill:url(#radial-gradient-43);}.cls-70{fill:url(#radial-gradient-44);}.cls-71{fill:url(#linear-gradient-14);}.cls-72{fill:url(#radial-gradient-45);}.cls-73{fill:url(#radial-gradient-46);}.cls-74{fill:url(#radial-gradient-47);}.cls-75{filter:url(#luminosity-noclip);}</style><filter id="luminosity-noclip" x="73.67" y="-8547.53" width="3.01" height="32766" filterUnits="userSpaceOnUse" color-interpolation-filters="sRGB"><feFlood flood-color="#fff" result="bg"/><feBlend in="SourceGraphic" in2="bg"/></filter><mask id="mask" x="73.67" y="-8547.53" width="3.01" height="32766" maskUnits="userSpaceOnUse"><g class="cls-75"/></mask><radialGradient id="radial-gradient" cx="453.87" cy="161.59" r="6.53" gradientTransform="translate(-394.03 335.98) rotate(-33.59)" gradientUnits="userSpaceOnUse"><stop offset="0" stop-color="#fff"/><stop offset="0.09" stop-color="#f4f4f4"/><stop offset="0.24" stop-color="#d8d8d8"/><stop offset="0.43" stop-color="#a9a9a9"/><stop offset="0.66" stop-color="#696969"/><stop offset="0.93" stop-color="#181818"/><stop offset="1"/></radialGradient><radialGradient id="radial-gradient-2" cx="104.77" cy="207.69" r="34.07" gradientUnits="userSpaceOnUse"><stop offset="0" stop-color="#e5322f"/><stop offset="0.25" stop-color="#e1312e"/><stop offset="0.47" stop-color="#d72f2c"/><stop offset="0.69" stop-color="#c42c29"/><stop offset="0.9" stop-color="#ab2724"/><stop offset="0.93" stop-color="#a62623"/></radialGradient><radialGradient id="radial-gradient-3" cx="104.77" cy="207.69" r="34.07" gradientUnits="userSpaceOnUse"><stop offset="0" stop-color="#e5322f"/><stop offset="1" stop-color="#a62623"/></radialGradient><linearGradient id="linear-gradient" x1="92.16" y1="360.49" x2="78.16" y2="320.82" gradientUnits="userSpaceOnUse"><stop offset="0" stop-color="#f8dbc3"/><stop offset="0.3" stop-color="#eed2be"/><stop offset="0.63" stop-color="#e9cdbc"/><stop offset="1" stop-color="#daad8d"/></linearGradient><radialGradient id="radial-gradient-4" cx="88.36" cy="346.52" r="26.42" gradientUnits="userSpaceOnUse"><stop offset="0" stop-color="#f8dbc3"/><stop offset="0.3" stop-color="#eed2be"/><stop offset="0.63" stop-color="#e9cdbc"/><stop offset="0.73" stop-color="#e6c5b3"/><stop offset="0.9" stop-color="#deb19a"/><stop offset="1" stop-color="#d9a289"/></radialGradient><linearGradient id="Gold" x1="97.9" y1="358.19" x2="113.38" y2="358.19" gradientUnits="userSpaceOnUse"><stop offset="0" stop-color="#ffeaa8"/><stop offset="0.5" stop-color="#fdcb00"/><stop offset="1" stop-color="#f7ad04"/></linearGradient><linearGradient id="linear-gradient-2" x1="125.98" y1="348.55" x2="111.98" y2="308.89" xlink:href="#linear-gradient"/><radialGradient id="radial-gradient-5" cx="122.31" cy="336.48" r="25.35" xlink:href="#radial-gradient-4"/><linearGradient id="linear-gradient-3" x1="106.31" y1="353.38" x2="119.45" y2="353.38" gradientUnits="userSpaceOnUse"><stop offset="0" stop-color="#f7ad04"/><stop offset="0.5" stop-color="#fdcb00"/><stop offset="1" stop-color="#ffeaa8"/></linearGradient><radialGradient id="radial-gradient-6" cx="115.9" cy="264.4" r="56.63" gradientUnits="userSpaceOnUse"><stop offset="0" stop-color="#e5322f"/><stop offset="0.27" stop-color="#e1312e"/><stop offset="0.51" stop-color="#d72f2c"/><stop offset="0.74" stop-color="#c42c29"/><stop offset="0.97" stop-color="#ab2724"/><stop offset="1" stop-color="#a62623"/></radialGradient><radialGradient id="radial-gradient-7" cx="115.9" cy="264.4" r="56.63" xlink:href="#radial-gradient-3"/><linearGradient id="linear-gradient-4" x1="91.01" y1="249.47" x2="84.01" y2="235.14" xlink:href="#linear-gradient"/><radialGradient id="radial-gradient-8" cx="56.72" cy="256.63" r="20.25" xlink:href="#radial-gradient-6"/><radialGradient id="radial-gradient-9" cx="56.73" cy="256.63" r="20.25" xlink:href="#radial-gradient-3"/><radialGradient id="radial-gradient-10" cx="298.81" cy="1036.19" r="16.31" gradientTransform="matrix(0.96, 0.26, -0.26, 0.96, 4.17, -803.84)" gradientUnits="userSpaceOnUse"><stop offset="0" stop-color="#150905"/><stop offset="1" stop-color="#573115"/></radialGradient><radialGradient id="radial-gradient-11" cx="301.41" cy="1032.98" r="20.85" xlink:href="#radial-gradient-10"/><radialGradient id="radial-gradient-12" cx="304.39" cy="1031.16" r="28.35" xlink:href="#radial-gradient-10"/><radialGradient id="radial-gradient-13" cx="307.41" cy="1027.64" r="35.7" xlink:href="#radial-gradient-10"/><radialGradient id="radial-gradient-14" cx="301.21" cy="1030.73" r="18.53" xlink:href="#radial-gradient-10"/><radialGradient id="radial-gradient-15" cx="304.25" cy="1023.27" r="10.17" gradientTransform="matrix(0.96, 0.26, -0.26, 0.96, 4.17, -803.84)" xlink:href="#radial-gradient-3"/><radialGradient id="radial-gradient-16" cx="2133.93" cy="11.9" r="13.86" gradientTransform="matrix(1, 0.07, -0.07, 1, -2078.33, 107.94)" xlink:href="#radial-gradient-10"/><radialGradient id="radial-gradient-17" cx="2136.14" cy="9.17" r="17.72" gradientTransform="matrix(1, 0.07, -0.07, 1, -2078.33, 107.94)" xlink:href="#radial-gradient-10"/><radialGradient id="radial-gradient-18" cx="2138.67" cy="7.62" r="24.09" gradientTransform="matrix(1, 0.07, -0.07, 1, -2078.33, 107.94)" xlink:href="#radial-gradient-10"/><radialGradient id="radial-gradient-19" cx="2141.24" cy="4.63" r="30.33" gradientTransform="matrix(1, 0.07, -0.07, 1, -2078.33, 107.94)" xlink:href="#radial-gradient-10"/><radialGradient id="radial-gradient-20" cx="2135.97" cy="7.26" r="15.75" gradientTransform="matrix(1, 0.07, -0.07, 1, -2078.33, 107.94)" xlink:href="#radial-gradient-10"/><radialGradient id="radial-gradient-21" cx="2138.55" cy="0.93" r="8.64" gradientTransform="matrix(1, 0.07, -0.07, 1, -2078.33, 107.94)" xlink:href="#radial-gradient-3"/><radialGradient id="radial-gradient-22" cx="444.25" cy="297.73" r="85.74" gradientTransform="translate(-453.34 211.34) rotate(-30.92)" xlink:href="#radial-gradient-10"/><radialGradient id="radial-gradient-23" cx="444.25" cy="297.73" r="85.75" gradientTransform="translate(-453.34 211.34) rotate(-30.92)" xlink:href="#radial-gradient-10"/><radialGradient id="radial-gradient-24" cx="616.41" cy="-205.97" r="23.89" gradientTransform="translate(-125.85 765.38) rotate(-48.98)" xlink:href="#radial-gradient-4"/><radialGradient id="radial-gradient-25" cx="607.44" cy="-201.88" r="19.78" gradientTransform="translate(-125.85 765.38) rotate(-48.98)" xlink:href="#radial-gradient-4"/><radialGradient id="radial-gradient-26" cx="3160.13" cy="629.98" r="23.89" gradientTransform="matrix(-0.97, 0.22, 0.22, 0.97, 2955.14, -1080.38)" xlink:href="#radial-gradient-4"/><radialGradient id="radial-gradient-27" cx="3151.17" cy="634.07" r="19.78" gradientTransform="matrix(-0.97, 0.22, 0.22, 0.97, 2955.14, -1080.38)" xlink:href="#radial-gradient-4"/><radialGradient id="radial-gradient-28" cx="451.12" cy="259.71" r="45.84" gradientTransform="translate(-453.34 211.34) rotate(-30.92)" xlink:href="#radial-gradient-4"/><radialGradient id="radial-gradient-29" cx="437.5" cy="224.83" r="16.35" gradientTransform="translate(-439.64 274.06) rotate(-34.15)" xlink:href="#radial-gradient-10"/><radialGradient id="radial-gradient-30" cx="-552.78" cy="122.44" r="16.34" gradientTransform="matrix(-0.82, 0.57, 0.57, 0.82, -440.01, 404.16)" xlink:href="#radial-gradient-10"/><radialGradient id="radial-gradient-31" cx="478.29" cy="118.43" r="30.9" gradientTransform="translate(-381.26 363.22) rotate(-34.57)" gradientUnits="userSpaceOnUse"><stop offset="0" stop-color="#fff"/><stop offset="0.21" stop-color="#f9eeea"/><stop offset="0.64" stop-color="#eac2b3"/><stop offset="0.75" stop-color="#e6b7a5"/><stop offset="0.82" stop-color="#e4b19f"/><stop offset="0.91" stop-color="#dda08e"/><stop offset="1" stop-color="#d48775"/></radialGradient><linearGradient id="linear-gradient-5" x1="479.43" y1="140.18" x2="481.41" y2="114.7" gradientTransform="translate(-381.26 363.22) rotate(-34.57)" gradientUnits="userSpaceOnUse"><stop offset="0" stop-color="#fff"/><stop offset="0.78" stop-color="#ebebea"/><stop offset="1" stop-color="#e4e4e3"/></linearGradient><radialGradient id="radial-gradient-32" cx="152.6" cy="73.64" r="20.92" gradientTransform="translate(-72.32 197.44) rotate(-23.95)" gradientUnits="userSpaceOnUse"><stop offset="0.23" stop-color="#1e274a"/><stop offset="1" stop-color="#0e5198"/></radialGradient><radialGradient id="radial-gradient-33" cx="150.45" cy="70.71" r="13.89" gradientTransform="translate(-72.32 197.44) rotate(-23.95)" gradientUnits="userSpaceOnUse"><stop offset="0.25" stop-color="#064c57"/><stop offset="1" stop-color="#195f39"/></radialGradient><linearGradient id="linear-gradient-6" x1="126.43" y1="10.32" x2="120.38" y2="10.8" gradientTransform="matrix(0.92, -0.39, 0.39, 0.92, -32.22, 234.68)" xlink:href="#linear-gradient-5"/><radialGradient id="radial-gradient-34" cx="477.92" cy="58.48" r="25.66" gradientTransform="matrix(0.74, -0.67, 0.67, 0.74, -342.99, 492.5)" xlink:href="#radial-gradient-31"/><linearGradient id="linear-gradient-7" x1="475.74" y1="73.89" x2="478.81" y2="48.59" gradientTransform="matrix(0.74, -0.67, 0.67, 0.74, -342.99, 492.5)" xlink:href="#linear-gradient-5"/><radialGradient id="radial-gradient-35" cx="110.47" cy="-4.97" r="20.92" gradientTransform="translate(-33.02 277.99) rotate(-27.13)" xlink:href="#radial-gradient-32"/><radialGradient id="radial-gradient-36" cx="108.32" cy="-7.9" r="13.89" gradientTransform="translate(-33.02 277.99) rotate(-27.13)" xlink:href="#radial-gradient-33"/><linearGradient id="linear-gradient-8" x1="82.77" y1="-66.94" x2="76.72" y2="-66.46" gradientTransform="translate(9.09 312.15) rotate(-26.28)" xlink:href="#linear-gradient-5"/><radialGradient id="radial-gradient-37" cx="516.15" cy="504.03" r="12.48" gradientTransform="translate(-545.86 575.25) rotate(-74.16)" xlink:href="#radial-gradient-31"/><filter id="luminosity-noclip-2" x="73.67" y="218.16" width="3.01" height="3.01" filterUnits="userSpaceOnUse" color-interpolation-filters="sRGB"><feFlood flood-color="#fff" result="bg"/><feBlend in="SourceGraphic" in2="bg"/></filter><mask id="mask-2" x="73.67" y="218.16" width="3.01" height="3.01" maskUnits="userSpaceOnUse"><g class="cls-1"><path class="cls-2" d="M76.43,218.83a1.51,1.51,0,1,1-2.09-.42A1.51,1.51,0,0,1,76.43,218.83Z"/></g></mask><radialGradient id="radial-gradient-38" cx="453.87" cy="161.59" r="6.53" gradientTransform="translate(-394.03 335.98) rotate(-33.59)" gradientUnits="userSpaceOnUse"><stop offset="0" stop-color="#fff"/><stop offset="1" stop-color="#fff"/></radialGradient><radialGradient id="radial-gradient-39" cx="490.86" cy="117.83" r="98.55" gradientTransform="translate(-355.9 437.8) rotate(-39.29)" xlink:href="#radial-gradient-10"/><radialGradient id="radial-gradient-40" cx="449.16" cy="283.36" r="84.83" gradientTransform="translate(-453.34 211.34) rotate(-30.92)" xlink:href="#radial-gradient-31"/><radialGradient id="radial-gradient-41" cx="444.25" cy="297.73" r="85.75" gradientTransform="translate(-453.34 211.34) rotate(-30.92)" xlink:href="#radial-gradient-10"/><radialGradient id="radial-gradient-42" cx="456.41" cy="232.13" r="39.81" gradientTransform="translate(-453.34 211.34) rotate(-30.92)" xlink:href="#radial-gradient-10"/><linearGradient id="linear-gradient-9" x1="76.91" y1="220.28" x2="89.99" y2="235.54" gradientUnits="userSpaceOnUse"><stop offset="0.11" stop-color="#e65667"/><stop offset="1" stop-color="#3e140d"/></linearGradient><linearGradient id="linear-gradient-10" x1="76.51" y1="219.91" x2="90.41" y2="236.13" gradientTransform="matrix(1, 0, 0, 1, 0, 0)" xlink:href="#linear-gradient-5"/><linearGradient id="linear-gradient-11" x1="87.92" y1="235.55" x2="102.32" y2="247.77" gradientUnits="userSpaceOnUse"><stop offset="0.11" stop-color="#e65667"/><stop offset="1" stop-color="#ca1c19"/></linearGradient><linearGradient id="linear-gradient-12" x1="444.06" y1="463.47" x2="444.9" y2="466.23" gradientTransform="matrix(0.97, -0.58, 0.67, 1.12, -657.64, -19.45)" gradientUnits="userSpaceOnUse"><stop offset="0.1" stop-color="#f6baaf"/><stop offset="1" stop-color="#e84c5b"/></linearGradient><linearGradient id="linear-gradient-13" x1="112.63" y1="132.33" x2="116.51" y2="215.04" xlink:href="#linear-gradient"/><radialGradient id="radial-gradient-43" cx="118.68" cy="221.67" r="4.81" xlink:href="#radial-gradient-4"/><radialGradient id="radial-gradient-44" cx="120.58" cy="152.65" r="49.18" gradientTransform="matrix(1, 0, 0, 1, 0, 0)" xlink:href="#radial-gradient-31"/><linearGradient id="linear-gradient-14" x1="123.91" y1="297.21" x2="63.65" y2="265.03" xlink:href="#linear-gradient"/><radialGradient id="radial-gradient-45" cx="84.2" cy="276.18" r="23.73" xlink:href="#radial-gradient-4"/><radialGradient id="radial-gradient-46" cx="92.94" cy="252.32" r="61.41" gradientTransform="matrix(1, 0, 0, 1, 0, 0)" xlink:href="#radial-gradient-31"/><radialGradient id="radial-gradient-47" cx="123.61" cy="235.53" r="61.42" gradientTransform="translate(-42.8 23.76) rotate(-2.75)" xlink:href="#radial-gradient-31"/></defs><g class="cls-3"><g id="Layer_2" data-name="Layer 2"><g id="Layer_1-2" data-name="Layer 1"><path class="cls-4" d="M30.46,516.64a2.5,2.5,0,0,1-2.33-1.59c-.35-.91-8.46-22.54,6.46-52.88,3.71-7.54,8.69-17.43,14-27.9C64.3,403,83.91,364,88.53,350.5a2.5,2.5,0,1,1,4.73,1.63C88.53,365.92,68.84,405.07,53,436.52,47.75,447,42.78,456.86,39.08,464.38c-7.26,14.77-8.58,27.26-8.41,35.14a45.39,45.39,0,0,0,2.12,13.72,2.49,2.49,0,0,1-1.43,3.23A2.36,2.36,0,0,1,30.46,516.64Z"/><path class="cls-5" d="M114.6,220.1l.31-4.58s12,5.73,10.31,19.47h-4.38S114,231.34,114.6,220.1Z"/><path class="cls-6" d="M99.17,240.42c.86.82,1.67,1.68,2.46,2.56,10.46.45,23.59-8,23.59-8-7.39-6.25-10.31-19.47-10.31-19.47-6,9.83-17.61,17.81-21.89,20.53A38.05,38.05,0,0,1,99.17,240.42Z"/><path class="cls-7" d="M99.17,240.42c.86.82,1.67,1.68,2.46,2.56,10.46.45,23.59-8,23.59-8a25.57,25.57,0,0,1-5.6-7.17c-3.4,3.42-7.08,6.3-12,7.66-3.39.94-7.28,1.88-10.82,1.6A10.11,10.11,0,0,1,93.08,236l0,0A38,38,0,0,1,99.17,240.42Z"/><path class="cls-8" d="M129.8,303.6c.42-.1,4.58,2.29,4.58,2.29s-.94,4-8.43,8.75c-6.64,4.24-15.36,10.08-17.62,7.34C104,316.72,129.8,303.6,129.8,303.6Z"/><path class="cls-8" d="M86.49,323.28l.93,4.88s-14,4.7-24.78-2.48c0,0,2.82-2.76,5.63-3S86.49,323.28,86.49,323.28Z"/><path class="cls-9" d="M65.78,318.9s-2.88,10.42-2.38,18.5,3.66,13.83,34.5,15.25a53,53,0,0,0,4.66,16.25c3.92,8.08,13,7.75,10.34-5.83s-5.25-21.59-8.34-20.92a8.71,8.71,0,0,0-4.91,3.67,159.57,159.57,0,0,1-15.5-4.09c-6-2.08-7.84-3.41-4.59-16.41l1.25-3.42S73.25,318,65.78,318.9Z"/><path class="cls-10" d="M76.74,329.14l1.8.77c.25-1.35.59-2.86,1-4.59l1.25-3.42s-7.56-3.92-15-3c0,0-.92,3.32-1.63,7.67A32,32,0,0,1,76.74,329.14Z"/><path class="cls-11" d="M112.9,363.07c-2.67-13.59-5.25-21.59-8.34-20.92a8.71,8.71,0,0,0-4.91,3.67s-4.39-.93-9.08-2.17a9.65,9.65,0,0,1-1.7,6.1,8.5,8.5,0,0,1-2.15,2.08c3.26.35,7,.63,11.18.82a53,53,0,0,0,4.66,16.25C106.48,377,115.56,376.65,112.9,363.07Z"/><path class="cls-12" d="M112.9,363.07c-2.67-13.59-5.25-21.59-8.34-20.92a8.38,8.38,0,0,0-4.64,3.28,6.28,6.28,0,0,1,2.28,6,.62.62,0,0,1-.62.47,6.75,6.75,0,0,0-2.61-.07,1.93,1.93,0,0,0-1.07.87,53.05,53.05,0,0,0,4.66,16.19C106.48,377,115.56,376.65,112.9,363.07Z"/><path class="cls-13" d="M115.81,311.07c1.42,1.25,11.59,12.75,11.25,14.75s-12,13.08-12.83,13.08-7.92-3.75-7.92,6.17,3.42,24.17,8.92,23.46,4.5-11.15,3.17-22c0,0,16.08-10.69,19.25-18.36s-5.75-18.59-10.25-23.76Z"/><path class="cls-14" d="M120.38,316.1a55.4,55.4,0,0,1,9.15-6.25c.54-.3,1.08-.6,1.62-.88-1.35-1.77-2.68-3.34-3.75-4.57l-11.59,6.67C116.37,311.56,118.28,313.64,120.38,316.1Z"/><path class="cls-11" d="M123.29,343a9.39,9.39,0,0,1-2.53-2.79,15.25,15.25,0,0,1-1.67-5.42c-2.41,2.29-4.52,4.1-4.86,4.1-.83,0-7.92-3.75-7.92,6.17s3.42,24.17,8.92,23.46,4.5-11.15,3.17-22C118.4,346.52,120.48,345.13,123.29,343Z"/><path class="cls-15" d="M115.79,346.68c-.65.08-1.71.56-2.3,0-1.67-1.67-.37-5.26.55-7.78-1.4-.34-7.73-3.18-7.73,6.2,0,9.91,3.42,24.17,8.92,23.46s4.53-10.79,3.24-21.45A4.14,4.14,0,0,0,115.79,346.68Z"/><path class="cls-16" d="M72.64,301.31l-3.33,2.51s-2.81,1.74-1,3.52c0,0-2.92.84-5.63,18.34a35.93,35.93,0,0,1,14.79,0c8.54,1.66,9.37,3.12,10.31,2.18s3.12-13.33,8.12-13.95,10.51,6.35,11.35,7.29,1.25,1.77,4.89-2.08,14.68-10.62,22.28-13.23A44.48,44.48,0,0,0,120.12,293a3.27,3.27,0,0,1-1.14-2.33c-.13-1.6-17.08.88-17.4,1.08S72.64,301.31,72.64,301.31Z"/><path class="cls-17" d="M102.8,314.21c-2.51-1.49-6.12-2.94-8.64-.61-2.76,2.56-3.89,6.66-5,10.38,1.3-4,3.38-9.65,6.72-10.07,5-.62,10.51,6.35,11.35,7.29.68.77,1.09,1.47,3.26-.48A35.11,35.11,0,0,0,102.8,314.21Z"/><path class="cls-17" d="M62.64,325.68a33.46,33.46,0,0,1,10-.64c.56-1.37,1.15-2.71,1.81-4,2.21-4.47,5.6-10.84,10.83-12.28,3.55-1,7.21-1.39,10.75-2.46a82.27,82.27,0,0,0,10.81-4c5.17-2.39,9.75-5.79,12.35-10.79a3.89,3.89,0,0,1-.17-.84c-.13-1.6-17.08.88-17.4,1.08s-28.94,9.58-28.94,9.58l-3.33,2.51s-2.81,1.74-1,3.52C68.27,307.34,65.35,308.18,62.64,325.68Z"/><path class="cls-18" d="M114.85,294.65A5.94,5.94,0,0,0,120,297a10.17,10.17,0,0,0,4.34-1.22,41.74,41.74,0,0,0-4.26-2.77,3.27,3.27,0,0,1-1.14-2.33c0-.58-2.31-.62-5.18-.43A7.65,7.65,0,0,0,114.85,294.65Z"/><path class="cls-18" d="M65.78,311.71c4.19.27,9.47-2.86,9.64-6.72a14.58,14.58,0,0,0-.54-4.41l-2.24.73-3.33,2.51s-2.81,1.74-1,3.52C68.27,307.34,67.21,307.65,65.78,311.71Z"/><path class="cls-19" d="M84.81,236.32s-10.5,4.33-13.5,22.83-2,44.67-2,44.67,13.42,7.93,32,0c14.84-6.34,17.67-13.17,17.67-13.17s-2.48-41.17-24.91-54.33C94.07,236.32,90.15,229.65,84.81,236.32Z"/><path class="cls-20" d="M78.84,272.5a82.77,82.77,0,0,1,3.69-18.77c.82-2.4,2-5.62,4.22-7.27a11.91,11.91,0,0,1-2.55-2.92,15.15,15.15,0,0,1-2.29-5.36c-3.33,2.68-8.61,8.72-10.6,21-3,18.5-2,44.67-2,44.67A30.82,30.82,0,0,0,80.5,307.1,131.72,131.72,0,0,1,78.84,272.5Z"/><path class="cls-21" d="M79.61,238s3.23,13.52,10.83,9.78c6.35-3.12-1.57-15.36-1.57-15.36Z"/><path class="cls-5" d="M67.54,267.89l4.06,7.5s-5.21,5.72-15,0C56.6,275.39,58.69,267.06,67.54,267.89Z"/><path class="cls-22" d="M76.28,244.79s-4.27,9.57-4.68,30.6c0,0-9-9.37-15,0C56.6,275.39,61.39,252,76.28,244.79Z"/><path class="cls-23" d="M67.79,262.94c-.75,2.34-1.38,5.13-3.05,7a15.09,15.09,0,0,1-1.27,1.26c4.32.18,8.13,4.16,8.13,4.16.37-19,3.89-28.66,4.57-30.33C71.93,250.25,69.81,256.61,67.79,262.94Z"/><path class="cls-24" d="M25.14,266.86a8.64,8.64,0,0,0,1-3.31c.16-1.06.24-2.13.32-3.2a38,38,0,0,0-4.38,1,4.67,4.67,0,0,0-3,2.38,5.82,5.82,0,0,0,.25,4.08,7,7,0,0,0,4.16.45A3.35,3.35,0,0,0,25.14,266.86Z"/><path class="cls-25" d="M30.55,262.33a11,11,0,0,0,1.29-4.24c.2-1.35.31-2.71.41-4.08a50.61,50.61,0,0,0-5.61,1.27,5.92,5.92,0,0,0-3.87,3c-.73,1.61-.24,3.61.31,5.22a9,9,0,0,0,5.31.56A4.29,4.29,0,0,0,30.55,262.33Z"/><path class="cls-26" d="M37.26,257.83A15.06,15.06,0,0,0,39,252.08c.27-1.84.43-3.7.56-5.55A64.67,64.67,0,0,0,32,248.25a8.05,8.05,0,0,0-5.26,4.13c-1,2.2-.32,4.92.42,7.1,0,0,3.76,1.7,7.23.76A5.76,5.76,0,0,0,37.26,257.83Z"/><path class="cls-27" d="M44.4,251.8a19,19,0,0,0,2.22-7.24c.34-2.32.53-4.65.7-7a82.27,82.27,0,0,0-9.6,2.16c-2.79.88-5.39,2.45-6.63,5.21s-.41,6.19.53,8.93c0,0,4.74,2.15,9.1,1A7.21,7.21,0,0,0,44.4,251.8Z"/><path class="cls-28" d="M18.46,266.4a7.24,7.24,0,0,0-6.41,1,18.6,18.6,0,0,0-4.92,4.35c-.61.35,1.06.37,2.2-.05a5.22,5.22,0,0,0-2.71,3.49l3.55-1.5c.42-.18-2.89,1.25-3.69,3.88a10.61,10.61,0,0,0,9-2.65,18.94,18.94,0,0,1-2.17,2.32c-.63.41,6.92-.72,7.29-7.93Z"/><path class="cls-29" d="M21.36,269.17a1,1,0,0,1-1.34-.11l-1.94-2.32a1,1,0,0,1,.12-1.33h0a.94.94,0,0,1,1.33.11l1.94,2.32a.94.94,0,0,1-.11,1.33Z"/><path class="cls-30" d="M54.25,264.37a7.6,7.6,0,0,0,.29-2.93c0-.91-.15-1.82-.26-2.72a32.17,32.17,0,0,0-3.5,1.56,4,4,0,0,0-2.13,2.48,4.91,4.91,0,0,0,.89,3.36,6,6,0,0,0,3.53-.32A2.81,2.81,0,0,0,54.25,264.37Z"/><path class="cls-31" d="M58,259.69a9.36,9.36,0,0,0,.37-3.73c0-1.17-.19-2.32-.33-3.48a41.46,41.46,0,0,0-4.46,2,5,5,0,0,0-2.73,3.18c-.33,1.47.41,3.05,1.13,4.29a7.62,7.62,0,0,0,4.52-.41A3.57,3.57,0,0,0,58,259.69Z"/><path class="cls-32" d="M62.84,254.83a12.77,12.77,0,0,0,.51-5.08c-.08-1.59-.26-3.15-.46-4.72a57.55,57.55,0,0,0-6.06,2.69,6.88,6.88,0,0,0-3.71,4.33c-.45,2,.55,4.15,1.53,5.84a10.47,10.47,0,0,0,6.15-.56A4.89,4.89,0,0,0,62.84,254.83Z"/><path class="cls-33" d="M67.79,248.62a16,16,0,0,0,.64-6.4c-.1-2-.33-4-.58-5.94a69.41,69.41,0,0,0-7.63,3.39,8.67,8.67,0,0,0-4.67,5.45c-.57,2.51.69,5.22,1.93,7.35,0,0,4.31,1,7.75-.7A6.24,6.24,0,0,0,67.79,248.62Z"/><path class="cls-34" d="M48.6,265.1A6.13,6.13,0,0,0,43.43,267a15.56,15.56,0,0,0-3.38,4.44c-.45.38.94.12,1.82-.41a4.41,4.41,0,0,0-1.68,3.36l2.72-1.85c.31-.22-2.21,1.52-2.44,3.85a9,9,0,0,0,7.05-3.7,15.53,15.53,0,0,1-1.43,2.3c-.45.45,5.65-1.76,4.76-7.82Z"/><path class="cls-35" d="M51.47,266.93a.81.81,0,0,1-1.13.12l-2-1.61a.8.8,0,0,1-.12-1.13h0a.8.8,0,0,1,1.13-.12l2,1.6a.81.81,0,0,1,.12,1.14Z"/><path class="cls-36" d="M33.88,151.55S10.7,158,2.59,182.71,4,249.83,51.05,247.32s79.17-48.39,70.61-74.8S70.62,116.43,33.88,151.55Z"/><g class="cls-37"><path class="cls-38" d="M115.71,173.92l-88,62C30.77,240.64,39,240.7,39,240.7c2,2.8,5.78,5.23,8.47,6.72,1.16,0,2.35,0,3.56-.1,33.13-1.77,58.85-25,68.19-47.86A34.91,34.91,0,0,0,116,186.54C119.63,180.61,115.71,173.92,115.71,173.92Z"/></g><path class="cls-39" d="M104.83,181.21s-5.51-9.17,1-12.57,17.63,9.64,5.65,20.5Z"/><path class="cls-40" d="M108.48,174.81c-1.46,2.3,1.67,7,3.8,7.26a17.66,17.66,0,0,1-1.36-1.39,1.37,1.37,0,0,0,1.16-.27c1.51-1.07.56-2.94.56-2.94s-.25,3.18-3,1.45a3.39,3.39,0,0,1-.56-2.66c.78-2.29,2.31-2.29,3.25-2C112.32,174.23,109.94,172.52,108.48,174.81Z"/><path class="cls-41" d="M37.51,228.51s-5.48-9.19-11.56-5,.17,20.1,15.4,14.65Z"/><path class="cls-42" d="M30.15,228.71c2.71-.21,5.37,4.77,4.6,6.77a15.39,15.39,0,0,0-.58-1.85,1.35,1.35,0,0,1-.78.89c-1.66.82-2.86-.89-2.86-.89s2.92,1.28,2.7-2a3.4,3.4,0,0,0-2.08-1.75c-2.39-.4-3.11,1-3.32,1.91C27.83,231.82,27.44,228.91,30.15,228.71Z"/><path class="cls-43" d="M94.05,164.63c1.68,2.66,2.7,6.83,4.6,9,3.56,4,8.88,5.57,12.11,9.7,11.62,14.88,4.62,34.38-4.91,44.6a63.66,63.66,0,0,1-43.14,20.4c-21.27,1-27.08-13.73-28.81-22.09s-12.41-17.53-12.41-17.53S12.8,200.46,23,179.06,78.28,139.82,94.05,164.63Z"/><path class="cls-44" d="M40.83,209.75a8.45,8.45,0,0,1,7.46-3.16s-2.06-3-5.82-.86C39.64,207.36,40.83,209.75,40.83,209.75Z"/><path class="cls-45" d="M83,182.38a8.45,8.45,0,0,0-5.66,5.81s-2.07-3,1.31-5.73C81.23,180.41,83,182.38,83,182.38Z"/><path class="cls-46" d="M80.46,188s-3.84,4.41,1.13,12.25,8.72,6.72,8.72,6.72a7,7,0,0,0-.46,2.51s5.43-5.49,9.07-7.86l-3.22,1.49s2-4.91-2.84-10.92S83.92,184.28,80.46,188Z"/><path class="cls-47" d="M92.65,193.68c2.87,5.08,2.82,10.54-.12,12.2s-7.66-1.1-10.53-6.17-2.81-10.54.13-12.2S89.78,188.61,92.65,193.68Z"/><path class="cls-48" d="M91.22,195.06c2.19,3.7,2.23,7.73.09,9s-5.66-.7-7.85-4.4-2.23-7.74-.09-9S89,191.36,91.22,195.06Z"/><path class="cls-49" d="M90,195.85c1.46,2.46,1.48,5.13.06,6s-3.76-.46-5.21-2.92-1.48-5.13-.06-6S88.57,193.39,90,195.85Z"/><path class="cls-50" d="M86.68,195.45c.69,1.51.53,3.07-.35,3.47s-2.15-.51-2.84-2-.54-3.08.34-3.48S86,193.92,86.68,195.45Z"/><path class="cls-51" d="M51.51,209s-4.58-2.36-6.83,2,.3,12.9,8.8,17.07a8.42,8.42,0,0,0,2,.61l-3,3.18s5.33-4.17,9.57-5.59l-1.32-.75s2.17-4.24-1.41-9.61S51.51,209,51.51,209Z"/><path class="cls-52" d="M57.56,215c3.24,4.85,3.59,10.29.78,12.17s-7.71-.52-11-5.36-3.6-10.3-.79-12.18S54.31,210.12,57.56,215Z"/><path class="cls-53" d="M56.8,215.8c2.39,3.57,2.65,7.59.58,9s-5.69-.39-8.08-4-2.65-7.6-.58-9S54.41,212.23,56.8,215.8Z"/><path class="cls-54" d="M55.65,216.66c1.59,2.37,1.76,5,.38,6s-3.77-.26-5.36-2.63-1.76-5-.39-6S54.06,214.29,55.65,216.66Z"/><path class="cls-55" d="M52.28,216.44c.78,1.48.71,3-.15,3.49s-2.18-.39-3-1.87-.71-3,.15-3.49S51.51,215,52.28,216.44Z"/><path class="cls-56" d="M80.45,219.9c-1.86,5.13-7.46,3.59-7.39.18A3,3,0,0,1,76.27,217c-.22,0-.64.3-.82.4A3.72,3.72,0,0,0,74,218.64c-1.34,2.12.81,4.13,3,3.91a3.27,3.27,0,0,0,1.9-1A14.59,14.59,0,0,0,80.45,219.9Z"/><g class="cls-57"><path class="cls-58" d="M76.43,218.83a1.51,1.51,0,1,1-2.09-.42A1.51,1.51,0,0,1,76.43,218.83Z"/></g><path class="cls-59" d="M24.38,157.93s-28,18.65-22,52.1c0,0,3.13,16.75,14.73,26.34C17.15,236.37-12.88,198.47,24.38,157.93Z"/><path class="cls-60" d="M41.61,202.41a18.31,18.31,0,1,0,25.12,6.3A18.32,18.32,0,0,0,41.61,202.41Zm18,30.12a16.8,16.8,0,1,1,5.78-23A16.79,16.79,0,0,1,59.65,232.53Z"/><path class="cls-60" d="M79.69,178.3a18.32,18.32,0,1,0,25.12,6.31A18.32,18.32,0,0,0,79.69,178.3Zm18,30.13a16.8,16.8,0,1,1,5.78-23A16.79,16.79,0,0,1,97.73,208.43Z"/><path class="cls-60" d="M64.48,206.43s3.39-5.43,9.15-4.92l.48,1.58s-6,1.07-8.45,5Z"/><polygon class="cls-60" points="33.16 219.35 26.43 222.85 30.28 222.64 33.53 222.45 33.16 219.35"/><polygon class="cls-60" points="96.61 177.87 102.5 173.28 102.74 175.1 98.94 179.94 96.61 177.87"/><g class="cls-37"><path class="cls-61" d="M48.56,174.57s25.85,12.5,50.31-.75l-.22-.22c-1.9-2.14-2.92-6.31-4.6-9-15.77-24.81-60.83-7-71,14.43s-1.52,29.62-1.52,29.62a58.69,58.69,0,0,1,8.3,9.1C36.45,210.46,51.31,191.88,48.56,174.57Z"/></g><path class="cls-62" d="M22.58,221s24.84-22.83,24.59-48.63c0,0,28.41,10.61,52.19-1.4,0,0-7-22.15-30.18-25.14C44.66,142.62-7.86,187.85,22.58,221Z"/><path class="cls-63" d="M47.17,172.34s-6.43-14-13.29-20.79C33.88,151.55,38.68,163.75,47.17,172.34Z"/><path class="cls-64" d="M88.87,227.39c3.5-3.13,8.34-10.39,10.17-11,2.49-.83,5.5,11.86-6.92,21.23s-25.16,3.87-25,1.3S78.29,236.86,88.87,227.39Z"/><path class="cls-65" d="M73.9,237.33a18.5,18.5,0,0,0,6.75-1.18A29.66,29.66,0,0,0,92,228.51,15.27,15.27,0,0,0,95.69,222a5.93,5.93,0,0,0,.22-2.71c-2.17,2.59-5,6.26-7,8.11-6.78,6.06-13.72,8-17.88,9.34A8.89,8.89,0,0,0,73.9,237.33Z"/><path class="cls-66" d="M92,233.3c-3.93,1.52-8,4.67-9.2,8.88a25.86,25.86,0,0,0,9.33-4.56,25,25,0,0,0,5.17-5.1A11.7,11.7,0,0,0,92,233.3Z"/><path class="cls-67" d="M84.93,238.85s-1.27,2.81.54,2S86.72,236.57,84.93,238.85Z"/><path class="cls-4" d="M106.62,0V142.9c-1.45,3.28-7.51,19.86-7.85,68.45-.35,50.38.66,63.12,1.93,79.24l.29,3.72c1.19,15.33-4.82,37.23-10.56,49.3.87.19,1.46.36,2.22.57s2.57.69,2.57.69c6-13,12-34.94,10.75-50.94l-.29-3.73c-1.26-16-2.26-28.65-1.91-78.82.37-52.26,7.49-66.62,7.55-66.74a2.44,2.44,0,0,0,.3-1.18V0Z"/><path class="cls-68" d="M120.48,157.73s.83-11.5-8.67-18-18.83,2.42-14.33,4.5c0,0-5.5,2.84-2.5,5.84,0,0-4.83,2.58-.5,5.16,0,0-1.25,2.25,2.92,5.17s6.25,1.08,4.25-2.25c0,0,4-.83,5.25,1.75s2.5,4,6,2.83c0,0,17.47,20.08,12.48,35.67a49.14,49.14,0,0,1-10.27,17.95,36.9,36.9,0,0,0,4.31,11.11c5.13-4,14-12.77,16.39-26.39C139.15,181.82,127.48,162,120.48,157.73Z"/><path class="cls-69" d="M115.55,215.88l-.44.47a36.9,36.9,0,0,0,4.31,11.11c.85-.67,1.82-1.48,2.83-2.42A15.06,15.06,0,0,1,115.55,215.88Z"/><path class="cls-70" d="M103.92,144.8c-2.09-1.94-5.6-1.56-7.84-.23-1.59.94-2.78,3.76-1.39,5.26a5,5,0,0,0-.7.46c-.64.5-1.57,1.48-1.41,2.39a3.46,3.46,0,0,0,1.77,2.59A5.11,5.11,0,0,0,95.1,159c.18.27.65,0,.51-.27-.78-1.72-1.35-4.47,1.08-5.2a12.31,12.31,0,0,1,5.63,0c.11,0,.15-.14.05-.19-2-.94-5.17-1.24-7,.18a2.71,2.71,0,0,0-.77,1c-2.39-1.59-.42-3.78,1.56-4.51a7.36,7.36,0,0,1,5.11.05c.1,0,.19-.1.11-.16a6.2,6.2,0,0,0-6-.43.15.15,0,0,0,0-.07c-2.15-2.15,1.62-4.72,3.3-5.09a10.58,10.58,0,0,1,5.08.72A.13.13,0,0,0,103.92,144.8Z"/><path class="cls-71" d="M112.06,269.65c1.07-1-.08-2.83-.08-2.83a5.64,5.64,0,0,0-1-4.09c-1.83-6.91-7.42-4.5-12.47-1.58s-2.7,9.08-4.44,11.25-24.77,11.09-26.84,9.83c-1.34-.81-.73-6.27-.13-10a7,7,0,0,0-8.18.45,11.76,11.76,0,0,0-2.31,2.69h0a23.31,23.31,0,0,0,1.21,15.26c1.42,2.92,3.84,5.17,15.92,1.75S96,280.32,96,280.32c1.75,1.5,6,1.08,8-2.39s2.75-3.61,2.75-3.61c.42.75,3.33,1.5,5-.59A3.5,3.5,0,0,0,112.06,269.65Z"/><path class="cls-72" d="M65.05,274.18a7.32,7.32,0,0,1,1.71.36c.11-.8.22-1.58.34-2.3a7,7,0,0,0-8.18.45,11.76,11.76,0,0,0-2.31,2.69h0a21.27,21.27,0,0,0-.48,2.18A10.79,10.79,0,0,1,65.05,274.18Z"/><path class="cls-73" d="M109.55,273.54a2,2,0,0,0-1-.49,3,3,0,0,0-1.52.37,4.16,4.16,0,0,0-2.19,2.25.19.19,0,0,0,.32.19,14.12,14.12,0,0,1,1.65-1.63,4,4,0,0,1,2.66-.58C109.55,273.66,109.61,273.58,109.55,273.54Z"/><path class="cls-74" d="M111.92,269.45a3.09,3.09,0,0,0-.4-3.25c1.47-4-4.3-6.62-7.33-4.8-.15.09,0,.34.13.31a7.22,7.22,0,0,1,4.33.38,4.11,4.11,0,0,1,2.41,3.6c-1.88-1.73-5.6-2.24-7.5-.63-.18.15,0,.48.21.36a6.32,6.32,0,0,1,5.08-.17c1.88.68,2.92,1.94,2.74,3.83a4.16,4.16,0,0,0-1.33-.9c-1.71-.73-4.89-.63-5.54,1.45a.2.2,0,0,0,.35.19c1.1-1.27,2.71-1.23,4.26-1a2.75,2.75,0,0,1,2.46,3.66c-.05.18.21.37.32.17A2.86,2.86,0,0,0,111.92,269.45Z"/></g></g></g></svg>