<svg xmlns="http://www.w3.org/2000/svg" viewBox="0 0 303.13 191.23"><defs><style>.cls-1{isolation:isolate;}.cls-2{fill:#dcddde;}.cls-17,.cls-19,.cls-2,.cls-21,.cls-22,.cls-23,.cls-28{mix-blend-mode:multiply;}.cls-3{fill:#622803;}.cls-4{fill:#bae1cf;}.cls-5{fill:#a2def9;}.cls-6{fill:#b3d786;}.cls-7{fill:#5dbf89;}.cls-8{fill:#a9abae;}.cls-29,.cls-9{fill:#fff;}.cls-10{fill:#747779;}.cls-11{fill:#ed1b2f;}.cls-12,.cls-19,.cls-27{fill:#eed9c9;}.cls-13,.cls-22,.cls-25{fill:#00748e;}.cls-14,.cls-20{fill:#5c63ad;}.cls-15{fill:#7bc143;}.cls-16,.cls-17,.cls-18{fill:#ffd21e;}.cls-18,.cls-20,.cls-25,.cls-27{mix-blend-mode:screen;}.cls-21{fill:#583e98;opacity:0.5;}.cls-23{fill:#c11726;}.cls-24{fill:#e9e964;}.cls-25{opacity:0.7;}.cls-26{opacity:0.9;}.cls-28{fill:#a60f1d;}.cls-29{opacity:0.6;mix-blend-mode:overlay;}</style></defs><g class="cls-1"><g id="Layer_2" data-name="Layer 2"><g id="Layer_1-2" data-name="Layer 1"><path class="cls-2" d="M227.2,191.23a22.49,22.49,0,0,1-5.58-2.22c-2.51-1.19-5.19-2.09-7.8-3.09-5.55-2.11-11.1-4.18-16.66-6.29-5.24-2-10.47-4-15.73-5.88,1.43-7.32,11.6-11.92,17.3-15.14,9.54-5.35,20.36-8.69,31.06-10.68,12.17-2.24,24.78-3.1,36.38-7.63l-.61-.07c-.68-.08-.92-1.18-.09-1.08A340.72,340.72,0,0,1,302.36,145a.88.88,0,0,1,.14,1.72,63,63,0,0,0-18,8.35c-4.3,2.82-8.22,6.13-12.76,8.61-4.94,2.69-10.85,3.12-16.1,4.94a47.58,47.58,0,0,0-15.81,9.51c-3.87,3.38-6.25,8.27-10,11.63A6.4,6.4,0,0,1,227.2,191.23Z"/><path class="cls-2" d="M71.47,153.46c10.68,1.15,21.46,3.36,32.07,5,10.94,1.77,20.52,7.48,31.38,9.48,10.25,1.87,19.52.76,29.21-2.63,1.5,2.73,3.32,5.11,6.78,5,5.17-.12,10-5.44,14.06-8,5.73-3.64,10-13.71,16.46-16.07,5.43-2,13,2.39,17.95-.62,2-1.18,2.78-3.07,1.1-4.8s-5.71-1.5-7.94-1.6c-10.52-.49-21-.24-31.1,2.37a1.46,1.46,0,0,0-1.05-.43c-12.3.21-24.42.89-36.71-.06a342.47,342.47,0,0,1-37.48-4.9c-10.38-2-19.86-2.61-30,.94-3.74,1.32-18.16,5-16.77,11.18C60.36,152.59,68.16,153.12,71.47,153.46Z"/><path class="cls-3" d="M215.67,148a24.86,24.86,0,0,1,6.46-1c1.1,0,2.64.4,4,.36,4.31-12.24,18.06-16.1,29.76-17.53,12.75-1.59,26.2,4.07,38.37,7.43a.36.36,0,0,1,.18.12.63.63,0,0,1,.49,0l.08,0a.57.57,0,0,0,.13.08.48.48,0,0,0,.09.11.44.44,0,0,0,.08.11l0,0c.14.27.13.58-.2.7h0a.33.33,0,0,1-.31.17,66.79,66.79,0,0,0-8.1.24,50.72,50.72,0,0,1,9.61,2.74l.27.05a.33.33,0,0,1,.21.15l.18.08c.26.12.29.43.1.51,0,.19-.06.37-.35.38A40.2,40.2,0,0,0,285,145.08a63.52,63.52,0,0,1,10.75-1.44c.49,0,.92.68.3.83-2.51.53-5.1.73-7.64,1.12-4.42.68-8.3,3-12,5.43a95.83,95.83,0,0,0-7.95,5.92c-1.39,1.1-1.92,3-3.52,3.72a.86.86,0,0,1-.86,1.26c-6.6.14-13,4.28-18.5,7.54-6.38,3.78-12.4,7.35-16,13.74-.14,1.86-.37,4-2.09,4.31-3.41.57-8.4-2.16-11.48-3.25-5.37-1.91-10.7-3.87-16-5.95-2.56-1-5.13-2-7.77-2.8v0c-2.3-.88-4.61-1.75-6.79-2.84,0,0,0-.08,0-.11l-.3-.1,0,.05c-.55-.28-1.09-.57-1.62-.88,3.36-8,9.5-13.11,17.22-17.47A56.1,56.1,0,0,1,215.67,148Z"/><path class="cls-4" d="M291.81,141.3a38.13,38.13,0,0,1-7.83-2,24.23,24.23,0,0,0-10.23,4.42,28,28,0,0,0-9.36,12.46C269.91,147.92,281.72,141.48,291.81,141.3Z"/><path class="cls-5" d="M262.22,158.17c.09-.92.28-2.59.32-2.74a30.79,30.79,0,0,1,1.6-4.12c1.7-3.64,4.88-6.66,7.91-9.19,5.29-4.4,11.69-5.35,18.18-4.79-.87-.25-1.64-.44-1.75-.47-2.69-.61-5.36-1.26-8-1.91-5.94-1.38-11.79-3.09-17.86-3.89-5.81-.76-13.74,1.22-19.11,3.28-6.75,2.58-12.64,6-15.36,13,11.37,3.45,22.63,7,33.91,10.75Z"/><path class="cls-4" d="M197.25,175.61c4.19,1.54,8.32,3.25,12.52,4.8s8.49,3.2,12.8,4.53c1.42.44,4.83,2.05,5.44-.49a15.8,15.8,0,0,1,.77-2.41c2-6.07,9.29-10.29,14.26-13.45,4.12-2.62,8.78-5.7,13.7-7.38-.9,0-1.79.13-2.64.17-3.94.28-7.16,3.23-10.34,5.23-6.12,3.84-16,9.74-17.75,17.44-.08.34-.64.2-.62-.1a10.78,10.78,0,0,1,.81-3.43c-.78,1.16-1.56,2.34-2.33,3.54a.43.43,0,0,1-.21.17.57.57,0,0,1-.6.17c-2.6-.69-5-2.18-7.54-3.2a98.29,98.29,0,0,0-9.8-3.33c-2.84-.88-5.72-1.6-8.61-2.3A.27.27,0,0,1,197.25,175.61Z"/><path class="cls-5" d="M186.1,170.43c6.67,1.88,13.43,3.3,20,5.36a103.75,103.75,0,0,1,9.76,3.59c.55.24,6.12,3.48,7,3.93,4.29-12.62,20.37-25,34.55-24.7-4.76-1.56-9.43-3.43-14.11-5.18-5.1-1.9-10.44-3.38-15.45-5.54a.09.09,0,0,1,0,.05c-.25.68-1.1.61-1.56.22a23.25,23.25,0,0,1-2.95.1c-5.43.2-11,2-15.93,4.24A65.09,65.09,0,0,0,192.25,162,25.47,25.47,0,0,0,186.1,170.43Z"/><path class="cls-6" d="M255,134.61c-3.51,4.71-7.79,5.16-13.22,6.26-3.46.69-5.22,2.86-6.45,6.08a4,4,0,0,1-1.73,2.06l-5.53-1.69c2.72-7,8.61-10.4,15.36-13A53.11,53.11,0,0,1,257.33,131,41.07,41.07,0,0,1,255,134.61Z"/><path class="cls-6" d="M222.65,150.1c-4,.57-6.27,2.07-8.19,5.6-1,1.85-2.28,4.32-4.51,4.88-1.81.45-3.55.06-5.38,0-6.68-.22-8.72,6.34-10.8,11.86-2.57-.65-5.13-1.3-7.67-2a25.47,25.47,0,0,1,6.15-8.48,65.09,65.09,0,0,1,15.18-9.45c4.91-2.22,10.5-4,15.93-4.24a23.25,23.25,0,0,0,2.95-.1c.46.39,1.31.46,1.56-.22a.09.09,0,0,0,0-.05c1.45.63,2.92,1.18,4.4,1.72C229.38,150.47,225.3,149.72,222.65,150.1Z"/><path class="cls-7" d="M246.78,137.12a47.65,47.65,0,0,1-6.67,1.72c-1.38.28-3.28.69-4.37,1.71-2.65,2.51-3.7,5.47-6.72,7-.32-.08-.6-.19-.91-.27,2.72-7,8.61-10.4,15.36-13a58.22,58.22,0,0,1,10-2.8C252.35,134.27,249.8,136.06,246.78,137.12Z"/><path class="cls-7" d="M216.42,151.23c-3.29,2.4-5.68,5.45-9.73,6.71-2.94.91-6,1.37-8.83,2.72-4.48,2.16-5.61,6.78-7.38,10.94-1.47-.39-2.93-.75-4.38-1.17a25.47,25.47,0,0,1,6.15-8.48,65.09,65.09,0,0,1,15.18-9.45c4.91-2.22,10.5-4,15.93-4.24a23.25,23.25,0,0,0,2.95-.1,1.76,1.76,0,0,0,.45.24C223.37,149.13,219.33,149.1,216.42,151.23Z"/><path class="cls-3" d="M1.84,109.89c3.84,2.67,8.24.48,11.58-2,6.66-5,12.7-10.3,20.14-14.22C37,91.8,40.4,89.76,44,88.23a35.69,35.69,0,0,1,3.76-1.33c2.63,6.12,7.29,12,10.94,17.59,3.83,5.81,7.95,11.65,11.35,17.72,0,3.55-.06,7.12,0,10.67s-1.11,7.39.76,10.45c1.15,1.9,4.15,2.64,6.11,3.28a27.33,27.33,0,0,0,4.15.48c2.55.4,5,1.22,7.56,1.72a53.58,53.58,0,0,0,11.07,1.05.18.18,0,0,0,.11,0,19.92,19.92,0,0,0,.83,2.23,6.55,6.55,0,0,0,3.43,2,114.29,114.29,0,0,0,17.21,3.07.78.78,0,0,0,.31,0,26.4,26.4,0,0,0,6.28,3c9.57,3.09,22.25,4.31,31.62-.11a.47.47,0,0,0,.25-.25,59.48,59.48,0,0,0,7-2.3,21.44,21.44,0,0,0,1,2.9,1,1,0,0,1,.1-.11c7.06,13.54,29.21-14.82,34-20.22h0a3.86,3.86,0,0,0,2.9-.7,26.3,26.3,0,0,0,8,5,7.16,7.16,0,0,0,5.55.59,4.19,4.19,0,0,0,3-3.76.41.41,0,0,0,0-.11c.8-1.39-.39-3.62-.43-5.06a78.28,78.28,0,0,0-1.12-10.69c-1.26-7.4-4.06-14.38-6-21.6,3.5-3.88,8.32-6.44,8.77-12.06.39-5-2.26-11.36-5.84-15,.25-.07.13-.45-.11-.56-1.65-.7-2.3-.26-2.41.67-1.42-5.82-2.86-11.61.27-17.76a.24.24,0,0,0,0-.17,9.25,9.25,0,0,0,.61-.74c5.2,3.25,10.49,4.71,16.52,2.25,4.7-1.94,8.42-7.61,7.61-12.85-1.09-7.09-7.48-16.09-14.77-15.22,1.56-2.69-2.3-8.85-3.31-10.85A30.62,30.62,0,0,0,210.62,9.61,60.84,60.84,0,0,0,174,.13c-14.26,1-27.86,4.25-39.66,12.68a44.77,44.77,0,0,0-11,11.57,5.6,5.6,0,0,0-3.18-2.87,4.13,4.13,0,0,0-3-.07c1.94-6-6.29-12.92-10.7-15S94.05,3.73,93.54,9.82c-3.51-3.21-8.48-5.11-13-4.48-3.47.5-6.54,1.83-8.47,4.91-1.19,1.89-.11,4.5,1.07,6.46A9.4,9.4,0,0,0,69,17.81c-2.15,1.15-2.43,2.79-1.6,4.12-3.12.42-6.07,2.91-6.27,6.07-.24,3.38,3.91,7.09,7,7.68a.61.61,0,0,0,.19,0A5.92,5.92,0,0,0,68,42a11.47,11.47,0,0,0,7.42,5.22,10,10,0,0,0,6-.92c-.92,5,6.38,8.53,10.47,8.24a11,11,0,0,0,9-5.13c1.31,4.36,6.33,7.06,10.53,4.46,4.74-3,4.43-9.36,2.37-13.86a4.1,4.1,0,0,0,3.44.3c0,.25-.07.52-.09.77-5.37,14.57-2.81,34.08,6.34,46.52,3.78,5.15,8.61,10.2,14.58,12.78,5.13,2.22,12.34,4.48,16.86,0a25.39,25.39,0,0,0,9.28,6.75,37.86,37.86,0,0,0,6.08,1.86,23.58,23.58,0,0,0-2.77,2.11c-.07.06-.14.11-.21.18a49.35,49.35,0,0,1-4,3.33l-1.76,1.18a.59.59,0,0,0-.48.19c-.08.1-.13.19-.2.28s-.39.28-.62.42l0,0c-6.16.62-11.6-2.33-17.55-3a22.81,22.81,0,0,0-13.82,2.3,30.56,30.56,0,0,0-7.68,6.09c-2,.26-4.06.11-6,.85-1.47.56-3.18,2.76-4.24,4.32h0a95.67,95.67,0,0,1-10,.73c-2.79.11-5.63.85-8.43.69-3-.17-5.69-5.45-7.33-7.61A49.55,49.55,0,0,0,81,116.12c-.34-3-.66-6-1-9C78.76,97.41,76.39,88,77,78.19l.23,0a.41.41,0,0,0,.05-.18l0,0c3.3-3.78,9.25-4.93,8-11.07-1.07-5.13-7.25-9.2-11.15-12-10.5-7.43-25.3-16.24-38.81-14.38-1.57.21-7.53,1.47-5.07,4.47C34,49.59,41,51.11,46,53.81c7.18,3.83,13.23,9.43,18.66,15.45,2.14,2.39,3.85,4.74,6,6.49,0,8.43-.21,16.87-.36,25.31-2.11-2.86-4.56-5.46-6.81-8.19a57.73,57.73,0,0,0-7.36-7.72,3.53,3.53,0,0,0-.46-.83,3.93,3.93,0,0,1-.21-.4.3.3,0,0,0,0-.22c-.06-.19-.11-.38-.17-.57.6-2.45-.63-4.92-2.46-6.86a11.58,11.58,0,0,0-8.58-4.79,14.59,14.59,0,0,0-7.25.46A41.87,41.87,0,0,0,24.3,77.09a51.52,51.52,0,0,0-12.44,11C7.94,91.29,4.16,95,2,99.46.54,102.31-1.57,107.51,1.84,109.89Zm184.62,2.88-.23-.08c-.21-1-.42-2-.68-2.94a47.14,47.14,0,0,0,20-7.09,2.57,2.57,0,0,0,.56.89,5,5,0,0,0,1.07.92A102.93,102.93,0,0,1,210,122.92a7.05,7.05,0,0,0-3-.66,4.52,4.52,0,0,0-1.12-.73.74.74,0,0,0-.19-.16c-2-.82-5.24-1-6.52,1A78.79,78.79,0,0,0,186.46,112.77Zm-4,32.81a19.8,19.8,0,0,0,1.49-2.81,46.24,46.24,0,0,0,3.52-17.52c3.36,2.88,6.83,5.59,10.27,8.36a7.86,7.86,0,0,1-.35,1.52.38.38,0,0,0-.29,0C191.78,137.67,187.21,142.15,182.45,145.58Z"/><path class="cls-8" d="M2.06,104.7c.14-.34.33-.67.51-1a15,15,0,0,1,.53-2.15A13,13,0,0,0,2.06,104.7Z"/><path class="cls-8" d="M9.61,93.32c-.67.87-1.36,1.79-2,2.78.82-1,1.71-2,2.61-2.92a3.64,3.64,0,0,1-.16-.36A6.19,6.19,0,0,0,9.61,93.32Z"/><path class="cls-8" d="M24.62,81a108.73,108.73,0,0,0-12.68,9.41c-.29.35-.57.7-.85,1.06.1.15.2.32.29.48,5.35-5.27,11.76-9.64,18.1-13.6,3.41-2.14,8.81-5,13.53-5.36a9.91,9.91,0,0,0-2.16-.14C35.2,73.16,29.11,78.05,24.62,81Z"/><path class="cls-9" d="M58.88,61.27A2.15,2.15,0,0,0,59,61a3,3,0,0,0,.06-1.22,1,1,0,0,0,0-.18,1.26,1.26,0,0,0-.16.13c-.18.17-.59.62-.6.89a.18.18,0,0,1,0,.11C58.5,60.92,58.68,61.11,58.88,61.27Z"/><path class="cls-9" d="M54.33,57.41c.34-.63.71-1.36.2-1.92-.13-.16-.77.6-1.14,1.16Z"/><path class="cls-8" d="M33.87,46.16a52.14,52.14,0,0,0,6.89,3.45c2.32,1.07,4.63,2.13,6.89,3.33a5.43,5.43,0,0,1,1.55-3.45,62.85,62.85,0,0,0-16-3.79C33.42,45.86,33.63,46,33.87,46.16Z"/><path class="cls-10" d="M83.83,67.75a6.91,6.91,0,0,0-1-2.75c-3-5.13-8.74-8.63-13.65-11.8C60.12,47.34,49.8,42.39,38.85,41.92c-.49,0-7.13.15-6.89,2.19a69,69,0,0,1,24.73,7.17C61.09,53.46,65,56.7,69,59.53c1.93,1.37,3.73,2.88,5.58,4.35,1.27,1,2.57,2,3.88,2.92C78.43,66.79,83.46,70.25,83.83,67.75Z"/><path class="cls-11" d="M76.7,76.94s0,0,0,0,0,0,.06,0,0,0,0,0c2-2.8,6-4.52,6.89-7.48a3.89,3.89,0,0,1-2.36.24c-4.68-.72-9.38-6.43-13-9-5.73-4.06-11.11-7.93-17.62-10.63l-.4-.16-.11,0c-.58,1.25-1.27,2.27-1.19,3.72a37.52,37.52,0,0,1,3.38,2.19c.41-1.18,1.49-2.1,2.8-1.51a2.43,2.43,0,0,1,1.15,2,2.67,2.67,0,0,1-.77,1.93c.58.48,1.15,1,1.72,1.47.3-1.07,1.71-2,2.64-1.2a2.73,2.73,0,0,1,.6,2,2.52,2.52,0,0,1-.55,1.62c1.28,1.21,2.53,2.42,3.75,3.66,3.8,3.82,7.08,10,12.71,10.91A1,1,0,0,1,76.7,76.94Z"/><path class="cls-9" d="M76.4,78.23c-.22,0-.44,0-.67,0a11.94,11.94,0,0,1-4.17-1.85,69.44,69.44,0,0,1,.67,14.74.14.14,0,0,1,.09,0c1.05.59,2.7,1,3.78.2C75.47,86.87,75.28,82.35,76.4,78.23Z"/><path class="cls-12" d="M102.41,129.38c-3.6.15-7.12.92-10.71.61-1.82-.15-2.8-1.87-3.67-3.25-2.15-3.37-5.76-6.37-7-10.23.24,2.2.47,4.38.73,6.56.44,3.84,1.23,7.69,1.25,11.56h.15c2.75.68,5.73.88,8.52,1.33,2.42.39,5.34,1.61,7.77,1.38a.37.37,0,0,1,.15,0,7.75,7.75,0,0,1,1.22-1.94,5.05,5.05,0,0,0,.85-1.4c1.86-1.66,4.19-1.63,6.61-1.3,0-1.2,1-3,1.69-4.07A55.22,55.22,0,0,1,102.41,129.38Z"/><path class="cls-13" d="M117.83,123.76c-2.75.61-5,3.95-6.15,6.35a21.5,21.5,0,0,1-1.25,2.93,15.48,15.48,0,0,0,4,.21A31.51,31.51,0,0,1,120,123.4C119.26,123.51,118.54,123.61,117.83,123.76Z"/><path class="cls-13" d="M137.53,115.57c-.34,0-.68.08-1,.13a.36.36,0,0,1-.09.08c-.89.62-6.78,4.54-3.08,5.16,1.83.32,3.18.06,5,.77,2.35,1,3.81-2.81,5.46-3.84a18,18,0,0,1,2.85-1.42A32.09,32.09,0,0,0,137.53,115.57Z"/><path class="cls-14" d="M170.61,131.07l.36-.36c3.64-4.31,5.35-11.19,3.05-16.49a6.76,6.76,0,0,0-3.64-3.31,11.38,11.38,0,0,1,3-1.29c1.16.18,2.33.28,3.51.35,1.06,2.16,1.52,5.25,2.07,6.75.66,1.83,1.56,4,3.73,4.26a2.58,2.58,0,0,0,2.68-1c.43,8.07,0,16.6-4.14,22.82a45,45,0,0,1-6.43,8.08c-.18.12-.34.24-.52.35-.42.26-.84.58-1.26.87a.61.61,0,0,0-.16.09A117.42,117.42,0,0,1,170.61,131.07Z"/><path class="cls-12" d="M184.55,109.87c0,.38.11.79.16,1.18.15,1.56.3,3.18.44,4.85-.06,1.43-.26,3.66-2,4-1.89.41-2.65-1.89-3.11-3.26a62.57,62.57,0,0,0-2-6.61A48.92,48.92,0,0,0,184.55,109.87Z"/><path class="cls-12" d="M186.69,115.13a60.54,60.54,0,0,1,.77,8.91c3.58,2.43,6.95,5.14,10.42,7.75,0-.83.05-1.65.13-2.37.15-1.57.15-3.11.39-4.64C194.51,121.54,190.62,118.32,186.69,115.13Z"/><path class="cls-15" d="M114.2,38.49c1.16.8,2.22.24,3.28-.34a33.44,33.44,0,0,1,2.09-6.93.52.52,0,0,1-.5-.24,2.51,2.51,0,0,0-.19-.24,3.86,3.86,0,0,1-1.67-.4,7.63,7.63,0,0,0-1.63.52,4,4,0,0,0-2.81,3.76A4,4,0,0,0,114.2,38.49Z"/><path class="cls-16" d="M110.22,10.64c-3.86-3.4-13.34-6.74-15.15.23a.5.5,0,0,1-.21.3,14.1,14.1,0,0,1,2.93,5.3.5.5,0,0,1-.08.45,14.36,14.36,0,0,0-2.42-3.23c-2.57-3.83-7.39-6-11.86-6.56a11.14,11.14,0,0,0-7.54,2c-3,2-2.07,4.93-1,7.65A10.82,10.82,0,0,1,81.67,20c.3.32.16.61-.1.71-.67-.38-1.34-.75-2-1.08a7.94,7.94,0,0,0-1.44-.5,15.52,15.52,0,0,0-3.52-.56,10.77,10.77,0,0,0-3.1.29c-.76.24-4.56,2.31-.86,3.45,1,.41.93,1.93-.32,1.6A7.08,7.08,0,0,1,69,23.39c-3.26-.77-7,3.15-5.92,6.37.83,2.47,3.56,3.68,5.45,5.17a.37.37,0,0,1,.15.19A9.79,9.79,0,0,1,75,31.5a7.34,7.34,0,0,0-5.3,4.64,5.92,5.92,0,0,0-.23,2.54,5.48,5.48,0,0,0,.81,3.26c1.13,1.94,4.39,3.29,6.5,3.55s4.07-.72,5.86-1.4c.72-.28,1.6.72.8,1.2-.17.08-.36.19-.52.28a1.34,1.34,0,0,1,.06.12c2.1,5,5.72,7.75,11.26,6a11.19,11.19,0,0,0,2.4-1.09,7.56,7.56,0,0,0,3.7-2.12,6.84,6.84,0,0,0,1.68-4,.48.48,0,0,1,.19.4,10.92,10.92,0,0,1-.54,2.65,1.1,1.1,0,0,1,.45.43,12.71,12.71,0,0,0,2.57,3.9c2.58,2.5,5.87.34,7.37-2.1,2-3.21,1.78-7.1.5-10.52a6,6,0,0,1-1.53-5.19,5.32,5.32,0,0,1,4.52-4.74.77.77,0,0,1-.13-.12,4.38,4.38,0,0,1-.94-5.52,5.56,5.56,0,0,1,1.17-1.45C116.3,17.67,113.51,13.55,110.22,10.64Z"/><path class="cls-15" d="M121.48,23.83a5.8,5.8,0,0,0-2.09-1.16c-1.69-.59-3.13,1.16-3.67,2.56a3,3,0,0,0,1.26,3.3c.9.65,1.91.5,2.91.74a.68.68,0,0,1,.42.3,39.06,39.06,0,0,1,2.25-4.11A8.54,8.54,0,0,0,121.48,23.83Z"/><path class="cls-16" d="M116.33,60.31c-.39-5.53.61-10.53,1.65-15.73,1.15,6.59,3.45,13.14,7.82,18.22a.34.34,0,1,0,.51-.44c-5.14-5.9-5.48-13-7.59-20.06a37.41,37.41,0,0,1,5-14.67,13.87,13.87,0,0,1,2.63-.5,16.18,16.18,0,0,1,6.13,1.16c.76.25,1.53.52,2.31.8a20.84,20.84,0,0,1,5.08,1.59c-1.87-1.78-5.06-2.69-7.17-3.39-2.67-.89-5.46-1.63-8.14-1.07a39.51,39.51,0,0,1,10.86-11.59c4.82-2.34,10.25-3.7,15.54-2.15a33.36,33.36,0,0,1,16,10.29c.29.35,1,.12.66-.31a33.75,33.75,0,0,0-17.88-11.29,20.3,20.3,0,0,0-8.35-.14,73.07,73.07,0,0,1,28.36-8.24c11.68-1.1,24.16.4,34.7,5.88,5,2.62,9.45,5.91,12.59,10.71a55,55,0,0,1,4.57,8.44c.44,1.09,2,3.42,1.61,4.66,0,0,0,0,0,.06a10.73,10.73,0,0,0-4.64,2.53c-.39.34.28.9.65.61,9.52-7.49,21.67,7.35,17.17,16.54-2.22,4.56-5,7.08-10.23,7.62-4.1.43-7.13-1.11-10.67-2.61,1.93-2.93,2.77-5.47,1-8.9-1.49-3-4.72-5-7.75-6-.42-.12-.49.43-.12.55,4,1.48,9.5,6.21,6.33,11-1.35,2-2.64,4.13-5.07,5-5.65,2-10.18.72-15.38-1.66a2.71,2.71,0,0,0,.19-.25c1.7-2.75.3-6.74-.81-9.39-.2-.5-1.08-.47-.92.15,1.2,4.57.51,8.64-3.83,11.06a26.34,26.34,0,0,1-7.19,3c-5.54,1.18-9.87.1-14.54-2.79,3.16-2.57,4.82-6.16,2.8-10.67-.1-.23-.53-.23-.43.08,2,6.72-5,11.44-11,12a26.5,26.5,0,0,1-15.52-2.85c-.91-.43-1.53.6-.67,1.16a28.6,28.6,0,0,0,6.71,3.12,15.44,15.44,0,0,0-1.74,9.8c.17,1.44.15,3.28.88,4.59.49.88,1.27,2,1.86,3.05-1.51-1-2.51-3.18-3.43-4.51,0-.07-.12-.1-.19-.15-.63-3.55-3.8-7.95-7.74-5.44-3.57,2.25-4.35,7-3.39,10.88S143.84,95,148,89a37.71,37.71,0,0,0,6.21,10.73h0c-6.13,4.15-15.86-.07-21-4.3a41.77,41.77,0,0,1-12.08-15.66A61,61,0,0,1,116.33,60.31Z"/><path class="cls-17" d="M131.74,93a25.43,25.43,0,0,0,14.9,4.12c2.46-.15,3.52-1.3,3.87-2.82a36.06,36.06,0,0,0,3.71,5.42h0c-6.13,4.15-15.86-.07-21-4.3a48.46,48.46,0,0,1-5.78-5.68A29.48,29.48,0,0,0,131.74,93Z"/><path class="cls-18" d="M110.22,10.64c-3.86-3.4-13.34-6.74-15.15.23a.5.5,0,0,1-.21.3,14.1,14.1,0,0,1,2.93,5.3.5.5,0,0,1-.08.45,14.36,14.36,0,0,0-2.42-3.23c-2.57-3.83-7.39-6-11.86-6.56a11.14,11.14,0,0,0-7.54,2c-3,2-2.07,4.93-1,7.65A10.82,10.82,0,0,1,81.67,20c.3.32.16.61-.1.71-.67-.38-1.34-.75-2-1.08a7.94,7.94,0,0,0-1.44-.5,15.52,15.52,0,0,0-3.52-.56,10.77,10.77,0,0,0-3.1.29c-.76.24-4.56,2.31-.86,3.45,1,.41.93,1.93-.32,1.6A7.08,7.08,0,0,1,69,23.39c-3.26-.77-7,3.15-5.92,6.37.83,2.47,3.56,3.68,5.45,5.17a.37.37,0,0,1,.15.19A9.79,9.79,0,0,1,75,31.5a7.34,7.34,0,0,0-5.3,4.64,5.92,5.92,0,0,0-.23,2.54,5.48,5.48,0,0,0,.81,3.26c1.13,1.94,4.39,3.29,6.5,3.55s4.07-.72,5.86-1.4c.72-.28,1.6.72.8,1.2-.17.08-.36.19-.52.28a1.34,1.34,0,0,1,.06.12c2.1,5,5.72,7.75,11.26,6a11.19,11.19,0,0,0,2.4-1.09,7.56,7.56,0,0,0,3.7-2.12,6.84,6.84,0,0,0,1.68-4,.48.48,0,0,1,.19.4,10.92,10.92,0,0,1-.54,2.65,1.1,1.1,0,0,1,.45.43,12.71,12.71,0,0,0,2.57,3.9c2.58,2.5,5.87.34,7.37-2.1,2-3.21,1.78-7.1.5-10.52a6,6,0,0,1-1.53-5.19,5.32,5.32,0,0,1,4.52-4.74.77.77,0,0,1-.13-.12,4.38,4.38,0,0,1-.94-5.52,5.56,5.56,0,0,1,1.17-1.45C116.3,17.67,113.51,13.55,110.22,10.64Z"/><path class="cls-17" d="M216.56,48.33a7.43,7.43,0,0,0-.55-.94c1.53,2.27,3,4.51,5.67,5.46,4.25,1.51,10.83.28,13.19-3.93A10.67,10.67,0,0,0,236,42c1.53,3.33,1.92,7.08.4,10.18-2.22,4.56-5,7.08-10.23,7.62-4.1.43-7.13-1.11-10.67-2.61C217.45,54.3,218.29,51.76,216.56,48.33Z"/><path class="cls-17" d="M194.3,48.38C196.86,51.8,200.73,54.2,205,54c4.74,1.21,10.09-1.54,9.2-6.32.2-.09.31-.28.14-.59a2.3,2.3,0,0,0-.23-.37c1.75,2,2.59,4.6.88,7.16-1.35,2-2.64,4.13-5.07,5-5.65,2-10.18.72-15.38-1.66a2.71,2.71,0,0,0,.19-.25C196.29,54.45,195.31,51,194.3,48.38Z"/><path class="cls-17" d="M155.37,14.12c-4.35-1.34-9-1.84-13.41-.4-3.53,1.16-8.44,4.39-7.73,8.8.47,3,2.31,5.23,4.47,7.26a25.77,25.77,0,0,0-6-2.49c-2.67-.89-5.46-1.63-8.14-1.07a39.51,39.51,0,0,1,10.86-11.59c4.82-2.34,10.25-3.7,15.54-2.15A36.47,36.47,0,0,1,155.37,14.12Z"/><path class="cls-17" d="M122.61,56.28c-1.84-4.42-2.45-9.21-3.89-14a37.41,37.41,0,0,1,5-14.67,13.87,13.87,0,0,1,2.63-.5,16.18,16.18,0,0,1,6.13,1.16c.76.25,1.53.52,2.31.8.44.08.86.16,1.29.26a14.88,14.88,0,0,0-5.91.11c-3.77,1-5.45,4.3-6.56,7.84-2.12,6.8-1.4,13.66,0,20.47C123.27,57.26,123,56.77,122.61,56.28Z"/><path class="cls-17" d="M120.33,53.34c-.06-.07-.12-.15-.19-.22-.58-.68-2.27-2.44-3.31-2.19.31-2.12.73-4.21,1.15-6.35A49.26,49.26,0,0,0,120.33,53.34Z"/><path class="cls-17" d="M156.17,8.5a53.45,53.45,0,0,1,8.11,4.56c4.87,3.39,8.85,7.62,11,13.18-5.07-2.52-9-6.88-13.89-9.63a33.13,33.13,0,0,0-11.62-5.44,20.3,20.3,0,0,0-8.35-.14,68.57,68.57,0,0,1,11.25-4.78A9,9,0,0,0,156.17,8.5Z"/><path class="cls-17" d="M141.61,50.77c-.62-4.43.51-8.65,3.5-11.53C144,46,146.54,54.08,153.84,55.45c7.66,1.45,14.1-3.14,16.62-9.67A15.69,15.69,0,0,0,172.25,50c2.44,4,6.41,6.14,11.14,5.39,3.52-.56,7.67-2.33,9.52-5.61.14-.24.29-.49.42-.73.72,4-.21,7.55-4.13,9.73a26.34,26.34,0,0,1-7.19,3c-5.54,1.18-9.87.1-14.54-2.79,3.16-2.57,4.82-6.16,2.8-10.67-.1-.23-.53-.23-.43.08,2,6.72-5,11.44-11,12A25.49,25.49,0,0,1,146,58.68,12.45,12.45,0,0,1,141.61,50.77Z"/><path class="cls-17" d="M211.72,43.27a11.29,11.29,0,0,1,3.85,3.49c.08.13.19.27.28.41a12.13,12.13,0,0,0-3.59-3.2A8.23,8.23,0,0,0,211.72,43.27Z"/><path class="cls-16" d="M69.73,36.14A7.34,7.34,0,0,1,75,31.5a9.79,9.79,0,0,0-6.34,3.62.37.37,0,0,0-.15-.19c-1.89-1.49-4.62-2.7-5.45-5.17C62,26.54,65.75,22.62,69,23.39a7.08,7.08,0,0,0,1.29.51c1.25.33,1.37-1.19.32-1.6-3.7-1.14.1-3.21.86-3.45a10.77,10.77,0,0,1,3.1-.29,15.52,15.52,0,0,1,3.52.56,7.94,7.94,0,0,1,1.44.5c.69.33,1.36.7,2,1.08.26-.1.4-.39.1-.71a10.82,10.82,0,0,0-6.74-3.22c-1.11-2.72-2-5.62,1-7.65a11.14,11.14,0,0,1,7.54-2c4.47.52,9.29,2.73,11.86,6.56a14.36,14.36,0,0,1,2.42,3.23.5.5,0,0,0,.08-.45,14.1,14.1,0,0,0-2.93-5.3.5.5,0,0,0,.21-.3c1.81-7,11.29-3.63,15.15-.23,3.29,2.91,6.08,7,5.46,11.61a5.56,5.56,0,0,0-1.17,1.45,4.38,4.38,0,0,0,.94,5.52.77.77,0,0,0,.13.12,5.32,5.32,0,0,0-4.52,4.74,6,6,0,0,0,1.53,5.19c1.28,3.42,1.48,7.31-.5,10.52-1.5,2.44-4.79,4.6-7.37,2.1a12.71,12.71,0,0,1-2.57-3.9,1.1,1.1,0,0,0-.45-.43,10.92,10.92,0,0,0,.54-2.65.48.48,0,0,0-.19-.4,6.84,6.84,0,0,1-1.68,4,7.56,7.56,0,0,1-3.7,2.12,11.19,11.19,0,0,1-2.4,1.09c-5.54,1.76-9.16-1-11.26-6a1.34,1.34,0,0,0-.06-.12c.16-.09.35-.2.52-.28.8-.48-.08-1.48-.8-1.2-1.79.68-3.87,1.64-5.86,1.4s-5.37-1.61-6.5-3.55a5.48,5.48,0,0,1-.81-3.26A5.92,5.92,0,0,1,69.73,36.14Z"/><path class="cls-17" d="M97.71,16.28a13.87,13.87,0,0,0-2.85-5.11.5.5,0,0,0,.21-.3,3.39,3.39,0,0,1,.18-.59,11.06,11.06,0,0,0,.49,1.05,31.39,31.39,0,0,0,3.86,5.74A13.19,13.19,0,0,0,97.71,16.28Z"/><path class="cls-17" d="M69.73,36.14A7.34,7.34,0,0,1,75,31.5a9.79,9.79,0,0,0-6.34,3.62.37.37,0,0,0-.15-.19c-1.89-1.49-4.62-2.7-5.45-5.17C62,26.54,65.75,22.62,69,23.39a7.08,7.08,0,0,0,1.29.51c1.25.33,1.37-1.19.32-1.6-3.7-1.14.1-3.21.86-3.45a10.77,10.77,0,0,1,3.1-.29,15.52,15.52,0,0,1,3.52.56,7.94,7.94,0,0,1,1.44.5c.69.33,1.36.7,2,1.08.26-.1.4-.39.1-.71a10.82,10.82,0,0,0-6.74-3.22c-1.11-2.72-2-5.62,1-7.65a11.14,11.14,0,0,1,7.54-2c4.47.52,9.29,2.73,11.86,6.56a16.88,16.88,0,0,1,2,2.45c-.37-.1-.76-.18-1.13-.25a19,19,0,0,0-9.06-5.39c-2.32-.58-7.86-.52-7.45,3.28.33,3.23,3.75,5.73,6.25,7.46a29.27,29.27,0,0,0-3.36-.12c-2.61.05-8.79,1.6-6.58,6.07.72,1.42,2.27,2.3,4.56,2.47-1.88,3.1-1.45,7.48,2.6,9.06a6.57,6.57,0,0,0,7.07-2c.8,4.06,3.27,6.3,5.63,6.49a5.62,5.62,0,0,0,5-2.84,7,7,0,0,0,2.53,1.3c6,1.49,7-5.22,4.6-9.6a5.18,5.18,0,0,0,1.42-2.78,12,12,0,0,0-.47-5.93,8.62,8.62,0,0,0,1,.12c5.25.38,5.78-4.62,4.16-8.25a10.87,10.87,0,0,1,1.61,7,5.56,5.56,0,0,0-1.17,1.45,4.38,4.38,0,0,0,.94,5.52.77.77,0,0,0,.13.12,5.32,5.32,0,0,0-4.52,4.74,6,6,0,0,0,1.53,5.19c1.28,3.42,1.48,7.31-.5,10.52-1.5,2.44-4.79,4.6-7.37,2.1a12.71,12.71,0,0,1-2.57-3.9,1.1,1.1,0,0,0-.45-.43,10.92,10.92,0,0,0,.54-2.65.48.48,0,0,0-.19-.4,6.84,6.84,0,0,1-1.68,4,7.56,7.56,0,0,1-3.7,2.12,11.19,11.19,0,0,1-2.4,1.09c-5.54,1.76-9.16-1-11.26-6a1.34,1.34,0,0,0-.06-.12c.16-.09.35-.2.52-.28.8-.48-.08-1.48-.8-1.2-1.79.68-3.87,1.64-5.86,1.4s-5.37-1.61-6.5-3.55a5.48,5.48,0,0,1-.81-3.26A5.92,5.92,0,0,1,69.73,36.14Z"/><path class="cls-18" d="M139,69.16c-3.57,2.25-4.35,7-3.39,10.88.57,2.4,3.51,7.45,6.65,9.64a5.81,5.81,0,0,1-1.51,1.76c-1.55,1-4.34-4.19-4.84-5.18-1.56-3.12-3-6.79-6.49-8.14a.47.47,0,0,0-.66.23c-.77,2.25.12,4.7-.39,7-1,4.43-5.39-2.34-6-3.79-2-4.7-2.78-9.78-4.51-14.57a.76.76,0,0,0-.76-.43,50.32,50.32,0,0,1-.81-6.23c0-.6-.06-1.21-.08-1.81.6-1.31,1.59-3.15,2.92-2.24,2.26,1.55,2.55,4.73,3.06,7.21.62,2.93,1.59,6.06,4.77,7,2.07.59,3.47-.83,4.26-2.59,1.21-2.69,1.35-5.77,2.07-8.61.27-1,.67-3.22,1.9-3.61,2.05-.66,2.72,4.11,3,5.27.52,2.34.85,6.4,3.7,7.21.93.28,1.77.4,2.45-.45s2.22-2.41,3.68-2.57a17.5,17.5,0,0,0-.38,6.52c.17,1.44.15,3.28.88,4.59.49.88,1.27,2,1.86,3.05-1.51-1-2.51-3.18-3.43-4.51,0-.07-.12-.1-.19-.15C146.15,71.05,143,66.65,139,69.16Z"/><path class="cls-12" d="M213.11,60c-5.26,4.18-14.39,1.8-19.18-2-2,2.35-4.9,3.72-7.79,4.73C179.71,65,172,64.16,167,59.31A20.18,20.18,0,0,1,163,61.59a19.43,19.43,0,0,1-12.51.53c-1.68,2.95-1.76,6.28-1.41,9.62a14.1,14.1,0,0,0,1.36,5.07c.63,1.27,1.65,2.26,2.08,3.59a.63.63,0,0,1-.67.83c-2.42-.37-4.4-2.58-5.28-4.89a.45.45,0,0,1-.46-.39c-.15-3.82-5.58-7.68-8.19-4.17a7.86,7.86,0,0,0-1.1,3.51,12.9,12.9,0,0,0,1.08,7,24.65,24.65,0,0,0,2.71,4.44c2,2.73,4.63,4.48,7.18,1.52-.27-.77-.52-1.54-.75-2.32s.82-.73,1.1-.19c4.7,9.39,8.44,17.29,19,21a33.75,33.75,0,0,0,5.26,1.33l.27-.11a7.64,7.64,0,0,1,2.89.24c.74.15,1.46.27,2.17.36a48.62,48.62,0,0,0,19.87-3.86A37.36,37.36,0,0,0,209.5,96c4.29-4.45,4.66-9.74,3.65-15.5C211.83,73,210,66.94,213.11,60Z"/><path class="cls-19" d="M192.86,102.69c-2.67,1-5.54,1.15-8-.59-2.79-2-4.9-5.42-3.75-8.69C182.48,99.12,187.33,103.13,192.86,102.69Z"/><path class="cls-19" d="M199.12,95.75a4,4,0,0,0,3.5-1.75,4.26,4.26,0,0,1-2.77,2.87c-2.33,1-6.26,2.39-8.27,0a9,9,0,0,1-2.18-6.29C192.31,92.79,195.23,95.93,199.12,95.75Z"/><path class="cls-19" d="M136.82,78.8a2,2,0,0,0,1.55-1.38c.63-1.47.94-4.17,3.29-3.61,1.6.37,2.17,2.29,2.66,3.64.59,1.61,1.11,3.57,2.7,4.5.19.12.61.22.74,0a4.78,4.78,0,0,0,.39-2.87,6.21,6.21,0,0,0,3.65,2.2.63.63,0,0,0,.67-.83c-.43-1.33-1.45-2.32-2.08-3.59A14.1,14.1,0,0,1,149,71.74c-.35-3.34-.27-6.67,1.41-9.62A19.43,19.43,0,0,0,163,61.59,20.18,20.18,0,0,0,167,59.31c5,4.85,12.71,5.73,19.14,3.47,2.89-1,5.82-2.38,7.79-4.73,4.79,3.75,13.92,6.13,19.18,2A20.59,20.59,0,0,0,212,63.14c-4.22,4.09-13.34,5-17,.57-.22-.27-.83-.36-.94.07-1.37,5.56-10.49,5-14.86,3.44a.76.76,0,0,0-.11-.16c-.16-.23-.61-.49-.88-.24-2.58,2.33-5.73,4.39-9.4,3.81A35.71,35.71,0,0,1,161,68c-3-1.19-4.15,2.94-4.72,5.09a27.15,27.15,0,0,0,2.2,19.43c4.26,8.27,12.33,14.52,21.19,16-.66,0-1.3,0-1.95,0s-1.43-.21-2.17-.36a7.64,7.64,0,0,0-2.89-.24l-.27.11a33.75,33.75,0,0,1-5.26-1.33c-10.6-3.7-14.34-11.6-19-21-.28-.54-1.32-.58-1.1.19s.48,1.55.75,2.32c-2.55,3-5.16,1.21-7.18-1.52a24.65,24.65,0,0,1-2.71-4.44A14.82,14.82,0,0,1,136.82,78.8Z"/><path class="cls-12" d="M215.9,88.57c.66-1.17.83-2.66-.08-5.22-.11-.28-.33-.8-.59-1.43.22,1.46.37,3,.57,4.41A11.36,11.36,0,0,1,215.9,88.57Z"/><path class="cls-12" d="M208.72,141.08c.37.25.76.5,1.14.71s.82.43,1.25.61c.23.11.5.22.78.33l.3.1a10.55,10.55,0,0,0,3.1.71,4.84,4.84,0,0,0,2.37-.32,2.52,2.52,0,0,0,1.08-.73,2.1,2.1,0,0,0,.8-.87,5,5,0,0,0,.23-.65,1.55,1.55,0,0,1,0-.17,3.62,3.62,0,0,0,.07-.67.74.74,0,0,0,0-.21,4.66,4.66,0,0,0-.28-1.59c0-4.21-1.09-8.51-1.81-12.59A93.55,93.55,0,0,0,214,110.19c-.36-1.66-.69-3.35-.93-5,.09-1-.73-1.78.32-2.92,1.29-2.21,3.54-3.91,5.35-5.66,5.36-5.19-.36-14-3.27-19-.27,1.89,1.8,6.51,1.93,6.87a6,6,0,0,1,.38,3.86,10.55,10.55,0,0,1-3,3.86,15.49,15.49,0,0,1-2.72,4.92,26.06,26.06,0,0,0-.43,4.14c0,.63-.92.46-1-.07a15,15,0,0,1-.11-2.38,26.69,26.69,0,0,1-3.32,2.82,1.62,1.62,0,0,0,.73,1.62,4,4,0,0,0,2.39,2.12,4,4,0,0,1-2.34-.39c1.82,5,2.1,10.5,3,15.75.81,4.91,2.15,11.09,1.16,16-.08.46-.72.19-.77-.15-.08-.53-.16-1.06-.22-1.58a1.08,1.08,0,0,1-.53-.21L208.4,133a2.37,2.37,0,0,1-.6.92h0a10.37,10.37,0,0,1-1.84,4.06c-.15.18-.29.37-.44.52A27.9,27.9,0,0,0,208.72,141.08Z"/><path class="cls-19" d="M197.8,124.27c.19.17.4.35.6.51-.24,1.53-.24,3.07-.39,4.64-.08.72-.09,1.54-.13,2.37-.24-.18-.48-.35-.71-.54C197,128.89,196.89,126.39,197.8,124.27Z"/><path class="cls-19" d="M208.55,141a30.47,30.47,0,0,1-3.06-2.43c.15-.15.29-.34.44-.52a10.37,10.37,0,0,0,1.84-4.06h0a2.37,2.37,0,0,0,.6-.92l1.25,1C208.18,135.88,208.48,138.5,208.55,141Z"/><path class="cls-19" d="M210.22,101.07a23.48,23.48,0,0,0-2.48,1.93,1.49,1.49,0,0,1-.55-1.44,26.69,26.69,0,0,0,3.32-2.82,14.44,14.44,0,0,0,.08,2.05C210.47,100.88,210.36,101,210.22,101.07Z"/><path class="cls-19" d="M216.19,94a22.62,22.62,0,0,1-4.5,5.91,22.61,22.61,0,0,1,.36-2.82,15.49,15.49,0,0,0,2.72-4.92,10.55,10.55,0,0,0,3-3.86,6,6,0,0,0-.38-3.86c-.13-.36-2.2-5-1.93-6.87.87,1.52,2,3.37,3,5.37A18.33,18.33,0,0,1,216.19,94Z"/><path class="cls-9" d="M210.7,131.46a1.26,1.26,0,0,1-.28,0l-.68.07c.39.4.76.79,1.1,1.2C210.79,132.34,210.75,131.9,210.7,131.46Z"/><path class="cls-12" d="M169.94,161.09c1.43,2.66,5.18.77,6.91-.07a43.61,43.61,0,0,0,7-4.6c6.41-4.89,11.36-11.43,17.64-16.53-.16-.14-.23-.36,0-.42a6.82,6.82,0,0,0,3.66-2.5,15.52,15.52,0,0,0,1.94-3.45,1.6,1.6,0,0,1,.27-1c.22-.4.27-1,.64-1.36a2,2,0,0,1,1.23-.38,7.49,7.49,0,0,1,.82,0c.18,0,.39.13.59.12-.08-.78-.16-1.56-.23-2.36-1,.12-2.86.14-3.34.85a16.23,16.23,0,0,1-2.22,3.25.43.43,0,0,1-.67-.3c0-1.57,1.13-2.69,2-3.89.69-1,3.08-.75,4.16-.84-.08-.84-.14-1.66-.21-2.49-1.21.68-2.86.73-4.17,1.2-1.68.59-1.92,2.29-2.82,3.57-.2.3-.7.1-.73-.24a4.5,4.5,0,0,1,1.81-3.68c1.57-1.32,3.74-.74,5.47-1.51a.35.35,0,0,1,.38,0c0-.29,0-.59-.06-.88a6.7,6.7,0,0,0-6.2.79c-1.57,1.06-1.91,2.86-3,4.24-.27.31-.87-.11-.8-.47a7.34,7.34,0,0,1,5.33-5.67,8,8,0,0,1-1.14-.38c-1.91-.17-3.86-.09-4.41,2.34a32.89,32.89,0,0,0-.38,4.65c-.12,2,.06,5.32-1.38,6.84h0c0,.05-.06.1-.12.13-4.72,3.64-9.27,7.47-14.16,10.95-4.34,3.11-7.77,6.95-11.92,10.25-.44.33-1.39-.22-1-.74s.66-.82,1-1.23c-2.06-4.89-2.34-11.5-2.6-16.73a55.81,55.81,0,0,1,1.79-17.7c.08-.3.55-.13.5.15a51.58,51.58,0,0,0-.79,6.88,18.66,18.66,0,0,0,2-5,20,20,0,0,0,.67-4.23c.09-1.84-1.26-7.41-4.44-6.78-2.28,1.61-4.44,3.67-6.53,5.2-1.9,2.84-1.64,10.66,1.31,13.25,0-2.77.18-5.53.39-8.36,0-.31.57-.16.58.11.18,6.76,0,13.6,1,20.29.83,5.44,1.43,11.23,3.25,16.5,0,0,0,0,0,0C169.09,159.33,169.25,159.77,169.94,161.09Z"/><path class="cls-19" d="M184.75,111.44a11.55,11.55,0,0,1-5.91.86A16,16,0,0,0,178,110a48.92,48.92,0,0,0,6.52-.16c0,.38.11.79.16,1.18A2.45,2.45,0,0,1,184.75,111.44Z"/><path class="cls-19" d="M190.43,126.15c-1-.71-2-1.44-3-2.11a60.54,60.54,0,0,0-.77-8.91l.47.41A54.45,54.45,0,0,0,190.43,126.15Z"/><path class="cls-19" d="M163.84,125.78c-.1,1.52-.16,3-.17,4.52-1.28-1.12-2-3.21-2.35-5.47A5.05,5.05,0,0,0,163.84,125.78Z"/><path class="cls-19" d="M173.28,119.4a20.59,20.59,0,0,1-.62,3.46,18.66,18.66,0,0,1-2,5c.09-1.73.26-3.47.51-5.2A8.5,8.5,0,0,0,173.28,119.4Z"/><path class="cls-19" d="M172.43,160.61c4.39-.2,8.48-3.86,11.71-6.45a84.15,84.15,0,0,0,8-7.18c2.08-2.17,3.92-4.85,6.26-6.72,1.79-1.44,3.93-2.66,5.34-4.52,2-2.65,3.15-6.51,6.74-6.2,0,.44.07.89.13,1.32-.2,0-.41-.12-.59-.12a7.49,7.49,0,0,0-.82,0,2,2,0,0,0-1.23.38c-.37.31-.42,1-.64,1.36a1.6,1.6,0,0,0-.27,1,15.52,15.52,0,0,1-1.94,3.45,6.82,6.82,0,0,1-3.66,2.5c-.25.06-.18.28,0,.42-6.28,5.1-11.23,11.64-17.64,16.53a43.61,43.61,0,0,1-7,4.6c-1.73.84-5.48,2.73-6.91.07-.34-.66-.55-1.1-.7-1.42A4.92,4.92,0,0,0,172.43,160.61Z"/><path class="cls-14" d="M141.12,160.73l1.55.05c5.17.14,10-1.2,15-1.79,2.88-.89,5.76-1.73,8.57-2.83-.83-3.67-1.13-7.64-1.62-10.8a83.41,83.41,0,0,1-1-13.2,7.74,7.74,0,0,1-2.85-2.65,13.73,13.73,0,0,1-1.25-10.59,98.47,98.47,0,0,1-13.42,7.69c-.3.18-.58.36-.85.54a23.53,23.53,0,0,0-7.14,8.92C134.73,143,134.51,155.46,141.12,160.73Z"/><path class="cls-20" d="M184.32,134.81c-3.26,4.08-8.89,5.66-13.38,3.47-.12-1.49-.21-3-.26-4.47C175,135.76,180.31,136.38,184.32,134.81Z"/><path class="cls-20" d="M174.94,115.24l-.53,0a10,10,0,0,0-.39-1,6.76,6.76,0,0,0-3.64-3.31,11.38,11.38,0,0,1,3-1.29c1.16.18,2.33.28,3.51.35a26.85,26.85,0,0,1,1.59,5A27.17,27.17,0,0,1,174.94,115.24Z"/><path class="cls-20" d="M179.11,117c.67,1.76,1.57,3.67,3.61,3.94,0,0,.05,0,.08,0a19.18,19.18,0,0,1-7.85.36,14.94,14.94,0,0,0-.07-4.12A22.65,22.65,0,0,0,179.11,117Z"/><path class="cls-20" d="M174.64,123.17a20.35,20.35,0,0,0,10.84-.71c0,1.66,0,3.32,0,5-3.62,2.06-8.37,2-12.69.68A18.85,18.85,0,0,0,174.64,123.17Z"/><path class="cls-20" d="M171,130.71a11.81,11.81,0,0,0,.74-1c4.49,1.46,9.46,1.82,13.54.2-.06.59-.1,1.2-.19,1.78-3.63,2.85-9.86,2.5-14.43.22,0-.28,0-.58,0-.87Z"/><path class="cls-20" d="M183.19,139.07a20.15,20.15,0,0,1-1.93,3.68q-1.37,2.12-2.85,4.05a14.48,14.48,0,0,1-6.66-1.67c-.26-1.62-.44-3.23-.62-4.87A13.21,13.21,0,0,0,183.19,139.07Z"/><path class="cls-20" d="M176.88,148.65c-.65.74-1.34,1.49-2,2.18-.18.12-.34.24-.52.35-.42.26-.84.58-1.26.87a.61.61,0,0,0-.16.09c-.29-1.63-.58-3.25-.83-4.9A16.25,16.25,0,0,0,176.88,148.65Z"/><path class="cls-20" d="M159.1,124.26a13.29,13.29,0,0,0,1.09,4.13,27.68,27.68,0,0,0,3.8,11.45c.15,1.82.36,3.66.65,5.52.09.59.18,1.23.27,1.88C159.8,140.86,157.17,131.93,159.1,124.26Z"/><path class="cls-20" d="M154.36,136.43c-.25-5.64.23-11.4,3.22-16.24l.7-.46c-4.69,10-.75,22.81,7,30.71.25,1.89.53,3.84.95,5.72l-.24.09c-4.24-1-7.82-6.1-9.28-9.57A30.18,30.18,0,0,1,154.36,136.43Z"/><path class="cls-20" d="M150.12,140.44a28.3,28.3,0,0,1,2.39-13.34A32.41,32.41,0,0,0,154,145.29c1.74,4.15,5,9.56,9.39,11.9-1.89.64-3.82,1.21-5.73,1.8h0C152.75,154.74,150.55,145.63,150.12,140.44Z"/><path class="cls-20" d="M145.15,142.84c-.38-6.82,1.43-13.78,6.06-18.8a2.07,2.07,0,0,1,.25-.15c-3,6.8-4.64,13.57-2.72,21.53,1,4.41,3.22,10.1,6.8,13.87-1.63.25-3.24.53-4.85.79C147.1,155.13,145.34,146.35,145.15,142.84Z"/><path class="cls-20" d="M139.2,144.71a22.27,22.27,0,0,1,6.34-16.35,29.69,29.69,0,0,0-1.7,19.41c.8,3.35,2.36,8.63,5,12.59-1.35.2-2.68.34-4.06.41C141,156.66,139.4,149.29,139.2,144.71Z"/><path class="cls-20" d="M138.14,136.07l.32-.6a22.69,22.69,0,0,0-.91,12.83c.86,4,2.3,8.9,5,12.48l-1.43-.05C134.51,155.46,134.73,143,138.14,136.07Z"/><path class="cls-21" d="M170.61,131.07l.36-.36c3.64-4.31,5.35-11.19,3.05-16.49a6.76,6.76,0,0,0-3.64-3.31l.51-.3c5,2.93,5.74,9.23,5.47,14.89-.2,4.5-1.89,10.49-.07,14.85.78,1.88,2.5,3.43,4.3,3.4a42.8,42.8,0,0,1-5.76,7.08c-.18.12-.34.24-.52.35-.42.26-.84.58-1.26.87a.61.61,0,0,0-.16.09A117.42,117.42,0,0,1,170.61,131.07Z"/><path class="cls-21" d="M138.14,136.07a26.61,26.61,0,0,1,3.78-5.77c-.1.36-.2.76-.28,1.13-.87,2-1.31,4-.45,5.7a2,2,0,0,0,.25.37,7.37,7.37,0,0,0,2.41,4.21c3.86,3.27,9.64.85,13.66-2.14a15.33,15.33,0,0,0,6.18-5.53,81,81,0,0,0,.95,11.32c.49,3.16.79,7.13,1.62,10.8-2.81,1.1-5.69,1.94-8.57,2.83-5,.59-9.85,1.93-15,1.79l-1.55-.05C134.51,155.46,134.73,143,138.14,136.07Z"/><path class="cls-13" d="M128.12,158.46a40,40,0,0,0,10.69,2.12c-4.9-4.82-5.32-13.24-4.22-19.71A22.18,22.18,0,0,1,139.78,130c.19-.21.38-.39.56-.56,1.65-1.36,3.4-2.62,5-4l.69-.43c1.07-.44,2.11-.93,3.15-1.47a103.64,103.64,0,0,0,9.9-6c-3.62.66-7.14,0-10.68-.68a20.12,20.12,0,0,0-3.8,2c-1.38,1-2,3.47-3.31,4.14a2.33,2.33,0,0,1-2.29.29,16.72,16.72,0,0,0-5.56-.92c-1.93,0-2.77-1.47-2.7-3.24a3.24,3.24,0,0,1,.82-2c-6.11,2.65-10.8,8.32-13.66,14.26a27.13,27.13,0,0,0-2.6,14.08C116,152.46,122.18,156.3,128.12,158.46Z"/><path class="cls-13" d="M108.81,153.08c3.18.68,6.57.85,9.72,1.71-4.08-4-6.06-9.47-5.32-16.15a24.68,24.68,0,0,1,.88-4.3c-2.12.71-4.15.5-6.51.32-5-.42-5.78,4.16-6.49,8.09a15.38,15.38,0,0,0,.49,6.64C102.29,152.25,106.56,152.58,108.81,153.08Z"/><path class="cls-22" d="M111.68,130.11a19.48,19.48,0,0,1,2.12-3.41,35.72,35.72,0,0,0,3.73.07,30.68,30.68,0,0,0-3.12,6.48,15.48,15.48,0,0,1-4-.21A21.5,21.5,0,0,0,111.68,130.11Z"/><path class="cls-22" d="M115.32,145.43a26.89,26.89,0,0,1,1.13-10.29,8.24,8.24,0,0,0,2.13,5.72c2.83,2.75,7.6,3.22,11.2,1.78,2.14-.85,3.21-2.94,4.27-4.81a30.62,30.62,0,0,1,5-7.07c.16-.17.35-.33.53-.49a22.46,22.46,0,0,0-4.95,10.6c-1.1,6.47-.68,14.89,4.22,19.71a40,40,0,0,1-10.69-2.12C122.18,156.3,116,152.46,115.32,145.43Z"/><path class="cls-22" d="M101.58,149.39a15.38,15.38,0,0,1-.49-6.64,30.64,30.64,0,0,1,.89-3.93c4,.8,8.81,2.42,11.28-.52,0,.12,0,.23-.05.34-.74,6.68,1.24,12.17,5.32,16.15-3.15-.86-6.54-1-9.72-1.71C106.56,152.58,102.29,152.25,101.58,149.39Z"/><path class="cls-21" d="M174.28,148a6.58,6.58,0,0,0,3.12,0,34.25,34.25,0,0,1-2.57,2.79c-.18.12-.34.24-.52.35-.42.26-.84.58-1.26.87a.61.61,0,0,0-.16.09c-.32-1.78-.63-3.56-.9-5.35A6.1,6.1,0,0,0,174.28,148Z"/><path class="cls-21" d="M159.48,149.16a10.24,10.24,0,0,0,4.87-5.88c.09.69.17,1.39.29,2.08.49,3.16.79,7.13,1.62,10.8-2.81,1.1-5.69,1.94-8.57,2.83-5,.59-9.85,1.93-15,1.79l-1.55-.05a13.42,13.42,0,0,1-4.17-6.26C144.36,154.24,153,152.69,159.48,149.16Z"/><path class="cls-22" d="M115.4,146.07a13.31,13.31,0,0,0,3.37,3.88c4.65,3.59,10.66,4.54,16.45,4.54a14.68,14.68,0,0,0,3.59,6.09,40,40,0,0,1-10.69-2.12C122.36,156.36,116.36,152.69,115.4,146.07Z"/><path class="cls-22" d="M101.11,147.14c4.39,1.29,9,1.72,13.3,3.45a1,1,0,0,0,.91,0,17.77,17.77,0,0,0,3.21,4.23c-3.15-.86-6.54-1-9.72-1.71-2.25-.5-6.52-.83-7.23-3.69C101.39,148.64,101.23,147.89,101.11,147.14Z"/><path class="cls-12" d="M71.79,134.83c0,1-.05,2.1-.1,3.11-.26,4.47,2.41,6.44,6.5,7.12,7,1.17,14,2.9,21.1,3.16a25.46,25.46,0,0,1-.34-7.95,11.58,11.58,0,0,1,.36-2c-2.12.5-4.49-.35-6.57-.68C89.63,137.1,86,137,83,136.05a19.32,19.32,0,0,1-.19,2.14c-.09.66-1.17.32-1.2-.24-.64-10.89-1.87-21.77-3.19-32.63C78,101.46,77,97.22,76.33,93a3.56,3.56,0,0,1-2.24.58,5.42,5.42,0,0,1-1.93-.42c0,1.23-.06,2.47-.08,3.67-.07,8.43-.26,16.83-.34,25.24C71.71,126.3,71.74,130.56,71.79,134.83Z"/><path class="cls-12" d="M60,103.85c2.17,3.3,4.36,6.58,6.31,10,1.12,2,2.5,3.76,3.67,5.67.08-5.4.15-10.8.27-16.21a.11.11,0,0,1-.06,0c-2.39-3.09-4.82-6.28-7.32-9.39A7,7,0,0,1,59,97.51a8.44,8.44,0,0,1-2.61.78C57.61,100.15,58.81,102,60,103.85Z"/><path class="cls-19" d="M97.65,137.24c.61-3.42,3.07-6.1,6.1-7.91a51.58,51.58,0,0,0,6.23-.66c-.7,1.11-1.69,2.87-1.69,4.07-2.42-.33-4.75-.36-6.61,1.3a5.05,5.05,0,0,1-.85,1.4,7.75,7.75,0,0,0-1.22,1.94.37.37,0,0,0-.15,0,12.18,12.18,0,0,1-1.35,0A.6.6,0,0,0,97.65,137.24Z"/><path class="cls-19" d="M92.41,142.69c.94-2.34,2.91-3.52,5.18-4.28a6.19,6.19,0,0,0,1.72-.14,11.58,11.58,0,0,0-.36,2,25.46,25.46,0,0,0,.34,7.95,67.78,67.78,0,0,1-7.54-.75A12.16,12.16,0,0,1,92.41,142.69Z"/><path class="cls-19" d="M68.91,101.58c.44.57.89,1.13,1.32,1.7a.11.11,0,0,0,.06,0c-.12,5.41-.19,10.81-.27,16.21-1.17-1.91-2.55-3.7-3.67-5.67-.14-.26-.3-.51-.44-.75A100.52,100.52,0,0,0,68.91,101.58Z"/><path class="cls-9" d="M55.4,96.75a4.91,4.91,0,0,0,1.81-.14,8.31,8.31,0,0,0,5-3.5l0,0c-1.93-2.36-3.9-4.67-6-6.87-.38-.5-.73-1-1.09-1.56-.23-.33-.86-.55-1.09-.13a20.55,20.55,0,0,0-3,1.13,5.93,5.93,0,0,0-1.5.72l-1.35.36C50.81,90,53.14,93.34,55.4,96.75Z"/><path class="cls-9" d="M34,91.21c.42-.2.8-.41,1.21-.61a10.93,10.93,0,0,1-1.36-1.66c-.5-.56-.66.28-.65.65A3.14,3.14,0,0,0,34,91.21Z"/><path class="cls-9" d="M26.68,94.36c.1.22.24.47.38.71l1.18-.71a4.47,4.47,0,0,1-.44-.52,14,14,0,0,0-1-1.15c.12.07.08.09-.09,0a1,1,0,0,0-.24.52A1.51,1.51,0,0,0,26.68,94.36Z"/><path class="cls-11" d="M25.18,96.27c.17-.12.35-.22.53-.34-.06-.11-.12-.22-.18-.35a6.3,6.3,0,0,1-.81-1.82c-.06-.91.22-2.38,1.36-2.51A2.25,2.25,0,0,1,28.3,92.5a8,8,0,0,1,.8,1.37c1.16-.66,2.34-1.3,3.52-1.91-1-1.41-2-3.65-.12-4.62A2.2,2.2,0,0,1,35,88a5.83,5.83,0,0,1,.57,1c.13.3.28.87.6,1.05.72-.38,1.46-.74,2.18-1.11,5.23-2.67,10.13-3.9,15.62-5.8h0a4.83,4.83,0,0,0,.15-1c-2.7-5.08-6.51-8.47-13-6.8s-12,4.82-17.58,8.57a79.18,79.18,0,0,0-11.58,9.24,18.54,18.54,0,0,0,3.66,4.62c1,.93,2,2.42,3.38,3A74.64,74.64,0,0,1,25.18,96.27Z"/><path class="cls-23" d="M50.16,50l.11,0,.4.16a58,58,0,0,1,9,4.78c3.73,5.29,7,10.91,11.39,15.7,2.13,2.34,4.49,4.17,7.19,4.76A11.07,11.07,0,0,0,76.81,77s0,0,0,0,0,0-.06,0,0,0,0,0a1,1,0,0,0-.3-.12c-5.63-.89-8.91-7.09-12.71-10.91-1.22-1.24-2.47-2.45-3.75-3.66a2.52,2.52,0,0,0,.55-1.62,2.73,2.73,0,0,0-.6-2c-.93-.83-2.34.13-2.64,1.2-.57-.49-1.14-1-1.72-1.47a2.67,2.67,0,0,0,.77-1.93,2.43,2.43,0,0,0-1.15-2c-1.31-.59-2.39.33-2.8,1.51A37.52,37.52,0,0,0,49,53.68C48.89,52.23,49.58,51.21,50.16,50Z"/><path class="cls-23" d="M23.65,83.94c1.38-.93,2.76-1.82,4.16-2.66-4.13,4.11-4.74,8.17-4.16,14.26a1.38,1.38,0,0,0,1.05,1.07c-1.94,1.32-3.77,2.75-5.59,4.23-1.34-.62-2.35-2.11-3.38-3a18.54,18.54,0,0,1-3.66-4.62A79.18,79.18,0,0,1,23.65,83.94Z"/><path class="cls-8" d="M6.08,109.39c2.46-.14,5-2.16,6.83-3.56s3.47-2.76,5.2-4.16a11.75,11.75,0,0,1-2.88-2.24,26.24,26.24,0,0,1-4.36-5,42.76,42.76,0,0,0-6.77,9.2,9.65,9.65,0,0,0,.46,5.71A5.34,5.34,0,0,0,6.08,109.39Z"/><path class="cls-8" d="M2.49,107l-.27.67a2.6,2.6,0,0,0,.6.88A7.65,7.65,0,0,1,2.49,107Z"/><path class="cls-18" d="M98.26,11.27c-.14-1.68,1.61-2.92,3.14-2.91a9,9,0,0,1,5,2,11.31,11.31,0,0,1,2.67,2.44c.91,1.16,2.22,3,1.74,4.54-1.14,3.75-8.42-.7-10-2A6.3,6.3,0,0,1,98.26,11.27Z"/><path class="cls-18" d="M99.05,20.41a6.08,6.08,0,0,1,3.11,1.41c2.35,1.64,4.68,4.44,4,6a3.24,3.24,0,0,1-1,1.31,1.73,1.73,0,0,1-.86.63,4,4,0,0,1-3.35-.71,10.06,10.06,0,0,1-3.21-2.42C95.92,24.56,94.81,20,99.05,20.41Z"/><path class="cls-18" d="M233,47.28c3-4.43-.82-9.12-4.88-11.09-1.69-.81-5.4-.24-6.65,1.17a3.9,3.9,0,0,0-.87,1.54C219,44.36,229.24,52.89,233,47.28Z"/><path class="cls-18" d="M201.31,46.8c-.49-3.39,3.78-3.51,6-2.66a6.91,6.91,0,0,1,2.08,1.4A4.38,4.38,0,0,1,211,47.15c1.32,2.27-.67,3.94-2.93,4C205.61,51.19,201.74,49.66,201.31,46.8Z"/><path class="cls-18" d="M165.91,6.46c9.79-2.7,20.46-.4,29.93,2.57a40.83,40.83,0,0,1,23,19.14c.25.48-.42.71-.68.32-5.18-8.71-14.55-15.14-24.18-18A71.41,71.41,0,0,0,180.2,8c-4.7-.45-9.2.3-13.86.39C165.26,8.36,164.74,6.78,165.91,6.46Z"/><path class="cls-18" d="M146.34,16.42c4.91-.31,9.32,1.4,13.62,3.59a24.81,24.81,0,0,1,5.92,4.39c1.23,1.18,2.51,1.91,3.05,3.57.16.44-.46.52-.67.21-1.77-2.82-6.24-5.28-9.11-6.77-4.13-2.18-8-2.88-12.52-3.65C146,17.66,145.38,16.5,146.34,16.42Z"/><path class="cls-18" d="M134.75,30.57c1.29,0,2.46.86,3.63,1.32.62.25.52,1.18-.2.94a24.32,24.32,0,0,0-3.33-1.06C134.12,31.65,133.83,30.6,134.75,30.57Z"/><path class="cls-18" d="M186.79,48.46c.51-.78,1.77-.16,2,.57a.72.72,0,0,1-.13.73c-.12.5-.83.45-1.23.25S186.42,49,186.79,48.46Z"/><path class="cls-24" d="M117.32,23.69a1.47,1.47,0,0,1,1.75-.44,1.82,1.82,0,0,1,1.26,1.46v0a1.35,1.35,0,0,1,.16.42,1.14,1.14,0,0,1-1,1.23c-.72.2-1.52-.49-1.92-1A1.55,1.55,0,0,1,117.32,23.69Z"/><path class="cls-24" d="M118.17,27.19c.57-.22,1.27.67.63.92S117.53,27.43,118.17,27.19Z"/><path class="cls-9" d="M87.21,14.23c.23-.56.9-.65,1.43-.64a2.9,2.9,0,0,1,2.61,1.51c.6.5,1,1.15.15,1.64a2.23,2.23,0,0,1-1.88.09,4.58,4.58,0,0,1-1.8-.94A1.47,1.47,0,0,1,87.21,14.23Z"/><path class="cls-9" d="M88.34,18.47c1-.38,2.22,1.17,1.08,1.61C88.44,20.45,87.21,18.9,88.34,18.47Z"/><path class="cls-9" d="M122.89,76.14a8.18,8.18,0,0,1-.24-2.6c.1-1.39,1.71-1.34,2.52-.57a4.18,4.18,0,0,1,.88,1.25,4.85,4.85,0,0,1,.92,2.65c-.06,1.13-.79,2.48-2.16,1.89A4,4,0,0,1,122.89,76.14Z"/><path class="cls-9" d="M127.27,72.35c.85-.32,1.92,1,.94,1.39S126.3,72.72,127.27,72.35Z"/><path class="cls-9" d="M259.62,139.31c-.79-2.88,3.72-5,6.33-3.7.94-1.77,2.82-2.3,4.95-1,2.91,1.83,1.45,4.6-.93,5.57.58,2.4-3.51,5.69-6.54,4.35a3.43,3.43,0,0,1-1.42,2.17c-1.15.88-3.07.2-4-.67C255.16,143.43,256.37,139.89,259.62,139.31Z"/><path class="cls-9" d="M247.39,149.92a.63.63,0,0,1,.53-.7,1.22,1.22,0,0,1,.33,0,3.32,3.32,0,0,1,.25-.27,1.67,1.67,0,0,1-.59-1.17,1.07,1.07,0,0,1,.66-1.09,1.39,1.39,0,0,1,.51-.38,1.68,1.68,0,0,1,1.15,0,2.76,2.76,0,0,1,1.32-1.25c.53-.18,1.42.13,1.4.82a1.57,1.57,0,0,1-.86,1.38l-.08.12.11.08a1.61,1.61,0,0,1,.35,2.21,1.37,1.37,0,0,1-2,.4c-.2,0-.31-.11-.49,0s-.33.39-.43.51a.92.92,0,0,1-.79.35,1.06,1.06,0,0,1-1.32-.42A.52.52,0,0,1,247.39,149.92Z"/><path class="cls-9" d="M219.14,164.52a2.84,2.84,0,0,1,1.23-1.91,3.36,3.36,0,0,1,2.72-.47s0,0,0,0a3.28,3.28,0,0,1-.43-1.84c.09-1.22,1.33-2,2.36-2.28a4.58,4.58,0,0,1,3.44.7A2.27,2.27,0,0,1,231,156a2.55,2.55,0,0,1,1.41.44,2.59,2.59,0,0,1,.59.38c2.42-.95,5.9-.29,5.91,2.77,0,2.54-3,3.52-5.24,3.34a3.17,3.17,0,0,1,0,.75c-.3,2.39-3.14,2.53-5.07,1.76a3.56,3.56,0,0,1-2.83.44,1.59,1.59,0,0,1-.35-.08,2.07,2.07,0,0,1-.56,1.2,3.39,3.39,0,0,1-3.44.67A3,3,0,0,1,219.14,164.52Z"/><path class="cls-9" d="M203.24,171.3a4,4,0,0,1,1.37-1.73,1.82,1.82,0,0,1,1.09-2.47,3.61,3.61,0,0,1,1.57.06,1.7,1.7,0,0,1,1.52-.53,1,1,0,0,1,.4.12,4.59,4.59,0,0,1,.72-1.06,1.39,1.39,0,0,1,2.11,1.58,6.28,6.28,0,0,1-.9,1.52c.8,1.42-.24,2.39-1.54,2.64a.71.71,0,0,1-.2,0,3.89,3.89,0,0,1-.68.05,4.08,4.08,0,0,1-1.18-.29,1.34,1.34,0,0,1-.18.29l-.27.27a.68.68,0,0,1-.45.39,3.47,3.47,0,0,1-1.31.63C204.5,172.94,202.85,172.47,203.24,171.3Z"/><path class="cls-9" d="M216,174.83a1,1,0,0,1,1.13-.17,2.49,2.49,0,0,1-.38-2.18,1.65,1.65,0,0,1,1-1.28,1.34,1.34,0,0,1,1.09,0,2.43,2.43,0,0,1,.63.2c.22-.37.89-.24,1.18,0s.64.73.24,1a.66.66,0,0,0-.19.18,1.65,1.65,0,0,1-.3,2.09,1.54,1.54,0,0,1-1.5,1,2.09,2.09,0,0,1-.52-.1,1.13,1.13,0,0,1,0,.79,1.24,1.24,0,0,1-1.95.48A1.38,1.38,0,0,1,216,174.83Z"/><path class="cls-25" d="M128,120.68c7.68-6.87,16.95-2.89,26-2.23.23,0,.38.35.11.4-4,.85-7.8.42-11.8-.09-5.09-.67-9.17.58-13.65,2.72C128.27,121.71,127.56,121.07,128,120.68Z"/><path class="cls-25" d="M116.21,124.34c.45-.3.9-.19,1.4-.29s1.15.7.55,1a2.87,2.87,0,0,1-1.18.38.85.85,0,0,1-.82-.35A.56.56,0,0,1,116.21,124.34Z"/><path class="cls-25" d="M105.1,136a18.12,18.12,0,0,1,4.22-.12,9.9,9.9,0,0,1,3.25.41c.45.19.16.69-.35.65-2.32-.27-5.13.64-7.28,0C104.46,136.74,104.5,136.12,105.1,136Z"/><path class="cls-25" d="M122.56,129.87a.71.71,0,0,1,.18-.78c1.8-1.69,6-1.65,8.17-.82.58.23.49,1-.17.87a10.63,10.63,0,0,0-4.34.39,8.86,8.86,0,0,0-2,.62c-.46.22-.65.44-1.17.37a.78.78,0,0,1-.66-.49Z"/><g class="cls-26"><path class="cls-27" d="M208.48,83.81c2.09-.11,3.21,1,4.23,2.65a.34.34,0,0,1-.5.44c-1.13-.76-2-1.38-3.38-1.24-1.24.08-2.05.9-3.18,1.19a.81.81,0,0,1-.91-.67C204.39,84.37,207.22,83.88,208.48,83.81Z"/><path class="cls-27" d="M198.15,91.72c.71-.24,1.74-.24,2-1.1a7.8,7.8,0,0,0-.17-3.43c-.06-.34.42-.31.54-.1A7.54,7.54,0,0,1,202,91.41c-.1,1.27-1.75,2.1-2.87,2.16a1.32,1.32,0,0,1-1.23-.56A.85.85,0,0,1,198.15,91.72Z"/><path class="cls-27" d="M196.19,92c.81-.31,1.82,1,.89,1.31S195.26,92.31,196.19,92Z"/><path class="cls-27" d="M165.84,88.29c2.46-4.64,14.72-3.13,15.55,2.32.05.29-.32.26-.47.16-2.18-1.72-4.55-2.2-7.23-2.47-2.5-.25-4.22,1.06-6.5,1.55C166.37,90,165.41,89.11,165.84,88.29Z"/><path class="cls-27" d="M164.06,89c.75-.29,1.69.89.82,1.22S163.19,89.35,164.06,89Z"/><path class="cls-27" d="M190,101.34c2.38-.29,6-.14,7.69-2.25.16-.18.5,0,.38.22-1.28,2.38-5.55,2.86-7.92,2.66C189.83,101.94,189.58,101.4,190,101.34Z"/><path class="cls-27" d="M213.07,112.21c0-.31.44-.27.51,0,2.11,7.73,5.28,16.34,4.53,24.39-.05.56-.86.21-.94-.18C215.6,128.37,214.39,120.27,213.07,112.21Z"/><path class="cls-27" d="M175.87,155.29c4-5.86,11.29-9.55,16.9-13.66.22-.16.63.16.39.36-5.42,4.62-10.65,9.91-16.6,13.81C176.26,156,175.6,155.7,175.87,155.29Z"/><path class="cls-27" d="M167.51,133.25c0-.32.46-.22.5.05a30.45,30.45,0,0,1,.26,3.45,10.14,10.14,0,0,1,0,2.91c-.1.42-.71.28-.81-.06C166.87,137.63,167.54,135.29,167.51,133.25Z"/><path class="cls-27" d="M77,115.37c-.18-5.75-1.47-11.41-2.28-17.07,0-.32.49-.27.56,0a86.67,86.67,0,0,1,3.2,15.48c.66,5.24,1.82,11.35,1.2,16.6-.07.56-1,.35-1.11-.08A76.94,76.94,0,0,1,77,115.37Z"/><path class="cls-27" d="M78.47,133.75a.72.72,0,0,1,.86-.28.91.91,0,0,1,.65.95v.09a.64.64,0,0,1-.38.63l-.09.06c-.43.26-1-.12-1.14-.5A1,1,0,0,1,78.47,133.75Z"/></g><path class="cls-9" d="M7.43,106.44a1.73,1.73,0,0,1,1-.48,4.59,4.59,0,0,0,1.45-.68,17.52,17.52,0,0,0,3.55-2.54c.28-.31.93.17.7.52a13.52,13.52,0,0,1-2.92,2.83,4.2,4.2,0,0,1-3.3,1.18C7.51,107.23,7.07,106.77,7.43,106.44Z"/><path class="cls-9" d="M5.72,106.36c.71-.27,1.61.85.79,1.17S4.9,106.67,5.72,106.36Z"/><path class="cls-9" d="M42.42,48.33c.55.24,1.08.59,1.63.87s1.16.52,1.72.83c.32.18.06.59-.26.41-.59-.28-1.22-.52-1.85-.76A5.57,5.57,0,0,1,42,48.87C41.58,48.55,42,48.16,42.42,48.33Z"/><path class="cls-28" d="M76.55,73.23c.19-.68.88-1,1.49-1.36a25.63,25.63,0,0,1,2.39-1.23c.33-.14.95.26.69.65a16,16,0,0,1-1.67,1.91c-.7.73-1,1.42-2.14,1.13A1,1,0,0,1,76.55,73.23Z"/><path class="cls-28" d="M47.29,77.13c1.24-.56,2.34.5,3,1.4S52,80.67,52.12,81.8c.05.47-.58.53-.85.26a25,25,0,0,0-2-1.82c-.28-.23-.55-.45-.8-.69a3.08,3.08,0,0,0-.27-.25h0C47.1,79.31,46.07,77.69,47.29,77.13Z"/><path class="cls-9" d="M212.07,37.09c.72-1.48,2.52-.92,3.53-.11a4.76,4.76,0,0,1,1.92,3.35A2,2,0,0,1,216.14,43c-1.35.21-2.44-1.1-3.11-2.08S211.46,38.31,212.07,37.09Z"/><path class="cls-3" d="M144.25,84.28c-.19.42-.85.1-.86-.26-.08-1-.11-2-.2-2.91a1.26,1.26,0,0,0-.95-.43,8.31,8.31,0,0,0-1.38.47c-.53.13-1.26-.65-.74-1.08a3.06,3.06,0,0,1,2.11-.53,2.28,2.28,0,0,1,.76.26c-.05-.29-.09-.58-.16-.85a17.63,17.63,0,0,0-.54-1.83c-.59-1.6-2.91-1.91-3,.11,0,.6-.89.45-.94-.07a2.32,2.32,0,0,1,4-1.72c1.1,1.06,1.37,2.87,1.72,4.28S144.88,82.9,144.25,84.28Z"/><path class="cls-3" d="M205.11,78.65c.12,2.84,1.37,5.08,2.78,5s2.46-2.41,2.34-5.23-1.37-5.08-2.78-5S205,75.83,205.11,78.65Zm2.2-1.54c0,.92-.29,1.65-.74,1.67s-.84-.69-.88-1.59.3-1.63.74-1.65S207.28,76.23,207.31,77.11Z"/><path class="cls-3" d="M179.68,83.08c.13,2.84,1.37,5.06,2.78,5s2.47-2.41,2.34-5.25-1.36-5.06-2.77-5S179.56,80.26,179.68,83.08Zm2.21-1.54c0,.9-.3,1.64-.75,1.66s-.84-.68-.88-1.58S180.55,80,181,80,181.85,80.66,181.89,81.54Z"/><path class="cls-3" d="M207.61,70.16c0-.19-.57-.16-.66-.14-.51.06-.85.46-1.34.52-.29,0-.66-.21-.58-.53.18-.86,1.63-1.11,2.36-.92s1.39.7,1,1.45C208.24,71,207.54,70.57,207.61,70.16Z"/><path class="cls-3" d="M183,73.34c-.13-.19-.78,0-.92.07-.42.25-.59.71-1.05.91s-1.31-.24-1.14-.84A2.38,2.38,0,0,1,182,72a2,2,0,0,1,1.85,1C184.1,73.65,183.26,73.73,183,73.34Z"/><path class="cls-3" d="M203.53,92.16a4.34,4.34,0,0,1-2.29,3.23c-2.78,1.62-6.55.29-8.51-2.07-.37-.46.28-.78.67-.58,2.2,1.12,4,2.73,6.65,1.79a4,4,0,0,0,2.64-2.64c.37-1.11-1-3.42-1.3-4.57,0-.22.25-.23.29-.06C202.13,88.78,203.85,90.47,203.53,92.16Z"/><path class="cls-3" d="M199.6,99.46c-3.18,3-6.52,4.42-10.89,3.37-3.1-.75-6.29-3.73-6.92-6.9-.15-.69,1.05-.63,1.21-.05a9.14,9.14,0,0,0,5.93,5.91c3.65,1.35,7.55-.29,10.34-2.63C199.45,99,199.78,99.29,199.6,99.46Z"/><path class="cls-3" d="M118.57,133c-.24,1.79-.89,4.44,1.05,5.56,1.22.7,2.71.45,4,.51a22.19,22.19,0,0,0,5.08.22c.81-.14.63-1,.12-1.36a17.12,17.12,0,0,0,1.56-4.37,7.81,7.81,0,0,1,4.34-5.1c.2-.09.09-.28-.06-.36l.24,0c.64.08.59-.83.05-.93C129,125.92,119.75,124.77,118.57,133Zm1.91-1.06c2.09-5.68,9.31-4.55,14.07-3.86a0,0,0,0,1,0,0,7.8,7.8,0,0,0-4.69,4,33.92,33.92,0,0,0-2.3,5.81v0a38,38,0,0,1-6-.33C119.14,137.31,119.92,133.43,120.48,131.92Z"/><path class="cls-29" d="M180.62,140c.63-2.74,1.81-5.27,2.38-8.06a54.46,54.46,0,0,0,1.17-9.35c0-.28.42-.2.43,0a41.39,41.39,0,0,1-2.7,17.77C181.62,141.15,180.45,140.75,180.62,140Z"/><path class="cls-29" d="M146.48,127.91c3.6-2.79,8.13-3.94,11.52-7.11.14-.13.4.09.27.25a27.73,27.73,0,0,1-11.3,7.43C146.67,128.58,146.15,128.19,146.48,127.91Z"/></g></g></g></svg>