<svg xmlns="http://www.w3.org/2000/svg" xmlns:xlink="http://www.w3.org/1999/xlink" viewBox="0 0 103.45 134.75"><defs><style>.cls-1,.cls-3{mask:url(#mask);}.cls-1{filter:url(#luminosity-noclip-3);}.cls-10,.cls-13,.cls-14,.cls-15,.cls-2,.cls-23,.cls-9{mix-blend-mode:multiply;}.cls-2{fill:url(#radial-gradient);}.cls-4{isolation:isolate;}.cls-5{fill:#925f2d;}.cls-6{fill:#fecb27;}.cls-7{fill:#e8960e;}.cls-22,.cls-8{fill:#fff;}.cls-9{opacity:0.5;}.cls-11{fill:#00b0ef;}.cls-12{fill:#0065d0;}.cls-13{fill:url(#radial-gradient-3);}.cls-14{fill:#84d1f6;}.cls-15{fill:#1cb6f0;opacity:0.3;}.cls-16{fill:#72bb32;}.cls-17{fill:#098137;}.cls-18{opacity:0.4;}.cls-18,.cls-21{mix-blend-mode:screen;}.cls-19{fill:#b8d424;}.cls-20{mask:url(#mask-3);}.cls-21{fill:url(#radial-gradient-4);}.cls-22{mix-blend-mode:overlay;}.cls-23{fill:#22613c;opacity:0.7;}.cls-24{filter:url(#luminosity-noclip);}</style><filter id="luminosity-noclip" x="23.51" y="-8454.51" width="68.24" height="32766" filterUnits="userSpaceOnUse" color-interpolation-filters="sRGB"><feFlood flood-color="#fff" result="bg"/><feBlend in="SourceGraphic" in2="bg"/></filter><mask id="mask" x="23.51" y="-8454.51" width="68.24" height="32766" maskUnits="userSpaceOnUse"><g class="cls-24"/></mask><radialGradient id="radial-gradient" cx="351.35" cy="96.27" r="97.23" gradientTransform="matrix(-1.05, 0, 0, 1, 376.24, -0.55)" gradientUnits="userSpaceOnUse"><stop offset="0"/><stop offset="0.37" stop-color="#020202"/><stop offset="0.51" stop-color="#090909"/><stop offset="0.6" stop-color="#141414"/><stop offset="0.68" stop-color="#252525"/><stop offset="0.75" stop-color="#3b3b3b"/><stop offset="0.8" stop-color="#575757"/><stop offset="0.86" stop-color="#777"/><stop offset="0.91" stop-color="#9d9d9d"/><stop offset="0.95" stop-color="#c8c8c8"/><stop offset="0.99" stop-color="#f6f6f6"/><stop offset="1" stop-color="#fff"/></radialGradient><radialGradient id="radial-gradient-3" cx="294.09" cy="40.49" r="62.85" gradientTransform="matrix(-1.05, 0, 0, 1, 376.24, -0.55)" gradientUnits="userSpaceOnUse"><stop offset="0" stop-color="#fff"/><stop offset="0.39" stop-color="#fdfdfd"/><stop offset="0.53" stop-color="#f6f6f6"/><stop offset="0.63" stop-color="#ebebeb"/><stop offset="0.71" stop-color="#dadada"/><stop offset="0.77" stop-color="#c4c4c4"/><stop offset="0.84" stop-color="#a8a8a8"/><stop offset="0.89" stop-color="#888"/><stop offset="0.94" stop-color="#626262"/><stop offset="0.99" stop-color="#393939"/><stop offset="1" stop-color="#2b2b2b"/></radialGradient><filter id="luminosity-noclip-3" x="23.51" y="11.33" width="68.24" height="71.87" filterUnits="userSpaceOnUse" color-interpolation-filters="sRGB"><feFlood flood-color="#fff" result="bg"/><feBlend in="SourceGraphic" in2="bg"/></filter><mask id="mask-3" x="23.51" y="11.33" width="68.24" height="71.87" maskUnits="userSpaceOnUse"><g class="cls-1"><path class="cls-2" d="M28.52,24.56a42.58,42.58,0,0,1,7.25,4.65c1.15.93,2.74,2.28,4.32,2.41a7.87,7.87,0,0,0,4.78-.93c1.75-.9,3.47-2.94,5.61-2.9,6.83.12,8.23,11.92,16.26,9.49,4.48-1.34,7.6-.53,10.6,3,1.5,1.78,4.75,6,2.71,8.37-2.19,2.6-7.47,2.23-8.58,5.93-1,3.49.55,6.77,1.84,10,2.09,5.26,4.94,10.62,3,16.32-.33,1,1,2.76,2.23,2.12a19.85,19.85,0,0,0,9.33-11.15C90.43,65,92.2,57.59,91.66,50.23A38.73,38.73,0,0,0,89,39,43.42,43.42,0,0,0,74.58,20.35c-9.33-7-22.34-10.39-33.81-8.5C30.62,13.52,29.12,15.79,24.18,20,21.74,22.09,26.68,23.62,28.52,24.56Z"/></g></mask><radialGradient id="radial-gradient-4" cx="351.35" cy="96.27" r="97.23" gradientTransform="matrix(-1.05, 0, 0, 1, 376.24, -0.55)" gradientUnits="userSpaceOnUse"><stop offset="0" stop-color="#2b2b2b"/><stop offset="0.39" stop-color="#2d2d2d"/><stop offset="0.53" stop-color="#343434"/><stop offset="0.63" stop-color="#3f3f3f"/><stop offset="0.71" stop-color="#505050"/><stop offset="0.77" stop-color="#666"/><stop offset="0.84" stop-color="#828282"/><stop offset="0.89" stop-color="#a2a2a2"/><stop offset="0.94" stop-color="#c8c8c8"/><stop offset="0.99" stop-color="#f1f1f1"/><stop offset="1" stop-color="#fff"/></radialGradient></defs><g class="cls-4"><g id="Layer_2" data-name="Layer 2"><g id="Layer_1-2" data-name="Layer 1"><rect class="cls-5" x="52.92" y="107.96" width="4.9" height="10.97"/><rect class="cls-6" x="51.53" y="118.42" width="7.67" height="2.11"/><path class="cls-7" d="M76.68,131.45S60.4,138.5,34.07,132c0,0,4.88-12,22.16-11.85C72.88,120.32,76.68,131.45,76.68,131.45Z"/><path class="cls-8" d="M59.52,121.79S67.19,124,71,130.69l3.48-1.13S68.93,121.68,59.52,121.79Z"/><g class="cls-9"><path class="cls-7" d="M56.23,120.14a35.38,35.38,0,0,1,4,.28c-5.63.23-16.83,2.07-22.05,12.49-1.34-.27-2.71-.57-4.12-.92C34.07,132,39,120,56.23,120.14Z"/></g><polygon class="cls-5" points="33.29 97.32 31.43 101.86 27.93 101.05 29.57 95.8 33.29 97.32"/><path class="cls-5" d="M58.8,15s4-10.33,4.72-12.77C63.91,1,61.26-.34,60.36,1.08s-4.72,12.84-4.72,12.84Z"/><path class="cls-6" d="M50.36,7.21S104.61,18.27,94.27,64.9c-7.7,29.57-31,46.87-68.75,34.37l-3.12,7.94s42.7,16.28,66.82-14.67C110.9,65.1,114.22,18.27,52.68,0Z"/><path class="cls-5" d="M32.12,103.77a.27.27,0,0,0,.23-.16l.71-2.22a.25.25,0,0,0-.15-.3.25.25,0,0,0-.31.15l-.71,2.22a.24.24,0,0,0,.15.3Z"/><path class="cls-5" d="M41.71,105.28a.24.24,0,0,0,.24-.21l.24-2.08a.24.24,0,0,0-.21-.27.25.25,0,0,0-.27.21L41.47,105a.24.24,0,0,0,.21.27Z"/><path class="cls-5" d="M52.37,105.93a.24.24,0,0,0,.24-.24v-2.25a.24.24,0,0,0-.24-.24.23.23,0,0,0-.24.24v2.25A.24.24,0,0,0,52.37,105.93Z"/><path class="cls-5" d="M62.22,103.92s.07,0,.09,0a.22.22,0,0,0,.13-.31l-.72-1.69a.23.23,0,0,0-.31-.12.23.23,0,0,0-.13.31l.72,1.68A.23.23,0,0,0,62.22,103.92Z"/><path class="cls-5" d="M71,100.56a.27.27,0,0,0,.14,0,.26.26,0,0,0,.05-.34L70,98.65a.25.25,0,0,0-.34-.05.26.26,0,0,0-.06.34l1.13,1.52A.26.26,0,0,0,71,100.56Z"/><path class="cls-5" d="M79.76,94.47a.3.3,0,0,0,.16,0,.24.24,0,0,0,0-.34L78.68,92.4a.23.23,0,0,0-.34,0,.23.23,0,0,0,0,.33l1.27,1.68A.23.23,0,0,0,79.76,94.47Z"/><path class="cls-5" d="M86.74,87.09a.22.22,0,0,0,.19-.09.23.23,0,0,0,0-.33l-1.68-1.36a.24.24,0,0,0-.34,0,.25.25,0,0,0,0,.34L86.58,87A.25.25,0,0,0,86.74,87.09Z"/><path class="cls-5" d="M92.51,78.12a.26.26,0,0,0,.21-.12.25.25,0,0,0-.09-.33l-2.32-1.28a.26.26,0,0,0-.34.09.24.24,0,0,0,.1.33l2.32,1.28A.18.18,0,0,0,92.51,78.12Z"/><path class="cls-5" d="M97.48,65.14a.24.24,0,0,0,0-.48l-3.05-.4a.24.24,0,0,0-.27.21.25.25,0,0,0,.21.27l3,.4Z"/><path class="cls-5" d="M95.56,50.8h0l2.65-.39a.26.26,0,0,0,.2-.28.26.26,0,0,0-.28-.2l-2.64.4a.24.24,0,0,0,0,.48Z"/><path class="cls-5" d="M93.39,40.62h.1l2.56-1.13a.23.23,0,0,0,.12-.31.23.23,0,0,0-.31-.13L93.3,40.16a.26.26,0,0,0-.14.32A.27.27,0,0,0,93.39,40.62Z"/><path class="cls-5" d="M87.39,29.64a.23.23,0,0,0,.11,0L90,28.09a.24.24,0,0,0-.25-.41L87.26,29.2a.25.25,0,0,0-.09.34A.3.3,0,0,0,87.39,29.64Z"/><path class="cls-5" d="M81.61,23a.24.24,0,0,0,.19-.08l1.76-2.16a.26.26,0,0,0,0-.35.24.24,0,0,0-.33,0L81.42,22.6a.25.25,0,0,0,0,.34A.21.21,0,0,0,81.61,23Z"/><path class="cls-5" d="M72.16,16.35a.24.24,0,0,0,.21-.14L73.57,14a.25.25,0,0,0-.09-.33.24.24,0,0,0-.33.1L72,16a.23.23,0,0,0,.1.33A.2.2,0,0,0,72.16,16.35Z"/><path class="cls-5" d="M60.29,10.5a.23.23,0,0,0,.23-.15l1-2.64a.26.26,0,0,0-.14-.32.23.23,0,0,0-.31.13l-1,2.64a.25.25,0,0,0,.13.32Z"/><g class="cls-10"><path class="cls-6" d="M99.42,54.76c-.88,26.75-24.6,65.62-75.58,48.77l1.68-4.26c37.74,12.5,61.05-4.8,68.75-34.37C104.61,18.27,50.36,7.21,50.36,7.21l.89-2.75C59.77,6.41,100.06,17.6,99.42,54.76Z"/></g><path class="cls-11" d="M.08,55.39C.08,79.9,20.8,99.76,46.37,99.76S92.66,79.9,92.66,55.39,71.93,11,46.37,11,.08,30.89.08,55.39Z"/><path class="cls-12" d="M0,54.59c0-.52,0-1.31.09-2.33a40.94,40.94,0,0,1,1.5-8.74A44.29,44.29,0,0,1,7.36,30.91,45.84,45.84,0,0,1,20.29,18a48.84,48.84,0,0,1,9.53-4.8A47.14,47.14,0,0,1,41,10.57c1-.12,2-.16,3-.24s2-.08,3-.05l1.53,0c.51,0,1,.07,1.54.1,1,.05,2.06.2,3.1.32A47.14,47.14,0,0,1,85.5,30.5a44.41,44.41,0,0,1,5.72,11.87,43.31,43.31,0,0,1,1.42,6.44,47,47,0,0,1,.43,6.59,44.06,44.06,0,0,1-7.94,24.66A47.36,47.36,0,0,1,65.3,96.32a48,48,0,0,1-24.25,3.78,47.41,47.41,0,0,1-11.2-2.56,48.24,48.24,0,0,1-9.53-4.78A45.32,45.32,0,0,1,7.37,79.88,44.61,44.61,0,0,1,1.62,67.26,40.35,40.35,0,0,1,.11,58.52C0,57.5,0,56.73,0,56.19s0-.79,0-.79S0,55.12,0,54.59Zm.16,1.6c0,.53,0,1.31.12,2.33a40.26,40.26,0,0,0,1.59,8.67,38.05,38.05,0,0,0,2.26,5.9,41.7,41.7,0,0,0,3.78,6.44A46,46,0,0,0,21,91.81a48.73,48.73,0,0,0,20.22,7c.95.12,1.92.17,2.89.24s2,.09,2.94,0l1.51,0c.5,0,1-.06,1.49-.08,1,0,2-.18,3-.29a48.44,48.44,0,0,0,6-1.17c1-.23,2-.58,3-.88S64,96,65,95.6A44.71,44.71,0,0,0,84.73,79.8a43,43,0,0,0,5.66-11.62,41.53,41.53,0,0,0,1.42-6.32,46.73,46.73,0,0,0,.43-6.46,43.09,43.09,0,0,0-7.87-24.19A45.51,45.51,0,0,0,64.8,15.52c-.94-.42-1.93-.74-2.9-1.11S60,13.75,59,13.51a45.76,45.76,0,0,0-6-1.25c-1-.12-2-.27-3-.32-.5,0-1-.09-1.49-.11L47,11.8l-.71,0-.75,0-1.49,0c-1,.08-1.91.11-2.87.23A48,48,0,0,0,21,19,46,46,0,0,0,7.94,31.27,42.94,42.94,0,0,0,4.16,37.7a38,38,0,0,0-2.25,5.9A40.55,40.55,0,0,0,.3,52.27c-.11,1-.09,1.8-.12,2.33l0,.79S.16,55.67.18,56.19Z"/><path class="cls-13" d="M.08,55.12c0,24.5,20.72,44.36,46.29,44.36S92.66,79.62,92.66,55.12,71.93,10.75,46.37,10.75.08,30.62.08,55.12Z"/><path class="cls-14" d="M57.18,97.84c-.53.28-1,.6-1.56.87l-.53.25-.82.14c-.37-.69-.72-1.39-1.09-2.08a6.47,6.47,0,0,1,.35-1,9.44,9.44,0,0,0,.82-2,4.34,4.34,0,0,0-.64-3.53c-1-1.27-2.67-2.67-2.93-4.29A2.59,2.59,0,0,0,50.42,85c-1.17-1.63-2.87-2.87-4.16-4.46C44.55,78.43,44,76.41,43,73.94c-.82-2.17-3.22-4.18-3.07-6.61.22-3.25,4-3.43,6.43-4.52s5.45-2.42,6.93-4.84c1.35-2.2,2.11-5.81,4.44-7.26,1.1-.69,1.49.07,2.47-.16.72-.17,1.36-.52,2.07-.7,2.18-.56,4,1.26,5.4,2.58.55.54,2.41,2.39,3.28,1.27,1.45-1.85,2.24-6.76-1.51-6-2.21.45-5-1.62-3.91-3.93.45-1,1.28-1.08,2.13-1.35a4,4,0,0,0,2.19-1.21c.57-.76-.77-1.62-1.33-1.82-1.39-.53-4.08-1.32-5.35-.16-.84.77-2.14,2.73-3.4,2.54-2.71-.4-2.43-2.14-3.25-3.81-.93-1.9-3.28-1.79-5.13-1.75-2.8,0-5.47-.72-8.19.19-2.19.73-2.8-1.1-3.54-2.73-.46-1-.88-2.08-1.3-3.12A18.22,18.22,0,0,1,37,27.07c-.41-2.56,2.12-4.77,4.72-4.78,3.23,0,6.4.72,9.65.25a4.34,4.34,0,0,0,2.87-1.24c1.05-1.22,1.56-2.93,3.47-3.14a.38.38,0,0,0,.3-.59c-1.3-2.21-3.47-1.74-5.63-2.64-1.51-.62-2.21-2.13-2.78-3.8A46.38,46.38,0,0,1,87.85,35.7c-1.18.06-2.94.11-3.49,1a3.53,3.53,0,0,0-.56,1.81c-.13,1.59-.7,2-2.06,2.55-4.1,1.52-2.29,8.1-4.82,10.83-1,1.1-3.83,4.21-.81,5a20.19,20.19,0,0,0,3.56.28c4.3.37.17,4.17-1.24,5.39-3,2.57-1.19,4.28.76,7,1.09,1.52-1.82,3.41-2.42,5-.92,2.5-.73,4.79-1,7.36S74,84,72.57,85a16.66,16.66,0,0,0-2.42,2.09A46.05,46.05,0,0,0,65,92.64c-1.26,1.84-3.88,2.67-5.77,3.84C59,96.6,58.17,97.15,57.18,97.84Z"/><path class="cls-14" d="M.08,55.39c0,19.51,13.14,36.06,31.38,42-.2-.27-.4-.54-.61-.8-1.64-2-4.32-2.08-6.16-3.76a7.26,7.26,0,0,1-1.61-3.5,9.54,9.54,0,0,0-1.76-3.55,5.61,5.61,0,0,1-1.27-1.9,3.11,3.11,0,0,1,.75-3.06c1-1.21,2-2,.84-3.82-.46-.71-1.13-1.29-1.62-2-1.43-2,.74-4.22,2.17-5.64a2.8,2.8,0,0,1,2.49-.67c.88.1,2.36,1,3-.38a15.68,15.68,0,0,0,.76-2.94c.53-2.24,3.38-4.93-.81-6a5.81,5.81,0,0,1-3.85-2.26,13.06,13.06,0,0,1-1.41-3.25c-1-2.67-4.36,0-6.12.24-1,.12-1.5-.58-1.87-1.28-1.33-2.62-4.43-.14-6.19.84-.34.19-.66-.13-.76-.43-.42-1.24-2-3.47-.89-4.82a2.9,2.9,0,0,1,1.93-1.2c2.22-.45,1-2.15,1.87-3.11,1-1.13,2.17-.88,3.62-.47s3.42,1.2,3.56-1.06A5.56,5.56,0,0,1,18,40.21c.13-.25.48-.12.64,0,1.76,1.28,5.62,2.35,5.09-1a20.52,20.52,0,0,1-.16-4.43c.08-1.94.47-5.31-2.12-5.75a2.9,2.9,0,0,1-2.06-1.27c-.62-1.64,1.26-2.87,2.27-3.94,1.77-1.86.62-3.7-1-5.37A43.86,43.86,0,0,0,.08,55.39ZM12.4,33.11c-.07-.24,0-.49.32-.5a3.3,3.3,0,0,1,2.93,1.18,4,4,0,0,1,.3,3.33c-.09.34-.48.25-.68.09a8.79,8.79,0,0,1-2.85-3.76A.66.66,0,0,1,12.4,33.11Z"/><path class="cls-15" d="M70.65,41.58C74.56,40.06,75,36.07,77,33a10.43,10.43,0,0,1,6.2-4.5A44.25,44.25,0,0,1,86.92,34c-4.91-.3-9.43,2-9.75,7.94-.23,4.13,1.15,7.63,3.25,11.17,2.4,4.06,6.26,8.93,6.3,13.79,0,2.4-1.93,8.68-5.79,6.47a31.59,31.59,0,0,1-4.55-3.78C75.12,68.51,71.59,66,70,68.12c-2.29,3.18.41,7.47-2.63,10.72-5.49,5.87-9.2-3.08-11.25-7C55,69.68,53.35,67,50.63,66.39a9.33,9.33,0,0,0-3.83,0c-3.33.58-4.78-3.45-4.58-5.85.22-2.63,2.61-11.13-1.62-12.26-3.05-.8-4.65,1.63-6.74,3.25-3.57,2.79-7.72-2.24-3.54-4.58a13.18,13.18,0,0,1,6-1.42c4-.17,12.76.57,12.8-5.26,0-3.33-1.74-6.33-1.72-9.65,0-6.48,5.42-1.8,8.15.38,1.92,1.52,4.41,2.69,6.6.89a10.19,10.19,0,0,0,1.92-3.07c.33-.58.77-1.61,1.41-1.94C68,25.54,68,29.42,68,30.28c-.22,3-1.34,5.78-.57,8.8C67.68,40.28,69.07,42.19,70.65,41.58Z"/><path class="cls-15" d="M85.8,51.61c-1.88-2.61-3.86-5.87-2.6-9.16,1.43-3.78,4.65-4.3,6.94-1.47a42.64,42.64,0,0,1,2.52,14.41A43.61,43.61,0,0,1,92,62.67C90.89,58.32,88.44,55.26,85.8,51.61Z"/><path class="cls-15" d="M46.37,11a47.82,47.82,0,0,1,18.72,3.79c-1.34,4.41-3.75,8.08-9.62,7.39-4.88-.58-9-3.59-14-2.12-2.94.87-4.18,3.59-4.17,6.29a13,13,0,0,0,1.66,5.2c.75,1.61,2.29,4.29.62,6a5.61,5.61,0,0,1-5.95,1.36c-5-2-.7-7.75-2.16-11.17-2-4.65-9-7-13.49-4.44-5,2.89-3.67,8.61.1,12,2.82,2.53,10.4,7.9,4.12,11.13-3,1.55-6.36,1.4-9.47,2.53-5.38,2-6.11,6.54-2.51,10.6a13.53,13.53,0,0,0,8.08,4.11c4.42.7,8.8-2.76,13.16-1C42.6,67,25.2,85.2,39.86,89.11c5,1.31,5.48-5.06,6.83-8,2.21-4.74,5.46-1,6.71,2.18,1,2.49,1.62,5.13,2.69,7.57,2.18,5,7.28,4.26,10.24.41,2.36-3.07,4.16-8.38,9-8a41.16,41.16,0,0,0,6.59.48A47,47,0,0,1,46.37,99.76C20.8,99.76.08,79.9.08,55.39S20.8,11,46.37,11Z"/><path class="cls-16" d="M63.63,36.41c-1.25.28-1.69,1.72-2.25,2.63-1.71,2.81-2.06-.16-2.77-1.29s-.48-1.87-1.85-2.47a16.67,16.67,0,0,0-4.31-1.11,22.91,22.91,0,0,0-5.9-.35c-3.2.32-5.22.64-6.67-3-.69-1.78-2-5.39,1-6.17,2.13-.55,3.93-.16,6,.24a12.47,12.47,0,0,0,5.92,0c1.57-.41,2.59-1.92,4.19-2.44,1.16-.38,2.81-.73,3.69-1.61,1.9-1.92-.64-4.11-2.34-5.13a6.11,6.11,0,0,0-2.25-.51c-2.48-.26-3.66-1.44-4.87-3.23-.16-.22-.31-.45-.46-.68A46.38,46.38,0,0,1,87.2,34.5a1.2,1.2,0,0,1-.87.29,3.84,3.84,0,0,0-.76,0c-.49.14-1.29.31-1.55.81-.78,1.53-.78,4.29-3.22,4.5a3.72,3.72,0,0,0-1.85.53c-1.73,1.21-.83,3.86-1.42,5.56a46,46,0,0,1-4.22,9.46.85.85,0,0,0,.4,1.15c1.65.71,3.32.69,5,1.1,3.57.87-2.16,4.21-2.82,5-2.83,3.19.11,4.95,2.33,7.09A9,9,0,0,0,75,75.22c-.66,3.44-.55,7.13-3.46,9.69-2.64,2.32-5.38,4.26-7.8,6.82-2.74,2.92-6.15,4.15-9.63,5.8.69-1.82,3-3.6,2.29-5.58-.9-2.4-3.25-3.63-3.77-6.27-.24-1.12-1.39-2-2.26-2.6-1.66-1.2-3.16-2.22-3.89-4.26a36.75,36.75,0,0,0-4.85-9.45c-4.1-5.89,10.67-5.34,12.42-9.81,1.38-3.54,4.42-7.94,9-7.77,2.45.1,4,2.35,6.38,3,.28.65.64,1.21,1.17,1.35,1,.3,1.66-.88,2.16-1.56,1-1.3,2-2.82,1.53-4.5s-1.49-3.26-2-5c.75-.5,2.37-1.16,2.5-1.76a14.44,14.44,0,0,0,0-3.83,1,1,0,0,0-.67-.91C71,37.59,67.05,35.65,63.63,36.41Z"/><path class="cls-17" d="M64.83,36.26c.41,0,.81,0,1.21,0a9.61,9.61,0,0,1,1.2.16,11.74,11.74,0,0,1,1.18.24c.4.1.78.2,1.16.33s.77.23,1.15.37l2.26.81,1.15.39a1,1,0,0,1,.74.86c.05.39.05.77.08,1.16s.06.77.05,1.16a5.61,5.61,0,0,1-.07,1.16,2.56,2.56,0,0,1-.11.58,1.6,1.6,0,0,1-.42.44c-.64.47-1.39.78-2,1.22l0,0c.23.58.41,1.18.68,1.72l.79,1.71c.13.28.21.58.32.87a5.77,5.77,0,0,1,.26.9c0,.16.06.32.07.47l0,.47a4.2,4.2,0,0,1-.2.92,7.25,7.25,0,0,1-.36.87c-.16.27-.31.55-.49.81l-.55.77c-.18.25-.35.51-.54.76a3,3,0,0,1-.69.68,1.25,1.25,0,0,1-1,.18,1.35,1.35,0,0,1-.81-.57,3.61,3.61,0,0,1-.47-.83l0,0a18.41,18.41,0,0,1-4-2.22,6.59,6.59,0,0,0-1-.47L64,52l-.57-.08a6.19,6.19,0,0,0-2.22.17,8.23,8.23,0,0,0-3.76,2.29A14.46,14.46,0,0,0,54.92,58c-.17.32-.32.66-.47,1s-.27.67-.45,1a4.8,4.8,0,0,1-1.69,1.54,21.85,21.85,0,0,1-4.22,1.75c-1.44.48-2.89.92-4.27,1.51a7.32,7.32,0,0,0-1.9,1.12,2.94,2.94,0,0,0-.65.81,1.87,1.87,0,0,0-.14,1,2.76,2.76,0,0,0,.31,1c.18.33.39.63.58.94l1.23,1.86c.37.63.73,1.29,1.1,1.93s.64,1.34,1,2C46,76.74,46.4,78.18,47,79.48a7,7,0,0,0,1.31,1.71,16.94,16.94,0,0,0,1.74,1.37A18.15,18.15,0,0,1,51.84,84a4.05,4.05,0,0,1,.73.91,2.49,2.49,0,0,1,.23.55L53,86a10.31,10.31,0,0,0,2.3,3.65,10.31,10.31,0,0,1,.67.92l.32.49.23.49.12.26a.64.64,0,0,1,.06.14l.05.14a2.43,2.43,0,0,1,.1.6,3.13,3.13,0,0,1-.2,1.15c-.57,1.46-1.73,2.52-2.25,3.82L54,97.31l2.23-1c.73-.35,1.48-.68,2.19-1.06s1.41-.77,2.1-1.19c.32-.23.66-.44,1-.67l.93-.73c.59-.56,1.14-1.11,1.72-1.68s1.14-1.16,1.77-1.68,1.21-1.07,1.83-1.58l1.87-1.54c.61-.52,1.25-1,1.83-1.56a7,7,0,0,0,1.42-1.8,13,13,0,0,0,1.32-4.42L74.54,76a11.26,11.26,0,0,1,.57-2.36,8.63,8.63,0,0,1,1.2-2.16A16.9,16.9,0,0,1,78,69.72v.49c-.72-.7-1.52-1.34-2.25-2.1a6.31,6.31,0,0,1-1-1.29,3,3,0,0,1-.38-1.61,3.32,3.32,0,0,1,.51-1.57,4.76,4.76,0,0,1,.45-.66l.24-.29a2.4,2.4,0,0,1,.33-.32c.83-.65,1.65-1.23,2.39-1.89a6.35,6.35,0,0,0,1-1,1.11,1.11,0,0,0,.22-.53.35.35,0,0,0-.17-.34,3,3,0,0,0-1.29-.41c-.49-.11-1-.19-1.51-.27s-1.06-.2-1.59-.3c-.26-.06-.49-.16-.74-.24l-.37-.12-.18-.06a.45.45,0,0,1-.13-.05l-.13-.07a1.25,1.25,0,0,1-.54-.86,1.29,1.29,0,0,1,0-.28,1.68,1.68,0,0,1,.07-.27l0-.09.06-.12.09-.17L73.87,54c.52-.85.88-1.78,1.32-2.67s.76-1.84,1.15-2.76l.51-1.41c.15-.47.37-1,.46-1.38.19-.91.11-1.92.22-2.94A3.88,3.88,0,0,1,78,41.26a3,3,0,0,1,.55-.67l.15-.12.1-.07.1-.06.38-.2a6.16,6.16,0,0,1,1.61-.33,2,2,0,0,0,1.2-.54,5.93,5.93,0,0,0,1.22-2.56c.08-.24.15-.48.26-.73a3.88,3.88,0,0,1,.15-.36,1.48,1.48,0,0,1,.25-.39,3.46,3.46,0,0,1,1.54-.69h0l.82,0h0l.19,0a1.62,1.62,0,0,0,.19,0,.75.75,0,0,0,.3-.17l-.06.34-1.4-2.35L84,30l-1.7-2.17-1.83-2.07-2-2c-.7-.61-1.38-1.24-2.08-1.84s-1.45-1.15-2.2-1.71-1.52-1.08-2.3-1.58-1.58-1-2.4-1.45-1.65-.89-2.48-1.3-1.7-.79-2.57-1.15-1.75-.69-2.64-1-1.78-.58-2.69-.84-1.82-.47-2.75-.68l-2.79-.51-2.8-.35.17-.27A18.49,18.49,0,0,0,52.29,13,5.73,5.73,0,0,0,54,14.39a6.74,6.74,0,0,0,2.18.61l1.18.16.61.15c.19.08.34.14.54.24A10,10,0,0,1,60.37,17a3.72,3.72,0,0,1,1.17,2,2,2,0,0,1-.2,1.18,2.24,2.24,0,0,1-.34.49,2.78,2.78,0,0,1-.42.42,6.51,6.51,0,0,1-2.15,1,10.89,10.89,0,0,0-2.16.79c-.66.37-1.25.88-1.89,1.32a4.86,4.86,0,0,1-2.19.87,11.8,11.8,0,0,1-2.36.23,34.18,34.18,0,0,1-4.66-.67,9.38,9.38,0,0,0-4.59.19,2.16,2.16,0,0,0-1.42,1.57,5.12,5.12,0,0,0,.09,2.2,13.72,13.72,0,0,0,.7,2.14,6.92,6.92,0,0,0,1.09,2A3.28,3.28,0,0,0,43,33.84a8.19,8.19,0,0,0,2.32,0A21.63,21.63,0,0,1,50,33.81a44.8,44.8,0,0,1,4.64.73l1.14.32c.36.15.73.27,1.09.43a2.28,2.28,0,0,1,.91.71,4.63,4.63,0,0,1,.51,1,8.78,8.78,0,0,0,.52,1c.16.33.29.69.43,1a2.89,2.89,0,0,0,.57,1,.56.56,0,0,0,.53.14l.25-.14.21-.19A9.16,9.16,0,0,0,62,37.92a2.79,2.79,0,0,1,1.65-1.51ZM62,37.93a10.38,10.38,0,0,1-1.2,1.93l-.22.19c-.08.06-.17.1-.25.15a.6.6,0,0,1-.56-.14,3.09,3.09,0,0,1-.58-1c-.14-.35-.28-.71-.44-1.05a8.74,8.74,0,0,1-.52-1,5.49,5.49,0,0,0-.5-1,2.34,2.34,0,0,0-.9-.69c-.36-.16-.73-.29-1.09-.42l-1.13-.31A40.45,40.45,0,0,0,50,33.9a20.94,20.94,0,0,0-4.68.1,8.89,8.89,0,0,1-2.36,0,3.41,3.41,0,0,1-2-1.18,7,7,0,0,1-1.13-2,14,14,0,0,1-.71-2.16,4.94,4.94,0,0,1-.1-2.26,2.47,2.47,0,0,1,.52-1.05,2.57,2.57,0,0,1,1-.66,9.68,9.68,0,0,1,4.69-.21,35,35,0,0,0,4.63.64,11.17,11.17,0,0,0,2.31-.23,4.52,4.52,0,0,0,2.1-.85c.62-.43,1.21-.94,1.9-1.33a10.29,10.29,0,0,1,2.2-.82,6.52,6.52,0,0,0,2.06-1,2,2,0,0,0,.84-1.85,3.41,3.41,0,0,0-1.09-1.85,9,9,0,0,0-1.79-1.39c-.13-.07-.34-.15-.51-.23l-.53-.12c-.38-.06-.77-.11-1.16-.15a7,7,0,0,1-2.31-.64A6.63,6.63,0,0,1,52,13.19a22,22,0,0,1-1.35-1.86h0a.2.2,0,0,1,0-.11.17.17,0,0,1,.2-.14l2.84.33,2.8.51c.93.2,1.85.45,2.78.67s1.81.56,2.72.84,1.78.66,2.67,1,1.73.77,2.59,1.16,1.68.87,2.52,1.3,1.62,1,2.43,1.44,1.56,1.07,2.34,1.59,1.48,1.16,2.22,1.73,1.42,1.23,2.12,1.85,1.33,1.31,2,2l1.87,2.08,1.73,2.19L86,32l1.44,2.38v0a.24.24,0,0,1-.07.31,1.31,1.31,0,0,1-.24.17,1.39,1.39,0,0,1-.28.12l-.28.06-.27,0h0l-.68,0h0a2.76,2.76,0,0,0-1.26.52,1.09,1.09,0,0,0-.15.25,1.81,1.81,0,0,0-.14.33,6.2,6.2,0,0,0-.23.69,6.57,6.57,0,0,1-1.37,2.81A2.68,2.68,0,0,1,81,40.4a5.4,5.4,0,0,0-1.43.29,2,2,0,0,0-1,.87,3.34,3.34,0,0,0-.39,1.31c-.1,1,0,2-.2,3-.13.56-.32,1-.48,1.47L77,48.75c-.38.94-.73,1.89-1.14,2.81s-.81,1.85-1.34,2.72l-.74,1.33-.09.16,0,0v0s0-.05,0,0h0l0,.09c0,.07,0,.06,0,.09s0,.06,0,.09a.55.55,0,0,0,.24.39l0,0,.06,0,.18.06.37.12c.24.07.49.18.73.23.5.08,1,.2,1.48.27s1,.15,1.54.26a3.76,3.76,0,0,1,1.62.55,1.08,1.08,0,0,1,.44,1,1.82,1.82,0,0,1-.34.85A6.92,6.92,0,0,1,78.84,61c-.78.7-1.65,1.29-2.42,1.9a2.53,2.53,0,0,0-.22.2l-.24.3a3.19,3.19,0,0,0-.4.58,2.52,2.52,0,0,0-.42,1.25,3.33,3.33,0,0,0,1.16,2.39c.66.72,1.45,1.36,2.2,2.09h0a.32.32,0,0,1,0,.48,14.26,14.26,0,0,0-1.61,1.7,7.84,7.84,0,0,0-1.13,2,11,11,0,0,0-.55,2.25l-.35,2.33a13.75,13.75,0,0,1-1.41,4.61A8.07,8.07,0,0,1,71.88,85c-.62.55-1.23,1-1.85,1.57l-1.87,1.54c-.64.51-1.23,1-1.84,1.56s-1.17,1.1-1.75,1.64S63.4,92.47,62.83,93l-1,.77c-.33.24-.68.46-1,.69-.7.43-1.41.84-2.15,1.21s-1.47.71-2.21,1.06l-2.22,1h0a.37.37,0,0,1-.21,0,.25.25,0,0,1-.13-.33c.58-1.45,1.74-2.49,2.25-3.8a2.83,2.83,0,0,0,.18-1,1.58,1.58,0,0,0-.09-.49l0-.12s0-.07,0-.11L56,91.7l-.24-.49-.28-.45c-.18-.3-.42-.58-.64-.88a11,11,0,0,1-2.36-3.8c-.21-1.47-1.53-2.3-2.74-3.18A17.14,17.14,0,0,1,48,81.46a7.42,7.42,0,0,1-1.38-1.81c-.62-1.37-1-2.77-1.66-4.09-.33-.66-.59-1.34-.95-2s-.71-1.28-1.09-1.92l-1.2-1.85c-.2-.31-.41-.63-.6-1a3.33,3.33,0,0,1-.34-1.11A2.09,2.09,0,0,1,41,66.6a2.82,2.82,0,0,1,.73-.91,7.65,7.65,0,0,1,2-1.17c1.41-.6,2.87-1,4.32-1.5a22,22,0,0,0,4.16-1.69,4.58,4.58,0,0,0,1.6-1.45c.16-.31.31-.66.45-1s.31-.68.48-1a15,15,0,0,1,2.57-3.64,8.45,8.45,0,0,1,3.88-2.33,6.15,6.15,0,0,1,2.3-.17l.56.09.56.19a9.86,9.86,0,0,1,1,.49,18.71,18.71,0,0,0,3.9,2.23s0,0,0,0a3.92,3.92,0,0,0,.45.8,1.2,1.2,0,0,0,.69.51,1.12,1.12,0,0,0,.88-.15,2.82,2.82,0,0,0,.65-.64c.19-.25.36-.51.54-.77s.38-.5.55-.75a8.21,8.21,0,0,0,.48-.81,4.17,4.17,0,0,0,.36-.84,3.4,3.4,0,0,0,.21-.89v-.46a3.47,3.47,0,0,0-.06-.45,4.19,4.19,0,0,0-.26-.88,9.07,9.07,0,0,0-.32-.87L73,46.87c-.28-.56-.45-1.15-.68-1.74,0,0,0,0,0,0,.68-.44,1.43-.74,2.07-1.22a1.18,1.18,0,0,0,.39-.41,1.92,1.92,0,0,0,.1-.55,5.61,5.61,0,0,0,.08-1.15c0-.39,0-.78,0-1.15s0-.79-.07-1.16a1,1,0,0,0-.72-.82L73,38.23l-2.26-.82c-.38-.14-.76-.25-1.15-.37a11,11,0,0,0-1.16-.33c-.39-.09-.78-.21-1.17-.26s-.8-.15-1.2-.16-.8,0-1.21,0l-1.2.15A2.72,2.72,0,0,0,62,37.93Z"/><path class="cls-16" d="M1.34,55.45c1.23-.42,3.14-2.06,4.36-.74.19.21.68.53,1,.32l.3.14a.53.53,0,0,0,.16,0s0,.12,0,.17c.17.39.69.74,1.11.47a33.12,33.12,0,0,0,3.12-2.4c1.22-1,2.73,1.3,3.43,2a.74.74,0,0,0,.69.2c1.91-.56,5.76-2.23,6.27.67a4.05,4.05,0,0,0,1.45,2.58A20.82,20.82,0,0,0,27,61.3c1.55,1,.38,5.92-1.79,5.24s-4.23-.58-5.85.93c-1.47,1.35-4.18,3.61-4.29,5.73a2.13,2.13,0,0,0,.58,1.67c1.51,1.48,2.65,3,2,5.15-.87,2.83-1.11,3.43.11,6.28A12.79,12.79,0,0,0,22,92a28.63,28.63,0,0,1,3.84,3.13C10.75,87.82.36,72.86.28,55.57A2.31,2.31,0,0,0,1.34,55.45Z"/><path class="cls-17" d="M.82,55.57H.28l.15,3.06c.09,1,.24,2,.34,3s.39,2,.57,3,.54,2,.79,3,.67,1.94,1,2.9.82,1.89,1.22,2.82.94,1.83,1.41,2.74,1.08,1.75,1.61,2.62,1.21,1.68,1.8,2.52,1.31,1.6,2,2.39,1.42,1.51,2.13,2.26,1.53,1.4,2.29,2.11,1.62,1.3,2.44,2l2.56,1.79,2.68,1.61L26,94.79l-.4.5a26.62,26.62,0,0,0-3.45-2.82c-.61-.44-1.18-1-1.78-1.47-.27-.28-.51-.58-.77-.86a6.26,6.26,0,0,1-.72-.91l-.63-1c-.2-.33-.33-.67-.5-1s-.33-.64-.5-1-.29-.68-.4-1a5.4,5.4,0,0,1-.35-2.3A9.54,9.54,0,0,1,17,80.65c.09-.35.23-.72.28-1a4.42,4.42,0,0,0,.1-.5V78.6a4,4,0,0,0-.67-1.9,11.9,11.9,0,0,0-1.42-1.64,2.21,2.21,0,0,1-.58-1.16,2.56,2.56,0,0,1-.05-.59,3.66,3.66,0,0,1,.07-.61,8.56,8.56,0,0,1,2.57-3.81c.55-.53,1.12-1,1.67-1.54a5.19,5.19,0,0,1,2.06-1.19,5.83,5.83,0,0,1,2.38-.2,7.45,7.45,0,0,1,1.18.2,3.65,3.65,0,0,0,1,.2c.64,0,1.12-.7,1.4-1.32A5.11,5.11,0,0,0,27.46,63a2.59,2.59,0,0,0-.2-1,1.36,1.36,0,0,0-.7-.7c-.65-.39-1.32-.74-2-1.16a5.89,5.89,0,0,1-.94-.67l-.44-.36c-.15-.14-.26-.28-.4-.41a4.66,4.66,0,0,1-.68-.92l-.24-.54c-.05-.18-.09-.36-.13-.54s-.08-.37-.13-.53-.05-.18-.07-.26l-.13-.23c-.05-.17-.21-.28-.31-.41a2,2,0,0,0-.46-.28,4.13,4.13,0,0,0-2.21-.05,21.09,21.09,0,0,0-2.2.61l-.55.17a1,1,0,0,1-.6,0,1.13,1.13,0,0,1-.46-.37l-.36-.43a6.06,6.06,0,0,0-1.64-1.51,1.07,1.07,0,0,0-1,0c-.32.2-.6.47-.89.69l-.89.72-.92.65-.46.33A.76.76,0,0,1,7.9,56a1,1,0,0,1-.79-.74h0a2.49,2.49,0,0,1-.45-.18h0A.74.74,0,0,1,6,55c-.21-.13-.36-.33-.55-.47a1.41,1.41,0,0,0-.32-.17,1.37,1.37,0,0,0-.35-.08,2,2,0,0,0-.73,0,23.55,23.55,0,0,0-2.68,1.16ZM4,54.27a2,2,0,0,1,.74-.06,1.19,1.19,0,0,1,.36.09,1.48,1.48,0,0,1,.33.17c.19.14.34.33.55.46a.7.7,0,0,0,.68.09s0,0,0,0a1.67,1.67,0,0,0,.44.17h0a.9.9,0,0,0,.76.71.68.68,0,0,0,.5-.17l.45-.34.92-.66.88-.72c.29-.23.56-.49.89-.71a1.16,1.16,0,0,1,1.14,0,6.07,6.07,0,0,1,1.67,1.52c.26.26.45.63.78.75a.81.81,0,0,0,.53,0l.54-.17a22.56,22.56,0,0,1,2.21-.65,4.16,4.16,0,0,1,2.32,0,2.22,2.22,0,0,1,.52.29c.12.16.3.28.37.46l.14.26a2.29,2.29,0,0,1,.08.28,5.36,5.36,0,0,1,.14.54,3.49,3.49,0,0,0,1,1.86,4.78,4.78,0,0,0,.39.39l.43.35a8.1,8.1,0,0,0,.93.64c.62.39,1.32.73,2,1.12l.26.14.06,0,.06.07.11.09a1.52,1.52,0,0,1,.38.51A2.88,2.88,0,0,1,27.85,63a5.37,5.37,0,0,1-.41,2.24,3.58,3.58,0,0,1-.62,1,1.76,1.76,0,0,1-1.12.61,2,2,0,0,1-.66-.06l-.55-.14a8.68,8.68,0,0,0-1.1-.18,5.68,5.68,0,0,0-2.17.22,4.77,4.77,0,0,0-1.81,1.1c-.55.52-1.1,1-1.63,1.55a8,8,0,0,0-2.36,3.51,2.88,2.88,0,0,0-.06.47,2.62,2.62,0,0,0,.05.52,1.62,1.62,0,0,0,.41.8,12.23,12.23,0,0,1,1.52,1.74,4.71,4.71,0,0,1,.79,2.22,6.51,6.51,0,0,1-.42,2.28,10,10,0,0,0-.45,2.08,4.77,4.77,0,0,0,.33,2A9.48,9.48,0,0,0,18,86c.11.31.31.67.46,1s.31.68.5,1l.58.9a5.46,5.46,0,0,0,.66.86c.24.27.47.55.72.82.57.47,1.09,1,1.7,1.42a27,27,0,0,1,3.53,2.92h0a.29.29,0,0,1,0,.37.33.33,0,0,1-.45.12L22.9,93.88,20.2,92.2l-2.56-1.85c-.81-.67-1.63-1.33-2.42-2s-1.54-1.43-2.28-2.16-1.43-1.52-2.1-2.31-1.33-1.61-1.95-2.44-1.21-1.69-1.75-2.56S6.05,77.1,5.56,76.19s-1-1.83-1.37-2.77S3.37,71.54,3,70.57s-.7-1.93-1-2.91-.56-2-.76-3-.4-2-.55-3-.24-2-.33-3L.28,55.57H.82l.52-.12A25.46,25.46,0,0,1,4,54.27Z"/><path class="cls-16" d="M19.61,19.2c.24.2.46.41.67.62,2.41,2.52-1.16,5-2.51,6.91-.72,1.05-2,4-3.45,4.34s-4.22.63-3.55,2.63c.84,2.56,3.08,4.33,4.12,6.77,0,0,0,0,0,0a10.09,10.09,0,0,1,.39,1.13c.16.55.35,1.08-.54,1a4.86,4.86,0,0,1-2-.6C11.83,41.6,11,41,10,40.53a.76.76,0,0,0-.57-.05.45.45,0,0,0-.69.31c-.44,1.81-3.23,1-3.41,2.92a12.89,12.89,0,0,0,.08,1.67,12.8,12.8,0,0,1-.59,1.44,2.68,2.68,0,0,1-.65.28l-.08,0c-1.14-.3-2.47-.42-3.15.6a3.36,3.36,0,0,0-.27.49A44.13,44.13,0,0,1,19.61,19.2Z"/><path class="cls-17" d="M17.8,20.55,16.07,22l-1.67,1.5-1.57,1.58-1.5,1.65L9.91,28.42C9.46,29,9,29.59,8.58,30.19S7.74,31.41,7.34,32s-.77,1.25-1.14,1.89-.71,1.29-1,1.94-.64,1.32-.94,2-.58,1.34-.85,2-.5,1.37-.74,2.06L2,44l-.53,2.12-.42,2.14-.66-.22.23-.43,0,0v0s0,0,0,0l0,0,.09-.11L1,47.16A2.23,2.23,0,0,1,1.23,47a1.28,1.28,0,0,1,.25-.15,2.54,2.54,0,0,1,.57-.19,2.15,2.15,0,0,1,.56-.07,5.15,5.15,0,0,1,.56,0,7.21,7.21,0,0,1,1,.2H4a2.69,2.69,0,0,0,.34-.12,1.55,1.55,0,0,0,.29-.14l-.13.14.57-1.4,0,.13c0-.3-.06-.61-.07-.91V43.8a.61.61,0,0,1,0-.14l0-.14A1.79,1.79,0,0,1,5.19,43a1.28,1.28,0,0,1,.34-.46A2.69,2.69,0,0,1,6.46,42,5.71,5.71,0,0,0,8,41.32a1,1,0,0,0,.22-.25,1.12,1.12,0,0,0,.16-.36.9.9,0,0,1,.43-.57.93.93,0,0,1,.76,0H9.34a1.18,1.18,0,0,1,.45,0l.24.06.17.06.51.3,1,.57a14,14,0,0,0,2,1c.18.07.34.1.49.15s.39,0,.57.07H15s.13,0,.11,0,0,0,0-.2a9.12,9.12,0,0,0-.32-1c-.06-.17-.12-.37-.18-.5l-.24-.49a13.21,13.21,0,0,0-1.17-1.87c-.44-.61-.9-1.22-1.32-1.85a10.34,10.34,0,0,1-1.12-2l-.21-.52a2.37,2.37,0,0,1-.1-.64A1.57,1.57,0,0,1,10.94,32a5.06,5.06,0,0,1,2.25-.92c.38-.09.78-.15,1.13-.24a2.14,2.14,0,0,0,.85-.55,10.72,10.72,0,0,0,1.33-1.78c.4-.63.74-1.3,1.19-1.93a38.83,38.83,0,0,0,2.89-3.5,2.69,2.69,0,0,0,.35-2.1,4.14,4.14,0,0,0-1.32-1.78ZM21,21a2.75,2.75,0,0,1-.3,2.2A36.49,36.49,0,0,1,18,26.75c-.41.61-.73,1.29-1.12,1.95a10.36,10.36,0,0,1-1.34,1.87,2.41,2.41,0,0,1-1.05.69c-.4.11-.77.17-1.14.26a4.6,4.6,0,0,0-2,.84,1.05,1.05,0,0,0-.36.81,2.21,2.21,0,0,0,.08.46l.22.51A10,10,0,0,0,12.34,36c.43.62.9,1.21,1.36,1.82a14.94,14.94,0,0,1,1.23,2l.26.53c.09.2.13.36.2.54A8.19,8.19,0,0,1,15.74,42a1,1,0,0,1,0,.38.59.59,0,0,1-.26.44.5.5,0,0,1-.22.11l-.21.06h-.38c-.2,0-.38,0-.59-.08s-.44-.1-.63-.17a6.45,6.45,0,0,1-1.1-.51l-1-.56-1-.56-.51-.29-.1,0H9.54a.28.28,0,0,1-.22,0,.22.22,0,0,0-.15,0,1.23,1.23,0,0,0-.06.17,2,2,0,0,1-.21.46,1.6,1.6,0,0,1-.37.44,5.86,5.86,0,0,1-1.8.83,2,2,0,0,0-.67.38.7.7,0,0,0-.2.26,1,1,0,0,0-.1.33v.09s0,.05,0,.07v.68c0,.3,0,.59.07.88h0a.23.23,0,0,1,0,.12L5.2,47h0a.27.27,0,0,1-.13.13,2.41,2.41,0,0,1-.42.22l-.42.14h0a.37.37,0,0,1-.18,0,7.47,7.47,0,0,0-.92-.18,3.62,3.62,0,0,0-.46,0,1.93,1.93,0,0,0-.42.05,2.22,2.22,0,0,0-.39.12c-.07,0-.11.08-.17.11l-.15.11-.13.16-.07.07v0s0,0,0,0v0l0,.05L1,48.38H1a.36.36,0,0,1-.39.18.36.36,0,0,1-.28-.4L.78,46l.55-2.15L2,41.72c.24-.7.51-1.39.76-2.09s.59-1.36.88-2,.66-1.33,1-2,.73-1.3,1.09-1.94.8-1.26,1.19-1.89.86-1.22,1.29-1.82.92-1.19,1.38-1.78L11,26.47l1.56-1.62,1.64-1.54L16,21.85l1.79-1.37,1.86-1.28A4.27,4.27,0,0,1,21,21Z"/><path class="cls-16" d="M18.45,37.53c.86.4,2.42,1,3.33.39s.92-2,.9-3.05a11.28,11.28,0,0,0-1.25-4.39c-.38-.79-1.69-1.26-2.27-.39a5.82,5.82,0,0,0-.74,1.83c0,.12-.09.24-.13.36a7.9,7.9,0,0,0-1.11,2.42A2.91,2.91,0,0,0,18.45,37.53Z"/><path class="cls-17" d="M17.27,35.9A3.44,3.44,0,0,0,17.86,37a2.06,2.06,0,0,0,1,.66,8.86,8.86,0,0,0,1.19.34,2.59,2.59,0,0,0,1.15,0,1.3,1.3,0,0,0,.81-.67,2.56,2.56,0,0,0,.29-1,11.34,11.34,0,0,0,0-1.17c0-.4-.09-.77-.13-1.16s-.18-.76-.26-1.14l-.38-1.13-.23-.56a3.16,3.16,0,0,0-.22-.54,1.4,1.4,0,0,0-.79-.63L20,29.83l-.25,0-.22.09c-.08,0-.15.12-.23.19a4.09,4.09,0,0,0-.57,1c-.16.38-.27.77-.44,1.15h0l-.67,1.15c-.16.41-.31.83-.47,1.25A2.71,2.71,0,0,0,17.27,35.9Zm.35-2.46.63-1.19h0c.15-.38.2-.79.33-1.18a3.6,3.6,0,0,1,.53-1.17,1.17,1.17,0,0,1,.22-.23l.35-.2c.13,0,.25-.05.37-.06l.37,0a1.9,1.9,0,0,1,1.19.78,8.67,8.67,0,0,1,.58,1.13c.16.38.32.78.46,1.18s.22.81.31,1.22.1.85.11,1.27A9.07,9.07,0,0,1,23,36.29a2.83,2.83,0,0,1-.48,1.25,1.85,1.85,0,0,1-1.14.79A2.84,2.84,0,0,1,20,38.25a7,7,0,0,1-1.2-.47,2.6,2.6,0,0,1-1-.76,4.35,4.35,0,0,1-.53-1.11,2.62,2.62,0,0,1-.07-1.21Z"/><path class="cls-16" d="M66.34,46.76c.61.62,2.07,1.06,2.82.41a2.28,2.28,0,0,0,.63-1.87,1.44,1.44,0,0,0-.07-.77.3.3,0,0,0,0-.1.34.34,0,0,0-.2-.25,2,2,0,0,0-3,.12A1.84,1.84,0,0,0,66.34,46.76Z"/><path class="cls-17" d="M66.08,45.13a2.67,2.67,0,0,0-.07.47v.24l0,.22a1.31,1.31,0,0,0,.2.39l.16.18s.12.08.17.13a2.56,2.56,0,0,0,.84.34,2.32,2.32,0,0,0,.44.06h.22l.21,0c.16,0,.21-.07.32-.07l.2-.13.11-.07h0l0,0h0v0l0,0a1.53,1.53,0,0,0,.38-.67,3.38,3.38,0,0,0,.13-.87h0v0l0-.32c0-.1,0-.21,0-.31l0-.06a.37.37,0,0,0,0-.11s0,0,0,0,0,0-.06-.08l-.07,0L69.09,44l-.31-.21-.37-.13-.39,0a2.7,2.7,0,0,0-.41.05l-.4.13-.35.2-.31.27A2.23,2.23,0,0,0,66.08,45.13ZM66.85,44c.11-.07.24-.14.35-.22l.39-.17.42-.1.43,0a1.77,1.77,0,0,1,.85.27l.36.27-.07,0a.54.54,0,0,1,.27.21.44.44,0,0,1,.09.18l0,.11,0-.06c0,.15.11.29.15.45v.4a3.39,3.39,0,0,1,0,1.05,2,2,0,0,1-.55,1l-.06,0,0,0h0l0,0h0l-.1.07a1.67,1.67,0,0,1-.23.12,1.59,1.59,0,0,1-.65.14,1.79,1.79,0,0,1-.57,0,3,3,0,0,1-.53-.17,2.78,2.78,0,0,1-.9-.58.92.92,0,0,1-.19-.2l-.13-.21a1.9,1.9,0,0,1-.15-.5,1.66,1.66,0,0,1,0-.5,3.74,3.74,0,0,1,.12-.48,3.61,3.61,0,0,1,.22-.44,3.57,3.57,0,0,1,.3-.38Z"/><g class="cls-18"><path class="cls-19" d="M74.86,39.53a14.44,14.44,0,0,1,0,3.83c-.13.6-1.75,1.26-2.5,1.76.51,1.72,1.55,3.23,2,5s-.56,3.2-1.53,4.5c-.5.68-1.12,1.86-2.16,1.56-.53-.14-.89-.7-1.17-1.35-2.35-.67-3.93-2.92-6.38-3-4.61-.17-7.65,4.23-9,7.77C52.32,64,37.55,63.48,41.65,69.37a36.75,36.75,0,0,1,4.85,9.45c.73,2,2.23,3.06,3.89,4.26.87.62,2,1.48,2.26,2.6.52,2.64,2.87,3.87,3.77,6.27.75,2-1.6,3.76-2.29,5.58,3.48-1.65,6.89-2.88,9.63-5.8,2.42-2.56,5.16-4.5,7.8-6.82a9.13,9.13,0,0,0,2.78-5.45,11.21,11.21,0,0,0-1.86,1c-.34.26-.76,0-1-.28-.89-1-2.52-4.16-4-2.4a13.69,13.69,0,0,0-1.69,3.43c-.35.82-1.17,3.26-2.51,3.06a3,3,0,0,1-2.45-2.61c-.13-2.3.17-3.86-2-5.53A2.36,2.36,0,0,1,58,74.21c.07-2.74,5.64-7.39,3-9.62-1.49-1.27-3.37-3.29-2.14-5.28,1.4-2.28,3.25-5.4,6.4-5a13.49,13.49,0,0,1,4.29,1.88c1.88,1,3.1,1.26,4.52.73a3.84,3.84,0,0,1-.4-.14.85.85,0,0,1-.4-1.15,46,46,0,0,0,4.22-9.46c.59-1.7-.31-4.35,1.42-5.56a3.72,3.72,0,0,1,1.85-.53c2.44-.21,2.44-3,3.22-4.5.26-.5,1.06-.67,1.55-.81a3.84,3.84,0,0,1,.76,0,1.2,1.2,0,0,0,.87-.29c-.41-.75-.86-1.5-1.33-2.23-1.72-.13-2.71,2-4.79,3.24-.86.51-2-.09-2.62-.57a8.48,8.48,0,0,0-6.33-1.54A4.63,4.63,0,0,1,69.69,33c-2.17-1.42-3.38-3.76-5.32-5.43-3.11-2.7-3.5-3.27.51-5.69s-3.46-5.49-5.33-6.81a5.3,5.3,0,0,1-1.82-2.68,47.66,47.66,0,0,0-6.91-1.14c.15.23.3.46.46.68,1.21,1.79,2.39,3,4.87,3.23a6.11,6.11,0,0,1,2.25.51c1.7,1,4.24,3.21,2.34,5.13-.88.88-2.53,1.23-3.69,1.61-1.6.52-2.62,2-4.19,2.44a12.47,12.47,0,0,1-5.92,0c-2.09-.4-3.89-.79-6-.24-3.06.78-1.73,4.39-1,6.17,1.45,3.66,3.47,3.34,6.67,3a22.91,22.91,0,0,1,5.9.35,16.67,16.67,0,0,1,4.31,1.11c1.37.6,1.19,1.41,1.85,2.47s1.06,4.1,2.77,1.29c.56-.91,1-2.35,2.25-2.63,3.42-.76,7.4,1.18,10.56,2.21A1,1,0,0,1,74.86,39.53Zm-14.4-7c-1.21,1-3.57-.2-4.7-.72-1.55-.71-3.65-1.82-4.55-3.29-.16-.27-.35-.79,0-1,1.19-.65,2.74-1.61,4.2-1.32a2.79,2.79,0,0,1,.47.14C58.59,25.44,62.77,30.65,60.46,32.51Z"/><path class="cls-19" d="M1.34,55.45c1.23-.42,3.14-2.06,4.36-.74.19.21.68.53,1,.32l.3.14a.53.53,0,0,0,.16,0s0,.12,0,.17c.17.39.69.74,1.11.47a33.12,33.12,0,0,0,3.12-2.4,1.1,1.1,0,0,1,.63-.24c-.11.6-.18,1.21-.26,1.84-.35,2.84-2,2.45-4.17,3.19-1.43.48-1.15,2.25-.94,3.31.71,4,1.69,7.48,6.38,8a.51.51,0,0,0,.54-.53c.19-2-.73-4-.5-6,.37-3.27,3.29-.06,4.39.27A4.77,4.77,0,0,0,21.11,63c2.81-1.2,4.48.58,5.78,2.76a1.5,1.5,0,0,1-1.73.78c-2.06-.63-4.23-.58-5.85.93-1.47,1.35-4.18,3.61-4.29,5.73a2.13,2.13,0,0,0,.58,1.67c1.51,1.48,2.65,3,2,5.15-.87,2.83-1.11,3.43.11,6.28A12.79,12.79,0,0,0,22,92a28.63,28.63,0,0,1,3.84,3.13C10.75,87.82.36,72.86.28,55.57A2.31,2.31,0,0,0,1.34,55.45Z"/><path class="cls-19" d="M16.05,21.88c-.1.85-.16,1.72-.2,2.65-.15,4-4.71,2.31-6.19,5.21-.93,1.81-1.91,6.06-.89,8a3.89,3.89,0,0,0,2.06,2.1,6.78,6.78,0,0,1,2.95,2.66,4.91,4.91,0,0,1-1-.42C11.83,41.6,11,41,10,40.53a.76.76,0,0,0-.57-.05.45.45,0,0,0-.69.31c-.44,1.81-3.23,1-3.41,2.92a12.89,12.89,0,0,0,.08,1.67,12.8,12.8,0,0,1-.59,1.44,2.68,2.68,0,0,1-.65.28l-.08,0c-1.14-.3-2.47-.42-3.15.6a3.36,3.36,0,0,0-.27.49A43.9,43.9,0,0,1,16.05,21.88Z"/><path class="cls-19" d="M18.45,37.53c.86.4,2.42,1,3.33.39s.92-2,.9-3.05a11.28,11.28,0,0,0-1.25-4.39c-.38-.79-1.69-1.26-2.27-.39a5.82,5.82,0,0,0-.74,1.83c0,.12-.09.24-.13.36a7.9,7.9,0,0,0-1.11,2.42A2.91,2.91,0,0,0,18.45,37.53Z"/><path class="cls-19" d="M66.34,46.76c.61.62,2.07,1.06,2.82.41a2.28,2.28,0,0,0,.63-1.87,1.44,1.44,0,0,0-.07-.77.3.3,0,0,0,0-.1.34.34,0,0,0-.2-.25,2,2,0,0,0-3,.12A1.84,1.84,0,0,0,66.34,46.76Z"/></g><g class="cls-20"><g class="cls-20"><path class="cls-21" d="M28.52,24.56a42.58,42.58,0,0,1,7.25,4.65c1.15.93,2.74,2.28,4.32,2.41a7.87,7.87,0,0,0,4.78-.93c1.75-.9,3.47-2.94,5.61-2.9,6.83.12,8.23,11.92,16.26,9.49,4.48-1.34,7.6-.53,10.6,3,1.5,1.78,4.75,6,2.71,8.37-2.19,2.6-7.47,2.23-8.58,5.93-1,3.49.55,6.77,1.84,10,2.09,5.26,4.94,10.62,3,16.32-.33,1,1,2.76,2.23,2.12a19.85,19.85,0,0,0,9.33-11.15C90.43,65,92.2,57.59,91.66,50.23A38.73,38.73,0,0,0,89,39,43.42,43.42,0,0,0,74.58,20.35c-9.33-7-22.34-10.39-33.81-8.5C30.62,13.52,29.12,15.79,24.18,20,21.74,22.09,26.68,23.62,28.52,24.56Z"/></g></g><path class="cls-22" d="M75.18,21.09s29,23.35,10.81,54.43C86,75.52,100,45.45,75.18,21.09Z"/><path class="cls-23" d="M6.2,35.05S-4.16,66.43,15,86.31C15,86.31-8.25,69.57,6.2,35.05Z"/></g></g></g></svg>