<svg xmlns="http://www.w3.org/2000/svg" viewBox="0 0 633.93 869.34"><defs><style>.cls-1{fill:#ffc31a;}.cls-2{fill:#ffd731;}.cls-3{fill:#ffe33e;}.cls-4{fill:#9461bc;}.cls-5{fill:#a869d1;}.cls-6{fill:#bf72e8;}.cls-7{fill:#6cb753;}.cls-8{fill:#76d15d;}.cls-9{fill:#7ae261;}.cls-10{fill:#4d7739;}.cls-11{fill:#5b9144;}.cls-12{fill:#63a34b;}.cls-13{fill:#8c7c72;}.cls-14{fill:#fff543;}.cls-15{fill:#6d615a;}.cls-16{fill:#d378f9;}.cls-17{fill:#85ff6c;}</style></defs><g id="Layer_2" data-name="Layer 2"><g id="Layer_2-2" data-name="Layer 2"><path class="cls-1" d="M319.34,691.35l68.69-.26S583.51,471.92,618.74,361.43c30.44-95.49,17.73-211.94-61.87-281.26C463.1-1.5,316.73,0,316.73,0Z"/><path class="cls-2" d="M316.73,0s119.51,5.44,190,74c74.53,72.5,73.06,120.62,71.09,188.4-5.2,179-199.93,428.75-199.93,428.75l-58.53.22Z"/><path class="cls-3" d="M316.73,0s62.88,12.1,120.06,65.64c61.06,57.17,72.26,155.57,60,241.68C481.13,418.11,362.59,691.19,362.59,691.19l-43.25.16Z"/><path class="cls-4" d="M621.58,351.8,318,353l-.21-57.43,314.63-1.19A324.59,324.59,0,0,1,621.58,351.8Z"/><path class="cls-5" d="M560.79,352,316.42,353l-.22-57.43,257.16-1A417.3,417.3,0,0,1,560.79,352Z"/><path class="cls-6" d="M317.85,295.52l180.58-.68q-.72,6.27-1.59,12.48a425.93,425.93,0,0,1-9.42,45L318.06,353Z"/><path class="cls-7" d="M317.36,165.75l298.46-1.13c16,40.58,20.89,85.67,16.66,129.71l-314.63,1.19Z"/><path class="cls-8" d="M317.36,165.75l252-.95c10.41,31.37,9.51,61.73,8.47,97.58a292.52,292.52,0,0,1-2.8,32.17l-257.15,1Z"/><path class="cls-9" d="M317.36,165.75l174.51-.66c10.32,41.33,11.45,86.72,6.56,129.75l-180.58.68Z"/><polygon class="cls-9" points="487.42 352.31 421.2 464.51 395.24 352.66 487.42 352.31"/><path class="cls-8" d="M560.79,352s-71.67,113.53-72.95,112.23-.42-111.95-.42-111.95Z"/><polygon class="cls-7" points="621.58 351.8 556.53 464 560.79 352.03 621.58 351.8"/><path class="cls-10" d="M615.82,164.62l-298.46,1.13-.09-22.21,288.45-1.09A231.58,231.58,0,0,1,615.82,164.62Z"/><path class="cls-11" d="M569.33,164.8l-252,.95-.08-22.21,242.79-.92A162.35,162.35,0,0,1,569.33,164.8Z"/><path class="cls-12" d="M491.1,165.09l-174.52.66-.08-22.21,168-.63C487,150.14,489.21,157.55,491.1,165.09Z"/><polygon class="cls-13" points="392.23 691.36 353.41 742.77 362.42 786.2 356.82 786.29 348.15 742.85 385.55 691.46 392.23 691.36"/><path class="cls-1" d="M316.2,691.36H247.52S51.2,472.92,15.56,362.57C-15.24,267.19-3,150.7,76.37,81.07,169.82-.95,316.2,0,316.2,0Z"/><path class="cls-2" d="M316.2,0S196.71,5.89,126.51,74.69C52.24,147.48,53.9,195.59,56.12,263.37c5.88,179,201.55,428,201.55,428H316.2Z"/><path class="cls-3" d="M316.2,0S253.37,12.34,196.39,66.09c-60.84,57.4-71.67,155.84-59.13,241.9C153.38,418.73,273,691.36,273,691.36H316.2Z"/><path class="cls-14" d="M380.31,74.37C359.7,25,316.2,0,316.2,0h0s-43.37,25.24-63.72,74.69c-19,46.13-28.7,113.65-18.89,225.46s66.16,391.21,66.16,391.21l36.5-.09s54.89-279.69,64.12-391.55S399.52,120.39,380.31,74.37Z"/><rect class="cls-13" x="243.46" y="686.74" width="148.77" height="4.62"/><path class="cls-13" d="M276.73,785.61h85.84a0,0,0,0,1,0,0v74.63a9.11,9.11,0,0,1-9.11,9.11H285.84a9.11,9.11,0,0,1-9.11-9.11V785.61A0,0,0,0,1,276.73,785.61Z"/><path class="cls-15" d="M353.81,785.61v68a9.11,9.11,0,0,1-9.11,9.11H277.07a9.12,9.12,0,0,0,8.77,6.65h67.62a9.11,9.11,0,0,0,9.11-9.11V785.61Z"/><polygon class="cls-13" points="243.46 691.36 283.07 742.16 276.73 785.61 282.34 785.61 288.34 742.16 250.15 691.36 243.46 691.36"/><polygon class="cls-13" points="283.07 742.16 353.41 742.77 355.06 750.73 281.82 750.73 283.07 742.16"/><path class="cls-4" d="M12.69,353H316.26V295.52H1.63A323.62,323.62,0,0,0,12.69,353Z"/><path class="cls-5" d="M73.47,353H317.85V295.52H60.69A417.47,417.47,0,0,0,73.47,353Z"/><path class="cls-6" d="M316.2,295.52H135.62q.74,6.28,1.64,12.47a423.72,423.72,0,0,0,9.58,45H316.2Z"/><path class="cls-16" d="M233.28,295.18c.13,1.54.26,3.08.4,4.63,1.31,15,3.45,32.91,6.19,52.8H394.48c2.66-20.06,4.73-38.17,6-53.23.12-1.41.23-2.8.34-4.2Z"/><path class="cls-7" d="M316.2,165.75H17.73C1.9,206.39-2.83,251.5,1.57,295.52H316.2Z"/><path class="cls-8" d="M316.2,165.75h-252c-10.3,31.41-9.28,61.76-8.11,97.62A295.09,295.09,0,0,0,59,295.52H316.2Z"/><path class="cls-9" d="M316.2,165.75H141.69c-10.17,41.37-11.12,86.76-6.07,129.77H316.2Z"/><path class="cls-17" d="M233.2,295.52H400.71c4.13-52.28,4-94.73.63-129.77H232C228.77,200.79,228.82,243.25,233.2,295.52Z"/><polygon class="cls-9" points="239.03 352.95 316.2 464.9 393.65 352.95 239.03 352.95"/><polygon class="cls-9" points="146.84 352.95 213.49 464.9 239.03 352.95 146.84 352.95"/><path class="cls-8" d="M73.47,353s72.11,113.26,73.37,112,0-111.95,0-111.95Z"/><polygon class="cls-7" points="12.69 352.95 78.16 464.9 73.47 352.95 12.69 352.95"/><path class="cls-10" d="M17.74,165.75H316.2V143.54H27.75A230.21,230.21,0,0,0,17.74,165.75Z"/><path class="cls-11" d="M64.22,165.75h252V143.54H73.41A162.05,162.05,0,0,0,64.22,165.75Z"/><path class="cls-12" d="M142.46,165.75H317V143.54H149Q145.23,154.42,142.46,165.75Z"/><path class="cls-7" d="M231.51,165.75H401.32c-.75-7.87-1.65-15.36-2.7-22.52H234.11Q232.58,154,231.51,165.75Z"/></g></g></svg>