<svg xmlns="http://www.w3.org/2000/svg" viewBox="0 0 634.04 869.34"><defs><style>.cls-1{fill:#bf72e8;}.cls-2{fill:#a667ce;}.cls-3{fill:#5f99ff;}.cls-4{fill:#83e8ff;}.cls-5{fill:#8c7c72;}.cls-6{fill:#ff440b;}.cls-7{fill:#ff9c1a;}.cls-8{fill:#ffe33e;}.cls-9{fill:#84d359;}.cls-10{fill:#6d615a;}.cls-11{fill:#fff;opacity:0.22;}.cls-12{fill:#78bc51;}.cls-13{fill:#558de0;}.cls-14{fill:#76d3e2;}</style></defs><g id="Layer_2" data-name="Layer 2"><g id="Layer_2-2" data-name="Layer 2"><path class="cls-1" d="M319.34,691.35l68.69-.26S583.51,471.92,618.74,361.43c30.44-95.49,17.73-211.94-61.87-281.26C463.1-1.5,316.73,0,316.73,0Z"/><path class="cls-2" d="M622.55,357.05c9.59-30.1,12.09-99.58,11.38-94.3-4.09,30.47-7.54,36.54-9.62,43.11a624.76,624.76,0,0,1-80.65,165,615.13,615.13,0,0,1-67.23,81.82c-29.13,29.77-61.19,56.52-90.56,86-13.12,13.18-26.61,30.18-24.21,48.07l30.18-.11S587.32,467.53,622.55,357.05Z"/><path class="cls-3" d="M316.73,0s119.51,5.44,190,74c74.54,72.5,73.06,120.62,71.09,188.4-5.2,179-199.93,428.75-199.93,428.75l-58.53.22Z"/><path class="cls-4" d="M316.73,0s62.88,12.1,120.06,65.64c61.06,57.17,72.26,155.57,60,241.68C481.13,418.11,362.59,691.19,362.59,691.19l-43.25.16Z"/><polygon class="cls-5" points="392.23 691.36 353.41 742.77 362.42 786.2 356.82 786.29 348.15 742.85 385.55 691.46 392.23 691.36"/><path class="cls-6" d="M316.2,691.36H247.52S51.21,472.92,15.56,362.57C-15.24,267.19-3,150.7,76.37,81.07,169.82-.95,316.2,0,316.2,0Z"/><path class="cls-7" d="M316.2,0S196.71,5.89,126.51,74.69C52.24,147.48,53.9,195.59,56.12,263.37c5.88,179,201.55,428,201.55,428H316.2Z"/><path class="cls-8" d="M316.2,0S253.37,12.34,196.39,66.09c-60.85,57.4-71.67,155.84-59.13,241.9C153.38,418.73,273,691.36,273,691.36H316.2Z"/><path class="cls-9" d="M380.31,74.37C359.7,25,316.2,0,316.2,0h0s-43.37,25.24-63.72,74.69c-19,46.13-28.7,113.65-18.89,225.46s66.16,391.21,66.16,391.21l36.5-.09s54.89-279.69,64.12-391.55S399.52,120.39,380.31,74.37Z"/><rect class="cls-5" x="243.46" y="686.74" width="148.77" height="4.62"/><path class="cls-5" d="M276.73,785.61h85.84a0,0,0,0,1,0,0v74.63a9.11,9.11,0,0,1-9.11,9.11H285.84a9.11,9.11,0,0,1-9.11-9.11V785.61A0,0,0,0,1,276.73,785.61Z"/><path class="cls-10" d="M353.81,785.61v68a9.11,9.11,0,0,1-9.11,9.11H277.07a9.12,9.12,0,0,0,8.77,6.65h67.62a9.11,9.11,0,0,0,9.11-9.11V785.61Z"/><polygon class="cls-5" points="243.46 691.36 283.07 742.16 276.73 785.61 282.34 785.61 288.34 742.16 250.15 691.36 243.46 691.36"/><polygon class="cls-5" points="283.07 742.16 353.41 742.77 355.06 750.73 281.82 750.73 283.07 742.16"/><path class="cls-11" d="M253.61,238.72c1.27,6.59,2.89,13.4,7.09,18.64s11.71,8.42,17.83,5.66c6.92-3.11,9-11.76,10-19.29,6.77-53.93-2.87-111.2,18.82-161,4.7-10.8,10.91-22.83,6.32-33.68-7.19-17-25.6-11.81-33.08.13-10.74,17.13-17.19,39.11-22.31,58.5A295.93,295.93,0,0,0,253.61,238.72Z"/><path class="cls-11" d="M154.48,212.62c.44,6.75,2,14.63,8.16,17.49,4.57,2.13,10.24.43,13.94-3s5.79-8.24,7.31-13.05c10.66-33.56-.71-72.53,15.71-103.68C210.3,90.08,234,76.22,240.65,54c-25.64-13.29-54.71,39.51-64,57.15C160.26,142.1,152.19,177.58,154.48,212.62Z"/><path class="cls-11" d="M73.53,176.75c-5.49,14-9.72,30.33-2.73,43.66,1.49,2.85,3.61,5.57,6.61,6.72,6.67,2.54,13.45-3.7,16.71-10,6.54-12.76,7-27.62,9.31-41.76a153.11,153.11,0,0,1,40.48-80.72c9.37-9.74,20.43-18.81,24.81-31.59.73-2.15-14-.27-15.6.6-3.81,2-5.86,6.33-8.79,9.37-9.79,10.2-19.84,19.81-28.69,30.91A281.93,281.93,0,0,0,73.53,176.75Z"/><path class="cls-11" d="M20.1,191c-3.41,10.82-6,22.91-1.3,33.22,1,2.14,2.39,4.25,4.53,5.22,5.6,2.54,11-3.91,13.17-9.67,5.44-14.77,5.37-30.93,8.58-46.34,6.84-32.94,28.14-60.72,48.83-87.25,1.21-1.55-11.19.24-12.62,1.08-2.9,1.71-5.32,6.65-7.41,9.17C66.16,105.7,58.52,114.86,51.79,125A259.59,259.59,0,0,0,20.1,191Z"/><path class="cls-12" d="M323.7,686.74l13.87,0S392.46,407,401.69,295.16c2-24.23,3.09-46.37,3.38-66.66-9.54,15.8-8.68,46.2-11.53,62.81-4.49,26.17-9.37,52.27-15.36,78.13-7.4,31.9-16.47,63.41-22.92,95.51-5,24.94-8.41,50.17-11.81,75.38Q333.58,613.53,323.7,686.74Z"/><path class="cls-13" d="M381.14,686.76S571.65,435.91,578.4,257c-2.36,1.27-16.38,49.25-21,65.82-6.92,24.69-19.71,42.32-28.58,66.36-21.78,59-41.8,88.42-86.54,164.33-24.87,42.2-63.64,82.43-76.53,129.69a33.53,33.53,0,0,0-.77,3.59Z"/><path class="cls-14" d="M364.55,686.75S483.09,413.68,498.8,302.88c3.42-24.13,2.81-50.29,2-75.17-6.51,9-5.58,36.59-7.26,44.55Q482.86,322.69,469,372.37a1608.3,1608.3,0,0,1-69.17,197q-23.4,54.93-50.83,108a42.19,42.19,0,0,0-3.62,9.49Z"/></g></g></svg>