<svg xmlns="http://www.w3.org/2000/svg" viewBox="0 0 364.68 182.34"><defs><style>.cls-1{fill:#fe3e33;}.cls-2{fill:#ffa400;}.cls-3{fill:#ffe300;}.cls-4{fill:#66c232;}.cls-5{fill:#2ecfff;}.cls-6{fill:#0051de;}.cls-7{fill:#763dff;}</style></defs><g id="Layer_2" data-name="Layer 2"><g id="Layer_1-2" data-name="Layer 1"><path class="cls-1" d="M357.45,182.34a175.11,175.11,0,1,0-350.22,0H0a182.34,182.34,0,1,1,364.68,0Z"/><path class="cls-2" d="M350.22,182.34a167.88,167.88,0,1,0-335.76,0H7.23a175.11,175.11,0,1,1,350.22,0Z"/><path class="cls-3" d="M343,182.34a160.66,160.66,0,1,0-321.31,0H14.46a167.88,167.88,0,1,1,335.76,0Z"/><path class="cls-4" d="M335.76,182.34a153.43,153.43,0,1,0-306.85,0H21.68a160.66,160.66,0,1,1,321.31,0Z"/><path class="cls-5" d="M328.54,182.34a146.2,146.2,0,1,0-292.4,0H28.91a153.43,153.43,0,1,1,306.85,0Z"/><path class="cls-6" d="M321.31,182.34a139,139,0,1,0-277.94,0H36.14a146.2,146.2,0,1,1,292.4,0Z"/><path class="cls-7" d="M314.08,182.34a131.74,131.74,0,1,0-263.48,0H43.37a139,139,0,1,1,277.94,0Z"/></g></g></svg>